P3
96 54
255
17 16 16 17 16 16 17 16 16 17 16 16 17 16 16 17 16 16 17 16 16 17 16 16 17 16 16 17 16 16 16 16 16 17 16 16 17 16 16 17 16 16 17 16 16 17 16 16 17 16 16 17 16 16 17 16 16 17 16 16 17 16 16 17 16 16 17 16 16 17 16 16 17 16 16 17 16 16 17 16 16 17 16 16 17 16 16 17 16 16 17 16 16 17 16 16 17 16 16 17 16 16 17 16 16 17 16 16 17 16 16 17 16 16 17 16 16 17 16 16 17 16 16 17 16 16 17 16 16 17 16 16 17 16 16 17 16 16 17 16 16 17 16 16 17 16 16 17 16 16 17 16 16 17 16 16 17 16 16 17 16 16 17 16 16 17 16 16 17 16 16 17 16 16 17 16 16 17 16 16 17 16 16 17 16 16 17 16 16 17 16 16 17 16 16 17 16 16 17 16 16 17 16 16 17 16 16 17 16 16 17 16 16 17 16 16 17 16 16 17 16 16 17 16 16 17 16 16 17 16 16 17 16 16 17 16 16 17 16 16 17 16 16 17 16 16 17 16 16 17 16 16 17 16 16 17 16 16 17 16 16 17 16 16 17 16 16 17 16 16 17 16 16 17 16 16 17 16 16 17 16 16 17 16 16 17 16 16 
17 16 16 17 16 16 17 16 16 17 16 16 17 16 16 17 16 16 17 16 16 17 16 16 17 16 16 17 16 16 17 16 16 17 16 16 17 16 16 17 16 16 17 16 16 17 16 16 17 16 16 17 16 16 17 16 16 17 16 16 17 16 16 17 16 16 17 16 16 17 16 16 17 16 16 17 16 16 17 16 16 17 16 16 17 16 16 17 16 16 17 16 16 17 16 16 17 16 16 17 16 16 17 16 16 17 16 16 17 16 16 17 16 16 17 16 16 17 16 16 17 16 16 17 16 16 17 16 16 17 16 16 17 16 16 17 16 16 17 16 16 17 16 16 17 16 16 17 16 16 17 16 16 17 16 16 17 16 16 17 16 16 17 16 16 17 16 16 17 16 16 17 16 16 17 16 16 17 16 16 17 16 16 17 16 16 17 16 16 17 16 16 17 16 16 17 16 16 17 16 16 17 16 16 17 16 16 17 16 16 17 16 16 17 16 16 17 16 16 17 16 16 17 16 16 17 16 16 17 16 16 17 16 16 17 16 16 17 16 16 17 16 16 17 16 16 17 16 16 17 16 16 17 16 16 17 16 16 17 16 16 17 16 16 17 16 16 17 16 16 17 16 16 17 16 16 17 16 16 17 16 16 17 16 16 17 16 16 
17 16 16 17 16 16 17 16 16 17 16 16 17 16 16 17 16 16 17 16 16 17 16 16 17 16 16 17 16 16 17 16 16 17 16 16 17 16 16 17 16 16 17 16 16 17 16 16 17 16 16 17 16 16 17 16 16 17 16 16 17 16 16 17 16 16 17 16 16 17 16 16 17 16 16 17 16 16 17 16 16 17 16 16 17 16 16 17 16 16 17 16 16 17 16 16 17 16 16 17 16 16 17 16 16 17 16 16 17 16 16 17 16 16 17 16 16 17 16 16 17 16 16 17 16 16 17 16 16 17 16 16 17 16 16 17 16 16 17 16 16 17 16 16 17 16 16 17 16 16 17 16 16 17 16 16 17 16 16 17 16 16 17 16 16 17 16 16 17 16 16 17 16 16 17 16 16 17 16 16 17 16 16 17 16 16 17 16 16 17 16 16 17 16 16 17 16 16 17 16 16 17 16 16 17 16 16 17 16 16 17 16 16 17 16 16 17 16 16 17 16 16 17 16 16 17 16 16 17 16 16 17 16 16 17 16 16 17 16 16 17 16 16 17 16 16 17 16 16 17 16 16 17 16 16 17 16 16 17 16 16 17 16 16 17 16 16 17 16 16 17 16 16 17 16 16 17 16 16 17 16 16 17 16 16 17 16 16 
17 16 16 17 16 16 17 16 16 17 16 16 17 16 16 17 16 16 17 16 16 17 16 16 17 16 16 17 16 16 17 16 16 17 16 16 17 16 16 17 16 16 17 16 16 17 16 16 17 16 16 17 16 16 17 16 16 17 16 16 17 16 16 17 16 16 17 16 16 17 16 16 17 16 16 17 16 16 17 16 16 17 16 16 17 16 16 17 16 16 17 16 16 17 16 16 17 16 16 17 16 16 17 16 16 17 16 16 17 16 16 17 16 16 17 16 16 17 16 16 17 16 16 17 16 16 17 16 16 17 16 16 17 16 16 17 16 16 17 16 16 17 16 16 17 16 16 17 16 16 17 16 16 17 16 16 17 16 16 17 16 16 17 16 16 17 16 16 17 16 16 17 16 16 17 16 16 17 16 16 17 16 16 17 16 16 17 16 16 17 16 16 17 16 16 17 16 16 17 16 16 17 16 16 17 16 16 17 16 16 17 16 16 17 16 16 17 16 16 17 16 16 17 16 16 17 16 16 17 16 16 17 16 16 17 16 16 17 16 16 17 16 16 17 16 16 17 16 16 17 16 16 17 16 16 17 16 16 17 16 16 17 16 16 17 16 16 17 16 16 17 16 16 17 16 16 17 16 16 17 16 16 17 16 16 17 16 16 
17 16 16 17 16 16 17 16 16 17 16 16 17 16 16 17 16 16 17 16 16 17 16 16 17 16 16 17 16 16 17 16 16 17 16 16 17 16 16 17 16 16 17 16 16 17 16 16 17 16 16 17 16 16 17 16 16 17 16 16 17 16 16 17 16 16 17 16 16 17 16 16 17 16 16 17 16 16 17 16 16 17 16 16 17 16 16 17 16 16 17 16 16 17 16 16 17 16 16 17 16 16 17 16 16 17 16 16 17 16 16 17 16 16 17 16 16 17 16 16 17 16 16 17 16 16 17 16 16 17 16 16 17 16 16 17 16 16 17 16 16 17 16 16 17 16 16 17 16 16 17 16 16 17 16 16 17 16 16 17 16 16 17 16 16 17 16 16 17 16 16 17 16 16 17 16 16 17 16 16 17 16 16 17 16 16 17 16 16 17 16 16 17 16 16 17 16 16 17 16 16 17 16 16 17 16 16 17 16 16 17 16 16 17 16 16 17 16 16 17 16 16 17 16 16 17 16 16 17 16 16 17 16 16 17 16 16 17 16 16 17 16 16 17 16 16 17 16 16 17 16 16 17 16 16 17 16 16 17 16 16 17 16 16 17 16 16 17 16 16 17 16 16 17 16 16 17 16 16 17 16 16 17 16 16 17 16 16 
17 16 16 17 16 16 17 16 16 17 16 16 17 16 16 17 16 16 17 16 16 17 16 16 17 16 16 17 16 16 17 16 16 17 16 16 17 16 16 17 16 16 17 16 16 17 16 16 17 16 16 17 16 16 17 16 16 17 16 16 17 16 16 17 16 16 17 16 16 17 16 16 17 16 16 17 16 16 17 16 16 17 16 16 17 16 16 17 16 16 17 16 16 17 16 16 17 16 16 17 16 16 17 16 16 17 16 16 17 16 16 17 16 16 17 16 16 17 16 16 17 16 16 17 16 16 17 16 16 17 16 16 17 16 16 17 16 16 17 16 16 17 16 16 17 16 16 17 16 16 17 16 16 17 16 16 17 16 16 17 16 16 17 16 16 17 16 16 17 16 16 17 16 16 17 16 16 17 16 16 17 16 16 17 16 16 17 16 16 17 16 16 17 16 16 17 16 16 17 16 16 17 16 16 17 16 16 17 16 16 17 16 16 17 16 16 17 16 16 17 16 16 17 16 16 17 16 16 17 16 16 17 16 16 17 16 16 17 16 16 17 16 16 17 16 16 17 16 16 17 16 16 17 16 16 17 16 16 17 16 16 17 16 16 17 16 16 17 16 16 17 16 16 17 16 16 17 16 16 17 16 16 17 16 16 17 16 16 
17 16 16 17 16 16 17 16 16 17 16 16 17 16 16 17 16 16 17 16 16 17 16 16 17 16 16 17 16 16 17 16 16 17 16 16 17 16 16 17 16 16 17 16 16 17 16 16 17 16 16 17 16 16 17 16 16 17 16 16 17 16 16 17 16 16 17 16 16 17 16 16 17 16 16 17 16 16 17 16 16 17 16 16 17 16 16 17 16 16 17 16 16 17 16 16 17 16 16 17 16 16 17 16 16 17 16 16 17 16 16 17 16 16 17 16 16 17 16 16 17 16 16 17 16 16 17 16 16 17 16 16 17 16 16 17 16 16 17 16 16 17 16 16 17 16 16 17 16 16 17 16 16 17 16 16 17 16 16 17 16 16 17 16 16 17 16 16 17 16 16 17 16 16 17 16 16 17 16 16 17 16 16 17 16 16 17 16 16 17 16 16 17 16 16 17 16 16 17 16 16 17 16 16 17 16 16 17 16 16 17 16 16 17 16 16 17 16 16 17 16 16 17 16 16 17 16 16 17 16 16 17 16 16 17 16 16 17 16 16 17 16 16 17 16 16 17 16 16 17 16 16 17 16 16 17 16 16 17 16 16 17 16 16 17 16 16 17 16 16 17 16 16 17 16 16 17 16 16 17 16 16 17 16 16 17 16 16 
17 16 16 17 16 16 17 16 16 17 16 16 17 16 16 17 16 16 17 16 16 17 16 16 17 16 16 17 16 16 17 16 16 17 16 16 17 16 16 17 16 16 17 16 16 17 16 16 17 16 16 17 16 16 17 16 16 17 16 16 17 16 16 17 16 16 17 16 16 17 16 16 17 16 16 17 16 16 17 16 16 17 16 16 17 16 16 17 16 16 17 16 16 17 16 16 17 16 16 17 16 16 17 16 16 17 16 16 17 16 16 17 16 16 17 16 16 17 16 16 17 16 16 17 16 16 17 16 16 17 16 16 17 16 16 17 16 16 17 16 16 17 16 16 17 16 16 17 16 16 17 16 16 17 16 16 17 16 16 17 16 16 17 16 16 17 16 16 17 16 16 17 16 16 17 16 16 17 16 16 17 16 16 17 16 16 17 16 16 17 16 16 17 16 16 17 16 16 17 16 16 17 16 16 17 16 16 17 16 16 17 16 16 17 16 16 17 16 16 17 16 16 17 16 16 17 16 16 17 16 16 17 16 16 17 16 16 17 16 16 17 16 16 17 16 16 17 16 16 17 16 16 17 16 16 17 16 16 17 16 16 17 16 16 17 16 16 17 16 16 17 16 16 17 16 16 17 16 16 17 16 16 17 16 16 17 16 16 
17 16 16 17 16 16 17 16 16 17 16 16 17 16 16 17 16 16 17 16 16 17 16 16 17 16 16 17 16 16 17 16 16 17 16 16 17 16 16 17 16 16 17 16 16 17 16 16 17 16 16 17 16 16 17 16 16 17 16 16 17 16 16 17 16 16 17 16 16 17 16 16 17 16 16 17 16 16 17 16 16 17 16 16 17 16 16 17 16 16 17 16 16 17 16 16 17 16 16 17 16 16 17 16 16 17 16 16 17 16 16 17 16 16 17 16 16 17 16 16 17 16 16 17 16 16 17 16 16 17 16 16 17 16 16 17 16 16 17 16 16 17 16 16 17 16 16 17 16 16 17 16 16 17 16 16 17 16 16 17 16 16 17 16 16 17 16 16 17 16 16 17 16 16 17 16 16 17 16 16 17 16 16 17 16 16 17 16 16 17 16 16 17 16 16 17 16 16 17 16 16 17 16 16 17 16 16 17 16 16 17 16 16 17 16 16 17 16 16 17 16 16 17 16 16 17 16 16 17 16 16 17 16 16 17 16 16 17 16 16 17 16 16 17 16 16 17 16 16 17 16 16 17 16 16 17 16 16 17 16 16 17 16 16 17 16 16 17 16 16 17 16 16 17 16 16 17 16 16 17 16 16 17 16 16 17 16 16 
17 16 16 17 16 16 17 16 16 17 16 16 17 16 16 17 16 16 17 16 16 17 16 16 17 16 16 17 16 16 17 16 16 17 16 16 17 16 16 17 16 16 17 16 16 17 16 16 17 16 16 17 16 16 17 16 16 17 16 16 17 16 16 17 16 16 17 16 16 17 16 16 17 16 16 17 16 16 17 16 16 17 16 16 17 16 16 17 16 16 17 16 16 17 16 16 17 16 16 17 16 16 17 16 16 17 16 16 17 16 16 17 16 16 17 16 16 17 16 16 17 16 16 17 16 16 17 16 16 17 16 16 17 16 16 17 16 16 17 16 16 17 16 16 17 16 16 17 16 16 17 16 16 17 16 16 17 16 16 17 16 16 17 16 16 17 16 16 17 16 16 17 16 16 17 16 16 17 16 16 17 16 16 17 16 16 17 16 16 17 16 16 17 16 16 17 16 16 17 16 16 17 16 16 17 16 16 17 16 16 17 16 16 17 16 16 17 16 16 17 16 16 17 16 16 17 16 16 17 16 16 17 16 16 17 16 16 17 16 16 17 16 16 17 16 16 17 16 16 17 16 16 17 16 16 17 16 16 17 16 16 17 16 16 17 16 16 17 16 16 17 16 16 17 16 16 17 16 16 17 16 16 17 16 16 17 16 16 
17 16 16 17 16 16 17 16 16 17 16 16 17 16 16 17 16 16 17 16 16 17 16 16 17 16 16 17 16 16 17 16 16 17 16 16 17 16 16 17 16 16 17 16 16 17 16 16 17 16 16 17 16 16 17 16 16 17 16 16 17 16 16 17 16 16 17 16 16 17 16 16 17 16 16 17 16 16 17 16 16 17 16 16 17 16 16 17 16 16 17 16 16 17 16 16 17 16 16 17 16 16 17 16 16 17 16 16 17 16 16 17 16 16 17 16 16 17 16 16 17 16 16 17 16 16 17 16 16 17 16 16 17 16 16 17 16 16 17 16 16 17 16 16 17 16 16 17 16 16 17 16 16 17 16 16 17 16 16 17 16 16 17 16 16 17 16 16 17 16 16 17 16 16 17 16 16 17 16 16 17 16 16 17 16 16 17 16 16 17 16 16 17 16 16 17 16 16 17 16 16 17 16 16 17 16 16 17 16 16 17 16 16 17 16 16 17 16 16 17 16 16 17 16 16 17 16 16 17 16 16 17 16 16 17 16 16 17 16 16 17 16 16 17 16 16 17 16 16 17 16 16 17 16 16 17 16 16 17 16 16 17 16 16 17 16 16 17 16 16 17 16 16 17 16 16 17 16 16 17 16 16 17 16 16 17 16 16 
17 16 16 17 16 16 17 16 16 17 16 16 17 16 16 17 16 16 17 16 16 17 16 16 17 16 16 17 16 16 17 16 16 17 16 16 17 16 16 17 16 16 17 16 16 17 16 16 17 16 16 17 16 16 17 16 16 17 16 16 17 16 16 17 16 16 17 16 16 17 16 16 17 16 16 17 16 16 17 16 16 17 16 16 17 16 16 17 16 16 17 16 16 17 16 16 17 16 16 17 16 16 17 16 16 17 16 16 17 16 16 17 16 16 17 16 16 17 16 16 17 16 16 17 16 16 17 16 16 17 16 16 17 16 16 17 16 16 17 16 16 17 16 16 17 16 16 17 16 16 17 16 16 17 16 16 17 16 16 17 16 16 17 16 16 17 16 16 17 16 16 17 16 16 17 16 16 17 16 16 17 16 16 17 16 16 17 16 16 17 16 16 17 16 16 17 16 16 17 16 16 17 16 16 17 16 16 17 16 16 17 16 16 17 16 16 17 16 16 17 16 16 17 16 16 17 16 16 17 16 16 17 16 16 17 16 16 17 16 16 17 16 16 17 16 16 17 16 16 17 16 16 17 16 16 17 16 16 17 16 16 17 16 16 17 16 16 17 16 16 17 16 16 17 16 16 17 16 16 17 16 16 17 16 16 17 16 16 
17 16 16 17 16 16 17 16 16 17 16 16 17 16 16 17 16 16 17 16 16 17 16 16 17 16 16 17 16 16 17 16 16 17 16 16 17 16 16 17 16 16 17 16 16 17 16 16 17 16 16 17 16 16 17 16 16 17 16 16 17 16 16 17 16 16 17 16 16 17 16 16 17 16 16 17 16 16 17 16 16 17 16 16 17 16 16 17 16 16 17 16 16 17 16 16 17 16 16 17 16 16 17 16 16 17 16 16 17 16 16 17 16 16 17 16 16 17 16 16 17 16 16 17 16 16 17 16 16 17 16 16 17 16 16 17 16 16 17 16 16 17 16 16 17 16 16 17 16 16 17 16 16 17 16 16 17 16 16 17 16 16 17 16 16 17 16 16 17 16 16 17 16 16 17 16 16 17 16 16 17 16 16 17 16 16 17 16 16 17 16 16 17 16 16 17 16 16 17 16 16 17 16 16 17 16 16 17 16 16 17 16 16 17 16 16 17 16 16 17 16 16 17 16 16 17 16 16 17 16 16 17 16 16 17 16 16 17 16 16 17 16 16 17 16 16 17 16 16 17 16 16 17 16 16 17 16 16 17 16 16 17 16 16 17 16 16 17 16 16 17 16 16 17 16 16 17 16 16 17 16 16 17 16 16 17 16 16 
17 16 16 17 16 16 17 16 16 17 16 16 17 16 16 17 16 16 17 16 16 17 16 16 17 16 16 17 16 16 17 16 16 17 16 16 17 16 16 17 16 16 17 16 16 17 16 16 17 16 16 17 16 16 17 16 16 17 16 16 17 16 16 17 16 16 17 16 16 17 16 16 17 16 16 17 16 16 17 16 16 17 16 16 17 16 16 17 16 16 17 16 16 17 16 16 17 16 16 17 16 16 17 16 16 17 16 16 17 16 16 17 16 16 17 16 16 17 16 16 17 16 16 17 16 16 17 16 16 17 16 16 17 16 16 17 16 16 17 16 16 17 16 16 17 16 16 17 16 16 17 16 16 17 16 16 17 16 16 17 16 16 17 16 16 17 16 16 17 16 16 17 16 16 17 16 16 17 16 16 17 16 16 17 16 16 17 16 16 17 16 16 17 16 16 17 16 16 17 16 16 17 16 16 17 16 16 17 16 16 17 16 16 17 16 16 17 16 16 17 16 16 17 16 16 17 16 16 17 16 16 17 16 16 17 16 16 17 16 16 17 16 16 17 16 16 17 16 16 17 16 16 17 16 16 17 16 16 17 16 16 17 16 16 17 16 16 17 16 16 17 16 16 17 16 16 17 16 16 17 16 16 17 16 16 17 16 16 
17 16 16 17 16 16 17 16 16 17 16 16 17 16 16 17 16 16 17 16 16 17 16 16 17 16 16 17 16 16 17 16 16 17 16 16 17 16 16 17 16 16 17 16 16 17 16 16 17 16 16 17 16 16 17 16 16 17 16 16 17 16 16 17 16 16 17 16 16 17 16 16 17 16 16 17 16 16 17 16 16 17 16 16 17 16 16 17 16 16 17 16 16 17 16 16 17 16 16 17 16 16 17 16 16 17 16 16 17 16 16 17 16 16 17 16 16 17 16 16 17 16 16 17 16 16 17 16 16 17 16 16 17 16 16 17 16 16 17 16 16 17 16 16 17 16 16 17 16 16 17 16 16 17 16 16 17 16 16 17 16 16 17 16 16 17 16 16 17 16 16 17 16 16 17 16 16 17 16 16 17 16 16 17 16 16 17 16 16 17 16 16 17 16 16 17 16 16 17 16 16 17 16 16 17 16 16 17 16 16 17 16 16 17 16 16 17 16 16 17 16 16 17 16 16 17 16 16 17 16 16 17 16 16 17 16 16 17 16 16 17 16 16 17 16 16 17 16 16 17 16 16 17 16 16 17 16 16 17 16 16 17 16 16 17 16 16 17 16 16 17 16 16 17 16 16 17 16 16 17 16 16 17 16 16 17 16 16 
17 16 16 17 16 16 17 16 16 17 16 16 17 16 16 17 16 16 17 16 16 17 16 16 17 16 16 17 16 16 17 16 16 17 16 16 17 16 16 17 16 16 17 16 16 17 16 16 17 16 16 17 16 16 17 16 16 17 16 16 17 16 16 17 16 16 17 16 16 17 16 16 17 16 16 17 16 16 17 16 16 17 16 16 17 16 16 17 16 16 17 16 16 17 16 16 17 16 16 17 16 16 17 16 16 17 16 16 17 16 16 17 16 16 17 16 16 17 16 16 17 16 16 17 16 16 17 16 16 17 16 16 17 16 16 17 16 16 17 16 16 17 16 16 17 16 16 17 16 16 17 16 16 17 16 16 17 16 16 17 16 16 17 16 16 17 16 16 17 16 16 17 16 16 17 16 16 17 16 16 17 16 16 17 16 16 17 16 16 17 16 16 17 16 16 17 16 16 17 16 16 17 16 16 17 16 16 17 16 16 17 16 16 17 16 16 17 16 16 17 16 16 17 16 16 17 16 16 17 16 16 17 16 16 17 16 16 17 16 16 17 16 16 17 16 16 17 16 16 17 16 16 17 16 16 17 16 16 17 16 16 17 16 16 17 16 16 17 16 16 17 16 16 17 16 16 17 16 16 17 16 16 17 16 16 17 16 16 
17 16 16 17 16 16 17 16 16 17 16 16 17 16 16 17 16 16 17 16 16 17 16 16 17 16 16 17 16 16 17 16 16 17 16 16 17 16 16 17 16 16 17 16 16 17 16 16 17 16 16 17 16 16 17 16 16 17 16 16 17 16 16 17 16 16 17 16 16 17 16 16 17 16 16 17 16 16 17 16 16 17 16 16 17 16 16 17 16 16 17 16 16 17 16 16 17 16 16 17 16 16 17 16 16 17 16 16 17 16 16 17 16 16 17 16 16 17 16 16 17 16 16 17 16 16 17 16 16 17 16 16 17 16 16 17 16 16 17 16 16 17 16 16 17 16 16 17 16 16 17 16 16 17 16 16 17 16 16 17 16 16 17 16 16 17 16 16 17 16 16 17 16 16 17 16 16 17 16 16 17 16 16 17 16 16 17 16 16 17 16 16 17 16 16 17 16 16 16 16 16 17 16 16 17 16 16 17 16 16 17 16 16 17 16 16 17 16 16 17 16 16 17 16 16 17 16 16 17 16 16 17 16 16 17 16 16 17 16 16 17 16 16 17 16 16 17 16 16 17 16 16 17 16 16 17 16 16 17 16 16 17 16 16 17 16 16 17 16 16 17 16 16 17 16 16 17 16 16 17 16 16 17 16 16 17 16 16 
11 9 9 11 9 9 11 9 9 11 9 9 11 9 9 11 9 9 11 9 9 11 9 9 11 9 9 11 9 9 11 9 9 11 9 9 11 9 9 11 9 9 11 9 9 11 9 9 11 9 9 11 9 9 11 9 9 11 9 9 11 9 9 11 9 9 11 9 9 11 9 9 11 9 9 11 9 9 11 9 9 11 9 9 11 9 9 11 9 9 11 9 9 11 9 9 11 9 9 11 9 9 11 9 9 11 9 9 11 9 9 11 9 9 11 9 9 11 9 9 11 9 9 11 9 9 11 9 9 11 9 9 11 9 9 11 9 9 11 9 9 11 9 9 11 9 9 11 9 9 11 9 9 11 9 9 11 9 9 11 9 9 11 9 9 11 9 9 11 9 9 11 9 9 11 9 9 11 9 9 11 9 9 11 9 9 11 9 9 11 9 9 11 9 9 11 9 9 11 9 9 11 9 9 11 9 9 11 9 9 11 9 9 11 9 9 11 9 9 11 9 9 11 9 9 11 9 9 11 9 9 11 9 9 11 9 9 11 9 9 11 9 9 11 9 9 11 9 9 11 9 9 11 9 9 11 9 9 11 9 9 11 9 9 11 9 9 11 9 9 11 9 9 11 9 9 11 9 9 11 9 9 11 9 9 11 9 9 
11 9 9 11 9 9 11 9 9 11 9 9 11 9 9 11 9 9 11 9 9 11 9 9 11 9 9 11 9 9 11 9 9 11 9 9 11 9 9 11 9 9 11 9 9 11 9 9 11 9 9 11 9 9 11 9 9 11 9 9 11 9 9 11 9 9 11 9 9 11 9 9 11 9 9 11 9 9 11 9 9 11 9 9 11 9 9 11 9 9 11 9 9 11 9 9 11 9 9 11 9 9 11 9 9 11 9 9 11 9 9 11 9 9 11 9 9 11 9 9 11 9 9 11 9 9 11 9 9 11 9 9 11 9 9 11 9 9 11 9 9 11 9 9 11 9 9 11 9 9 11 9 9 11 9 9 11 9 9 11 9 9 11 9 9 11 9 9 11 9 9 11 9 9 11 9 9 11 9 9 11 9 9 11 9 9 11 9 9 11 9 9 11 9 9 11 9 9 11 9 9 11 9 9 11 9 9 11 9 9 11 9 9 11 9 9 11 9 9 11 9 9 11 9 9 11 9 9 11 9 9 11 9 9 11 9 9 11 9 9 11 9 9 11 9 9 11 9 9 11 9 9 11 9 9 11 9 9 11 9 9 11 9 9 11 9 9 11 9 9 11 9 9 11 9 9 11 9 9 11 9 9 11 9 9 11 9 9 
9 9 9 11 9 9 11 9 9 11 9 9 11 9 9 11 9 9 11 9 9 11 9 9 11 9 9 11 9 9 11 9 9 11 9 9 11 9 9 11 9 9 11 9 9 11 9 9 11 9 9 11 9 9 11 9 9 11 9 9 11 9 9 11 9 9 11 9 9 11 9 9 11 9 9 11 9 9 11 9 9 11 9 9 11 9 9 11 9 9 11 9 9 11 9 9 11 9 9 11 9 9 11 9 9 11 9 9 11 9 9 11 9 9 11 9 9 11 9 9 11 9 9 11 9 9 11 9 9 11 9 9 11 9 9 11 9 9 11 9 9 11 9 9 11 9 9 11 9 9 11 9 9 11 9 9 11 9 9 11 9 9 11 9 9 11 9 9 11 9 9 11 9 9 11 9 9 11 9 9 11 9 9 11 9 9 11 9 9 11 9 9 11 9 9 11 9 9 11 9 9 11 9 9 11 9 9 11 9 9 11 9 9 11 9 9 11 9 9 11 9 9 11 9 9 11 9 9 11 9 9 11 9 9 11 9 9 11 9 9 11 9 9 11 9 9 11 9 9 11 9 9 11 9 9 11 9 9 11 9 9 11 9 9 11 9 9 11 9 9 11 9 9 11 9 9 11 9 9 11 9 9 11 9 9 11 9 9 
9 9 9 11 9 9 11 9 9 11 9 9 11 9 9 11 9 9 11 9 9 11 9 9 11 9 9 11 9 9 11 9 9 11 9 9 11 9 9 11 9 9 11 9 9 11 9 9 11 9 9 11 9 9 11 9 9 11 9 9 11 9 9 11 9 9 11 9 9 11 9 9 11 9 9 11 9 9 11 9 9 11 9 9 11 9 9 11 9 9 11 9 9 11 9 9 11 9 9 11 9 9 11 9 9 11 9 9 11 9 9 11 9 9 11 9 9 11 9 9 11 9 9 11 9 9 11 9 9 11 9 9 11 9 9 11 9 9 11 9 9 11 9 9 11 9 9 11 9 9 11 9 9 11 9 9 11 9 9 11 9 9 11 9 9 11 9 9 11 9 9 11 9 9 11 9 9 11 9 9 11 9 9 11 9 9 11 9 9 11 9 9 11 9 9 11 9 9 11 9 9 11 9 9 11 9 9 11 9 9 11 9 9 11 9 9 11 9 9 11 9 9 11 9 9 11 9 9 11 9 9 11 9 9 11 9 9 11 9 9 11 9 9 11 9 9 11 9 9 11 9 9 11 9 9 11 9 9 11 9 9 11 9 9 11 9 9 11 9 9 11 9 9 11 9 9 11 9 9 11 9 9 11 9 9 11 9 9 
9 9 9 11 9 9 11 9 9 11 9 9 11 9 9 11 9 9 11 9 9 11 9 9 11 9 9 11 9 9 11 9 9 11 9 9 11 9 9 11 9 9 11 9 9 11 9 9 11 9 9 11 9 9 11 9 9 11 9 9 11 9 9 11 9 9 11 9 9 11 9 9 11 9 9 11 9 9 11 9 9 11 9 9 11 9 9 11 9 9 11 9 9 11 9 9 11 9 9 11 9 9 11 9 9 11 9 9 11 9 9 11 9 9 11 9 9 11 9 9 11 9 9 11 9 9 11 9 9 11 9 9 11 9 9 11 9 9 11 9 9 11 9 9 11 9 9 11 9 9 11 9 9 11 9 9 11 9 9 11 9 9 11 9 9 11 9 9 11 9 9 11 9 9 11 9 9 11 9 9 11 9 9 11 9 9 11 9 9 11 9 9 11 9 9 11 9 9 11 9 9 11 9 9 11 9 9 11 9 9 11 9 9 11 9 9 11 9 9 11 9 9 11 9 9 11 9 9 11 9 9 11 9 9 11 9 9 11 9 9 11 9 9 11 9 9 11 9 9 11 9 9 11 9 9 11 9 9 11 9 9 11 9 9 11 9 9 11 9 9 11 9 9 11 9 9 11 9 9 11 9 9 11 9 9 11 9 9 
9 9 9 11 9 9 11 9 9 11 9 9 11 9 9 11 9 9 11 9 9 11 9 9 11 9 9 11 9 9 11 9 9 11 9 9 11 9 9 11 9 9 11 9 9 11 9 9 11 9 9 11 9 9 11 9 9 11 9 9 11 9 9 11 9 9 11 9 9 11 9 9 11 9 9 11 9 9 11 9 9 11 9 9 11 9 9 11 9 9 11 9 9 11 9 9 11 9 9 11 9 9 11 9 9 11 9 9 11 9 9 11 9 9 11 9 9 11 9 9 11 9 9 11 9 9 11 9 9 11 9 9 11 9 9 11 9 9 11 9 9 11 9 9 11 9 9 11 9 9 11 9 9 11 9 9 11 9 9 11 9 9 11 9 9 11 9 9 11 9 9 11 9 9 11 9 9 11 9 9 11 9 9 11 9 9 11 9 9 11 9 9 11 9 9 11 9 9 11 9 9 11 9 9 11 9 9 11 9 9 11 9 9 11 9 9 11 9 9 11 9 9 11 9 9 11 9 9 11 9 9 11 9 9 11 9 9 11 9 9 11 9 9 11 9 9 11 9 9 11 9 9 11 9 9 11 9 9 11 9 9 11 9 9 11 9 9 11 9 9 11 9 9 11 9 9 11 9 9 11 9 9 11 9 9 11 9 9 
9 9 9 11 9 9 11 9 9 11 9 9 11 9 9 11 9 9 11 9 9 11 9 9 11 9 9 11 9 9 11 9 9 11 9 9 11 9 9 11 9 9 11 9 9 11 9 9 11 9 9 11 9 9 11 9 9 11 9 9 11 9 9 11 9 9 11 9 9 11 9 9 11 9 9 11 9 9 11 9 9 11 9 9 11 9 9 11 9 9 11 9 9 11 9 9 11 9 9 11 9 9 11 9 9 11 9 9 11 9 9 11 9 9 11 9 9 11 9 9 11 9 9 11 9 9 11 9 9 11 9 9 11 9 9 11 9 9 11 9 9 11 9 9 11 9 9 11 9 9 11 9 9 11 9 9 11 9 9 11 9 9 11 9 9 11 9 9 11 9 9 11 9 9 11 9 9 11 9 9 11 9 9 11 9 9 11 9 9 11 9 9 11 9 9 11 9 9 11 9 9 11 9 9 11 9 9 11 9 9 11 9 9 11 9 9 11 9 9 11 9 9 11 9 9 11 9 9 11 9 9 11 9 9 11 9 9 11 9 9 11 9 9 11 9 9 11 9 9 11 9 9 11 9 9 11 9 9 11 9 9 11 9 9 11 9 9 11 9 9 11 9 9 11 9 9 11 9 9 11 9 9 11 9 9 11 9 9 
9 9 9 11 9 9 11 9 9 11 9 9 11 9 9 11 9 9 11 9 9 11 9 9 11 9 9 11 9 9 11 9 9 11 9 9 11 9 9 11 9 9 11 9 9 11 9 9 11 9 9 11 9 9 11 9 9 11 9 9 11 9 9 11 9 9 11 9 9 11 9 9 11 9 9 11 9 9 11 9 9 11 9 9 11 9 9 11 9 9 11 9 9 11 9 9 11 9 9 11 9 9 11 9 9 11 9 9 11 9 9 11 9 9 11 9 9 11 9 9 11 9 9 11 9 9 11 9 9 11 9 9 11 9 9 11 9 9 11 9 9 11 9 9 11 9 9 11 9 9 11 9 9 11 9 9 11 9 9 11 9 9 11 9 9 11 9 9 11 9 9 11 9 9 11 9 9 11 9 9 11 9 9 11 9 9 11 9 9 11 9 9 11 9 9 11 9 9 11 9 9 11 9 9 11 9 9 11 9 9 11 9 9 11 9 9 11 9 9 11 9 9 11 9 9 11 9 9 11 9 9 11 9 9 11 9 9 11 9 9 11 9 9 11 9 9 11 9 9 11 9 9 11 9 9 11 9 9 11 9 9 11 9 9 11 9 9 11 9 9 11 9 9 11 9 9 11 9 9 11 9 9 11 9 9 11 9 9 
9 9 9 11 9 9 11 9 9 11 9 9 11 9 9 11 9 9 11 9 9 11 9 9 11 9 9 11 9 9 11 9 9 11 9 9 11 9 9 11 9 9 11 9 9 11 9 9 11 9 9 11 9 9 11 9 9 11 9 9 11 9 9 11 9 9 11 9 9 11 9 9 11 9 9 11 9 9 11 9 9 11 9 9 11 9 9 11 9 9 11 9 9 11 9 9 11 9 9 11 9 9 11 9 9 11 9 9 11 9 9 11 9 9 11 9 9 11 9 9 11 9 9 11 9 9 11 9 9 11 9 9 11 9 9 11 9 9 11 9 9 11 9 9 11 9 9 11 9 9 11 9 9 11 9 9 11 9 9 11 9 9 11 9 9 11 9 9 11 9 9 11 9 9 11 9 9 11 9 9 11 9 9 11 9 9 11 9 9 11 9 9 11 9 9 11 9 9 11 9 9 11 9 9 11 9 9 11 9 9 11 9 9 11 9 9 11 9 9 11 9 9 11 9 9 11 9 9 11 9 9 11 9 9 11 9 9 11 9 9 11 9 9 11 9 9 11 9 9 11 9 9 11 9 9 11 9 9 11 9 9 11 9 9 11 9 9 11 9 9 11 9 9 11 9 9 11 9 9 11 9 9 11 9 9 11 9 9 
9 9 9 11 9 9 11 9 9 11 9 9 11 9 9 11 9 9 11 9 9 11 9 9 11 9 9 11 9 9 11 9 9 11 9 9 11 9 9 11 9 9 11 9 9 11 9 9 11 9 9 11 9 9 11 9 9 11 9 9 11 9 9 11 9 9 11 9 9 11 9 9 11 9 9 11 9 9 11 9 9 11 9 9 11 9 9 11 9 9 11 9 9 11 9 9 11 9 9 11 9 9 11 9 9 11 9 9 11 9 9 11 9 9 11 9 9 11 9 9 11 9 9 11 9 9 11 9 9 11 9 9 11 9 9 11 9 9 11 9 9 11 9 9 11 9 9 11 9 9 11 9 9 11 9 9 11 9 9 11 9 9 11 9 9 11 9 9 11 9 9 11 9 9 11 9 9 11 9 9 11 9 9 11 9 9 11 9 9 11 9 9 11 9 9 11 9 9 11 9 9 11 9 9 11 9 9 11 9 9 11 9 9 11 9 9 11 9 9 11 9 9 11 9 9 11 9 9 11 9 9 11 9 9 11 9 9 11 9 9 11 9 9 11 9 9 11 9 9 11 9 9 11 9 9 11 9 9 11 9 9 11 9 9 11 9 9 11 9 9 11 9 9 11 9 9 11 9 9 11 9 9 11 9 9 11 9 9 
9 9 9 11 9 9 11 9 9 11 9 9 11 9 9 11 9 9 11 9 9 11 9 9 11 9 9 11 9 9 11 9 9 11 9 9 11 9 9 11 9 9 11 9 9 11 9 9 11 9 9 11 9 9 11 9 9 11 9 9 11 9 9 11 9 9 11 9 9 11 9 9 11 9 9 11 9 9 11 9 9 11 9 9 11 9 9 11 9 9 11 9 9 11 9 9 11 9 9 11 9 9 11 9 9 11 9 9 11 9 9 11 9 9 11 9 9 11 9 9 11 9 9 11 9 9 11 9 9 11 9 9 11 9 9 11 9 9 11 9 9 11 9 9 11 9 9 11 9 9 11 9 9 11 9 9 11 9 9 11 9 9 11 9 9 11 9 9 11 9 9 11 9 9 11 9 9 11 9 9 11 9 9 11 9 9 11 9 9 11 9 9 11 9 9 11 9 9 11 9 9 11 9 9 11 9 9 11 9 9 11 9 9 11 9 9 11 9 9 11 9 9 11 9 9 11 9 9 11 9 9 11 9 9 11 9 9 11 9 9 11 9 9 11 9 9 11 9 9 11 9 9 11 9 9 11 9 9 11 9 9 11 9 9 11 9 9 11 9 9 11 9 9 11 9 9 11 9 9 11 9 9 11 9 9 11 9 9 
9 9 9 11 9 9 11 9 9 11 9 9 11 9 9 11 9 9 11 9 9 11 9 9 11 9 9 11 9 9 11 9 9 11 9 9 11 9 9 11 9 9 11 9 9 11 9 9 11 9 9 11 9 9 11 9 9 11 9 9 11 9 9 11 9 9 11 9 9 11 9 9 11 9 9 11 9 9 11 9 9 11 9 9 11 9 9 11 9 9 11 9 9 11 9 9 11 9 9 11 9 9 11 9 9 11 9 9 11 9 9 11 9 9 11 9 9 11 9 9 11 9 9 11 9 9 11 9 9 11 9 9 11 9 9 11 9 9 11 9 9 11 9 9 11 9 9 11 9 9 11 9 9 11 9 9 11 9 9 11 9 9 11 9 9 11 9 9 11 9 9 11 9 9 11 9 9 11 9 9 11 9 9 11 9 9 11 9 9 11 9 9 11 9 9 11 9 9 11 9 9 11 9 9 11 9 9 11 9 9 11 9 9 11 9 9 11 9 9 11 9 9 11 9 9 11 9 9 11 9 9 11 9 9 11 9 9 11 9 9 11 9 9 11 9 9 11 9 9 11 9 9 11 9 9 11 9 9 11 9 9 11 9 9 11 9 9 11 9 9 11 9 9 11 9 9 11 9 9 11 9 9 11 9 9 11 9 9 
9 9 9 11 9 9 11 9 9 11 9 9 11 9 9 11 9 9 11 9 9 11 9 9 11 9 9 11 9 9 11 9 9 11 9 9 11 9 9 11 9 9 11 9 9 11 9 9 11 9 9 11 9 9 11 9 9 11 9 9 11 9 9 11 9 9 11 9 9 11 9 9 11 9 9 11 9 9 11 9 9 11 9 9 11 9 9 11 9 9 11 9 9 11 9 9 11 9 9 11 9 9 11 9 9 11 9 9 11 9 9 11 9 9 11 9 9 11 9 9 11 9 9 11 9 9 11 9 9 11 9 9 11 9 9 11 9 9 11 9 9 11 9 9 11 9 9 11 9 9 11 9 9 11 9 9 11 9 9 11 9 9 11 9 9 11 9 9 11 9 9 11 9 9 11 9 9 11 9 9 11 9 9 11 9 9 11 9 9 11 9 9 11 9 9 11 9 9 11 9 9 11 9 9 11 9 9 11 9 9 11 9 9 11 9 9 11 9 9 11 9 9 11 9 9 11 9 9 11 9 9 11 9 9 11 9 9 11 9 9 11 9 9 11 9 9 11 9 9 11 9 9 11 9 9 11 9 9 11 9 9 11 9 9 11 9 9 11 9 9 11 9 9 11 9 9 11 9 9 11 9 9 11 9 9 11 9 9 
9 9 9 11 9 9 11 9 9 11 9 9 11 9 9 11 9 9 11 9 9 11 9 9 11 9 9 11 9 9 11 9 9 11 9 9 11 9 9 11 9 9 11 9 9 11 9 9 11 9 9 11 9 9 11 9 9 11 9 9 11 9 9 11 9 9 11 9 9 11 9 9 11 9 9 11 9 9 11 9 9 11 9 9 11 9 9 11 9 9 11 9 9 11 9 9 11 9 9 11 9 9 11 9 9 11 9 9 11 9 9 11 9 9 11 9 9 11 9 9 11 9 9 11 9 9 11 9 9 11 9 9 11 9 9 11 9 9 11 9 9 11 9 9 11 9 9 11 9 9 11 9 9 11 9 9 11 9 9 11 9 9 11 9 9 11 9 9 11 9 9 11 9 9 11 9 9 11 9 9 11 9 9 11 9 9 11 9 9 11 9 9 11 9 9 11 9 9 11 9 9 11 9 9 11 9 9 11 9 9 11 9 9 11 9 9 11 9 9 11 9 9 11 9 9 11 9 9 11 9 9 11 9 9 11 9 9 11 9 9 11 9 9 11 9 9 11 9 9 11 9 9 11 9 9 11 9 9 11 9 9 11 9 9 11 9 9 11 9 9 11 9 9 11 9 9 11 9 9 11 9 9 11 9 9 11 9 9 
9 9 9 9 9 9 11 9 9 11 9 9 11 9 9 11 9 9 11 9 9 11 9 9 11 9 9 11 9 9 11 9 9 11 9 9 11 9 9 11 9 9 11 9 9 11 9 9 11 9 9 11 9 9 11 9 9 11 9 9 11 9 9 11 9 9 11 9 9 11 9 9 11 9 9 11 9 9 11 9 9 11 9 9 11 9 9 11 9 9 11 9 9 11 9 9 11 9 9 11 9 9 11 9 9 11 9 9 11 9 9 11 9 9 11 9 9 11 9 9 11 9 9 11 9 9 11 9 9 11 9 9 11 9 9 11 9 9 11 9 9 11 9 9 11 9 9 11 9 9 11 9 9 11 9 9 11 9 9 11 9 9 11 9 9 11 9 9 11 9 9 11 9 9 11 9 9 11 9 9 11 9 9 11 9 9 11 9 9 11 9 9 11 9 9 11 9 9 11 9 9 11 9 9 11 9 9 11 9 9 11 9 9 11 9 9 11 9 9 11 9 9 11 9 9 11 9 9 11 9 9 11 9 9 11 9 9 11 9 9 11 9 9 11 9 9 11 9 9 11 9 9 11 9 9 11 9 9 11 9 9 11 9 9 11 9 9 11 9 9 11 9 9 11 9 9 11 9 9 11 9 9 11 9 9 11 9 9 
9 9 9 9 9 9 11 9 9 11 9 9 11 9 9 11 9 9 11 9 9 11 9 9 11 9 9 11 9 9 11 9 9 11 9 9 11 9 9 11 9 9 11 9 9 11 9 9 11 9 9 11 9 9 11 9 9 11 9 9 11 9 9 11 9 9 11 9 9 11 9 9 11 9 9 11 9 9 11 9 9 11 9 9 11 9 9 11 9 9 11 9 9 11 9 9 11 9 9 11 9 9 11 9 9 11 9 9 11 9 9 11 9 9 11 9 9 11 9 9 11 9 9 11 9 9 11 9 9 11 9 9 11 9 9 11 9 9 11 9 9 11 9 9 11 9 9 11 9 9 11 9 9 11 9 9 11 9 9 11 9 9 11 9 9 11 9 9 11 9 9 11 9 9 11 9 9 11 9 9 11 9 9 11 9 9 11 9 9 11 9 9 11 9 9 11 9 9 11 9 9 11 9 9 11 9 9 11 9 9 11 9 9 11 9 9 11 9 9 11 9 9 11 9 9 11 9 9 11 9 9 11 9 9 11 9 9 11 9 9 11 9 9 11 9 9 11 9 9 11 9 9 11 9 9 11 9 9 11 9 9 11 9 9 11 9 9 11 9 9 11 9 9 11 9 9 11 9 9 11 9 9 11 9 9 11 9 9 
9 9 9 9 9 9 11 9 9 11 9 9 11 9 9 11 9 9 11 9 9 11 9 9 11 9 9 11 9 9 11 9 9 11 9 9 11 9 9 11 9 9 11 9 9 11 9 9 11 9 9 11 9 9 11 9 9 11 9 9 11 9 9 11 9 9 11 9 9 11 9 9 11 9 9 11 9 9 11 9 9 11 9 9 11 9 9 11 9 9 11 9 9 11 9 9 11 9 9 11 9 9 11 9 9 11 9 9 11 9 9 11 9 9 11 9 9 11 9 9 11 9 9 11 9 9 11 9 9 11 9 9 11 9 9 11 9 9 11 9 9 11 9 9 11 9 9 11 9 9 11 9 9 11 9 9 11 9 9 11 9 9 11 9 9 11 9 9 11 9 9 11 9 9 11 9 9 11 9 9 11 9 9 11 9 9 11 9 9 11 9 9 11 9 9 11 9 9 11 9 9 11 9 9 11 9 9 11 9 9 11 9 9 11 9 9 11 9 9 11 9 9 11 9 9 11 9 9 11 9 9 11 9 9 11 9 9 11 9 9 11 9 9 11 9 9 11 9 9 11 9 9 11 9 9 11 9 9 11 9 9 11 9 9 11 9 9 11 9 9 11 9 9 11 9 9 11 9 9 11 9 9 11 9 9 11 9 9 
9 9 9 9 9 9 11 9 9 11 9 9 11 9 9 11 9 9 11 9 9 11 9 9 11 9 9 11 9 9 11 9 9 11 9 9 11 9 9 11 9 9 11 9 9 11 9 9 11 9 9 11 9 9 11 9 9 11 9 9 11 9 9 11 9 9 11 9 9 11 9 9 11 9 9 11 9 9 11 9 9 11 9 9 11 9 9 11 9 9 11 9 9 11 9 9 11 9 9 11 9 9 11 9 9 11 9 9 11 9 9 11 9 9 11 9 9 11 9 9 11 9 9 11 9 9 11 9 9 11 9 9 11 9 9 11 9 9 11 9 9 11 9 9 11 9 9 11 9 9 11 9 9 11 9 9 11 9 9 11 9 9 11 9 9 11 9 9 11 9 9 11 9 9 11 9 9 11 9 9 11 9 9 11 9 9 11 9 9 11 9 9 11 9 9 11 9 9 11 9 9 11 9 9 11 9 9 11 9 9 11 9 9 11 9 9 11 9 9 11 9 9 11 9 9 11 9 9 11 9 9 11 9 9 11 9 9 11 9 9 11 9 9 11 9 9 11 9 9 11 9 9 11 9 9 11 9 9 11 9 9 11 9 9 11 9 9 11 9 9 11 9 9 11 9 9 11 9 9 11 9 9 11 9 9 11 9 9 
9 9 9 9 9 9 11 9 9 11 9 9 11 9 9 11 9 9 11 9 9 11 9 9 11 9 9 11 9 9 11 9 9 11 9 9 11 9 9 11 9 9 11 9 9 11 9 9 11 9 9 11 9 9 11 9 9 11 9 9 11 9 9 11 9 9 11 9 9 11 9 9 11 9 9 11 9 9 11 9 9 11 9 9 11 9 9 11 9 9 11 9 9 11 9 9 11 9 9 11 9 9 11 9 9 11 9 9 11 9 9 11 9 9 11 9 9 11 9 9 11 9 9 11 9 9 11 9 9 11 9 9 11 9 9 11 9 9 11 9 9 11 9 9 11 9 9 11 9 9 11 9 9 11 9 9 11 9 9 11 9 9 11 9 9 11 9 9 11 9 9 11 9 9 11 9 9 11 9 9 11 9 9 11 9 9 11 9 9 11 9 9 11 9 9 11 9 9 11 9 9 11 9 9 11 9 9 11 9 9 11 9 9 11 9 9 11 9 9 11 9 9 11 9 9 11 9 9 11 9 9 11 9 9 11 9 9 11 9 9 11 9 9 11 9 9 11 9 9 11 9 9 11 9 9 11 9 9 11 9 9 11 9 9 11 9 9 11 9 9 11 9 9 11 9 9 11 9 9 11 9 9 11 9 9 11 9 9 
9 9 9 9 9 9 11 9 9 11 9 9 11 9 9 11 9 9 11 9 9 11 9 9 11 9 9 11 9 9 11 9 9 11 9 9 11 9 9 11 9 9 11 9 9 11 9 9 11 9 9 11 9 9 11 9 9 11 9 9 11 9 9 11 9 9 11 9 9 11 9 9 11 9 9 11 9 9 11 9 9 11 9 9 11 9 9 11 9 9 11 9 9 11 9 9 11 9 9 11 9 9 11 9 9 11 9 9 11 9 9 11 9 9 11 9 9 11 9 9 11 9 9 11 9 9 11 9 9 11 9 9 11 9 9 11 9 9 11 9 9 11 9 9 11 9 9 11 9 9 11 9 9 11 9 9 11 9 9 11 9 9 11 9 9 11 9 9 11 9 9 11 9 9 11 9 9 11 9 9 11 9 9 11 9 9 11 9 9 11 9 9 11 9 9 11 9 9 11 9 9 11 9 9 11 9 9 11 9 9 11 9 9 11 9 9 11 9 9 11 9 9 11 9 9 11 9 9 11 9 9 11 9 9 11 9 9 11 9 9 11 9 9 11 9 9 11 9 9 11 9 9 11 9 9 11 9 9 11 9 9 11 9 9 11 9 9 11 9 9 11 9 9 11 9 9 11 9 9 11 9 9 11 9 9 11 9 9 
9 9 9 9 9 9 11 9 9 11 9 9 11 9 9 11 9 9 11 9 9 11 9 9 11 9 9 11 9 9 11 9 9 11 9 9 11 9 9 11 9 9 11 9 9 11 9 9 11 9 9 11 9 9 11 9 9 11 9 9 11 9 9 11 9 9 11 9 9 11 9 9 11 9 9 11 9 9 11 9 9 11 9 9 11 9 9 11 9 9 11 9 9 11 9 9 11 9 9 11 9 9 11 9 9 11 9 9 11 9 9 11 9 9 11 9 9 11 9 9 11 9 9 11 9 9 11 9 9 11 9 9 11 9 9 11 9 9 11 9 9 11 9 9 11 9 9 11 9 9 11 9 9 11 9 9 11 9 9 11 9 9 11 9 9 11 9 9 11 9 9 11 9 9 11 9 9 11 9 9 11 9 9 11 9 9 11 9 9 11 9 9 11 9 9 11 9 9 11 9 9 11 9 9 11 9 9 11 9 9 11 9 9 11 9 9 11 9 9 11 9 9 11 9 9 11 9 9 11 9 9 11 9 9 11 9 9 11 9 9 11 9 9 11 9 9 11 9 9 11 9 9 11 9 9 11 9 9 11 9 9 11 9 9 11 9 9 11 9 9 11 9 9 11 9 9 11 9 9 11 9 9 11 9 9 11 9 9 
9 9 9 9 9 9 11 9 9 11 9 9 11 9 9 11 9 9 11 9 9 11 9 9 11 9 9 11 9 9 11 9 9 11 9 9 11 9 9 11 9 9 11 9 9 11 9 9 11 9 9 11 9 9 11 9 9 11 9 9 11 9 9 11 9 9 11 9 9 11 9 9 11 9 9 11 9 9 11 9 9 11 9 9 11 9 9 11 9 9 11 9 9 11 9 9 11 9 9 11 9 9 11 9 9 11 9 9 11 9 9 11 9 9 11 9 9 11 9 9 11 9 9 11 9 9 11 9 9 11 9 9 11 9 9 11 9 9 11 9 9 11 9 9 11 9 9 11 9 9 11 9 9 11 9 9 11 9 9 11 9 9 11 9 9 11 9 9 11 9 9 11 9 9 11 9 9 11 9 9 11 9 9 11 9 9 11 9 9 11 9 9 11 9 9 11 9 9 11 9 9 11 9 9 11 9 9 11 9 9 11 9 9 11 9 9 11 9 9 11 9 9 11 9 9 11 9 9 11 9 9 11 9 9 11 9 9 11 9 9 11 9 9 11 9 9 11 9 9 11 9 9 11 9 9 11 9 9 11 9 9 11 9 9 11 9 9 11 9 9 11 9 9 11 9 9 11 9 9 11 9 9 11 9 9 11 9 9 
9 9 9 9 9 9 11 9 9 11 9 9 11 9 9 11 9 9 11 9 9 11 9 9 11 9 9 11 9 9 11 9 9 11 9 9 11 9 9 11 9 9 11 9 9 11 9 9 11 9 9 11 9 9 11 9 9 11 9 9 11 9 9 11 9 9 11 9 9 11 9 9 11 9 9 11 9 9 11 9 9 11 9 9 11 9 9 11 9 9 11 9 9 11 9 9 11 9 9 11 9 9 11 9 9 11 9 9 11 9 9 11 9 9 11 9 9 11 9 9 11 9 9 11 9 9 11 9 9 11 9 9 11 9 9 11 9 9 11 9 9 11 9 9 11 9 9 11 9 9 11 9 9 11 9 9 11 9 9 11 9 9 11 9 9 11 9 9 11 9 9 11 9 9 11 9 9 11 9 9 11 9 9 11 9 9 11 9 9 11 9 9 11 9 9 11 9 9 11 9 9 11 9 9 11 9 9 11 9 9 11 9 9 11 9 9 11 9 9 11 9 9 11 9 9 11 9 9 11 9 9 11 9 9 11 9 9 11 9 9 11 9 9 11 9 9 11 9 9 11 9 9 11 9 9 11 9 9 11 9 9 11 9 9 11 9 9 11 9 9 11 9 9 11 9 9 11 9 9 11 9 9 11 9 9 11 9 9 
9 9 9 9 9 9 11 9 9 11 9 9 11 9 9 11 9 9 11 9 9 11 9 9 11 9 9 11 9 9 11 9 9 11 9 9 11 9 9 11 9 9 11 9 9 11 9 9 11 9 9 11 9 9 11 9 9 11 9 9 11 9 9 11 9 9 11 9 9 11 9 9 11 9 9 11 9 9 11 9 9 11 9 9 11 9 9 11 9 9 11 9 9 11 9 9 11 9 9 11 9 9 11 9 9 11 9 9 11 9 9 11 9 9 11 9 9 11 9 9 11 9 9 11 9 9 11 9 9 11 9 9 11 9 9 11 9 9 11 9 9 11 9 9 11 9 9 11 9 9 11 9 9 11 9 9 11 9 9 11 9 9 11 9 9 11 9 9 11 9 9 11 9 9 11 9 9 11 9 9 11 9 9 11 9 9 11 9 9 11 9 9 11 9 9 11 9 9 11 9 9 11 9 9 11 9 9 11 9 9 11 9 9 11 9 9 11 9 9 11 9 9 11 9 9 11 9 9 11 9 9 11 9 9 11 9 9 11 9 9 11 9 9 11 9 9 11 9 9 11 9 9 11 9 9 11 9 9 11 9 9 11 9 9 11 9 9 11 9 9 11 9 9 11 9 9 11 9 9 11 9 9 11 9 9 11 9 9 
9 9 9 9 9 9 11 9 9 11 9 9 11 9 9 11 9 9 11 9 9 11 9 9 11 9 9 11 9 9 11 9 9 11 9 9 11 9 9 11 9 9 11 9 9 11 9 9 11 9 9 11 9 9 11 9 9 11 9 9 11 9 9 11 9 9 11 9 9 11 9 9 11 9 9 11 9 9 11 9 9 11 9 9 11 9 9 11 9 9 11 9 9 11 9 9 11 9 9 11 9 9 11 9 9 11 9 9 11 9 9 11 9 9 11 9 9 11 9 9 11 9 9 11 9 9 11 9 9 11 9 9 11 9 9 11 9 9 11 9 9 11 9 9 11 9 9 11 9 9 11 9 9 11 9 9 11 9 9 11 9 9 11 9 9 11 9 9 11 9 9 11 9 9 11 9 9 11 9 9 11 9 9 11 9 9 11 9 9 11 9 9 11 9 9 11 9 9 11 9 9 11 9 9 11 9 9 11 9 9 11 9 9 11 9 9 11 9 9 11 9 9 11 9 9 11 9 9 11 9 9 11 9 9 11 9 9 11 9 9 11 9 9 11 9 9 11 9 9 11 9 9 11 9 9 11 9 9 11 9 9 11 9 9 11 9 9 11 9 9 11 9 9 11 9 9 11 9 9 11 9 9 11 9 9 11 9 9 
9 9 9 9 9 9 9 9 9 11 9 9 11 9 9 11 9 9 11 9 9 11 9 9 11 9 9 11 9 9 11 9 9 11 9 9 11 9 9 11 9 9 11 9 9 11 9 9 11 9 9 11 9 9 11 9 9 11 9 9 11 9 9 11 9 9 11 9 9 11 9 9 11 9 9 11 9 9 11 9 9 11 9 9 11 9 9 11 9 9 11 9 9 11 9 9 11 9 9 11 9 9 11 9 9 11 9 9 11 9 9 11 9 9 11 9 9 11 9 9 11 9 9 11 9 9 11 9 9 11 9 9 11 9 9 11 9 9 11 9 9 11 9 9 11 9 9 11 9 9 11 9 9 11 9 9 11 9 9 11 9 9 11 9 9 11 9 9 11 9 9 11 9 9 11 9 9 11 9 9 11 9 9 11 9 9 11 9 9 11 9 9 11 9 9 11 9 9 11 9 9 11 9 9 11 9 9 11 9 9 11 9 9 11 9 9 11 9 9 11 9 9 11 9 9 11 9 9 11 9 9 11 9 9 11 9 9 11 9 9 11 9 9 11 9 9 11 9 9 11 9 9 11 9 9 11 9 9 11 9 9 11 9 9 11 9 9 11 9 9 11 9 9 11 9 9 11 9 9 11 9 9 11 9 9 11 9 9 
9 9 9 9 9 9 9 9 9 11 9 9 11 9 9 11 9 9 11 9 9 11 9 9 11 9 9 11 9 9 11 9 9 11 9 9 11 9 9 11 9 9 11 9 9 11 9 9 11 9 9 11 9 9 11 9 9 11 9 9 11 9 9 11 9 9 11 9 9 11 9 9 11 9 9 11 9 9 11 9 9 11 9 9 11 9 9 11 9 9 11 9 9 11 9 9 11 9 9 11 9 9 11 9 9 11 9 9 11 9 9 11 9 9 11 9 9 11 9 9 11 9 9 11 9 9 11 9 9 11 9 9 11 9 9 11 9 9 11 9 9 11 9 9 11 9 9 11 9 9 11 9 9 11 9 9 11 9 9 11 9 9 11 9 9 11 9 9 11 9 9 11 9 9 11 9 9 11 9 9 11 9 9 11 9 9 11 9 9 11 9 9 11 9 9 11 9 9 11 9 9 11 9 9 11 9 9 11 9 9 11 9 9 11 9 9 11 9 9 11 9 9 11 9 9 11 9 9 11 9 9 11 9 9 11 9 9 11 9 9 11 9 9 11 9 9 11 9 9 11 9 9 11 9 9 11 9 9 11 9 9 11 9 9 11 9 9 11 9 9 11 9 9 11 9 9 11 9 9 11 9 9 11 9 9 11 9 9 
9 9 9 9 9 9 9 9 9 11 9 9 11 9 9 11 9 9 11 9 9 11 9 9 11 9 9 11 9 9 11 9 9 11 9 9 11 9 9 11 9 9 11 9 9 11 9 9 11 9 9 11 9 9 11 9 9 11 9 9 11 9 9 11 9 9 11 9 9 11 9 9 11 9 9 11 9 9 11 9 9 11 9 9 11 9 9 11 9 9 11 9 9 11 9 9 11 9 9 11 9 9 11 9 9 11 9 9 11 9 9 11 9 9 11 9 9 11 9 9 11 9 9 11 9 9 11 9 9 11 9 9 11 9 9 11 9 9 11 9 9 11 9 9 11 9 9 11 9 9 11 9 9 11 9 9 11 9 9 11 9 9 11 9 9 11 9 9 11 9 9 11 9 9 11 9 9 11 9 9 11 9 9 11 9 9 11 9 9 11 9 9 11 9 9 11 9 9 11 9 9 11 9 9 11 9 9 11 9 9 11 9 9 11 9 9 11 9 9 11 9 9 11 9 9 11 9 9 11 9 9 11 9 9 11 9 9 11 9 9 11 9 9 11 9 9 11 9 9 11 9 9 11 9 9 11 9 9 11 9 9 11 9 9 11 9 9 11 9 9 11 9 9 11 9 9 11 9 9 11 9 9 11 9 9 11 9 9 
9 9 9 9 9 9 9 9 9 11 9 9 11 9 9 11 9 9 11 9 9 11 9 9 11 9 9 11 9 9 11 9 9 11 9 9 11 9 9 11 9 9 11 9 9 11 9 9 11 9 9 11 9 9 11 9 9 11 9 9 11 9 9 11 9 9 11 9 9 11 9 9 11 9 9 11 9 9 11 9 9 11 9 9 11 9 9 11 9 9 11 9 9 11 9 9 11 9 9 11 9 9 11 9 9 11 9 9 11 9 9 11 9 9 11 9 9 11 9 9 11 9 9 11 9 9 11 9 9 11 9 9 11 9 9 11 9 9 11 9 9 11 9 9 11 9 9 11 9 9 11 9 9 11 9 9 11 9 9 11 9 9 11 9 9 11 9 9 11 9 9 11 9 9 11 9 9 11 9 9 11 9 9 11 9 9 11 9 9 11 9 9 11 9 9 11 9 9 11 9 9 11 9 9 11 9 9 11 9 9 11 9 9 11 9 9 11 9 9 11 9 9 11 9 9 11 9 9 11 9 9 11 9 9 11 9 9 11 9 9 11 9 9 11 9 9 11 9 9 11 9 9 11 9 9 11 9 9 11 9 9 11 9 9 11 9 9 11 9 9 11 9 9 11 9 9 11 9 9 11 9 9 11 9 9 11 9 9 
9 9 9 9 9 9 9 9 9 11 9 9 11 9 9 11 9 9 11 9 9 11 9 9 11 9 9 11 9 9 11 9 9 11 9 9 11 9 9 11 9 9 11 9 9 11 9 9 11 9 9 11 9 9 11 9 9 11 9 9 11 9 9 11 9 9 11 9 9 11 9 9 11 9 9 11 9 9 11 9 9 11 9 9 11 9 9 11 9 9 11 9 9 11 9 9 11 9 9 11 9 9 11 9 9 11 9 9 11 9 9 11 9 9 11 9 9 11 9 9 11 9 9 11 9 9 11 9 9 11 9 9 11 9 9 11 9 9 11 9 9 11 9 9 11 9 9 11 9 9 11 9 9 11 9 9 11 9 9 11 9 9 11 9 9 11 9 9 11 9 9 11 9 9 11 9 9 11 9 9 11 9 9 11 9 9 11 9 9 11 9 9 11 9 9 11 9 9 11 9 9 11 9 9 11 9 9 11 9 9 11 9 9 11 9 9 11 9 9 11 9 9 11 9 9 11 9 9 11 9 9 11 9 9 11 9 9 11 9 9 11 9 9 11 9 9 11 9 9 11 9 9 11 9 9 11 9 9 11 9 9 11 9 9 11 9 9 11 9 9 11 9 9 11 9 9 11 9 9 11 9 9 11 9 9 11 9 9 
9 9 9 9 9 9 9 9 9 11 9 9 11 9 9 11 9 9 11 9 9 11 9 9 11 9 9 11 9 9 11 9 9 11 9 9 11 9 9 11 9 9 11 9 9 11 9 9 11 9 9 11 9 9 11 9 9 11 9 9 11 9 9 11 9 9 11 9 9 11 9 9 11 9 9 11 9 9 11 9 9 11 9 9 11 9 9 11 9 9 11 9 9 11 9 9 11 9 9 11 9 9 11 9 9 11 9 9 11 9 9 11 9 9 11 9 9 11 9 9 11 9 9 11 9 9 11 9 9 11 9 9 11 9 9 11 9 9 11 9 9 11 9 9 11 9 9 11 9 9 11 9 9 11 9 9 11 9 9 11 9 9 11 9 9 11 9 9 11 9 9 11 9 9 11 9 9 11 9 9 11 9 9 11 9 9 11 9 9 11 9 9 11 9 9 11 9 9 11 9 9 11 9 9 11 9 9 11 9 9 11 9 9 11 9 9 11 9 9 11 9 9 11 9 9 11 9 9 11 9 9 11 9 9 11 9 9 11 9 9 11 9 9 11 9 9 11 9 9 11 9 9 11 9 9 11 9 9 11 9 9 11 9 9 11 9 9 11 9 9 11 9 9 11 9 9 11 9 9 11 9 9 11 9 9 11 9 9 
9 9 9 9 9 9 9 9 9 11 9 9 11 9 9 11 9 9 11 9 9 11 9 9 11 9 9 11 9 9 11 9 9 11 9 9 11 9 9 11 9 9 11 9 9 11 9 9 11 9 9 11 9 9 11 9 9 11 9 9 11 9 9 11 9 9 11 9 9 11 9 9 11 9 9 11 9 9 11 9 9 11 9 9 11 9 9 11 9 9 11 9 9 11 9 9 11 9 9 11 9 9 11 9 9 11 9 9 11 9 9 11 9 9 11 9 9 11 9 9 11 9 9 11 9 9 11 9 9 11 9 9 11 9 9 11 9 9 11 9 9 11 9 9 11 9 9 11 9 9 11 9 9 11 9 9 11 9 9 11 9 9 11 9 9 11 9 9 11 9 9 11 9 9 11 9 9 11 9 9 11 9 9 11 9 9 11 9 9 11 9 9 11 9 9 11 9 9 11 9 9 11 9 9 11 9 9 11 9 9 11 9 9 11 9 9 11 9 9 11 9 9 11 9 9 11 9 9 11 9 9 11 9 9 11 9 9 11 9 9 11 9 9 11 9 9 11 9 9 11 9 9 11 9 9 11 9 9 11 9 9 11 9 9 11 9 9 11 9 9 11 9 9 11 9 9 11 9 9 11 9 9 11 9 9 11 9 9 
9 9 9 9 9 9 9 9 9 11 9 9 11 9 9 11 9 9 11 9 9 11 9 9 11 9 9 11 9 9 11 9 9 11 9 9 11 9 9 11 9 9 11 9 9 11 9 9 11 9 9 11 9 9 11 9 9 11 9 9 11 9 9 11 9 9 11 9 9 11 9 9 11 9 9 11 9 9 11 9 9 11 9 9 11 9 9 11 9 9 11 9 9 11 9 9 11 9 9 11 9 9 11 9 9 11 9 9 11 9 9 11 9 9 11 9 9 11 9 9 11 9 9 11 9 9 11 9 9 11 9 9 11 9 9 11 9 9 11 9 9 11 9 9 11 9 9 11 9 9 11 9 9 11 9 9 11 9 9 11 9 9 11 9 9 11 9 9 11 9 9 11 9 9 11 9 9 11 9 9 11 9 9 11 9 9 11 9 9 11 9 9 11 9 9 11 9 9 11 9 9 11 9 9 11 9 9 11 9 9 11 9 9 11 9 9 11 9 9 11 9 9 11 9 9 11 9 9 11 9 9 11 9 9 11 9 9 11 9 9 11 9 9 11 9 9 11 9 9 11 9 9 11 9 9 11 9 9 11 9 9 11 9 9 11 9 9 11 9 9 11 9 9 11 9 9 11 9 9 11 9 9 11 9 9 11 9 9 
9 9 9 9 9 9 9 9 9 11 9 9 11 9 9 11 9 9 11 9 9 11 9 9 11 9 9 11 9 9 11 9 9 11 9 9 11 9 9 11 9 9 11 9 9 11 9 9 11 9 9 11 9 9 11 9 9 11 9 9 11 9 9 11 9 9 11 9 9 11 9 9 11 9 9 11 9 9 11 9 9 11 9 9 11 9 9 11 9 9 11 9 9 11 9 9 11 9 9 11 9 9 11 9 9 11 9 9 11 9 9 11 9 9 11 9 9 11 9 9 11 9 9 11 9 9 11 9 9 11 9 9 11 9 9 11 9 9 11 9 9 11 9 9 11 9 9 11 9 9 11 9 9 11 9 9 11 9 9 11 9 9 11 9 9 11 9 9 11 9 9 11 9 9 11 9 9 11 9 9 11 9 9 11 9 9 11 9 9 11 9 9 11 9 9 11 9 9 11 9 9 11 9 9 11 9 9 11 9 9 11 9 9 11 9 9 11 9 9 11 9 9 11 9 9 11 9 9 11 9 9 11 9 9 11 9 9 11 9 9 11 9 9 11 9 9 11 9 9 11 9 9 11 9 9 11 9 9 11 9 9 11 9 9 11 9 9 11 9 9 11 9 9 11 9 9 11 9 9 11 9 9 11 9 9 11 9 9 
9 9 9 9 9 9 9 9 9 11 9 9 11 9 9 11 9 9 11 9 9 11 9 9 11 9 9 11 9 9 11 9 9 11 9 9 11 9 9 11 9 9 11 9 9 11 9 9 11 9 9 11 9 9 11 9 9 11 9 9 11 9 9 11 9 9 11 9 9 11 9 9 11 9 9 11 9 9 11 9 9 11 9 9 11 9 9 11 9 9 11 9 9 11 9 9 11 9 9 11 9 9 11 9 9 11 9 9 11 9 9 11 9 9 11 9 9 11 9 9 11 9 9 11 9 9 11 9 9 11 9 9 11 9 9 11 9 9 11 9 9 11 9 9 11 9 9 11 9 9 11 9 9 11 9 9 11 9 9 11 9 9 11 9 9 11 9 9 11 9 9 11 9 9 11 9 9 11 9 9 11 9 9 11 9 9 11 9 9 11 9 9 11 9 9 11 9 9 11 9 9 11 9 9 11 9 9 11 9 9 11 9 9 11 9 9 11 9 9 11 9 9 11 9 9 11 9 9 11 9 9 11 9 9 11 9 9 11 9 9 11 9 9 11 9 9 11 9 9 11 9 9 11 9 9 11 9 9 11 9 9 11 9 9 11 9 9 11 9 9 11 9 9 11 9 9 11 9 9 11 9 9 11 9 9 11 9 9 
9 9 9 9 9 9 9 9 9 11 9 9 11 9 9 11 9 9 11 9 9 11 9 9 11 9 9 11 9 9 11 9 9 11 9 9 11 9 9 11 9 9 11 9 9 11 9 9 11 9 9 11 9 9 11 9 9 11 9 9 11 9 9 11 9 9 11 9 9 11 9 9 11 9 9 11 9 9 11 9 9 11 9 9 11 9 9 11 9 9 11 9 9 11 9 9 11 9 9 11 9 9 11 9 9 11 9 9 11 9 9 11 9 9 11 9 9 11 9 9 11 9 9 11 9 9 11 9 9 11 9 9 11 9 9 11 9 9 11 9 9 11 9 9 11 9 9 11 9 9 11 9 9 11 9 9 11 9 9 11 9 9 11 9 9 11 9 9 11 9 9 11 9 9 11 9 9 11 9 9 11 9 9 11 9 9 11 9 9 11 9 9 11 9 9 11 9 9 11 9 9 11 9 9 11 9 9 11 9 9 11 9 9 11 9 9 11 9 9 11 9 9 11 9 9 11 9 9 11 9 9 11 9 9 11 9 9 11 9 9 11 9 9 11 9 9 11 9 9 11 9 9 11 9 9 11 9 9 11 9 9 11 9 9 11 9 9 11 9 9 11 9 9 11 9 9 11 9 9 11 9 9 11 9 9 11 9 9 
9 9 9 9 9 9 9 9 9 11 9 9 11 9 9 11 9 9 11 9 9 11 9 9 11 9 9 11 9 9 11 9 9 11 9 9 11 9 9 11 9 9 11 9 9 11 9 9 11 9 9 11 9 9 11 9 9 11 9 9 11 9 9 11 9 9 11 9 9 11 9 9 11 9 9 11 9 9 11 9 9 11 9 9 11 9 9 11 9 9 11 9 9 11 9 9 11 9 9 11 9 9 11 9 9 11 9 9 11 9 9 11 9 9 11 9 9 11 9 9 11 9 9 11 9 9 11 9 9 11 9 9 11 9 9 11 9 9 11 9 9 11 9 9 11 9 9 11 9 9 11 9 9 11 9 9 11 9 9 11 9 9 11 9 9 11 9 9 11 9 9 11 9 9 11 9 9 11 9 9 11 9 9 11 9 9 11 9 9 11 9 9 11 9 9 11 9 9 11 9 9 11 9 9 11 9 9 11 9 9 11 9 9 11 9 9 11 9 9 11 9 9 11 9 9 11 9 9 11 9 9 11 9 9 11 9 9 11 9 9 11 9 9 11 9 9 11 9 9 11 9 9 11 9 9 11 9 9 11 9 9 11 9 9 11 9 9 11 9 9 11 9 9 11 9 9 11 9 9 11 9 9 11 9 9 11 9 9 

