P3
10 5
255
55 55 55 57 57 57 54 54 54 54 54 54 52 52 52 44 44 44 47 47 47 63 63 63 65 65 65 60 60 60 
55 53 53 44 38 37 247 74 49 255 138 117 116 35 23 39 39 39 48 47 47 50 50 50 53 53 53 55 55 55 
81 81 81 72 163 109 171 51 34 136 42 28 51 15 10 10 3 20 21 21 36 26 26 27 89 55 33 54 54 54 
153 153 153 95 128 108 142 142 142 25 7 5 4 18 4 31 32 31 9 9 14 12 12 12 35 35 35 67 67 67 
104 104 104 97 97 97 161 161 161 146 139 138 163 163 163 20 17 18 12 12 12 85 85 85 135 135 135 126 126 126 

