P3
10 5
255
55 55 55 57 57 57 54 54 54 54 54 54 52 52 52 44 44 44 49 49 49 65 65 65 66 66 66 62 62 62 
55 53 53 44 38 37 247 74 49 255 138 117 116 35 23 40 40 40 48 47 47 51 51 51 60 55 55 56 56 56 
81 81 81 72 163 109 171 51 34 136 42 28 51 15 10 52 51 69 30 30 46 25 25 26 89 55 33 56 56 56 
153 153 153 95 128 108 142 142 142 25 7 5 21 35 21 20 8 5 38 38 43 23 23 23 35 35 35 70 70 70 
104 104 104 97 97 97 161 161 161 146 139 138 55 45 43 32 31 32 27 27 27 85 85 85 136 136 136 128 128 128 

