P3
96 54
255
69 69 69 68 68 68 68 68 68 65 65 65 64 64 64 63 63 63 63 63 63 63 63 63 62 62 62 61 61 61 61 61 61 60 60 60 51 51 51 52 52 52 51 51 51 51 51 51 50 50 50 50 50 50 50 50 50 49 49 49 49 49 49 48 48 48 48 48 48 47 47 47 46 46 46 47 47 47 45 45 45 46 46 46 45 45 45 44 44 44 44 44 44 53 53 53 51 51 51 55 55 55 58 58 58 58 58 58 55 55 55 54 54 54 57 57 57 56 56 56 56 56 56 53 53 53 52 52 52 52 52 52 52 52 52 54 54 54 47 47 47 47 47 47 43 43 43 43 43 43 43 43 43 42 42 42 41 41 41 44 44 44 43 43 43 43 43 43 42 42 42 43 43 43 52 52 52 53 53 53 54 54 54 54 54 54 51 51 51 52 52 52 52 52 52 62 62 62 63 63 63 63 63 63 62 62 62 62 62 62 63 63 63 63 63 63 63 63 63 54 54 54 54 54 54 55 55 55 57 57 57 57 57 57 58 58 58 58 58 58 59 59 59 60 60 60 60 60 60 58 58 58 68 68 68 69 69 69 69 69 69 69 69 69 70 70 70 73 73 73 73 73 73 73 73 73 73 73 73 62 62 62 61 61 61 61 61 61 
69 69 69 69 69 69 68 68 68 68 68 68 67 67 67 66 66 66 66 66 66 65 65 65 64 64 64 63 63 63 62 62 62 62 62 62 59 59 59 58 58 58 58 58 58 57 57 57 57 57 57 57 57 57 57 57 57 56 56 56 55 55 55 47 47 47 48 48 48 48 48 48 47 47 47 47 47 47 47 47 47 46 46 46 47 47 47 46 46 46 45 45 45 43 43 43 43 43 43 50 50 50 47 47 47 47 47 47 50 50 50 50 50 50 50 50 50 54 54 54 54 54 54 53 53 53 56 56 56 55 55 55 55 55 55 51 51 51 50 50 50 49 49 49 49 49 49 48 48 48 51 51 51 50 50 50 50 50 50 44 44 44 44 44 44 41 41 41 41 41 41 40 40 40 50 50 50 51 51 51 51 51 51 61 61 61 58 58 58 59 59 59 62 62 62 62 62 62 63 63 63 63 63 63 63 63 63 54 54 54 55 55 55 55 55 55 56 56 56 56 56 56 54 54 54 55 55 55 55 55 55 55 55 55 55 55 55 65 65 65 67 67 67 70 70 70 70 70 70 70 70 70 71 71 71 71 71 71 72 72 72 72 72 72 70 70 70 70 70 70 70 70 70 70 70 70 50 50 50 51 51 51 51 51 51 51 51 51 
58 58 58 57 57 57 57 57 57 56 56 56 55 55 55 54 54 54 54 54 54 53 53 53 61 61 61 61 61 61 60 60 60 61 61 61 62 62 62 61 61 61 60 60 60 60 60 60 59 59 59 58 58 58 58 58 58 57 57 57 57 57 57 56 56 56 54 54 54 54 54 54 54 54 54 53 53 53 53 53 53 53 53 53 52 52 52 52 52 52 44 44 44 45 45 45 44 44 44 48 48 48 51 51 51 51 51 51 48 48 48 47 47 47 47 47 47 50 50 50 50 50 50 49 49 49 49 49 49 45 45 45 45 45 45 45 45 45 43 43 43 53 53 53 52 52 52 52 52 52 51 51 51 48 48 48 48 48 48 47 47 47 46 46 46 46 46 46 45 45 45 47 47 47 60 60 60 61 61 61 61 61 61 61 61 61 59 59 59 59 59 59 51 51 51 51 51 51 51 51 51 52 52 52 52 52 52 52 52 52 53 53 53 56 56 56 56 56 56 56 56 56 66 66 66 66 66 66 67 67 67 67 67 67 67 67 67 65 65 65 66 66 66 67 67 67 67 67 67 68 68 68 68 68 68 68 68 68 59 59 59 62 62 62 62 62 62 63 63 63 63 63 63 63 63 63 52 52 52 50 50 50 50 50 50 50 50 50 
60 60 60 59 59 59 58 58 58 58 58 58 57 57 57 57 57 57 57 57 57 56 56 56 55 55 55 53 53 53 52 52 52 52 52 52 51 51 51 50 50 50 50 50 50 49 49 49 48 48 48 48 48 48 56 56 56 55 55 55 55 55 55 55 55 55 56 56 56 55 55 55 55 55 55 56 56 56 54 54 54 54 54 54 54 54 54 53 53 53 52 52 52 50 50 50 50 50 50 57 57 57 54 54 54 54 54 54 54 54 54 57 57 57 57 57 57 50 50 50 47 47 47 46 46 46 46 46 46 49 49 49 48 48 48 48 48 48 47 47 47 46 46 46 43 43 43 42 42 42 42 42 42 41 41 41 41 41 41 44 44 44 43 43 43 49 49 49 49 49 49 48 48 48 61 61 61 62 62 62 54 54 54 53 53 53 51 51 51 52 52 52 52 52 52 53 53 53 53 53 53 52 52 52 52 52 52 62 62 62 63 63 63 63 63 63 63 63 63 63 63 63 64 64 64 64 64 64 64 64 64 67 67 67 67 67 67 68 68 68 59 59 59 59 59 59 60 60 60 60 60 60 61 61 61 59 59 59 59 59 59 59 59 59 59 59 59 59 59 59 60 60 60 60 60 60 52 52 52 51 51 51 51 51 51 51 51 51 
67 67 67 66 66 66 57 57 57 56 56 56 55 55 55 55 55 55 54 54 54 56 56 56 55 55 55 54 54 54 53 53 53 53 53 53 52 52 52 52 52 52 51 51 51 50 50 50 50 50 50 49 49 49 50 50 50 49 49 49 47 47 47 47 47 47 46 46 46 47 47 47 46 46 46 45 45 45 46 46 46 45 45 45 44 44 44 52 52 52 52 52 52 50 50 50 51 51 51 55 55 55 58 58 58 58 58 58 58 58 58 54 54 54 54 54 54 53 53 53 56 56 56 55 55 55 55 55 55 55 55 55 51 51 51 51 51 51 49 49 49 49 49 49 43 43 43 46 46 46 45 45 45 45 45 45 45 45 45 44 44 44 44 44 44 44 44 44 41 41 41 39 39 39 50 50 50 51 51 51 51 51 51 52 52 52 49 49 49 52 52 52 61 61 61 62 62 62 62 62 62 63 63 63 63 63 63 64 64 64 65 65 65 66 66 66 65 65 65 66 66 66 54 54 54 54 54 54 55 55 55 55 55 55 55 55 55 55 55 55 56 56 56 57 57 57 57 57 57 60 60 60 61 61 61 61 61 61 62 62 62 62 62 62 62 62 62 73 73 73 73 73 73 70 70 70 60 60 60 60 60 60 60 60 60 60 60 60 
69 69 69 68 68 68 67 67 67 66 66 66 66 66 66 63 63 63 62 62 62 61 61 61 61 61 61 60 60 60 60 60 60 59 59 59 59 59 59 59 59 59 50 50 50 49 49 49 49 49 49 48 48 48 48 48 48 48 48 48 48 48 48 48 48 48 47 47 47 47 47 47 48 48 48 47 47 47 46 46 46 47 47 47 46 46 46 45 45 45 45 45 45 45 45 45 43 43 43 50 50 50 47 47 47 47 47 47 47 47 47 50 50 50 50 50 50 56 56 56 56 56 56 52 52 52 52 52 52 52 52 52 52 52 52 54 54 54 53 53 53 52 52 52 52 52 52 51 51 51 51 51 51 47 47 47 47 47 47 46 46 46 46 46 46 46 46 46 45 45 45 39 39 39 51 51 51 60 60 60 61 61 61 58 58 58 59 59 59 59 59 59 60 60 60 60 60 60 60 60 60 61 61 61 52 52 52 53 53 53 54 54 54 56 56 56 56 56 56 56 56 56 56 56 56 56 56 56 57 57 57 57 57 57 57 57 57 58 58 58 59 59 59 57 57 57 67 67 67 67 67 67 68 68 68 68 68 68 68 68 68 69 69 69 69 69 69 69 69 69 73 73 73 73 73 73 61 61 61 61 61 61 61 61 61 61 61 61 
65 65 65 65 65 65 67 67 67 66 66 66 65 65 65 65 65 65 65 65 65 64 64 64 64 64 64 63 63 63 62 62 62 62 62 62 61 61 61 60 60 60 60 60 60 59 59 59 58 58 58 57 57 57 57 57 57 55 55 55 54 54 54 54 54 54 53 53 53 53 53 53 53 53 53 54 54 54 53 53 53 45 45 45 44 44 44 45 45 45 44 44 44 43 43 43 43 43 43 47 47 47 50 50 50 50 50 50 50 50 50 47 47 47 47 47 47 47 47 47 46 46 46 46 46 46 49 49 49 48 48 48 48 48 48 48 48 48 46 46 46 43 43 43 42 42 42 42 42 42 47 47 47 47 47 47 47 47 47 47 47 47 49 49 49 49 49 49 49 49 49 48 48 48 61 61 61 62 62 62 62 62 62 59 59 59 60 60 60 51 51 51 52 52 52 52 52 52 51 51 51 52 52 52 52 52 52 53 53 53 54 54 54 54 54 54 54 54 54 54 54 54 54 54 54 64 64 64 64 64 64 64 64 64 65 65 65 67 67 67 69 69 69 69 69 69 69 69 69 70 70 70 70 70 70 71 71 71 71 71 71 71 71 71 69 69 69 69 69 69 69 69 69 70 70 70 60 60 60 60 60 60 50 50 50 50 50 50 
57 57 57 56 56 56 56 56 56 55 55 55 55 55 55 54 54 54 54 54 54 53 53 53 53 53 53 60 60 60 59 59 59 59 59 59 58 58 58 57 57 57 57 57 57 56 56 56 56 56 56 55 55 55 57 57 57 56 56 56 56 56 56 55 55 55 55 55 55 56 56 56 54 54 54 54 54 54 55 55 55 54 54 54 53 53 53 52 52 52 52 52 52 52 52 52 50 50 50 49 49 49 54 54 54 54 54 54 54 54 54 53 53 53 56 56 56 56 56 56 49 49 49 49 49 49 46 46 46 45 45 45 45 45 45 45 45 45 44 44 44 43 43 43 43 43 43 45 45 45 45 45 45 45 45 45 44 44 44 44 44 44 43 43 43 43 43 43 42 42 42 39 39 39 50 50 50 51 51 51 51 51 51 50 50 50 51 51 51 52 52 52 52 52 52 53 53 53 53 53 53 53 53 53 63 63 63 64 64 64 64 64 64 64 64 64 65 65 65 65 65 65 65 65 65 66 66 66 64 64 64 64 64 64 64 64 64 65 65 65 66 66 66 66 66 66 66 66 66 67 67 67 67 67 67 58 58 58 58 58 58 62 62 62 62 62 62 62 62 62 62 62 62 62 62 62 51 51 51 51 51 51 51 51 51 50 50 50 
58 58 58 58 58 58 57 57 57 57 57 57 56 56 56 56 56 56 55 55 55 54 54 54 54 54 54 53 53 53 53 53 53 52 52 52 51 51 51 51 51 51 51 51 51 50 50 50 48 48 48 47 47 47 48 48 48 47 47 47 47 47 47 46 46 46 45 45 45 46 46 46 46 46 46 52 52 52 52 52 52 52 52 52 52 52 52 52 52 52 50 50 50 50 50 50 49 49 49 50 50 50 57 57 57 57 57 57 57 57 57 57 57 57 53 53 53 53 53 53 53 53 53 53 53 53 52 52 52 55 55 55 54 54 54 54 54 54 52 52 52 51 51 51 51 51 51 50 50 50 50 50 50 47 47 47 47 47 47 41 41 41 41 41 41 40 40 40 40 40 40 40 40 40 51 51 51 51 51 51 52 52 52 58 58 58 58 58 58 59 59 59 59 59 59 60 60 60 60 60 60 61 61 61 61 61 61 61 61 61 62 62 62 64 64 64 64 64 64 65 65 65 65 65 65 66 66 66 56 56 56 57 57 57 57 57 57 58 58 58 58 58 58 59 59 59 59 59 59 60 60 60 60 60 60 58 58 58 58 58 58 59 59 59 59 59 59 59 59 59 59 59 59 59 59 59 50 50 50 50 50 50 50 50 50 50 50 50 
56 56 56 55 55 55 55 55 55 54 54 54 54 54 54 54 54 54 53 53 53 53 53 53 52 52 52 52 52 52 51 51 51 50 50 50 50 50 50 49 49 49 49 49 49 50 50 50 50 50 50 49 49 49 49 49 49 48 48 48 47 47 47 47 47 47 46 46 46 46 46 46 47 47 47 47 47 47 47 47 47 45 45 45 45 45 45 45 45 45 45 45 45 44 44 44 44 44 44 199 59 39 198 59 39 191 57 38 182 54 36 169 50 33 153 45 30 49 49 49 49 49 49 55 55 55 54 54 54 54 54 54 54 54 54 50 50 50 49 49 49 48 48 48 48 48 48 48 48 48 48 48 48 47 47 47 47 47 47 47 47 47 49 49 49 49 49 49 48 48 48 48 48 48 61 61 61 61 61 61 61 61 61 59 59 59 60 60 60 60 60 60 61 61 61 61 61 61 60 60 60 60 60 60 51 51 51 52 52 52 52 52 52 53 53 53 53 53 53 53 53 53 53 53 53 54 54 54 54 54 54 54 54 54 54 54 54 55 55 55 56 56 56 56 56 56 59 59 59 59 59 59 60 60 60 60 60 60 61 61 61 61 61 61 61 61 61 62 62 62 72 72 72 72 72 72 60 60 60 60 60 60 60 60 60 60 60 60 
67 67 67 67 67 67 66 66 66 66 66 66 65 65 65 64 64 64 64 64 64 63 63 63 62 62 62 62 62 62 60 60 60 60 60 60 59 59 59 57 57 57 56 56 56 56 56 56 55 55 55 54 54 54 55 55 55 54 54 54 53 53 53 45 45 45 45 45 45 44 44 44 45 45 45 45 45 45 45 45 45 45 45 45 45 45 45 43 43 43 229 68 45 230 69 46 227 68 45 222 66 44 215 64 43 207 62 41 197 59 39 187 56 37 175 52 35 161 48 32 146 43 29 126 37 25 45 45 45 45 45 45 45 45 45 44 44 44 43 43 43 46 46 46 45 45 45 45 45 45 44 44 44 44 44 44 43 43 43 43 43 43 43 43 43 42 42 42 42 42 42 47 47 47 60 60 60 52 52 52 52 52 52 50 50 50 50 50 50 51 51 51 52 52 52 52 52 52 53 53 53 53 53 53 53 53 53 54 54 54 54 54 54 54 54 54 55 55 55 55 55 55 55 55 55 55 55 55 56 56 56 56 56 56 64 64 64 65 65 65 65 65 65 66 66 66 66 66 66 67 67 67 67 67 67 67 67 67 67 67 67 68 68 68 68 68 68 68 68 68 68 68 68 68 68 68 59 59 59 60 60 60 60 60 60 60 60 60 
64 64 64 63 63 63 63 63 63 62 62 62 62 62 62 61 61 61 60 60 60 60 60 60 59 59 59 59 59 59 60 60 60 59 59 59 59 59 59 58 58 58 58 58 58 57 57 57 56 56 56 56 56 56 57 57 57 56 56 56 55 55 55 55 55 55 54 54 54 54 54 54 54 54 54 53 53 53 53 53 53 53 53 53 240 72 48 244 73 48 243 72 48 239 72 48 234 70 47 228 69 46 220 66 44 212 64 43 202 61 40 192 57 38 181 54 36 169 50 33 156 46 31 141 42 28 124 37 24 101 30 20 47 47 47 47 47 47 45 45 45 45 45 45 45 45 45 44 44 44 41 41 41 41 41 41 40 40 40 40 40 40 40 40 40 40 40 40 40 40 40 39 39 39 50 50 50 51 51 51 51 51 51 48 48 48 49 49 49 49 49 49 50 50 50 50 50 50 60 60 60 60 60 60 60 60 60 61 61 61 61 61 61 61 61 61 62 62 62 64 64 64 65 65 65 65 65 65 65 65 65 66 66 66 66 66 66 67 67 67 68 68 68 68 68 68 68 68 68 69 69 69 69 69 69 70 70 70 70 70 70 70 70 70 71 71 71 71 71 71 71 71 71 68 68 68 59 59 59 59 59 59 59 59 59 59 59 59 
57 57 57 56 56 56 56 56 56 56 56 56 55 55 55 55 55 55 52 52 52 52 52 52 51 51 51 51 51 51 50 50 50 50 50 50 49 49 49 49 49 49 48 48 48 56 56 56 55 55 55 54 54 54 55 55 55 54 54 54 53 53 53 53 53 53 52 52 52 52 52 52 53 53 53 53 53 53 229 68 45 249 74 49 251 75 50 251 76 51 249 76 52 246 77 53 241 77 53 235 75 52 226 72 50 216 68 46 205 63 43 194 59 40 183 55 37 171 51 34 159 47 31 146 43 29 131 39 26 114 34 22 94 28 18 62 18 12 49 49 49 48 48 48 48 48 48 48 48 48 47 47 47 47 47 47 46 46 46 46 46 46 46 46 46 48 48 48 47 47 47 47 47 47 59 59 59 60 60 60 60 60 60 58 58 58 59 59 59 60 60 60 58 58 58 59 59 59 59 59 59 60 60 60 60 60 60 60 60 60 61 61 61 61 61 61 62 62 62 62 62 62 62 62 62 63 63 63 63 63 63 63 63 63 64 64 64 64 64 64 65 65 65 65 65 65 56 56 56 56 56 56 56 56 56 57 57 57 57 57 57 58 58 58 58 58 58 61 61 61 61 61 61 61 61 61 50 50 50 50 50 50 50 50 50 50 50 50 
57 57 57 56 56 56 56 56 56 55 55 55 55 55 55 54 54 54 54 54 54 53 53 53 53 53 53 52 52 52 52 52 52 51 51 51 50 50 50 49 49 49 49 49 49 48 48 48 48 48 48 47 47 47 48 48 48 47 47 47 47 47 47 46 46 46 45 45 45 45 45 45 45 45 45 239 71 47 252 75 50 255 77 51 255 79 54 255 83 58 255 87 62 255 90 66 254 90 66 246 87 64 235 82 60 222 75 54 209 68 48 196 61 42 184 56 38 171 52 34 159 48 32 147 44 29 133 40 26 118 35 23 101 30 20 81 24 16 52 15 10 51 51 51 50 50 50 50 50 50 49 49 49 49 49 49 48 48 48 48 48 48 47 47 47 47 47 47 46 46 46 46 46 46 59 59 59 60 60 60 60 60 60 58 58 58 59 59 59 59 59 59 51 51 51 51 51 51 52 52 52 52 52 52 53 53 53 53 53 53 53 53 53 54 54 54 54 54 54 55 55 55 55 55 55 55 55 55 55 55 55 56 56 56 56 56 56 57 57 57 57 57 57 58 58 58 58 58 58 58 58 58 59 59 59 59 59 59 57 57 57 57 57 57 57 57 57 57 57 57 58 58 58 58 58 58 49 49 49 49 49 49 49 49 49 49 49 49 
53 53 53 53 53 53 52 52 52 52 52 52 51 51 51 51 51 51 51 51 51 50 50 50 50 50 50 49 49 49 49 49 49 48 48 48 93 55 50 83 52 48 72 48 44 62 44 41 55 41 39 46 46 46 45 45 45 45 45 45 45 45 45 44 44 44 44 44 44 43 43 43 236 71 47 252 75 50 255 77 52 255 81 56 255 89 63 255 98 73 255 105 81 255 109 85 255 108 85 255 103 81 246 94 73 230 84 63 214 74 54 198 65 46 184 58 40 171 52 35 158 47 32 146 43 29 133 40 26 119 35 23 104 31 20 86 26 17 65 19 13 35 10 7 42 42 42 41 41 41 41 41 41 41 41 41 40 40 40 40 40 40 40 40 40 39 39 39 39 39 39 39 39 39 49 49 49 50 50 50 50 50 50 48 48 48 48 48 48 49 49 49 49 49 49 50 50 50 50 50 50 50 50 50 51 51 51 51 51 51 51 51 51 52 52 52 52 52 52 52 52 52 52 52 52 53 53 53 53 53 53 53 53 53 54 54 54 57 57 57 57 57 57 58 58 58 58 58 58 58 58 58 59 59 59 59 59 59 59 59 59 59 59 59 60 60 60 60 60 60 60 60 60 50 50 50 59 59 59 59 59 59 59 59 59 59 59 59 
64 64 64 64 64 64 63 63 63 63 63 63 62 62 62 62 62 62 61 61 61 74 61 59 70 60 58 60 60 60 115 70 64 115 79 74 101 72 68 83 61 57 69 53 50 59 48 47 51 45 44 50 45 44 50 44 44 55 55 55 54 54 54 54 54 54 53 53 53 52 52 52 249 74 49 255 77 51 255 82 56 255 91 66 255 105 80 255 118 93 255 127 103 255 131 108 255 128 105 255 120 98 255 107 86 237 94 73 217 80 60 199 68 50 183 59 41 169 52 35 156 47 31 144 43 28 131 39 26 118 35 23 104 31 20 88 26 17 70 21 14 47 14 9 25 7 5 47 47 47 46 46 46 46 46 46 46 46 46 45 45 45 44 44 44 44 44 44 43 43 43 45 45 45 58 58 58 59 59 59 58 58 58 56 56 56 62 59 59 63 61 60 69 65 64 76 68 67 58 58 58 59 59 59 59 59 59 60 60 60 60 60 60 61 61 61 61 61 61 61 61 61 61 61 61 62 62 62 62 62 62 62 62 62 63 63 63 64 64 64 64 64 64 64 64 64 65 65 65 65 65 65 68 65 65 66 66 66 66 66 66 66 66 66 67 67 67 67 67 67 67 67 67 59 59 59 58 58 58 58 58 58 58 58 58 58 58 58 
62 62 62 61 61 61 61 61 61 62 60 60 65 61 61 77 61 59 78 63 61 75 62 61 67 58 56 117 72 65 125 89 83 110 81 77 88 65 62 70 54 52 59 48 47 50 45 44 50 45 44 50 44 44 50 44 43 49 44 43 52 52 52 52 52 52 51 51 51 242 72 48 250 75 50 255 79 54 255 89 64 255 105 80 255 123 98 255 138 114 255 148 124 255 150 127 255 145 122 255 133 111 255 117 96 240 100 80 218 84 65 198 70 52 180 60 42 165 52 36 152 46 31 140 42 28 128 38 25 116 34 23 102 30 20 87 26 17 70 21 14 51 15 10 25 7 5 49 49 49 48 48 48 48 48 48 47 47 47 47 47 47 47 47 47 46 46 46 46 46 46 45 45 45 60 58 58 60 59 59 60 59 59 58 57 57 59 57 57 59 58 58 60 58 58 60 59 59 72 68 67 60 60 60 61 61 61 61 61 61 62 62 62 62 62 62 63 63 63 63 63 63 63 63 63 64 64 64 64 64 64 64 64 64 65 65 65 66 66 66 66 66 66 67 67 67 73 68 67 72 68 68 71 68 67 69 67 67 68 67 67 69 69 69 69 69 69 69 69 69 69 69 69 59 59 59 59 59 59 59 59 59 59 59 59 59 59 59 
54 54 54 53 53 53 53 53 53 55 53 53 56 54 53 70 56 53 74 62 60 66 56 55 58 50 49 112 75 69 105 75 71 83 60 57 64 48 45 51 41 39 43 37 36 42 37 36 42 37 36 42 37 36 42 36 36 41 36 35 41 36 35 45 45 45 227 68 45 243 73 48 249 76 51 255 84 59 255 98 74 255 118 94 255 138 114 255 154 130 255 162 139 255 162 140 255 154 133 255 140 119 255 122 101 239 103 83 215 85 67 194 70 53 176 59 42 161 51 35 148 45 30 136 41 27 124 37 24 112 33 22 99 29 19 84 25 16 69 20 13 51 15 10 29 8 5 25 7 5 40 40 40 40 40 40 40 40 40 39 39 39 39 39 39 39 39 39 36 36 36 38 38 38 50 49 49 51 50 50 48 46 46 48 46 46 48 47 47 49 47 47 49 48 47 50 48 48 50 48 48 50 50 50 50 50 50 50 50 50 51 51 51 51 51 51 51 51 51 51 51 51 52 52 52 52 52 52 52 52 52 53 53 53 53 53 53 54 54 54 54 54 54 60 55 55 62 58 57 60 56 56 58 55 55 56 55 54 55 54 54 56 56 56 56 56 56 56 56 56 56 56 56 48 48 48 48 48 48 48 48 48 48 48 48 48 48 48 
52 52 52 52 52 52 51 51 51 51 51 51 51 50 50 64 51 50 62 52 51 56 49 48 98 58 52 99 68 64 84 60 57 65 49 46 52 41 39 43 37 36 42 37 36 42 37 36 42 37 36 42 36 36 41 36 35 41 36 35 41 36 35 62 62 64 232 69 46 241 72 48 248 77 53 255 88 64 255 106 82 255 127 103 255 147 124 255 162 139 255 168 146 255 166 144 255 155 134 255 139 119 255 120 100 232 101 82 209 83 65 188 68 51 170 57 41 156 49 34 143 43 29 131 39 26 120 36 24 108 32 21 95 28 19 81 24 16 66 19 13 49 14 9 29 8 5 25 7 5 42 42 42 42 42 42 39 39 39 39 40 39 38 38 38 43 43 43 40 40 40 43 43 43 62 62 63 49 48 48 47 46 46 48 46 46 48 47 46 49 47 47 49 47 47 49 48 48 50 48 48 50 49 48 50 50 50 52 52 52 52 52 52 53 53 53 53 53 53 53 53 53 54 53 53 54 54 54 54 54 54 54 54 54 55 55 55 56 56 56 59 56 55 60 57 56 61 57 57 59 57 57 58 57 56 57 57 56 57 57 57 57 57 57 58 58 58 58 58 58 59 59 59 48 48 48 49 49 49 49 49 49 49 49 49 49 49 49 
54 54 54 53 53 53 53 53 53 52 52 52 60 62 61 67 59 57 65 58 56 56 57 55 96 63 58 89 64 61 75 57 54 61 50 48 51 45 45 50 45 44 50 45 44 50 44 44 49 44 43 49 44 43 49 43 43 49 43 42 48 43 42 205 61 41 230 69 46 237 71 48 245 78 54 255 91 67 255 109 86 255 130 107 255 148 125 255 160 138 255 164 142 255 160 139 255 148 128 255 132 112 246 113 94 222 94 76 199 78 60 180 64 48 163 54 38 149 47 32 137 41 28 126 37 25 114 34 22 103 30 20 90 27 18 77 23 15 62 18 12 46 13 9 27 8 5 25 7 5 25 7 5 47 47 47 47 47 48 46 47 47 53 53 53 48 48 48 48 48 48 47 47 47 16 16 31 21 21 38 26 26 42 27 27 42 26 26 41 22 22 36 22 22 34 21 21 32 19 19 27 61 59 59 61 60 60 60 60 60 61 61 61 61 61 61 62 62 62 62 62 62 62 62 62 63 63 63 63 63 63 63 63 63 63 64 63 66 66 66 66 66 66 68 65 65 67 65 65 64 63 63 64 63 63 64 63 63 64 63 63 65 65 65 56 56 56 56 56 56 56 56 56 48 48 48 48 48 48 51 49 48 48 47 47 49 52 50 
61 61 61 63 63 63 61 61 61 69 73 80 57 59 62 59 54 54 57 54 53 54 53 52 86 58 54 75 55 53 63 50 48 53 46 45 50 45 44 50 45 44 50 44 44 49 44 43 49 44 43 49 43 43 49 43 42 48 43 42 48 43 42 212 63 42 226 67 45 232 70 47 239 77 54 252 90 67 255 108 85 255 126 103 255 141 119 255 150 129 255 152 131 255 147 126 255 135 115 252 119 100 230 102 84 208 85 68 187 71 54 170 59 43 155 50 35 142 44 30 130 39 26 119 36 24 108 32 21 97 29 19 85 25 17 71 21 14 57 17 11 42 12 8 25 7 5 25 7 5 25 7 5 40 40 40 40 40 40 39 39 39 36 36 36 35 35 35 19 19 35 25 25 44 28 28 46 31 31 49 31 31 49 30 30 47 27 27 43 29 29 45 24 24 38 26 26 39 25 25 36 23 23 32 21 21 27 59 59 59 59 59 59 60 60 60 60 60 60 60 60 60 61 61 61 61 61 61 65 68 66 61 62 62 61 63 62 62 63 62 62 63 63 54 58 56 58 67 62 67 87 75 76 107 88 63 63 63 64 63 63 65 65 65 68 68 68 68 68 68 68 68 68 62 59 59 61 59 58 60 59 58 57 57 57 59 61 60 
59 59 59 60 60 60 60 60 60 53 54 55 53 53 53 53 52 52 54 52 52 53 52 52 77 54 50 66 50 48 55 47 45 50 45 44 50 44 44 50 44 43 49 44 43 60 84 70 54 69 60 50 62 55 41 35 35 41 35 34 40 35 34 209 62 41 220 66 44 225 68 46 232 75 53 243 87 64 255 101 79 255 116 95 255 128 107 255 135 114 255 135 115 255 129 109 251 118 99 232 104 86 212 89 72 192 75 58 175 63 47 159 53 38 146 46 32 134 41 28 123 37 25 113 34 22 102 30 20 91 27 18 79 23 15 66 19 13 52 15 10 36 11 7 25 7 5 25 7 5 25 7 5 44 44 44 44 44 44 44 44 44 36 36 36 26 26 45 26 26 46 27 27 47 30 30 49 30 30 49 23 23 41 24 24 42 21 21 38 22 22 37 21 21 35 21 21 34 21 21 32 27 27 37 24 24 32 20 20 25 53 53 53 53 53 53 53 53 53 54 54 54 54 54 54 54 54 54 53 54 54 54 55 54 54 55 54 42 44 43 54 58 56 54 58 56 54 58 56 61 74 66 76 99 86 79 114 93 66 66 66 66 66 66 69 69 69 69 69 69 66 66 66 57 57 57 58 58 58 58 58 58 58 58 58 58 59 60 
56 56 56 55 55 55 55 55 55 62 63 65 60 61 62 60 62 61 59 61 60 52 51 51 46 45 45 51 40 38 42 37 36 42 37 36 42 37 36 42 36 36 69 85 76 41 50 44 87 197 131 90 203 135 86 193 129 75 170 113 57 129 86 203 61 40 212 63 42 217 66 44 223 71 50 231 81 59 241 92 71 249 103 82 255 112 91 255 116 96 251 115 95 241 109 90 227 100 81 210 88 70 193 76 59 177 65 49 162 55 40 149 48 33 137 42 29 126 38 25 116 35 23 106 31 21 95 28 19 84 25 16 72 21 14 59 17 11 46 13 9 31 9 6 25 7 5 25 7 5 25 7 5 50 50 50 50 50 50 54 54 54 27 27 46 31 31 51 30 30 50 30 30 51 26 26 46 26 26 45 26 26 44 22 22 40 24 24 41 21 21 37 20 20 34 20 20 34 21 21 33 21 21 32 22 22 31 20 20 26 19 19 23 65 65 65 59 59 59 57 57 57 57 57 57 58 58 58 51 52 51 51 52 52 42 43 43 42 43 43 44 48 46 45 48 46 45 49 46 46 52 48 55 71 61 64 91 75 57 57 57 55 55 55 57 57 57 57 57 57 57 57 57 52 51 51 51 51 50 51 50 50 49 49 49 47 47 47 
59 59 59 59 59 59 58 58 58 52 52 52 52 52 52 53 57 54 50 49 49 54 54 54 54 53 53 46 38 37 42 37 36 42 36 36 42 36 36 66 82 72 40 47 43 94 213 142 100 226 150 99 224 149 94 212 141 85 192 128 71 161 107 195 58 39 204 61 40 208 63 42 212 67 46 218 73 53 224 82 61 229 89 69 232 95 75 231 97 78 225 95 77 216 90 72 204 82 65 190 73 57 176 64 48 162 56 40 150 49 34 138 43 29 128 39 26 118 35 23 108 32 21 98 29 19 88 26 17 77 23 15 65 19 13 52 15 10 39 11 7 25 7 5 25 7 5 25 7 5 25 7 5 25 7 5 42 42 42 19 16 34 28 28 47 26 26 46 25 25 45 24 24 44 26 26 46 25 25 44 25 25 43 22 22 40 22 22 38 25 25 40 22 22 36 18 18 32 19 19 31 20 20 30 21 21 29 18 18 25 23 23 28 18 18 20 64 64 64 69 69 69 70 70 70 70 70 70 60 61 60 60 61 61 42 43 42 42 43 43 44 48 46 48 45 44 50 47 45 59 53 48 78 64 55 60 60 60 61 60 60 61 61 61 61 61 61 66 66 66 57 57 57 50 50 50 54 54 54 56 55 55 55 55 55 55 55 55 
90 90 90 90 90 90 89 89 89 70 70 70 91 90 89 90 87 87 89 87 86 86 86 85 85 85 85 85 84 84 49 44 43 49 44 43 58 80 67 48 57 52 87 196 131 99 223 148 102 229 153 116 242 166 95 214 143 86 193 129 73 165 110 186 55 37 194 58 38 198 59 40 201 62 42 204 66 47 207 71 52 210 76 57 210 79 61 207 80 62 202 78 60 193 74 57 183 68 51 172 61 45 160 54 39 149 48 34 138 43 30 129 39 26 119 36 24 110 33 22 100 30 20 90 27 18 80 24 16 69 20 13 57 17 11 45 13 9 31 9 6 25 7 5 25 7 5 25 7 5 25 7 5 25 7 5 43 43 43 23 22 41 25 25 45 92 91 112 28 28 48 27 27 47 27 27 46 26 26 45 23 23 41 22 22 40 25 25 41 26 26 42 23 23 37 21 21 34 20 20 31 20 20 30 20 20 29 20 20 27 18 18 23 24 24 27 19 19 19 65 65 65 65 65 65 66 66 66 163 102 61 184 115 69 180 112 67 160 100 60 122 76 46 57 54 53 57 54 53 57 55 53 61 57 55 134 124 117 90 89 89 91 91 91 91 91 91 92 92 92 67 67 67 63 63 63 80 80 80 81 81 81 82 83 82 82 83 83 
74 74 74 94 94 94 94 94 94 93 93 93 72 72 72 76 72 71 75 71 71 73 70 70 69 69 68 71 79 92 50 55 61 47 49 53 53 68 59 44 48 45 87 196 131 96 216 144 99 222 148 247 255 255 94 207 139 82 184 123 70 157 105 175 52 35 184 55 36 187 56 37 189 57 39 191 60 41 192 62 44 192 65 47 191 66 49 187 66 49 182 64 47 174 61 45 166 56 41 156 52 37 147 47 33 137 43 29 128 39 26 119 36 24 110 33 22 101 30 20 92 27 18 82 24 16 72 21 14 61 18 12 49 14 9 37 11 7 25 7 5 25 7 5 25 7 5 25 7 5 25 7 5 25 7 5 17 15 32 23 23 42 89 89 109 92 91 111 33 33 53 29 29 49 29 29 48 23 23 41 23 23 41 25 25 42 25 25 41 23 23 38 23 23 37 19 19 32 19 19 30 19 19 29 20 20 29 19 19 26 18 18 23 24 24 27 25 25 25 59 59 59 60 60 60 154 96 57 195 122 73 203 127 76 196 122 73 176 110 66 145 90 54 95 59 35 6 3 2 57 54 53 57 54 53 63 59 55 90 75 65 76 62 65 74 74 74 74 74 74 75 75 75 72 72 72 89 89 89 89 89 89 73 73 73 74 75 74 
73 73 73 73 73 73 72 72 72 72 72 72 71 71 71 76 71 70 96 91 91 87 83 82 52 58 67 90 136 204 98 147 221 91 137 206 73 110 165 10 15 23 80 180 120 88 198 132 90 202 135 88 198 132 82 185 123 74 166 111 62 140 93 163 49 32 172 51 34 176 53 35 178 53 36 178 54 37 177 55 38 176 56 39 174 57 40 170 56 39 165 54 38 158 51 36 151 48 33 143 45 31 135 41 28 126 38 26 118 35 24 110 33 22 102 30 20 93 27 18 83 25 16 74 22 14 63 19 12 52 15 10 41 12 8 28 8 5 25 7 5 25 7 5 25 7 5 25 7 5 25 7 5 25 7 5 20 18 36 83 83 102 132 109 114 91 90 109 88 88 108 28 28 47 174 174 192 57 57 75 31 31 48 24 24 40 22 22 37 30 30 45 32 32 45 26 26 39 26 26 37 20 20 30 19 19 27 20 20 27 20 20 24 24 24 26 26 26 26 20 20 20 71 71 71 169 105 63 197 123 73 239 164 113 241 169 121 174 108 65 144 90 54 99 62 37 172 76 95 204 90 113 192 85 107 152 67 84 57 54 54 58 54 54 58 54 55 114 99 102 62 62 62 58 58 58 58 58 58 56 56 56 56 56 56 56 56 56 
84 84 84 83 83 83 82 82 82 82 82 82 81 81 81 81 81 81 69 63 62 70 65 64 76 114 171 99 148 223 142 193 255 93 139 209 76 115 172 49 73 110 66 150 100 76 171 114 78 176 117 76 172 114 71 160 106 62 140 93 50 114 76 149 44 29 160 48 32 164 49 32 166 50 33 166 50 33 165 50 34 163 50 34 159 49 34 155 48 33 150 47 32 144 45 30 138 42 29 131 40 27 124 37 25 116 35 23 109 32 21 101 30 20 92 27 18 83 25 16 74 22 14 64 19 12 54 16 10 41 32 12 41 41 21 27 29 11 55 59 42 58 63 49 53 56 43 25 7 5 25 7 5 19 14 13 79 78 96 115 89 112 123 103 109 92 91 110 89 89 108 89 89 107 55 55 73 22 22 39 22 22 38 22 22 37 24 24 39 31 31 45 30 30 43 24 24 36 27 27 37 26 26 35 27 27 35 27 27 33 27 27 31 20 20 23 27 27 27 25 25 25 79 79 79 154 96 57 181 113 67 185 116 69 177 110 66 158 99 59 129 80 48 20 12 7 220 98 122 229 102 127 214 95 119 180 80 100 121 53 67 6 3 3 48 44 45 48 44 45 82 59 64 46 46 46 49 49 49 49 49 49 49 49 49 58 58 58 
81 81 81 80 80 80 79 79 79 78 78 78 60 60 60 60 60 60 76 76 76 82 76 75 72 108 163 89 134 201 90 135 203 82 123 184 66 99 149 40 60 90 44 100 67 58 132 88 62 140 93 60 137 91 55 125 83 47 106 70 34 78 52 131 39 26 146 44 29 152 45 30 154 46 30 154 46 30 152 46 30 150 45 30 147 44 30 143 43 29 138 42 28 133 40 27 127 38 25 120 36 24 113 34 22 106 32 21 99 29 19 91 27 18 83 24 16 74 22 14 65 19 13 43 39 17 44 51 30 34 38 17 22 35 16 16 28 11 21 31 15 21 30 15 23 31 18 26 32 21 66 71 61 32 30 29 48 45 62 56 48 61 68 56 66 55 54 72 52 52 70 55 55 73 55 55 72 54 54 71 54 54 70 55 55 70 53 53 67 23 23 36 22 22 34 26 26 37 26 26 36 25 25 33 26 26 33 27 27 32 26 26 29 19 19 21 22 22 22 27 25 25 67 67 67 113 70 42 149 93 56 156 97 58 149 93 55 130 81 48 100 62 37 166 73 92 214 95 119 242 120 144 206 91 114 173 76 96 118 52 65 23 10 12 48 44 45 48 44 45 65 52 54 49 49 49 48 48 48 46 46 46 46 46 46 46 46 46 
68 68 68 68 68 68 67 67 67 68 68 68 67 67 67 66 66 66 66 66 66 81 81 81 43 65 98 67 101 152 69 104 156 61 92 138 45 68 102 17 25 38 20 18 17 31 71 47 39 89 59 40 90 60 35 79 53 26 59 39 12 28 18 10 23 15 131 39 26 138 41 27 141 42 28 141 42 28 140 42 28 138 41 27 135 40 27 131 39 26 126 38 25 121 36 24 116 34 23 109 33 22 103 31 20 96 28 19 89 26 17 81 24 16 73 21 14 64 19 12 44 48 26 42 52 30 28 48 28 26 45 26 19 32 13 19 31 13 19 29 13 19 29 13 20 28 14 21 27 15 22 26 16 23 25 17 49 49 49 36 35 51 66 65 83 85 85 102 81 81 99 52 52 68 51 51 67 50 50 66 50 50 65 50 50 64 53 53 66 54 54 67 55 55 66 83 83 93 51 51 60 51 51 59 53 53 59 52 52 57 54 54 57 85 85 86 83 82 82 47 45 45 105 105 105 104 104 104 93 58 35 109 68 41 104 65 39 86 53 32 52 32 19 118 52 65 179 79 99 187 83 104 173 77 96 141 62 78 85 38 47 6 3 3 57 53 54 57 53 54 58 58 58 58 58 58 71 71 71 71 71 71 72 72 72 72 72 72 
83 83 83 83 83 83 82 82 82 82 82 82 81 81 81 80 80 80 79 79 79 79 79 79 78 78 78 27 40 60 35 53 80 28 43 64 10 15 23 8 5 5 17 19 18 17 19 18 10 23 15 10 23 15 10 23 15 10 23 15 10 23 15 19 17 17 112 33 22 123 37 24 127 38 25 128 38 25 128 38 25 126 37 25 123 37 24 119 35 23 115 34 23 110 33 22 104 31 20 98 29 19 92 27 18 85 25 17 78 23 15 70 21 14 62 18 12 45 50 28 39 50 28 29 50 29 28 48 28 31 49 31 29 47 29 24 35 18 24 34 18 24 33 18 25 33 19 24 30 18 24 28 18 22 24 16 25 26 20 74 62 58 51 32 36 50 52 67 52 53 69 53 53 69 52 52 67 51 51 66 84 83 97 79 79 92 80 79 92 79 79 90 80 80 90 77 77 86 78 78 86 48 48 55 50 50 55 80 80 84 82 82 85 49 49 49 49 49 49 46 44 44 109 109 109 109 109 109 109 109 109 20 12 7 24 15 9 20 12 7 11 10 9 11 10 9 105 46 58 126 56 70 115 51 64 80 35 44 23 10 12 6 3 3 57 53 54 71 71 71 67 67 67 67 67 67 67 67 67 67 67 67 67 67 67 67 67 67 
65 65 65 80 80 80 79 79 79 129 129 129 129 129 129 129 129 129 130 130 130 130 130 130 130 130 130 108 109 110 111 113 116 111 113 117 62 64 67 59 59 60 59 60 59 59 60 59 62 67 64 62 67 64 62 67 64 62 67 64 62 67 64 62 67 64 86 25 17 106 31 21 112 33 22 114 34 22 114 34 22 113 33 22 110 33 22 107 32 21 103 30 20 98 29 19 93 27 18 87 26 17 81 24 16 74 22 14 67 20 13 59 17 11 45 48 26 35 45 24 36 56 36 24 44 24 32 51 32 28 47 28 27 44 27 30 46 30 28 43 28 24 33 18 25 32 19 25 30 19 25 29 19 26 28 20 27 27 21 21 18 17 49 48 56 55 56 70 59 59 74 51 51 66 50 50 64 57 57 70 57 56 69 77 76 88 77 77 88 77 77 87 49 49 58 73 73 82 74 74 81 74 74 79 47 46 51 35 34 36 47 47 49 38 38 38 29 28 28 30 26 25 108 108 108 108 108 108 105 98 94 65 58 53 59 54 51 54 51 49 54 51 49 87 86 86 87 86 85 25 20 21 23 10 12 19 17 18 19 17 18 19 17 18 77 76 76 80 80 80 77 77 77 77 77 77 78 78 78 78 78 78 78 78 78 79 79 79 
135 135 135 135 135 135 135 135 135 135 135 135 135 135 135 135 135 135 135 135 135 134 134 134 130 130 131 120 124 130 124 129 138 71 76 84 67 71 76 64 66 69 61 63 62 64 69 66 66 74 70 67 76 71 66 74 70 64 70 67 116 121 118 64 69 66 64 69 66 84 25 16 94 28 18 98 29 19 100 30 20 99 29 19 97 29 19 94 28 18 90 27 18 86 25 17 81 24 16 75 22 15 69 20 13 62 18 12 55 16 11 47 14 9 40 49 28 36 56 36 24 44 24 26 45 26 24 43 24 31 48 30 31 47 31 28 44 28 31 46 31 31 44 31 30 42 30 25 30 19 23 27 17 23 24 17 22 22 16 22 19 16 20 16 17 35 38 50 33 34 47 43 43 56 44 43 56 42 42 54 51 51 63 47 47 58 50 50 60 49 49 58 44 44 52 37 37 45 40 39 46 40 40 45 34 34 37 25 23 24 33 33 34 30 29 29 35 35 35 27 24 23 69 69 69 87 72 63 92 75 65 89 74 64 83 70 61 72 63 57 57 53 51 69 57 59 84 63 67 81 62 66 70 57 59 95 90 91 95 90 91 88 86 87 108 106 106 107 106 106 107 107 107 106 106 106 105 105 105 105 105 105 77 77 77 77 77 77 
86 86 86 86 86 86 86 86 86 86 86 86 85 85 85 85 85 85 82 82 82 83 83 83 78 79 80 85 96 113 141 153 171 139 151 168 136 145 160 129 136 146 120 122 126 130 147 137 132 151 140 132 152 140 131 149 138 129 145 135 125 138 130 67 74 70 66 71 68 66 71 68 73 22 14 81 24 16 83 25 16 84 25 16 82 24 16 80 24 16 76 23 15 72 21 14 67 20 13 62 18 12 56 16 11 49 14 9 42 12 8 39 43 23 33 51 32 27 46 27 24 43 24 25 43 25 110 127 109 35 51 35 26 41 26 27 42 27 30 43 30 30 42 30 29 40 29 28 37 28 21 24 15 22 22 15 22 21 16 22 19 16 23 18 18 58 59 65 47 48 48 48 48 60 47 46 58 44 44 55 38 38 49 37 36 46 37 36 45 36 36 44 35 35 42 27 27 33 29 29 34 35 35 39 36 36 37 28 27 26 38 38 38 30 29 29 37 37 37 24 24 24 119 119 119 151 129 115 154 131 116 107 86 71 101 81 69 90 75 65 76 66 59 107 75 81 113 77 84 108 75 82 97 70 75 121 103 107 98 92 93 91 89 89 70 68 69 70 68 68 69 69 69 68 68 68 69 69 69 68 68 68 68 68 68 68 68 68 
86 86 86 86 86 86 86 86 86 86 86 86 85 85 85 86 86 86 85 85 85 85 85 85 140 140 140 152 168 192 154 171 196 153 169 194 149 163 185 142 153 170 137 157 145 142 169 153 143 172 155 143 172 155 142 169 153 139 164 149 81 102 89 77 92 83 71 79 74 68 73 70 39 11 7 59 17 11 65 19 13 67 20 13 67 20 13 65 19 13 62 18 12 58 17 11 53 16 10 48 14 9 42 12 8 36 10 7 29 8 5 39 47 28 27 44 25 28 45 27 23 41 23 25 43 25 19 35 19 22 38 22 26 41 26 29 43 29 30 43 30 31 42 31 31 41 31 30 39 30 26 34 26 26 31 26 21 20 15 21 9 6 21 9 7 23 14 15 41 41 41 39 39 39 39 38 49 37 37 47 46 44 54 45 44 52 44 43 50 43 42 49 34 34 40 29 29 34 29 29 33 31 31 34 34 34 35 33 33 33 39 39 39 33 33 33 39 38 38 33 33 33 33 33 33 78 52 35 124 97 79 123 96 79 114 90 75 104 84 71 133 118 109 170 127 136 175 129 139 172 128 137 159 122 129 142 114 119 116 102 105 93 92 92 109 108 108 110 108 108 108 108 108 108 108 108 70 70 70 70 70 70 69 69 69 69 69 69 
88 88 88 88 88 88 88 88 88 87 87 87 87 87 87 87 87 87 86 86 86 144 144 144 89 89 89 103 121 149 106 126 156 107 126 156 101 118 144 93 106 126 90 119 102 94 130 109 96 133 111 96 132 110 94 130 108 92 125 105 146 174 157 141 164 150 135 151 141 126 131 128 142 142 142 25 7 5 42 12 8 47 14 9 49 14 9 48 14 9 46 13 9 42 12 8 38 11 7 33 10 6 28 8 5 25 7 5 25 7 5 25 42 25 29 45 27 25 41 23 23 40 23 25 41 25 20 36 20 22 37 22 22 36 22 28 41 28 27 39 27 28 38 28 30 39 30 30 38 30 28 35 28 28 33 28 20 10 5 21 8 6 21 8 6 23 12 12 42 42 42 48 48 48 46 46 46 44 44 52 43 43 51 55 51 58 45 44 50 45 45 51 44 44 49 35 35 39 33 33 36 38 38 39 33 33 33 33 33 33 35 35 35 34 33 33 31 31 31 30 30 30 30 30 30 84 55 37 89 59 39 133 103 84 80 53 35 70 47 32 56 38 26 88 44 52 100 49 59 109 60 69 172 129 137 154 121 127 124 107 111 112 111 111 112 110 111 114 114 114 110 110 110 110 110 110 110 110 110 109 109 109 109 109 109 67 67 67 
153 153 153 153 153 153 153 153 153 153 153 153 153 153 153 152 152 152 92 92 92 92 92 92 92 92 92 91 91 91 91 91 91 106 125 154 99 114 137 106 96 94 96 131 110 101 143 118 103 146 120 105 148 122 106 148 123 157 196 173 154 189 168 149 178 161 142 164 151 129 135 131 142 142 142 141 141 141 141 141 141 25 7 5 27 8 5 28 8 5 27 8 5 25 7 5 25 7 5 25 7 5 25 7 5 25 7 5 26 30 15 37 53 37 28 45 28 23 39 23 28 42 26 25 40 25 20 35 20 22 36 22 22 35 22 24 36 24 27 38 27 29 38 29 28 36 28 28 35 28 26 31 26 21 11 5 21 9 5 21 8 6 21 8 7 22 11 10 49 49 49 47 47 47 38 38 38 39 39 39 37 37 44 37 37 42 38 38 43 40 40 44 45 45 48 36 36 38 34 34 35 39 39 39 40 40 40 34 34 34 36 36 36 27 27 27 38 38 38 30 30 30 29 29 29 29 29 29 89 59 39 89 59 39 83 55 36 72 48 32 56 38 26 31 30 30 89 44 53 95 47 56 85 42 51 63 33 39 122 122 122 121 121 121 122 122 122 118 118 118 113 113 113 69 69 69 69 69 69 68 68 68 68 68 68 68 68 68 
156 156 156 155 155 155 155 155 155 155 155 155 155 155 155 94 94 94 94 94 94 94 94 94 93 93 93 93 93 93 90 90 90 90 90 90 90 90 90 106 91 89 102 90 89 106 151 124 108 156 127 114 162 133 139 186 158 164 208 181 160 200 176 155 188 168 147 171 156 145 145 145 145 145 145 147 147 147 89 89 89 88 88 88 25 7 5 25 7 5 25 7 5 25 7 5 25 7 5 25 7 5 25 7 5 25 7 5 26 29 15 62 61 36 35 51 36 24 39 24 26 40 25 22 36 22 20 33 20 21 33 21 20 32 20 23 33 23 24 33 24 29 37 29 30 37 30 30 35 29 21 11 5 20 9 5 20 8 5 20 7 5 25 12 10 21 10 8 49 48 48 50 50 49 39 39 39 38 38 38 39 39 39 37 37 41 38 38 41 39 39 41 36 36 37 34 34 35 37 37 37 39 39 39 37 37 37 30 30 30 27 27 27 18 18 18 41 41 41 41 41 41 41 41 41 34 34 34 31 31 31 75 50 33 73 49 33 67 48 35 38 38 38 38 38 38 38 38 38 39 39 39 44 44 44 44 44 44 44 44 44 125 125 125 123 123 123 78 78 78 74 74 74 74 74 74 74 74 74 74 74 74 70 70 70 69 69 69 
159 159 159 159 159 159 156 156 156 156 156 156 93 93 93 93 93 93 93 93 93 93 93 93 93 93 93 92 92 92 91 91 91 152 152 152 152 152 152 151 151 151 151 151 151 165 207 182 172 222 192 172 223 193 110 160 130 108 155 126 104 145 120 97 131 111 91 91 91 90 90 90 89 89 89 90 90 90 89 89 89 89 89 89 28 28 28 29 29 29 25 7 5 25 7 5 25 7 5 25 7 5 25 7 5 25 7 5 25 7 5 42 55 42 33 47 33 28 42 28 37 49 36 29 42 29 27 39 27 27 39 27 26 36 26 27 36 27 28 36 28 28 35 28 24 30 24 21 12 6 21 11 6 23 11 8 22 9 7 24 11 9 26 13 11 21 10 9 33 32 32 49 49 49 47 46 46 40 40 40 39 39 39 38 38 38 43 43 44 44 44 44 30 30 30 37 37 37 32 32 32 34 34 34 37 37 37 26 26 26 18 18 18 30 30 30 34 34 34 34 34 34 34 34 34 34 34 34 33 33 33 41 41 41 42 42 42 38 38 38 39 39 39 39 39 39 40 40 40 40 40 40 40 40 40 39 39 39 39 39 39 122 122 122 126 126 126 126 126 126 121 121 121 120 120 120 75 75 75 74 74 74 74 74 74 74 74 74 
96 96 96 96 96 96 96 96 96 158 158 158 157 157 157 157 157 157 156 156 156 156 156 156 156 156 156 155 155 155 156 156 156 159 159 159 158 158 158 158 158 158 157 157 157 157 157 157 156 156 156 171 218 190 110 157 129 106 150 124 92 92 92 92 92 92 91 91 91 92 92 92 91 91 91 89 89 89 88 88 88 88 88 88 88 88 88 26 26 26 26 26 26 25 25 25 19 12 11 25 7 5 25 7 5 25 7 5 25 7 5 51 62 51 47 62 48 58 70 58 33 45 33 33 44 32 24 35 24 30 40 30 30 39 30 30 38 30 32 38 32 32 38 32 25 16 10 22 12 7 24 12 9 24 11 9 24 11 9 25 12 10 24 11 9 20 11 9 21 21 21 30 30 30 45 45 45 40 40 40 39 39 39 37 37 37 37 37 37 43 43 43 34 34 34 36 36 36 35 35 35 34 34 34 26 26 26 30 30 30 30 30 30 30 30 30 29 29 29 30 30 30 30 30 30 30 30 30 34 34 34 35 35 35 35 35 35 43 43 43 43 43 43 42 42 42 42 42 42 39 39 39 39 39 39 40 40 40 125 125 125 125 125 125 123 123 123 119 119 119 119 119 119 119 119 119 122 122 122 121 121 121 120 120 120 75 75 75 
96 96 96 96 96 96 160 160 160 161 161 161 161 161 161 164 164 164 163 163 163 163 163 163 162 162 162 162 162 162 160 160 160 160 160 160 160 160 160 159 159 159 159 159 159 158 158 158 157 157 157 158 158 158 95 95 95 91 91 91 91 91 91 91 91 91 90 90 90 89 89 89 89 89 89 89 89 89 89 89 89 88 88 88 89 89 89 88 88 88 19 12 11 19 12 11 19 12 11 19 12 11 26 19 18 26 19 18 26 19 18 64 73 64 56 66 56 42 52 42 46 56 46 51 60 50 76 85 76 84 92 84 87 95 87 87 93 87 23 15 8 23 14 8 23 13 8 22 11 7 24 11 9 24 11 9 22 9 7 23 10 8 26 13 12 24 19 18 32 32 32 32 32 32 19 19 19 31 31 31 34 34 34 34 34 34 40 40 40 29 29 29 26 26 26 28 28 28 25 25 25 33 33 33 33 33 33 33 33 33 33 33 33 33 33 33 33 33 33 30 30 30 31 31 31 31 31 31 31 31 31 30 30 30 30 30 30 34 34 34 34 34 34 36 36 36 44 44 44 44 44 44 132 132 132 130 130 130 130 130 130 125 125 125 126 126 126 121 121 121 121 121 121 120 120 120 119 119 119 119 119 119 119 119 119 118 118 118 
167 167 167 167 167 167 166 166 166 166 166 166 165 165 165 164 164 164 164 164 164 164 164 164 163 163 163 163 163 163 162 162 162 163 163 163 159 159 159 158 158 158 158 158 158 158 158 158 157 157 157 92 92 92 92 92 92 91 91 91 91 91 91 91 91 91 91 91 91 91 91 91 90 90 90 93 93 93 93 93 93 93 93 93 92 92 92 81 74 73 142 135 134 142 135 134 141 134 133 141 134 133 19 12 11 19 12 11 19 12 11 60 61 56 48 56 48 51 59 51 40 48 40 47 54 45 31 37 29 30 36 30 25 18 10 26 17 10 23 14 8 23 12 8 23 11 8 24 11 9 24 11 9 22 9 7 22 9 7 24 11 9 21 10 9 33 33 33 26 26 26 27 27 27 28 28 28 28 28 28 28 28 28 30 30 30 26 26 26 25 25 25 24 24 24 23 23 23 24 24 24 29 29 29 29 29 29 30 30 30 34 34 34 34 34 34 34 34 34 34 34 34 34 34 34 34 34 34 30 30 30 30 30 30 31 31 31 32 32 32 32 32 32 32 32 32 83 83 83 83 83 83 132 132 132 133 133 133 133 133 133 132 132 132 131 131 131 126 126 126 122 122 122 122 122 122 121 121 121 74 74 74 73 73 73 73 73 73 
168 168 168 168 168 168 168 168 168 167 167 167 168 168 168 167 167 167 163 163 163 163 163 163 163 163 163 162 162 162 162 162 162 161 161 161 160 160 160 159 159 159 159 159 159 158 158 158 158 158 158 94 94 94 158 158 158 160 160 160 159 159 159 159 159 159 158 158 158 157 157 157 156 156 156 156 156 156 156 156 156 145 138 137 144 137 136 144 137 136 144 136 135 143 136 135 143 136 135 142 135 134 81 74 73 81 73 72 80 73 72 80 73 72 64 67 62 52 58 52 42 49 42 39 45 39 46 51 46 25 17 10 25 16 10 25 15 10 26 14 10 25 13 10 26 12 10 24 11 9 25 11 9 22 9 7 24 11 9 20 8 6 25 21 20 30 30 30 29 29 29 32 32 32 30 30 30 31 31 31 31 31 31 30 30 30 32 32 32 27 27 27 28 28 28 25 25 25 26 26 26 25 25 25 38 38 38 30 30 30 29 29 29 29 29 29 30 30 30 34 34 34 34 34 34 35 35 35 35 35 35 86 86 86 85 85 85 81 81 81 81 81 81 81 81 81 82 82 82 82 82 82 131 131 131 129 129 129 84 84 84 84 84 84 85 85 85 80 80 80 79 79 79 79 79 79 79 79 79 78 78 78 75 75 75 74 74 74 
167 167 167 167 167 167 167 167 167 167 167 167 166 166 166 165 165 165 98 98 98 97 97 97 97 97 97 97 97 97 97 97 97 97 97 97 97 97 97 99 99 99 99 99 99 98 98 98 162 162 162 162 162 162 161 161 161 161 161 161 160 160 160 160 160 160 160 160 160 159 159 159 155 155 155 155 155 155 147 139 138 146 139 138 146 139 137 145 138 137 145 138 137 144 137 136 144 137 136 143 136 135 81 74 73 81 74 73 81 74 73 81 74 73 80 73 72 49 49 45 50 54 50 52 56 52 26 16 11 25 15 10 25 14 10 25 13 10 26 13 10 26 12 10 26 12 10 25 12 10 25 12 10 27 14 12 20 8 6 21 13 12 31 31 31 33 33 33 30 30 30 30 30 30 31 31 31 34 34 34 34 34 34 33 33 33 31 31 31 29 29 29 29 29 29 28 28 28 127 127 127 126 126 126 127 127 127 124 124 124 83 83 83 83 83 83 83 83 83 83 83 83 135 135 135 134 134 134 138 138 138 137 137 137 137 137 137 138 138 138 138 138 138 137 137 137 132 132 132 132 132 132 131 131 131 132 132 132 132 132 132 131 131 131 80 80 80 80 80 80 80 80 80 80 80 80 80 80 80 79 79 79 79 79 79 78 78 78 
100 100 100 100 100 100 100 100 100 99 99 99 99 99 99 100 100 100 100 100 100 99 99 99 102 102 102 102 102 102 101 101 101 100 100 100 100 100 100 99 99 99 99 99 99 98 98 98 164 164 164 164 164 164 163 163 163 159 159 159 159 159 159 158 158 158 157 157 157 156 156 156 156 156 156 156 156 156 148 140 139 147 140 139 147 140 139 146 139 138 146 139 138 145 138 137 145 138 137 144 137 136 82 75 74 82 75 74 82 74 73 81 74 73 81 74 73 81 74 73 53 50 49 32 21 18 28 16 13 26 14 11 26 12 10 26 12 10 26 13 11 26 12 11 26 13 11 26 13 11 28 15 13 21 9 8 25 17 16 31 31 31 30 30 30 30 30 30 33 33 33 32 32 32 35 35 35 32 32 32 34 34 34 34 34 34 34 34 34 27 27 27 29 29 29 20 20 20 77 77 77 76 76 76 73 73 73 75 75 75 88 88 88 88 88 88 140 140 140 136 136 136 136 136 136 135 135 135 136 136 136 136 136 136 136 136 136 138 138 138 138 138 138 137 137 137 138 138 138 138 138 138 138 138 138 132 132 132 132 132 132 132 132 132 132 132 132 127 127 127 127 127 127 77 77 77 80 80 80 80 80 80 80 80 80 79 79 79 
102 102 102 102 102 102 105 105 105 105 105 105 104 104 104 103 103 103 103 103 103 102 102 102 102 102 102 102 102 102 101 101 101 102 102 102 101 101 101 101 101 101 97 97 97 163 163 163 162 162 162 161 161 161 160 160 160 160 160 160 159 159 159 160 160 160 159 159 159 158 158 158 160 160 160 149 142 141 149 141 140 148 141 140 148 140 139 147 140 139 147 140 139 146 139 138 146 139 138 145 138 137 145 138 137 82 75 74 82 75 74 82 75 74 82 74 73 81 74 73 81 74 73 62 61 61 39 28 26 32 20 18 29 17 15 28 16 14 29 16 14 29 16 14 30 17 16 23 11 10 22 12 10 28 25 26 18 18 18 25 25 26 31 31 30 23 23 23 26 26 26 25 25 25 25 25 25 28 28 28 24 24 24 24 24 24 27 27 27 23 23 23 22 22 22 78 78 78 77 77 77 78 78 78 76 76 76 77 77 77 78 78 78 88 88 88 88 88 88 142 142 142 142 142 142 141 141 141 136 136 136 136 136 136 136 136 136 137 137 137 136 136 136 140 140 140 140 140 140 138 138 138 138 138 138 139 139 139 138 138 138 138 138 138 132 132 132 128 128 128 128 128 128 127 127 127 127 127 127 77 77 77 76 76 76 76 76 76 
105 105 105 105 105 105 105 105 105 104 104 104 104 104 104 103 103 103 104 104 104 104 104 104 104 104 104 100 100 100 99 99 99 98 98 98 97 97 97 97 97 97 97 97 97 163 163 163 163 163 163 163 163 163 162 162 162 164 164 164 164 164 164 163 163 163 162 162 162 162 162 162 150 143 142 150 143 142 149 142 141 149 142 141 148 141 140 148 141 140 148 140 139 147 140 139 147 140 139 146 139 138 146 139 138 83 76 75 83 75 74 82 75 74 82 75 74 82 75 74 81 74 73 19 12 11 23 21 20 24 16 15 25 14 13 24 14 12 23 13 12 24 15 13 25 15 14 24 20 19 30 27 26 35 35 35 29 28 28 33 33 33 31 31 31 26 26 26 28 28 28 25 25 25 28 28 28 25 25 25 27 27 27 24 24 24 26 26 26 26 26 26 79 79 79 77 77 77 80 80 80 79 79 79 75 75 75 75 75 75 75 75 75 73 73 73 85 85 85 88 88 88 88 88 88 141 141 141 141 141 141 142 142 142 138 138 138 138 138 138 136 136 136 136 136 136 136 136 136 136 136 136 140 140 140 139 139 139 138 138 138 138 138 138 139 139 139 133 133 133 132 132 132 128 128 128 128 128 128 128 128 128 127 127 127 77 77 77 
107 107 107 106 106 106 106 106 106 103 103 103 102 102 102 102 102 102 101 101 101 100 100 100 99 99 99 99 99 99 99 99 99 99 99 99 99 99 99 98 98 98 168 168 168 168 168 168 166 166 166 166 166 166 165 165 165 164 164 164 165 165 165 164 164 164 164 164 164 163 163 163 155 145 144 154 144 143 152 143 142 150 142 141 149 142 141 149 142 141 148 141 140 148 141 140 147 140 139 147 140 139 147 139 138 83 76 75 146 138 137 145 138 137 145 138 136 144 137 136 144 137 136 150 149 149 142 136 136 24 19 18 25 19 18 25 19 18 25 19 18 25 19 19 24 19 18 24 19 19 24 19 19 26 22 21 33 33 35 31 31 31 34 34 34 34 34 34 26 26 26 28 28 28 28 28 28 24 24 24 27 27 27 82 82 82 84 84 84 81 81 81 78 78 78 78 78 78 79 79 79 80 80 80 78 78 78 76 76 76 79 79 79 77 77 77 85 85 85 85 85 85 86 86 86 85 85 85 89 89 89 142 142 142 142 142 142 141 141 141 142 142 142 138 138 138 138 138 138 136 136 136 136 136 136 137 137 137 136 136 136 140 140 140 138 138 138 134 134 134 134 134 134 134 134 134 133 133 133 132 132 132 128 128 128 128 128 128 
104 104 104 103 103 103 102 102 102 102 102 102 101 101 101 101 101 101 102 102 102 101 101 101 101 101 101 100 100 100 103 103 103 102 102 102 102 102 102 102 102 102 168 168 168 168 168 168 168 168 168 167 167 167 167 167 167 163 163 163 162 162 162 161 161 161 160 160 160 162 148 146 162 147 145 160 147 145 93 81 79 90 80 78 88 79 78 86 78 77 85 78 77 84 77 76 84 77 76 84 77 76 84 77 76 147 140 139 146 139 138 146 139 138 145 138 137 145 138 137 146 141 140 144 139 138 144 139 138 141 136 135 141 135 134 24 19 18 24 19 18 24 19 18 24 19 18 25 19 18 24 19 18 24 19 18 26 22 21 34 34 34 31 31 31 35 35 35 36 36 36 85 85 85 84 84 84 86 86 86 83 83 83 83 83 83 85 85 85 82 82 82 79 79 79 78 78 78 78 78 78 80 80 80 80 80 80 77 77 77 76 76 76 79 79 79 74 74 74 90 90 90 85 85 85 85 85 85 85 85 85 86 86 86 144 144 144 144 144 144 142 142 142 142 142 142 142 142 142 142 142 142 138 138 138 137 137 137 136 136 136 136 136 136 137 137 137 132 132 132 135 135 135 134 134 134 134 134 134 134 134 134 133 133 133 132 132 132 
103 103 103 104 104 104 104 104 104 103 103 103 103 103 103 106 106 106 104 104 104 104 104 104 104 104 104 104 104 104 103 103 103 103 103 103 103 103 103 170 170 170 170 170 170 166 166 166 164 164 164 97 97 97 96 96 96 96 96 96 97 97 97 96 96 96 96 96 96 103 84 82 102 84 81 100 83 81 98 82 80 96 82 79 93 81 79 91 80 78 88 79 77 86 78 77 85 77 76 84 77 76 84 77 76 84 77 76 147 140 139 146 139 138 146 139 138 149 145 145 145 140 139 145 140 139 145 139 139 144 138 138 144 138 137 141 136 135 140 135 134 140 135 134 139 134 133 139 133 133 138 133 132 138 133 132 139 134 134 142 138 138 146 146 146 148 148 148 144 144 144 144 144 144 87 87 87 84 84 84 83 83 83 86 86 86 83 83 83 85 85 85 80 80 80 81 81 81 80 80 80 80 80 80 81 81 81 79 79 79 77 77 77 80 80 80 75 75 75 90 90 90 90 90 90 90 90 90 86 86 86 87 87 87 86 86 86 85 85 85 140 140 140 144 144 144 144 144 144 142 142 142 142 142 142 143 143 143 139 139 139 138 138 138 136 136 136 132 132 132 132 132 132 132 132 132 131 131 131 134 134 134 134 134 134 133 133 133 
108 108 108 108 108 108 106 106 106 106 106 106 106 106 106 105 105 105 106 106 106 174 174 174 174 174 174 173 173 173 169 169 169 168 168 168 167 167 167 99 99 99 98 98 98 98 98 98 98 98 98 98 98 98 97 97 97 100 100 100 99 99 99 99 99 99 98 98 98 109 86 83 107 86 83 105 85 82 103 84 81 101 83 81 98 82 80 96 81 79 93 81 79 91 80 78 88 79 77 86 78 77 84 77 76 84 77 76 147 140 139 147 140 139 153 152 151 149 144 144 145 140 139 145 140 139 145 139 139 144 139 138 144 139 138 144 138 137 143 138 137 141 136 135 141 136 135 140 135 134 140 135 134 140 135 134 140 134 134 141 136 135 144 141 141 147 147 147 148 148 148 148 148 148 143 143 143 87 87 87 87 87 87 84 84 85 84 84 85 86 86 86 79 79 79 81 81 81 82 82 82 79 79 79 80 80 80 81 81 81 79 79 79 78 78 78 78 78 78 87 87 87 91 91 91 90 90 90 90 90 90 90 90 90 87 87 87 87 87 87 86 86 86 140 140 140 140 140 140 144 144 144 144 144 144 142 142 142 142 142 142 142 142 142 142 142 142 134 134 134 133 133 133 132 132 132 132 132 132 80 80 80 79 79 79 79 79 79 
177 177 177 177 177 177 177 177 177 177 177 177 176 176 176 176 176 176 172 172 172 170 170 170 170 170 170 169 169 169 169 169 169 169 169 169 100 100 100 100 100 100 99 99 99 102 102 102 101 101 101 101 101 101 100 100 100 100 100 100 100 100 100 100 100 100 115 88 85 114 88 84 113 87 84 110 87 83 108 86 83 106 85 82 103 84 81 101 83 81 98 82 80 95 81 79 93 80 78 90 79 78 87 78 77 85 77 76 148 141 140 147 140 139 147 143 142 148 143 142 146 141 140 147 141 140 146 140 139 145 140 139 145 140 139 145 139 139 144 138 138 143 138 137 143 138 137 142 137 136 143 137 137 141 135 135 140 135 134 140 135 134 141 136 136 149 149 149 145 145 145 144 144 144 147 146 146 85 85 85 84 84 86 87 87 88 87 87 88 84 84 85 81 81 81 80 80 80 80 80 80 82 82 82 82 82 82 79 79 79 80 80 80 78 78 78 81 80 80 87 87 87 87 87 87 87 87 87 91 91 91 91 91 91 90 90 90 90 90 90 90 90 90 87 87 87 87 87 87 140 140 140 140 140 140 141 141 141 90 90 90 89 89 89 89 89 89 85 85 85 85 85 85 85 85 85 80 80 80 80 80 80 80 80 80 79 79 79 
179 179 179 175 175 175 173 173 173 173 173 173 172 172 172 172 172 172 171 171 171 172 172 172 171 171 171 170 170 170 170 170 170 172 172 172 103 103 103 103 103 103 102 102 102 102 102 102 102 102 102 102 102 102 101 101 101 97 97 97 96 96 96 96 96 96 121 90 86 120 90 86 118 89 85 116 88 85 113 88 84 111 87 83 108 86 83 106 85 82 103 84 81 100 83 80 97 82 80 95 81 79 92 80 78 89 79 77 150 142 140 153 151 152 147 144 142 148 143 142 146 141 140 146 140 139 147 141 140 146 141 140 146 140 140 145 139 139 144 139 138 145 139 139 144 139 138 144 138 137 143 138 137 142 137 136 141 135 135 141 136 135 140 135 135 147 146 146 149 149 149 145 145 145 144 144 144 147 147 150 88 88 91 84 84 86 84 84 86 86 86 88 82 82 83 82 82 82 81 81 81 80 80 80 82 82 82 82 82 82 78 78 78 81 81 81 80 80 80 92 92 92 88 88 88 88 88 88 87 87 87 87 87 87 92 92 92 147 147 147 147 147 147 145 145 145 145 145 145 142 142 142 142 142 142 86 86 86 86 86 86 87 87 87 86 86 86 85 85 85 85 85 85 85 85 85 85 85 85 84 84 84 81 81 81 80 80 80 
174 174 174 174 174 174 175 175 175 174 174 174 173 173 173 173 173 173 176 176 176 175 175 175 174 174 174 174 174 174 173 173 173 104 104 104 104 104 104 104 104 104 103 103 103 98 98 98 98 98 98 98 98 98 97 97 97 98 98 98 97 97 97 97 97 97 127 92 87 125 92 87 123 91 87 121 91 86 119 90 86 116 89 85 114 88 84 111 87 84 108 86 83 105 85 82 102 83 81 99 82 80 97 81 79 94 80 78 155 143 142 154 153 154 147 144 141 148 144 142 147 143 141 147 142 140 146 141 140 146 141 140 146 140 139 145 140 139 145 140 139 144 139 138 145 139 139 144 139 138 144 138 138 142 137 136 142 137 136 143 137 136 142 137 136 143 139 140 147 147 147 148 148 153 147 147 151 145 145 148 143 143 147 84 84 87 87 87 89 86 86 88 80 80 81 82 82 83 81 81 82 82 82 82 80 80 80 83 83 83 81 81 81 79 79 79 137 137 137 148 148 148 148 148 148 147 147 147 144 144 144 144 144 144 143 143 143 143 143 143 146 146 146 147 147 147 147 147 147 145 145 145 145 145 145 142 142 142 87 87 87 86 86 86 82 82 82 82 82 82 82 82 82 85 85 85 85 85 85 85 85 85 85 85 85 84 84 84 

