P3
100 50
255
60 60 60 59 59 59 59 59 59 58 58 58 57 57 57 57 57 57 57 57 57 56 56 56 56 56 56 53 53 53 52 52 52 52 52 52 51 51 51 51 51 51 50 50 50 49 49 49 49 49 49 48 48 48 47 47 47 56 56 56 55 55 55 55 55 55 55 55 55 56 56 56 55 55 55 55 55 55 56 56 56 54 54 54 54 54 54 54 54 54 54 54 54 52 52 52 51 51 51 51 51 51 50 50 50 54 54 54 55 55 55 54 54 54 57 57 57 57 57 57 57 57 57 46 46 46 46 46 46 46 46 46 46 46 46 49 49 49 48 48 48 48 48 48 46 46 46 46 46 46 42 42 42 42 42 42 41 41 41 41 41 41 41 41 41 40 40 40 43 43 43 49 49 49 48 48 48 48 48 48 48 48 48 61 61 61 62 62 62 54 54 54 49 49 49 50 50 50 50 50 50 51 51 51 51 51 51 51 51 51 50 50 50 50 50 50 60 60 60 61 61 61 61 61 61 61 61 61 62 62 62 62 62 62 63 63 63 63 63 63 66 66 66 66 66 66 67 67 67 67 67 67 58 58 58 58 58 58 59 59 59 59 59 59 59 59 59 57 57 57 57 57 57 57 57 57 58 58 58 58 58 58 58 58 58 61 61 61 45 45 45 45 45 45 45 45 45 45 45 45 
67 67 67 57 57 57 57 57 57 56 56 56 56 56 56 55 55 55 54 54 54 56 56 56 55 55 55 54 54 54 54 54 54 53 53 53 52 52 52 52 52 52 51 51 51 51 51 51 50 50 50 50 50 50 50 50 50 50 50 50 49 49 49 47 47 47 47 47 47 46 46 46 47 47 47 46 46 46 45 45 45 46 46 46 46 46 46 52 52 52 51 51 51 52 52 52 52 52 52 51 51 51 50 50 50 58 58 58 58 58 58 58 58 58 57 57 57 54 54 54 54 54 54 53 53 53 56 56 56 55 55 55 55 55 55 54 54 54 51 51 51 51 51 51 49 49 49 49 49 49 42 42 42 42 42 42 45 45 45 44 44 44 44 44 44 44 44 44 44 44 44 43 43 43 39 39 39 39 39 39 39 39 39 50 50 50 51 51 51 51 51 51 47 47 47 50 50 50 50 50 50 60 60 60 60 60 60 61 61 61 61 61 61 62 62 62 62 62 62 62 62 62 63 63 63 63 63 63 64 64 64 62 62 62 53 53 53 53 53 53 54 54 54 54 54 54 54 54 54 55 55 55 55 55 55 55 55 55 58 58 58 59 59 59 59 59 59 60 60 60 60 60 60 60 60 60 61 61 61 61 61 61 68 68 68 68 68 68 55 55 55 55 55 55 55 55 55 55 55 55 
69 69 69 67 67 67 67 67 67 66 66 66 63 63 63 63 63 63 62 62 62 62 62 62 61 61 61 61 61 61 60 60 60 60 60 60 59 59 59 59 59 59 50 50 50 49 49 49 49 49 49 48 48 48 48 48 48 49 49 49 49 49 49 48 48 48 48 48 48 47 47 47 47 47 47 48 48 48 48 48 48 46 46 46 47 47 47 47 47 47 45 45 45 45 45 45 43 43 43 43 43 43 43 43 43 50 50 50 47 47 47 47 47 47 47 47 47 50 50 50 56 56 56 56 56 56 55 55 55 53 53 53 52 52 52 52 52 52 52 52 52 51 51 51 52 52 52 52 52 52 51 51 51 51 51 51 50 50 50 50 50 50 46 46 46 46 46 46 46 46 46 45 45 45 45 45 45 39 39 39 40 40 40 51 51 51 60 60 60 61 61 61 56 56 56 57 57 57 57 57 57 58 58 58 58 58 58 59 59 59 59 59 59 60 60 60 51 51 51 53 53 53 53 53 53 54 54 54 54 54 54 55 55 55 55 55 55 55 55 55 56 56 56 56 56 56 57 57 57 57 57 57 55 55 55 55 55 55 65 65 65 66 66 66 66 66 66 67 67 67 67 67 67 67 67 67 67 67 67 71 71 71 71 71 71 71 71 71 55 55 55 55 55 55 54 54 54 54 54 54 
68 68 68 67 67 67 67 67 67 67 67 67 66 66 66 66 66 66 65 65 65 65 65 65 64 64 64 63 63 63 63 63 63 62 62 62 61 61 61 61 61 61 60 60 60 59 59 59 58 58 58 58 58 58 55 55 55 55 55 55 55 55 55 54 54 54 54 54 54 53 53 53 54 54 54 53 53 53 46 46 46 46 46 46 45 45 45 44 44 44 45 45 45 44 44 44 45 45 45 43 43 43 43 43 43 47 47 47 50 50 50 50 50 50 50 50 50 47 47 47 47 47 47 47 47 47 46 46 46 46 46 46 48 48 48 48 48 48 48 48 48 47 47 47 46 46 46 42 42 42 42 42 42 47 47 47 47 47 47 47 47 47 47 47 47 47 47 47 46 46 46 49 49 49 48 48 48 48 48 48 47 47 47 61 61 61 61 61 61 62 62 62 58 58 58 58 58 58 50 50 50 50 50 50 49 49 49 49 49 49 50 50 50 50 50 50 50 50 50 51 51 51 51 51 51 52 52 52 52 52 52 52 52 52 53 53 53 63 63 63 63 63 63 66 66 66 66 66 66 67 67 67 67 67 67 68 68 68 68 68 68 68 68 68 69 69 69 69 69 69 70 70 70 67 67 67 67 67 67 67 67 67 68 68 68 68 68 68 55 55 55 54 54 54 55 55 55 45 45 45 
57 57 57 56 56 56 56 56 56 56 56 56 55 55 55 55 55 55 62 62 62 61 61 61 61 61 61 60 60 60 60 60 60 59 59 59 58 58 58 58 58 58 57 57 57 57 57 57 58 58 58 57 57 57 57 57 57 58 58 58 57 57 57 56 56 56 55 55 55 55 55 55 56 56 56 55 55 55 54 54 54 55 55 55 54 54 54 54 54 54 52 52 52 50 50 50 50 50 50 50 50 50 50 50 50 57 57 57 54 54 54 54 54 54 53 53 53 47 47 47 49 49 49 49 49 49 49 49 49 49 49 49 49 49 49 45 45 45 45 45 45 45 45 45 43 43 43 43 43 43 42 42 42 45 45 45 45 45 45 44 44 44 44 44 44 43 43 43 43 43 43 42 42 42 42 42 42 42 42 42 39 39 39 51 51 51 52 52 52 53 53 53 49 49 49 49 49 49 50 50 50 50 50 50 51 51 51 51 51 51 51 51 51 52 52 52 62 62 62 62 62 62 63 63 63 63 63 63 63 63 63 62 62 62 62 62 62 63 63 63 63 63 63 63 63 63 64 64 64 64 64 64 64 64 64 65 65 65 65 65 65 66 66 66 66 66 66 69 69 69 69 69 69 60 60 60 60 60 60 60 60 60 61 61 61 61 61 61 44 44 44 45 45 45 44 44 44 44 44 44 
59 59 59 58 58 58 57 57 57 57 57 57 56 56 56 56 56 56 55 55 55 55 55 55 54 54 54 53 53 53 54 54 54 53 53 53 52 52 52 50 50 50 49 49 49 49 49 49 48 48 48 48 48 48 47 47 47 48 48 48 47 47 47 47 47 47 53 53 53 53 53 53 53 53 53 54 54 54 53 53 53 52 52 52 52 52 52 52 52 52 52 52 52 52 52 52 51 51 51 51 51 51 50 50 50 54 54 54 57 57 57 57 57 57 57 57 57 57 57 57 56 56 56 53 53 53 52 52 52 52 52 52 52 52 52 51 51 51 54 54 54 53 53 53 51 51 51 51 51 51 51 51 51 50 50 50 44 44 44 43 43 43 40 40 40 40 40 40 40 40 40 40 40 40 40 40 40 40 40 40 39 39 39 51 51 51 51 51 51 52 52 52 47 47 47 57 57 57 57 57 57 57 57 57 58 58 58 58 58 58 59 59 59 59 59 59 62 62 62 62 62 62 62 62 62 63 63 63 63 63 63 64 64 64 64 64 64 65 65 65 65 65 65 65 65 65 56 56 56 57 57 57 57 57 57 57 57 57 55 55 55 56 56 56 56 56 56 56 56 56 57 57 57 57 57 57 57 57 57 57 57 57 57 57 57 57 57 57 44 44 44 44 44 44 44 44 44 44 44 44 
57 57 57 56 56 56 56 56 56 55 55 55 55 55 55 54 54 54 53 53 53 53 53 53 52 52 52 52 52 52 53 53 53 53 53 53 52 52 52 52 52 52 50 50 50 50 50 50 49 49 49 49 49 49 48 48 48 49 49 49 48 48 48 47 47 47 47 47 47 46 46 46 46 46 46 46 46 46 47 47 47 47 47 47 47 47 47 45 45 45 44 44 44 43 43 43 43 43 43 43 43 43 43 43 43 50 50 50 47 47 47 172 51 34 53 53 53 53 53 53 52 52 52 55 55 55 55 55 55 55 55 55 54 54 54 54 54 54 54 54 54 53 53 53 49 49 49 48 48 48 48 48 48 48 48 48 47 47 47 47 47 47 47 47 47 46 46 46 46 46 46 45 45 45 47 47 47 47 47 47 46 46 46 60 60 60 61 61 61 61 61 61 58 58 58 56 56 56 57 57 57 57 57 57 58 58 58 58 58 58 59 59 59 59 59 59 60 60 60 51 51 51 51 51 51 51 51 51 52 52 52 52 52 52 52 52 52 53 53 53 53 53 53 53 53 53 54 54 54 56 56 56 57 57 57 57 57 57 58 58 58 58 58 58 58 58 58 59 59 59 59 59 59 59 59 59 60 60 60 60 60 60 60 60 60 57 57 57 44 44 44 54 54 54 54 54 54 54 54 54 
67 67 67 67 67 67 66 66 66 65 65 65 64 64 64 64 64 64 61 61 61 60 60 60 60 60 60 59 59 59 59 59 59 58 58 58 58 58 58 57 57 57 57 57 57 56 56 56 48 48 48 47 47 47 47 47 47 47 47 47 47 47 47 46 46 46 46 46 46 45 45 45 45 45 45 45 45 45 45 45 45 44 44 44 45 45 45 45 45 45 46 46 46 45 45 45 223 66 44 224 67 44 220 66 44 215 64 43 208 62 41 199 59 39 190 57 38 179 53 35 166 50 33 152 45 30 133 40 26 45 45 45 45 45 45 45 45 45 45 45 45 44 44 44 42 42 42 42 42 42 41 41 41 44 44 44 44 44 44 43 43 43 48 48 48 48 48 48 48 48 48 47 47 47 47 47 47 46 46 46 59 59 59 61 61 61 61 61 61 62 62 62 49 49 49 49 49 49 49 49 49 50 50 50 50 50 50 51 51 51 51 51 51 52 52 52 52 52 52 52 52 52 53 53 53 53 53 53 54 54 54 54 54 54 52 52 52 53 53 53 53 53 53 53 53 53 54 54 54 54 54 54 54 54 54 64 64 64 65 65 65 65 65 65 65 65 65 66 66 66 66 66 66 66 66 66 66 66 66 70 70 70 70 70 70 70 70 70 54 54 54 54 54 54 54 54 54 54 54 54 
66 66 66 65 65 65 65 65 65 64 64 64 64 64 64 63 63 63 63 63 63 62 62 62 62 62 62 62 62 62 61 61 61 61 61 61 60 60 60 59 59 59 59 59 59 58 58 58 58 58 58 57 57 57 56 56 56 56 56 56 56 56 56 56 56 56 55 55 55 54 54 54 54 54 54 54 54 54 54 54 54 53 53 53 52 52 52 51 51 51 238 71 47 240 72 48 238 71 47 234 70 47 229 68 46 222 67 44 214 64 43 206 62 41 196 59 39 186 55 37 175 52 35 163 48 32 149 44 29 133 40 26 113 34 22 47 47 47 47 47 47 47 47 47 45 45 45 45 45 45 45 45 45 44 44 44 44 44 44 44 44 44 43 43 43 40 40 40 40 40 40 40 40 40 39 39 39 39 39 39 50 50 50 50 50 50 51 51 51 51 51 51 47 47 47 47 47 47 48 48 48 48 48 48 48 48 48 49 49 49 51 51 51 51 51 51 52 52 52 62 62 62 62 62 62 62 62 62 63 63 63 63 63 63 64 64 64 64 64 64 64 64 64 65 65 65 65 65 65 66 66 66 66 66 66 67 67 67 67 67 67 67 67 67 68 68 68 68 68 68 66 66 66 66 66 66 66 66 66 66 66 66 66 66 66 67 67 67 54 54 54 54 54 54 54 54 54 54 54 54 
55 55 55 55 55 55 54 54 54 62 62 62 62 62 62 61 61 61 61 61 61 60 60 60 60 60 60 59 59 59 59 59 59 58 58 58 58 58 58 57 57 57 57 57 57 56 56 56 55 55 55 55 55 55 54 54 54 54 54 54 54 54 54 53 53 53 53 53 53 52 52 52 51 51 51 52 52 52 52 52 52 52 52 52 241 72 48 248 74 49 249 74 49 247 74 50 244 74 50 240 74 50 234 73 50 227 70 48 219 67 46 209 64 43 199 60 40 189 57 38 178 53 35 167 50 33 154 46 30 141 42 28 125 37 25 107 32 21 83 25 16 50 50 50 48 48 48 48 48 48 48 48 48 47 47 47 46 46 46 46 46 46 45 45 45 45 45 45 45 45 45 44 44 44 39 39 39 38 38 38 49 49 49 49 49 49 58 58 58 59 59 59 55 55 55 56 56 56 56 56 56 57 57 57 57 57 57 58 58 58 58 58 58 59 59 59 59 59 59 59 59 59 60 60 60 60 60 60 61 61 61 61 61 61 61 61 61 62 62 62 62 62 62 62 62 62 63 63 63 63 63 63 64 64 64 64 64 64 67 67 67 67 67 67 68 68 68 68 68 68 68 68 68 68 68 68 59 59 59 59 59 59 59 59 59 44 44 44 44 44 44 44 44 44 44 44 44 44 44 44 
56 56 56 56 56 56 56 56 56 55 55 55 55 55 55 54 54 54 54 54 54 53 53 53 53 53 53 52 52 52 51 51 51 51 51 51 50 50 50 50 50 50 49 49 49 49 49 49 48 48 48 48 48 48 48 48 48 47 47 47 47 47 47 47 47 47 46 46 46 46 46 46 46 46 46 46 46 46 45 45 45 247 74 49 253 76 50 254 76 51 254 78 53 254 81 56 253 83 59 250 84 60 244 82 59 235 79 57 225 74 52 214 68 48 202 63 43 190 58 39 179 54 36 168 50 33 156 46 31 143 43 28 129 38 25 114 34 22 96 29 19 74 22 14 48 48 48 47 47 47 50 50 50 49 49 49 49 49 49 48 48 48 48 48 48 48 48 48 48 48 48 47 47 47 47 47 47 47 47 47 59 59 59 60 60 60 60 60 60 61 61 61 57 57 57 57 57 57 58 58 58 58 58 58 59 59 59 59 59 59 60 60 60 60 60 60 61 61 61 61 61 61 62 62 62 53 53 53 53 53 53 53 53 53 54 54 54 54 54 54 52 52 52 53 53 53 53 53 53 53 53 53 54 54 54 54 54 54 54 54 54 55 55 55 55 55 55 55 55 55 55 55 55 56 56 56 56 56 56 56 56 56 56 56 56 44 44 44 44 44 44 44 44 44 44 44 44 44 44 44 
54 54 54 53 53 53 53 53 53 53 53 53 53 53 53 52 52 52 52 52 52 51 51 51 51 51 51 50 50 50 50 50 50 49 49 49 49 49 49 48 48 48 84 50 45 75 47 43 47 47 47 47 47 47 46 46 46 46 46 46 46 46 46 45 45 45 45 45 45 44 44 44 44 44 44 46 46 46 248 74 49 255 76 51 255 78 53 255 82 57 255 88 63 255 95 70 255 99 75 255 100 76 255 97 74 246 92 69 233 84 62 219 75 55 205 67 48 191 60 42 179 55 37 167 50 34 155 46 31 143 43 28 130 39 26 116 35 23 101 30 20 83 24 16 60 18 12 44 44 44 44 44 44 44 44 44 43 43 43 43 43 43 43 43 43 42 42 42 42 42 42 39 39 39 39 39 39 39 39 39 49 49 49 49 49 49 49 49 49 50 50 50 46 46 46 47 47 47 47 47 47 49 49 49 50 50 50 50 50 50 51 51 51 51 51 51 51 51 51 52 52 52 52 52 52 52 52 52 53 53 53 53 53 53 54 54 54 54 54 54 54 54 54 55 55 55 55 55 55 56 56 56 56 56 56 56 56 56 57 57 57 57 57 57 57 57 57 58 58 58 58 58 58 58 58 58 58 58 58 59 59 59 59 59 59 43 43 43 43 43 43 43 43 43 44 44 44 44 44 44 
65 65 65 64 64 64 64 64 64 63 63 63 63 63 63 62 62 62 62 62 62 61 61 61 61 61 61 60 60 60 60 60 60 112 66 60 107 71 65 96 66 62 82 58 55 70 53 50 62 49 47 54 46 45 50 45 44 55 55 55 54 54 54 52 52 52 52 52 52 51 51 51 50 50 50 245 73 49 254 76 50 255 78 53 255 85 59 255 94 69 255 105 80 255 114 90 255 119 96 255 120 96 255 115 92 255 106 84 242 95 74 224 83 63 207 72 53 192 63 44 178 56 38 165 50 34 153 46 31 142 42 28 129 38 25 116 35 23 102 30 20 86 25 17 67 20 13 42 12 8 41 41 41 40 40 40 40 40 40 40 40 40 39 39 39 39 39 39 39 39 39 38 38 38 38 38 38 38 38 38 48 48 48 48 48 48 49 49 49 49 49 49 46 46 46 47 47 47 47 47 47 47 47 47 48 48 48 48 48 48 49 49 49 49 49 49 49 49 49 50 50 50 50 50 50 50 50 50 51 51 51 51 51 51 61 61 61 61 61 61 61 61 61 62 62 62 62 62 62 62 62 62 63 63 63 63 63 63 63 63 63 64 64 64 64 64 64 64 64 64 65 65 65 65 65 65 65 65 65 65 65 65 65 65 65 53 53 53 53 53 53 53 53 53 53 53 53 53 53 53 
61 61 61 61 61 61 60 60 60 60 60 60 60 60 60 63 59 59 76 61 59 74 60 58 70 58 57 66 58 57 118 73 67 121 85 80 106 77 73 87 64 61 71 54 52 60 49 47 52 46 45 50 45 44 50 45 44 50 44 43 54 54 54 53 53 53 53 53 53 52 52 52 237 71 47 250 75 50 255 77 52 255 84 58 255 95 70 255 110 85 255 124 100 255 135 111 255 140 117 255 139 116 255 131 109 255 119 97 248 104 84 228 89 70 209 76 57 191 65 47 176 56 39 163 50 34 151 45 30 139 41 28 127 38 25 115 34 23 101 30 20 86 25 17 69 20 13 49 14 9 25 7 5 49 49 49 49 49 49 48 48 48 48 48 48 47 47 47 47 47 47 47 47 47 46 46 46 46 46 46 58 58 58 59 59 59 59 59 59 60 60 60 59 57 57 59 58 57 60 58 58 64 62 62 73 68 68 59 59 59 59 59 59 60 60 60 60 60 60 61 61 61 61 61 61 61 61 61 62 62 62 62 62 62 63 63 63 63 63 63 63 63 63 64 64 64 64 64 64 65 65 65 65 65 65 65 65 65 66 66 66 66 66 66 66 66 66 67 67 67 67 67 67 67 67 67 67 67 67 68 68 68 65 65 65 53 53 53 53 53 53 53 53 53 53 53 53 53 53 53 
61 61 61 61 61 61 60 60 60 62 60 60 66 62 62 77 61 59 80 65 63 78 66 64 69 59 58 116 69 63 125 88 83 113 84 79 91 68 65 73 56 53 60 49 47 52 46 45 50 45 44 50 45 44 50 44 44 49 44 43 49 44 43 52 52 52 52 52 52 51 51 51 243 73 48 250 75 50 255 80 55 255 92 67 255 108 83 255 126 102 255 142 119 255 153 130 255 157 134 255 153 130 255 142 121 255 127 106 251 110 90 228 93 74 207 78 59 189 66 48 173 56 39 159 49 34 147 44 30 136 40 27 124 37 24 112 33 22 99 29 19 84 25 16 69 20 13 51 15 10 28 8 5 25 7 5 48 48 48 47 47 47 47 47 47 47 47 47 46 46 46 46 46 46 45 45 45 45 45 45 57 57 57 58 58 58 58 58 58 58 56 56 59 57 57 59 57 57 60 58 58 60 58 58 60 59 59 68 65 65 59 59 59 60 60 60 60 60 60 60 60 60 61 61 61 61 61 61 62 62 62 62 62 62 62 62 62 63 63 63 63 63 63 64 64 64 64 64 64 64 64 64 65 65 65 65 65 65 65 65 65 66 66 66 66 66 66 66 66 66 67 67 67 67 67 67 67 67 67 67 67 67 67 67 67 53 53 53 53 53 53 53 53 53 53 53 53 53 53 53 
54 54 54 54 54 54 54 54 54 54 53 53 55 53 53 68 54 52 72 59 57 66 56 54 58 50 49 107 69 63 104 74 70 85 62 59 66 49 47 53 42 40 44 38 37 42 37 36 42 37 36 42 37 36 42 36 36 42 36 35 41 36 35 41 36 35 38 38 40 232 69 46 243 73 48 249 76 51 255 85 60 255 100 75 255 119 95 255 139 115 255 155 132 255 164 142 255 166 144 255 160 138 255 147 126 255 130 110 248 111 92 225 93 74 203 77 59 184 65 47 168 55 39 155 48 33 143 43 29 131 39 26 120 36 24 108 32 21 95 28 19 82 24 16 67 20 13 50 15 10 30 9 6 25 7 5 40 40 40 39 39 39 39 39 39 38 38 38 38 38 38 38 38 38 36 36 36 34 34 35 44 44 45 48 48 48 47 46 45 48 46 46 48 46 46 49 47 47 49 47 47 49 48 47 50 48 48 50 48 48 48 48 48 48 48 48 49 49 49 49 49 49 49 49 49 50 50 50 50 50 50 50 50 50 51 51 51 51 51 51 51 51 51 52 52 52 52 52 52 52 52 52 53 53 53 53 53 53 53 53 53 53 53 53 54 54 54 54 54 54 54 54 54 54 54 54 54 54 54 55 55 55 55 55 55 43 43 43 43 43 43 43 43 43 43 43 43 43 43 43 
51 51 51 51 51 51 51 51 51 50 50 50 50 49 49 61 50 48 60 50 49 56 48 47 97 54 48 96 64 59 85 60 57 68 50 47 54 42 40 45 38 37 42 37 36 42 37 36 42 37 36 42 36 36 42 36 35 41 36 35 41 36 35 41 36 35 38 38 40 233 69 46 240 72 48 247 77 53 255 88 64 255 106 82 255 126 102 255 145 122 255 160 137 255 167 145 255 166 145 255 158 137 255 144 124 255 126 107 241 108 89 217 90 72 196 74 57 178 62 45 162 53 37 149 46 31 137 41 28 126 38 25 115 34 23 104 31 20 91 27 18 78 23 15 64 19 12 48 14 9 29 8 5 25 7 5 25 7 5 47 47 47 47 47 47 47 47 47 46 46 46 44 44 44 44 44 44 43 43 43 55 55 56 55 55 55 57 56 55 58 56 56 21 21 34 23 23 36 23 23 33 51 49 49 51 50 49 52 50 50 55 53 52 50 50 50 50 50 50 51 51 51 51 51 51 52 52 52 52 52 52 52 52 52 53 53 53 53 53 53 53 53 53 54 54 54 54 54 54 54 54 54 55 55 55 55 55 55 55 55 55 56 56 56 56 56 56 56 56 56 56 56 56 57 57 57 57 57 57 57 57 57 57 57 57 43 43 43 43 43 43 43 43 43 43 43 43 43 43 43 
62 62 62 62 62 62 61 61 61 60 60 60 59 59 59 66 58 57 64 57 56 54 56 54 96 60 55 89 62 59 76 57 55 64 51 49 54 46 45 50 45 44 50 45 44 50 44 44 49 44 43 49 44 43 49 44 43 49 43 43 48 43 42 48 43 42 214 64 42 230 69 46 236 71 48 243 78 54 255 90 66 255 107 84 255 126 103 255 144 121 255 156 134 255 161 140 255 159 138 255 149 129 255 135 115 252 118 99 229 100 82 207 83 66 187 69 52 170 58 42 155 50 35 143 44 30 132 40 26 121 36 24 110 33 22 99 29 19 87 26 17 74 22 14 60 18 12 44 13 8 27 8 5 25 7 5 25 7 5 47 47 47 46 46 46 46 46 46 44 44 44 44 44 44 44 44 44 43 43 43 18 18 35 16 16 34 18 18 35 18 18 34 17 17 33 19 19 34 20 20 34 25 25 38 22 22 33 26 26 35 58 58 58 59 59 59 59 59 59 60 60 60 60 60 60 60 60 60 59 59 59 59 59 59 60 60 60 60 60 60 66 72 68 63 65 63 62 64 63 61 61 61 62 62 62 59 69 63 67 87 75 62 62 62 63 63 63 63 63 63 63 63 63 63 63 63 63 63 63 63 63 63 64 64 64 52 52 52 52 52 52 52 52 52 52 52 52 52 52 52 
61 61 61 61 61 61 61 61 61 60 64 70 57 59 63 57 63 60 56 53 53 52 53 52 88 57 52 77 55 52 65 51 49 55 47 46 50 45 44 50 45 44 50 44 44 49 44 43 49 44 43 49 44 43 49 43 43 48 43 42 48 43 42 48 43 42 214 64 42 225 67 45 230 70 47 238 77 54 249 89 66 255 105 82 255 121 99 255 136 114 255 145 124 255 148 127 255 145 124 255 135 115 255 122 102 235 106 87 214 90 72 194 75 58 176 63 47 161 54 38 147 46 32 136 41 28 125 37 25 115 34 23 104 31 20 93 28 18 81 24 16 69 20 13 55 16 11 40 12 8 25 7 5 25 7 5 25 7 5 41 41 41 38 38 38 38 38 38 37 37 37 39 39 39 18 18 35 17 17 36 18 18 37 16 16 35 12 12 30 11 11 29 9 9 26 13 13 29 16 16 31 20 20 34 21 21 34 18 18 29 22 22 31 26 26 32 57 57 57 58 58 58 58 58 58 58 58 58 59 59 59 59 59 59 59 59 59 62 66 64 61 62 61 61 62 62 62 63 62 52 53 52 54 58 56 54 58 56 62 74 67 70 93 79 79 113 93 65 65 65 65 65 65 65 65 65 66 66 66 66 66 66 66 66 66 52 52 52 52 52 52 52 52 52 52 52 52 52 52 52 
65 65 65 67 67 67 67 67 67 65 65 65 60 60 60 59 59 59 59 60 59 66 66 66 64 64 64 68 51 49 58 47 46 42 37 36 42 37 36 42 37 36 42 36 36 54 79 64 47 63 53 42 53 46 39 46 42 40 49 44 41 35 34 40 35 34 210 63 42 218 65 43 223 68 46 230 74 52 240 85 63 251 98 76 255 112 90 255 123 102 255 130 109 255 131 111 255 127 107 251 118 99 234 106 87 216 92 74 198 79 62 180 67 50 165 57 41 151 49 34 139 43 29 129 39 26 119 35 23 109 32 21 98 29 19 87 26 17 75 22 15 63 19 12 50 15 10 35 10 7 25 7 5 25 7 5 25 7 5 44 44 44 42 42 42 43 43 43 43 43 43 20 20 38 19 19 38 16 16 36 14 14 34 12 12 32 11 11 30 7 7 25 3 3 21 6 6 23 9 9 25 16 16 30 20 20 33 18 18 29 22 22 32 22 22 30 18 18 23 50 50 50 51 51 51 51 51 51 51 51 51 52 52 52 52 52 52 53 54 54 53 55 54 54 55 54 42 43 43 45 48 46 45 49 46 45 49 46 47 53 49 55 71 61 77 104 88 65 65 65 62 62 62 63 63 63 63 63 63 63 63 63 63 63 63 52 52 52 52 52 52 52 52 52 52 52 52 52 52 52 
62 62 62 62 62 62 55 55 55 56 58 60 55 56 58 54 57 55 59 62 60 56 55 55 55 55 55 54 41 39 44 37 37 42 37 36 42 37 36 42 36 36 106 126 114 43 55 48 84 189 126 92 209 139 92 208 138 86 195 130 76 171 114 58 132 88 203 61 40 211 63 42 215 65 44 221 71 49 228 79 57 237 89 68 245 99 79 250 108 87 251 112 92 248 112 93 240 108 89 227 100 81 213 90 72 197 78 62 181 68 52 167 58 43 153 51 36 142 44 31 131 40 27 121 36 24 112 33 22 102 30 20 91 27 18 81 24 16 69 20 13 57 17 11 44 13 8 29 8 5 25 7 5 25 7 5 25 7 5 25 7 5 54 54 54 54 54 54 19 19 37 10 3 21 21 21 41 15 15 35 12 12 32 11 11 30 2 2 21 2 2 20 2 2 19 1 1 18 4 4 20 6 6 20 17 17 30 17 17 29 19 19 29 22 22 31 22 22 29 18 18 22 62 62 62 63 63 63 57 57 57 57 57 57 57 57 57 51 52 51 51 52 52 42 43 43 42 43 43 44 48 46 45 48 46 45 48 46 45 49 46 49 59 53 58 78 66 52 52 52 53 53 53 53 53 53 55 55 55 55 55 55 55 55 55 42 42 42 42 42 42 42 42 42 42 42 42 42 42 42 
59 59 59 58 58 58 52 52 52 52 52 52 53 52 52 53 57 54 50 49 49 59 59 59 57 57 57 57 57 57 42 37 36 42 37 36 42 36 36 55 77 64 43 54 47 86 195 130 98 222 148 101 228 152 99 223 148 93 210 140 83 188 125 70 157 105 195 58 39 203 60 40 206 62 42 210 66 45 215 72 52 221 79 59 226 86 67 229 92 72 228 94 75 224 94 75 216 89 71 205 83 65 193 75 58 179 66 50 166 58 43 154 51 36 143 45 31 133 41 27 123 37 25 114 34 22 104 31 20 95 28 19 84 25 16 74 22 14 62 18 12 50 15 10 37 11 7 25 7 5 25 7 5 25 7 5 25 7 5 25 7 5 50 50 50 18 18 35 10 3 21 10 3 22 20 20 40 18 18 38 1 1 21 1 1 21 1 1 20 1 1 20 2 2 19 6 6 22 7 7 23 10 10 24 11 11 24 12 12 24 22 22 32 24 24 33 25 25 31 18 18 23 18 18 20 68 68 68 69 69 69 69 69 69 70 70 70 72 72 72 62 63 63 127 79 47 114 71 42 42 43 43 47 45 44 48 45 44 51 47 45 62 55 49 53 66 58 65 65 65 65 65 65 65 65 65 65 65 65 65 65 65 65 65 65 61 61 61 42 42 42 42 42 42 42 42 42 42 42 42 
91 91 91 91 91 91 71 71 71 71 71 71 91 90 89 90 90 89 90 87 87 86 87 86 85 86 85 68 68 68 68 68 68 49 44 43 49 44 43 52 66 58 67 151 100 93 210 140 100 226 151 103 230 154 131 255 181 93 209 139 84 189 126 155 46 31 186 55 37 193 58 38 197 59 40 199 62 42 202 65 46 205 70 50 208 74 55 208 77 59 206 79 60 201 77 60 194 74 57 185 69 52 174 62 46 163 56 41 153 50 36 142 45 31 133 41 28 124 37 25 115 34 23 106 31 21 97 29 19 87 26 17 77 23 15 66 20 13 55 16 11 43 12 8 30 9 6 25 7 5 25 7 5 25 7 5 25 7 5 25 7 5 43 43 43 10 3 21 10 3 22 10 3 22 21 21 41 1 1 22 1 1 21 1 1 21 1 1 20 1 1 19 1 1 17 9 9 25 12 12 27 14 14 28 14 14 26 15 15 27 14 14 24 13 13 21 20 20 27 26 26 31 22 22 25 21 21 21 64 64 64 65 65 65 65 65 65 161 100 60 186 116 70 186 116 69 170 106 64 141 88 53 90 56 33 57 54 53 57 54 53 57 55 53 67 61 57 91 76 67 90 90 90 90 90 90 91 91 91 75 75 75 71 71 71 62 62 62 62 62 62 62 62 62 80 80 80 80 80 80 
74 74 74 95 95 95 94 94 94 73 73 73 72 72 72 76 72 71 75 71 71 73 71 70 69 69 69 62 72 88 52 57 65 47 49 54 46 48 51 48 56 51 75 168 112 91 206 137 97 218 145 111 233 160 195 255 242 89 199 133 79 179 119 67 152 101 176 52 35 183 55 36 187 56 37 188 57 38 190 59 41 191 62 43 191 64 46 190 66 48 187 66 48 182 64 47 175 61 45 168 57 42 159 53 38 150 48 34 141 44 30 132 40 27 123 37 25 115 34 23 107 32 21 98 29 19 89 26 17 79 23 15 69 20 13 58 17 11 47 14 9 35 10 7 25 7 5 25 7 5 25 7 5 25 7 5 25 7 5 25 7 5 10 3 19 10 3 21 10 3 21 20 11 29 1 1 22 1 1 20 1 1 20 4 4 23 1 1 19 1 1 19 1 1 18 17 17 32 13 13 28 14 14 28 14 14 26 13 13 24 16 16 26 16 16 24 13 13 20 24 24 29 18 18 21 17 17 17 59 59 59 59 59 59 141 88 53 192 120 72 203 127 76 199 124 74 184 115 69 157 98 59 118 73 44 47 29 17 57 54 53 57 54 53 57 54 53 73 65 60 67 58 60 76 62 65 73 73 73 74 74 74 70 70 70 71 71 71 71 71 71 88 88 88 72 72 72 72 72 72 
73 73 73 73 73 73 72 72 72 72 72 72 71 71 71 71 71 71 96 91 90 88 83 83 52 60 73 78 117 175 98 147 220 96 144 217 84 126 189 60 90 135 68 154 103 84 189 126 89 200 133 89 201 134 86 195 130 80 181 121 72 162 108 60 135 90 164 49 32 172 51 34 176 52 35 177 53 36 178 54 36 177 55 38 176 56 39 174 56 40 171 56 39 166 54 38 160 52 37 153 49 34 146 46 32 138 43 29 130 40 27 122 37 24 114 34 23 106 32 21 98 29 19 89 26 17 80 24 16 71 21 14 61 18 12 50 15 10 39 11 7 27 8 5 25 7 5 25 7 5 25 7 5 25 7 5 25 7 5 25 7 5 10 3 19 10 3 21 10 3 21 30 18 36 1 1 21 1 1 20 17 17 36 181 181 199 1 1 18 1 1 18 20 20 36 20 20 35 14 14 28 16 16 29 17 17 29 14 14 25 16 16 25 17 17 25 16 16 22 23 23 28 24 24 27 18 18 18 21 21 21 70 70 70 161 101 60 194 121 72 206 131 80 255 255 234 180 113 67 155 97 58 119 74 44 61 38 23 199 88 110 203 90 112 179 79 99 126 56 70 58 54 54 58 54 55 60 55 56 130 111 115 56 56 56 57 57 57 54 54 54 54 54 54 54 54 54 54 54 54 
84 84 84 83 83 83 83 83 83 82 82 82 81 81 81 81 81 81 69 62 62 70 65 64 40 44 48 94 142 213 101 152 228 139 188 255 86 129 193 65 98 148 53 120 80 71 161 107 77 174 116 78 176 117 75 170 113 69 157 104 61 137 91 49 110 73 151 45 30 161 48 32 165 49 33 166 50 33 166 50 33 165 50 34 163 50 34 160 50 34 157 49 33 152 47 32 147 45 31 140 43 29 134 41 27 127 38 26 120 36 24 113 34 22 105 31 21 97 29 19 89 26 17 81 24 16 72 21 14 62 18 12 52 15 10 53 32 10 65 36 13 63 35 12 50 29 10 24 20 4 23 18 4 25 7 5 25 7 5 61 61 61 10 3 19 10 3 20 10 3 21 35 22 39 1 1 20 1 1 19 1 1 19 2 2 20 1 1 17 1 1 18 18 18 33 20 20 35 17 17 31 17 17 30 19 19 31 15 15 25 15 15 24 17 17 24 16 16 22 14 14 19 20 20 22 27 27 27 21 21 21 78 78 78 147 92 55 179 111 67 186 116 69 181 113 67 165 103 62 141 88 52 104 65 39 204 90 113 228 101 127 225 100 125 201 89 112 159 70 88 85 37 47 48 44 45 48 44 45 53 46 48 47 47 47 47 47 47 47 47 47 47 47 47 56 56 56 56 56 56 
81 81 81 80 80 80 80 80 80 78 78 78 60 60 60 60 60 60 76 76 76 83 77 76 49 73 110 86 130 195 92 138 207 87 131 197 76 114 171 56 85 127 24 36 55 53 120 80 61 139 92 63 142 95 60 137 91 55 124 82 46 104 69 33 76 50 135 40 27 148 44 29 153 45 30 154 46 31 154 46 31 153 46 31 151 45 30 148 45 30 144 44 29 140 42 28 135 41 27 129 39 26 123 37 25 117 35 23 110 33 22 103 31 20 96 28 19 88 26 17 80 24 16 71 21 14 62 18 12 83 44 17 128 70 40 142 65 32 39 57 39 39 56 39 32 48 32 31 45 31 43 56 43 53 64 53 53 61 53 9 7 16 10 3 19 10 3 20 10 3 20 33 19 36 1 1 19 1 1 18 1 1 19 1 1 18 1 1 17 1 1 16 17 17 32 15 15 29 17 17 29 18 18 30 18 18 29 18 18 28 17 17 25 17 17 23 16 16 21 15 15 18 18 18 20 20 20 20 17 17 17 66 66 66 105 66 39 148 92 55 158 99 59 154 96 57 139 87 52 114 71 42 76 47 28 203 90 113 222 98 123 255 147 171 194 86 107 154 68 85 89 39 49 6 3 3 48 44 45 48 44 45 47 47 47 47 47 47 44 44 44 44 44 44 44 44 44 44 44 44 
68 68 68 68 68 68 67 67 67 67 67 67 67 67 67 67 67 67 66 66 66 66 66 66 65 65 65 66 99 149 72 109 163 68 103 155 57 85 128 37 55 83 10 15 23 18 42 28 39 87 58 43 97 64 41 93 62 36 81 54 26 60 40 12 28 19 113 34 22 133 40 26 140 42 28 142 42 28 143 42 28 142 42 28 140 42 28 137 41 27 133 40 26 129 38 26 124 37 25 119 35 23 113 34 22 107 32 21 100 30 20 93 28 18 86 25 17 78 23 15 70 21 14 62 18 12 139 82 51 215 125 89 38 58 38 39 58 39 24 42 24 18 35 18 17 33 17 32 47 32 36 49 36 38 50 38 46 55 46 49 56 49 12 16 30 10 3 19 10 3 19 27 13 29 15 15 32 0 1 17 2 4 19 1 1 17 1 1 17 1 1 16 19 19 33 17 17 30 13 13 25 14 14 25 21 21 31 18 18 27 15 15 22 14 14 20 15 15 19 15 15 18 18 18 20 19 19 19 20 20 20 104 104 104 77 77 77 94 59 35 114 71 42 112 70 42 98 61 36 71 44 26 26 16 9 170 75 94 192 85 106 187 83 104 165 73 91 125 55 69 59 26 32 6 3 3 57 53 54 57 53 54 69 69 69 69 69 69 70 70 70 70 70 70 70 70 70 71 71 71 
84 84 84 83 83 83 82 82 82 82 82 82 82 82 82 81 81 81 81 81 81 79 79 79 79 79 79 23 35 52 41 61 92 39 58 87 26 40 60 10 15 23 8 5 5 6 7 6 17 19 18 10 24 16 13 29 19 10 23 15 10 23 15 10 23 15 19 17 17 116 34 23 125 37 25 129 38 25 130 39 26 130 39 26 128 38 25 125 37 25 122 36 24 118 35 23 113 34 22 108 32 21 102 30 20 96 29 19 90 27 18 83 25 16 76 22 15 68 20 13 60 18 12 167 104 72 211 92 52 37 57 37 29 49 29 19 38 19 2 20 2 5 22 5 4 20 4 15 30 15 26 39 26 43 54 43 40 50 40 51 59 51 41 46 41 2 4 19 10 3 18 9 2 18 12 12 28 10 10 26 10 10 26 16 16 31 1 1 16 1 1 14 17 17 30 16 16 28 15 15 26 13 13 24 15 15 24 17 12 19 14 14 20 14 14 19 17 17 21 15 15 17 22 22 23 21 21 21 23 23 23 108 108 108 108 108 108 108 108 108 25 16 9 42 26 15 29 18 10 20 12 7 5 4 3 91 40 51 134 59 74 134 59 74 113 50 62 69 30 38 23 10 12 6 3 3 57 53 54 70 70 70 65 65 65 65 65 65 65 65 65 65 65 65 66 66 66 66 66 66 
66 66 66 80 80 80 80 80 80 79 79 79 79 79 79 79 79 79 79 79 79 128 128 128 129 129 129 124 124 125 17 18 19 20 22 25 20 22 25 61 63 66 58 60 59 58 60 59 58 60 59 61 66 63 61 66 63 61 66 63 61 66 63 61 66 63 61 66 63 94 28 18 109 32 21 115 34 23 117 35 23 117 35 23 115 34 23 113 34 22 110 33 22 106 32 21 102 30 20 97 29 19 91 27 18 85 25 17 79 23 15 72 21 14 65 19 13 58 17 11 131 74 43 48 69 48 40 60 40 2 22 2 2 21 2 2 20 2 4 21 4 4 21 4 9 24 9 16 30 16 23 35 23 40 51 40 49 59 49 42 49 42 51 57 51 10 13 25 1 1 17 9 2 17 0 0 22 3 3 25 13 13 28 16 16 31 0 0 13 0 0 12 14 14 27 11 11 23 11 11 21 10 10 19 17 17 26 12 10 17 17 17 22 17 17 22 15 15 18 20 20 21 25 25 25 41 41 41 41 41 41 108 108 108 111 111 111 97 93 90 100 95 91 95 92 89 93 90 88 93 90 88 87 86 85 86 86 85 19 18 17 30 13 16 23 10 12 19 17 18 7 6 6 7 6 6 78 76 76 80 80 80 76 76 76 76 76 76 76 76 76 77 77 77 77 77 77 77 77 77 
83 83 83 134 134 134 134 134 134 134 134 134 134 134 134 134 134 134 134 134 134 134 134 134 134 134 134 129 129 130 118 122 128 68 72 78 66 69 73 64 66 69 64 66 69 61 62 61 64 69 66 64 70 66 64 71 67 64 69 66 63 69 66 63 69 65 115 120 117 114 120 116 89 26 17 98 29 19 102 30 20 103 31 20 102 30 20 100 30 20 98 29 19 94 28 18 90 27 18 85 25 17 80 24 16 74 22 14 68 20 13 61 18 12 54 16 10 82 43 16 174 76 40 2 22 2 2 22 2 2 21 2 2 21 2 4 22 4 4 21 4 4 20 4 22 36 22 27 40 27 27 39 27 33 43 33 27 36 27 52 59 52 57 62 57 42 45 42 13 13 27 3 1 19 6 3 25 4 4 23 20 20 33 12 12 25 55 55 67 31 31 43 35 35 46 34 34 44 31 31 40 51 51 60 52 52 59 28 27 33 47 47 52 27 27 30 45 45 47 26 26 27 46 46 46 47 47 47 26 26 26 68 68 68 79 67 60 86 72 62 85 71 62 80 68 60 71 62 56 58 54 51 55 52 50 72 58 61 76 59 63 109 96 99 95 90 91 94 89 90 88 86 86 87 86 86 107 105 106 109 106 106 104 104 104 103 103 103 75 75 75 75 75 75 76 76 76 76 76 76 
138 138 138 138 138 138 138 138 138 138 138 138 138 138 138 138 138 138 85 85 85 84 84 84 80 81 84 79 87 99 136 147 162 136 147 162 134 143 157 129 136 147 121 124 129 122 131 126 127 143 134 129 146 136 129 146 135 127 143 134 125 138 130 122 131 125 65 71 68 65 71 67 59 17 11 79 23 15 85 25 17 88 26 17 88 26 17 87 26 17 84 25 16 81 24 16 77 23 15 73 21 14 68 20 13 62 18 12 56 16 11 49 14 9 42 12 8 117 56 26 48 68 48 2 21 2 2 21 2 2 20 2 207 224 207 8 24 8 4 20 4 30 45 30 33 47 33 35 47 35 33 45 33 36 45 36 35 44 35 32 38 32 53 58 53 62 65 62 13 13 23 0 0 12 2 1 1 12 12 24 27 27 39 28 28 40 32 32 43 30 30 40 34 34 44 34 34 43 55 55 63 56 56 63 55 55 61 31 31 36 29 29 33 30 30 33 49 49 50 28 28 28 29 29 29 48 48 48 47 47 47 118 118 118 145 125 112 106 85 71 104 84 70 98 80 68 90 74 64 77 66 59 89 66 71 106 74 80 105 73 80 97 70 75 84 64 68 64 54 56 56 51 52 90 88 89 110 108 108 69 68 68 67 67 67 67 67 67 66 66 66 66 66 66 66 66 66 66 66 66 
85 85 85 85 85 85 85 85 85 85 85 85 85 85 85 85 85 85 85 85 85 84 84 84 84 84 84 147 160 181 150 166 189 150 165 189 148 162 183 143 155 172 135 143 154 136 157 144 139 165 149 140 167 151 140 166 150 138 163 148 136 158 145 78 96 85 73 86 79 68 73 70 67 72 69 52 15 10 66 19 13 71 21 14 72 21 14 72 21 14 70 21 14 67 20 13 64 19 12 59 17 11 55 16 11 49 14 9 43 13 8 37 11 7 51 32 10 35 53 35 2 21 2 4 23 4 4 22 4 4 22 4 3 20 3 2 18 2 4 19 4 49 63 49 37 50 37 46 58 46 38 48 38 40 49 40 35 43 35 36 42 36 30 34 30 46 49 46 40 40 40 9 9 20 7 7 7 6 6 6 10 10 21 29 29 39 53 53 63 52 52 62 59 59 68 34 34 42 56 56 63 55 55 61 54 54 59 32 32 35 31 31 33 51 51 52 50 50 50 47 47 47 30 30 30 48 48 48 10 10 10 120 120 120 117 92 76 121 94 77 118 93 76 113 89 74 147 127 114 135 119 109 157 121 128 170 127 135 168 126 134 160 122 130 147 116 122 127 107 111 99 94 95 92 91 91 108 107 107 111 108 108 68 68 68 68 68 68 68 68 68 67 67 67 67 67 67 67 67 67 
88 88 88 88 88 88 87 87 87 87 87 87 86 86 86 86 86 86 86 86 86 86 86 86 142 142 142 156 172 196 161 180 208 217 235 255 159 176 203 153 168 191 143 154 169 90 120 102 92 126 106 93 128 107 93 127 106 91 124 104 89 119 101 142 168 152 138 158 146 132 145 137 125 130 127 140 140 140 39 11 7 50 15 10 54 16 10 55 16 11 54 16 10 52 15 10 49 14 9 45 13 9 40 12 8 35 10 7 29 8 5 25 7 5 61 34 12 42 60 42 4 22 4 2 20 2 4 21 4 4 21 4 2 18 2 2 17 2 2 16 2 40 53 40 36 48 36 50 61 50 41 51 41 43 51 43 34 41 34 39 44 39 33 36 33 52 53 52 49 49 49 15 15 22 6 4 3 8 8 8 6 6 6 11 11 20 7 7 15 51 51 59 34 34 41 33 33 39 31 31 37 32 32 37 31 31 35 32 32 34 52 52 54 51 51 51 51 51 51 51 51 51 53 53 53 13 13 13 29 29 29 32 32 32 81 54 36 87 57 38 154 125 106 82 55 38 71 48 32 59 40 27 71 36 43 105 55 65 211 162 172 176 131 140 161 124 131 141 114 120 105 98 100 111 110 110 111 109 110 113 113 113 107 107 107 107 107 107 107 107 107 106 106 106 65 65 65 68 68 68 
147 147 147 147 147 147 147 147 147 150 150 150 151 151 151 151 151 151 151 151 151 92 92 92 92 92 92 91 91 91 106 126 155 109 129 160 106 125 154 99 114 137 107 114 110 97 133 111 99 140 116 100 142 117 100 141 116 98 137 114 154 190 168 150 182 163 146 172 156 139 158 147 128 134 130 141 141 141 141 141 141 25 7 5 32 9 6 36 10 7 36 11 7 35 10 7 33 9 6 29 8 5 25 7 5 25 7 5 25 7 5 25 7 5 125 141 125 0 16 0 0 17 0 4 21 4 2 18 2 2 17 2 4 19 4 2 16 2 2 15 2 44 56 44 33 44 33 37 46 37 44 52 44 39 46 39 41 46 41 43 47 43 34 36 34 29 30 29 45 45 45 24 24 26 5 5 5 6 5 5 4 4 4 11 11 11 9 7 14 4 4 10 11 11 17 34 34 39 31 31 36 32 32 35 31 31 33 30 30 31 52 52 52 52 52 52 52 52 52 54 54 54 12 12 12 12 12 12 30 30 30 30 30 30 76 51 34 89 59 39 90 59 39 85 56 37 76 51 34 63 42 29 43 30 21 92 46 55 100 49 59 94 46 56 88 48 56 143 116 122 118 116 117 119 114 115 116 116 116 110 110 110 110 110 110 110 110 110 109 109 109 109 109 109 108 108 108 108 108 108 
155 155 155 155 155 155 155 155 155 154 154 154 154 154 154 153 153 153 93 93 93 93 93 93 93 93 93 92 92 92 92 92 92 92 92 92 92 92 92 111 96 94 103 92 91 101 141 117 105 150 123 106 153 125 156 202 174 133 177 150 161 202 177 157 194 172 152 183 164 145 167 154 143 143 143 143 143 143 143 143 143 143 143 143 25 7 5 25 7 5 25 7 5 25 7 5 25 7 5 25 7 5 25 7 5 25 7 5 25 7 5 25 7 5 79 93 79 118 133 118 0 15 0 1 16 1 2 17 2 2 16 2 2 16 2 2 15 2 2 14 2 39 50 39 30 40 30 28 36 28 46 54 46 44 50 44 35 40 35 34 37 34 38 40 38 32 32 32 70 70 70 62 62 62 6 6 6 10 7 7 8 8 8 10 10 10 12 12 12 4 4 9 7 7 12 9 9 13 32 32 35 31 31 33 30 30 31 31 31 31 52 52 52 55 55 55 53 53 53 12 12 12 10 10 10 40 40 40 40 40 40 29 29 29 29 29 29 72 48 32 85 57 37 82 55 36 73 49 33 57 39 27 31 31 31 30 30 30 34 34 34 42 42 42 42 42 42 43 43 43 123 123 123 78 78 78 78 78 78 72 72 72 72 72 72 72 72 72 68 68 68 67 67 67 67 67 67 67 67 67 
157 157 157 157 157 157 157 157 157 157 157 157 157 157 157 95 95 95 92 92 92 92 92 92 92 92 92 91 91 91 91 91 91 91 91 91 91 91 91 91 91 91 89 89 89 89 89 89 108 156 127 110 160 130 110 160 130 109 157 128 106 151 124 102 142 118 96 130 110 85 105 93 90 90 90 89 89 89 90 90 90 89 89 89 88 88 88 88 88 88 25 7 5 25 7 5 25 7 5 25 7 5 25 7 5 25 7 5 25 7 5 25 7 5 86 99 86 131 145 131 76 90 76 0 14 0 0 13 0 0 13 0 0 12 0 0 12 0 0 11 0 35 44 35 33 42 33 26 33 26 37 43 37 32 37 32 29 33 29 43 45 43 48 48 48 60 60 60 71 71 71 23 23 23 9 7 6 10 7 7 10 7 7 9 9 9 7 7 7 7 7 7 5 5 8 6 6 8 8 8 9 30 30 30 29 29 29 30 30 30 55 55 55 32 32 32 11 11 11 12 12 12 40 40 40 32 32 32 33 33 33 34 34 34 34 34 34 42 42 42 42 42 42 37 37 37 37 37 37 37 37 37 38 38 38 38 38 38 39 39 39 39 39 39 39 39 39 39 39 39 42 42 42 124 124 124 123 123 123 118 118 118 73 73 73 73 73 73 73 73 73 72 72 72 72 72 72 72 72 72 
158 158 158 158 158 158 157 157 157 94 94 94 157 157 157 157 157 157 157 157 157 155 155 155 155 155 155 154 154 154 154 154 154 153 153 153 153 153 153 153 153 153 153 153 153 156 156 156 156 156 156 172 222 192 173 224 193 110 160 130 107 153 126 102 142 118 91 91 91 91 91 91 91 91 91 90 90 90 90 90 90 91 91 91 90 90 90 87 87 87 26 26 26 26 26 26 25 7 5 25 7 5 25 7 5 25 7 5 25 7 5 25 7 5 87 98 87 70 83 70 74 87 74 140 153 140 144 157 144 146 158 146 78 89 78 140 150 140 73 82 73 77 86 77 73 81 73 122 128 122 124 129 124 118 122 118 114 117 114 118 118 118 68 68 68 115 115 115 123 123 123 74 74 74 13 13 13 8 7 7 8 7 6 7 7 7 7 7 7 8 8 8 9 9 9 8 8 9 9 9 9 9 9 9 49 49 49 55 55 55 34 34 34 11 11 11 14 14 14 29 29 29 30 30 30 30 30 30 30 30 30 33 33 33 33 33 33 33 33 33 33 33 33 41 41 41 42 42 42 42 42 42 43 43 43 39 39 39 38 38 38 38 38 38 38 38 38 38 38 38 124 124 124 123 123 123 123 123 123 116 116 116 119 119 119 119 119 119 118 118 118 73 73 73 73 73 73 73 73 73 
96 96 96 96 96 96 159 159 159 158 158 158 158 158 158 158 158 158 158 158 158 159 159 159 158 158 158 161 161 161 160 160 160 160 160 160 159 159 159 159 159 159 158 158 158 157 157 157 157 157 157 156 156 156 156 156 156 93 93 93 93 93 93 93 93 93 93 93 93 90 90 90 89 89 89 89 89 89 89 89 89 88 88 88 88 88 88 87 87 87 87 87 87 25 25 25 19 12 11 19 12 11 19 12 11 26 19 18 26 19 18 26 19 18 127 130 120 145 156 145 131 142 131 73 84 73 73 83 73 74 84 74 135 145 135 133 142 133 131 139 131 139 146 139 80 86 80 77 82 77 81 85 81 131 134 131 125 126 125 125 125 125 122 122 122 69 69 69 78 78 78 32 32 32 34 34 34 34 34 34 8 7 7 8 7 7 8 8 8 10 10 10 9 9 9 8 8 8 11 11 11 11 11 11 54 54 54 11 11 11 6 6 6 33 33 33 33 33 33 32 32 32 29 29 29 29 29 29 29 29 29 29 29 29 30 30 30 30 30 30 34 34 34 35 35 35 35 35 35 34 34 34 42 42 42 42 42 42 42 42 42 43 43 43 39 39 39 126 126 126 124 124 124 124 124 124 123 123 123 118 118 118 117 117 117 117 117 117 116 116 116 116 116 116 119 119 119 119 119 119 
98 98 98 163 163 163 166 166 166 165 165 165 165 165 165 164 164 164 164 164 164 164 164 164 162 162 162 162 162 162 162 162 162 161 161 161 161 161 161 160 160 160 160 160 160 160 160 160 159 159 159 156 156 156 92 92 92 92 92 92 92 92 92 91 91 91 90 90 90 90 90 90 90 90 90 89 89 89 89 89 89 89 89 89 89 89 89 92 92 92 91 91 91 81 74 73 80 73 72 19 12 11 19 12 11 26 19 18 26 19 18 26 19 18 26 19 18 142 151 142 127 137 127 70 79 70 70 79 70 70 79 70 70 78 70 69 77 69 128 134 128 84 89 84 78 83 78 79 82 79 80 82 80 79 80 79 130 130 130 77 77 77 76 76 76 81 81 81 75 75 75 17 17 17 32 32 32 32 32 32 20 20 20 22 22 22 7 7 7 7 7 7 7 7 7 7 7 7 8 8 8 8 8 8 8 8 8 28 28 28 28 28 28 32 32 32 32 32 32 32 32 32 33 33 33 34 34 34 34 34 34 30 30 30 30 30 30 30 30 30 30 30 30 30 30 30 30 30 30 31 31 31 35 35 35 35 35 35 43 43 43 131 131 131 130 130 130 130 130 130 130 130 130 131 131 131 126 126 126 120 120 120 119 119 119 119 119 119 118 118 118 118 118 118 117 117 117 117 117 117 
168 168 168 167 167 167 166 166 166 166 166 166 166 166 166 165 165 165 165 165 165 165 165 165 164 164 164 164 164 164 164 164 164 160 160 160 160 160 160 160 160 160 159 159 159 158 158 158 157 157 157 157 157 157 92 92 92 92 92 92 92 92 92 92 92 92 92 92 92 95 95 95 94 94 94 94 94 94 93 93 93 155 155 155 154 154 154 144 137 136 143 136 135 143 136 135 142 135 134 142 135 134 142 134 133 81 73 72 80 73 72 80 73 72 80 73 72 130 130 123 144 152 144 68 76 68 68 76 68 68 76 68 68 75 68 126 132 126 126 131 126 139 143 139 139 142 139 132 134 132 136 136 136 132 132 132 129 129 129 76 76 76 72 72 72 79 79 79 26 26 26 33 33 33 34 33 33 22 22 22 20 20 20 20 20 20 19 19 19 19 19 19 19 19 19 19 19 19 19 19 19 19 19 19 23 23 23 26 23 21 37 37 37 29 29 29 30 30 30 30 30 30 34 34 34 33 33 33 33 33 33 33 33 33 33 33 33 33 33 33 31 31 31 31 31 31 31 31 31 81 81 81 80 80 80 79 79 79 79 79 79 84 84 84 133 133 133 133 133 133 132 132 132 131 131 131 130 130 130 77 77 77 77 77 77 77 77 77 72 72 72 72 72 72 72 72 72 72 72 72 
169 169 169 169 169 169 169 169 169 169 169 169 165 165 165 165 165 165 164 164 164 164 164 164 164 164 164 162 162 162 161 161 161 161 161 161 160 160 160 160 160 160 160 160 160 95 95 95 95 95 95 159 159 159 161 161 161 161 161 161 160 160 160 159 159 159 159 159 159 158 158 158 158 158 158 157 157 157 158 158 158 157 157 157 145 138 137 145 138 137 145 137 136 144 137 136 144 137 136 143 136 135 143 136 135 81 74 73 81 74 73 81 74 73 80 73 72 80 73 72 147 136 129 68 73 68 67 73 67 67 73 67 125 129 125 124 128 124 123 127 123 137 139 137 139 140 139 138 138 138 132 132 132 132 132 132 131 131 131 126 126 126 83 83 83 13 13 14 18 17 17 22 22 22 22 22 22 22 22 22 20 20 20 19 19 19 19 19 19 19 19 19 19 19 19 19 19 19 19 19 19 19 19 19 20 20 20 21 21 21 21 21 21 26 26 26 29 29 29 29 29 29 29 29 29 29 29 29 30 30 30 86 86 86 86 86 86 86 86 86 85 85 85 85 85 85 84 84 84 81 81 81 132 132 132 132 132 132 131 131 131 131 131 131 130 130 130 129 129 129 133 133 133 84 84 84 84 84 84 78 78 78 78 78 78 77 77 77 77 77 77 77 77 77 77 77 77 73 73 73 
168 168 168 168 168 168 101 101 101 99 99 99 99 99 99 98 98 98 98 98 98 98 98 98 97 97 97 98 98 98 98 98 98 97 97 97 100 100 100 100 100 100 99 99 99 98 98 98 98 98 98 163 163 163 162 162 162 162 162 162 161 161 161 161 161 161 161 161 161 160 160 160 156 156 156 156 156 156 155 155 155 147 140 139 147 139 138 146 139 138 146 139 137 145 138 137 145 138 137 144 137 136 144 137 136 144 136 135 82 74 73 81 74 73 81 74 73 81 74 73 81 73 72 109 89 83 124 127 124 124 127 124 124 127 124 124 126 124 123 124 123 122 123 122 130 130 130 133 133 133 129 129 129 128 128 128 126 126 126 132 132 132 20 20 23 10 10 10 36 36 36 20 20 20 20 19 19 20 19 19 19 19 19 19 19 19 19 19 19 19 19 19 20 20 20 20 20 20 20 20 20 19 19 19 19 19 19 122 122 122 121 121 121 121 121 121 146 135 127 140 140 140 136 136 136 136 136 136 136 136 136 134 134 134 134 134 134 134 134 134 137 137 137 138 138 138 138 138 138 137 137 137 137 137 137 136 136 136 132 132 132 131 131 131 132 132 132 132 132 132 131 131 131 130 130 130 129 129 129 74 74 74 78 78 78 78 78 78 78 78 78 78 78 78 77 77 77 77 77 77 
100 100 100 100 100 100 100 100 100 100 100 100 101 101 101 100 100 100 103 103 103 103 103 103 102 102 102 102 102 102 101 101 101 101 101 101 100 100 100 100 100 100 99 99 99 99 99 99 165 165 165 164 164 164 164 164 164 160 160 160 160 160 160 159 159 159 158 158 158 157 157 157 157 157 157 156 156 156 148 141 140 148 141 140 147 140 139 147 140 139 147 139 138 146 139 138 146 139 138 145 138 137 145 138 137 144 137 136 82 75 74 82 75 74 82 74 73 81 74 73 81 74 73 81 74 73 149 134 131 134 135 134 123 123 123 123 123 123 122 122 122 122 122 122 122 122 122 123 123 123 124 124 124 131 131 131 32 32 32 18 18 23 17 16 16 16 16 16 22 22 22 20 19 19 20 19 19 20 19 19 20 19 19 19 19 19 19 19 19 19 19 19 19 19 19 12 12 12 13 13 13 14 14 14 12 12 12 69 69 69 68 68 68 67 67 67 68 68 68 72 72 72 87 87 87 140 140 140 140 140 140 136 136 136 136 136 136 136 136 136 136 136 136 135 135 135 134 134 134 138 138 138 137 137 137 138 138 138 138 138 138 138 138 138 136 136 136 132 132 132 131 131 131 132 132 132 132 132 132 125 125 125 125 125 125 75 75 75 75 75 75 78 78 78 78 78 78 78 78 78 
103 103 103 105 105 105 105 105 105 105 105 105 103 103 103 103 103 103 103 103 103 103 103 103 102 102 102 102 102 102 102 102 102 102 102 102 101 101 101 98 98 98 98 98 98 97 97 97 162 162 162 161 161 161 161 161 161 160 160 160 160 160 160 160 160 160 160 160 160 159 159 159 161 161 161 161 161 161 149 142 141 149 142 141 148 141 140 148 141 140 148 140 139 147 140 139 147 139 138 146 139 138 146 139 138 145 138 137 83 75 74 82 75 74 82 75 74 82 75 74 82 74 73 81 74 73 81 74 73 137 137 137 165 165 165 144 144 144 165 165 165 164 164 164 166 166 166 167 167 167 60 60 60 41 41 41 23 23 23 25 25 25 16 16 16 33 33 34 20 19 19 12 10 10 13 12 11 13 12 11 13 12 11 11 11 11 11 11 12 12 12 12 12 12 12 12 12 12 12 12 12 12 12 12 86 86 86 86 86 86 69 69 69 68 68 68 68 68 68 81 81 81 87 87 87 88 88 88 88 88 88 142 142 142 141 141 141 140 140 140 136 136 136 136 136 136 136 136 136 136 136 136 136 136 136 138 138 138 138 138 138 138 138 138 138 138 138 138 138 138 138 138 138 136 136 136 132 132 132 126 126 126 126 126 126 125 125 125 125 125 125 75 75 75 75 75 75 75 75 75 
105 105 105 105 105 105 105 105 105 105 105 105 104 104 104 105 105 105 104 104 104 104 104 104 100 100 100 100 100 100 100 100 100 98 98 98 98 98 98 97 97 97 97 97 97 164 164 164 164 164 164 163 163 163 162 162 162 165 165 165 164 164 164 163 163 163 163 163 163 162 162 162 161 161 161 150 143 142 150 143 142 150 142 141 149 142 141 149 142 141 148 141 140 148 141 140 147 140 139 147 140 139 147 139 138 146 139 138 83 76 75 83 76 75 82 75 74 82 75 74 82 75 74 82 75 74 81 74 73 18 11 10 15 13 12 22 21 21 35 35 35 35 35 35 35 35 35 22 22 22 22 22 22 24 25 25 29 28 28 35 35 35 20 17 17 20 17 17 20 19 19 12 10 10 12 10 10 13 12 11 14 14 14 11 11 11 13 13 13 11 11 11 12 12 12 13 13 13 70 70 70 86 86 86 86 86 86 85 85 85 77 77 77 77 77 77 69 69 69 69 69 69 70 70 70 85 85 85 84 84 84 88 88 88 88 88 88 142 142 142 142 142 142 142 142 142 137 137 137 136 136 136 136 136 136 135 135 135 136 136 136 136 136 136 138 138 138 138 138 138 138 138 138 138 138 138 138 138 138 131 131 131 131 131 131 126 126 126 126 126 126 126 126 126 125 125 125 125 125 125 
107 107 107 106 106 106 106 106 106 103 103 103 102 102 102 101 101 101 100 100 100 100 100 100 100 100 100 99 99 99 99 99 99 100 100 100 99 99 99 99 99 99 102 102 102 168 168 168 167 167 167 166 166 166 166 166 166 165 165 165 164 164 164 165 165 165 164 164 164 164 164 164 160 160 160 156 145 144 155 145 143 153 144 143 151 143 142 149 142 141 149 142 141 149 141 140 148 141 140 148 141 139 147 140 139 147 140 139 83 76 75 146 139 138 145 138 137 145 138 137 145 137 136 144 137 136 143 136 135 162 160 159 139 137 136 28 25 24 24 24 24 24 24 24 24 24 24 24 24 24 24 24 24 24 24 24 23 23 23 20 20 20 20 19 19 20 17 17 20 19 19 29 28 27 12 10 10 11 11 11 12 12 12 19 19 19 13 13 13 69 69 69 71 71 71 70 70 70 70 70 70 78 78 78 78 78 78 77 77 77 86 86 86 86 86 86 78 78 78 84 84 84 71 71 71 85 85 85 85 85 85 85 85 85 85 85 85 89 89 89 142 142 142 142 142 142 141 141 141 142 142 142 142 142 142 138 138 138 136 136 136 136 136 136 136 136 136 136 136 136 136 136 136 138 138 138 138 138 138 132 132 132 132 132 132 131 131 131 131 131 131 131 131 131 130 130 130 126 126 126 
103 103 103 102 102 102 102 102 102 102 102 102 101 101 101 101 101 101 102 102 102 102 102 102 101 101 101 104 104 104 104 104 104 102 102 102 102 102 102 102 102 102 169 169 169 168 168 168 168 168 168 168 168 168 167 167 167 167 167 167 163 163 163 162 162 162 161 161 161 160 160 160 163 148 146 162 148 146 95 82 80 93 81 79 91 80 78 89 79 78 87 78 77 85 78 77 85 77 76 84 77 76 84 77 76 84 77 76 84 76 75 147 139 138 146 139 138 146 139 137 145 138 137 144 137 136 164 161 161 164 161 161 186 186 186 156 156 156 140 140 140 140 140 140 24 24 24 24 24 24 25 25 25 25 25 25 25 25 25 24 24 24 23 23 23 20 19 19 20 17 17 28 28 28 18 18 18 70 70 70 70 70 70 71 71 71 71 71 71 69 69 69 71 71 71 70 70 70 79 79 79 79 79 79 78 78 78 87 87 87 86 86 86 85 85 85 86 86 86 77 77 77 71 71 71 73 73 73 90 90 90 85 85 85 85 85 85 85 85 85 86 86 86 86 86 86 143 143 143 142 142 142 142 142 142 141 141 141 142 142 142 142 142 142 138 138 138 136 136 136 136 136 136 137 137 137 130 130 130 129 129 129 133 133 133 133 133 133 132 132 132 132 132 132 131 131 131 131 131 131 
103 103 103 104 104 104 104 104 104 103 103 103 103 103 103 106 106 106 105 105 105 104 104 104 104 104 104 104 104 104 103 103 103 104 104 104 103 103 103 103 103 103 170 170 170 166 166 166 165 165 165 97 97 97 97 97 97 96 96 96 97 97 97 96 96 96 96 96 96 95 95 95 103 84 82 102 84 81 100 83 81 98 83 80 96 82 80 94 81 79 92 80 78 89 79 78 87 78 77 85 77 76 84 77 76 84 77 76 84 77 76 147 140 139 147 140 138 146 139 138 145 138 137 192 192 192 168 168 168 189 189 189 189 189 189 193 193 193 198 198 198 156 156 156 157 157 157 156 156 156 155 155 155 141 141 141 144 144 144 138 138 138 137 137 137 132 132 132 133 130 129 131 130 130 130 129 129 128 128 128 72 72 72 72 72 72 69 69 69 69 69 69 72 72 72 80 80 80 80 80 80 79 79 79 79 79 79 87 87 87 86 86 86 86 86 86 76 76 76 83 83 83 71 71 71 71 71 71 89 89 89 90 90 90 90 90 90 86 86 86 86 86 86 85 85 85 85 85 85 139 139 139 144 144 144 143 143 143 142 142 142 142 142 142 141 141 141 142 142 142 138 138 138 136 136 136 131 131 131 131 131 131 130 130 130 130 130 130 129 129 129 133 133 133 132 132 132 132 132 132 
108 108 108 107 107 107 106 106 106 106 106 106 106 106 106 105 105 105 105 105 105 174 174 174 174 174 174 173 173 173 173 173 173 169 169 169 167 167 167 99 99 99 98 98 98 98 98 98 99 99 99 98 98 98 98 98 98 97 97 97 100 100 100 99 99 99 99 99 99 98 98 98 109 86 83 107 86 83 105 85 82 103 84 81 101 83 81 99 83 80 96 82 80 94 81 79 92 80 78 89 79 78 87 78 77 84 77 76 84 77 76 148 140 139 147 140 139 147 140 139 159 159 159 191 191 191 162 162 162 184 184 184 183 183 183 183 183 183 182 182 182 181 181 181 184 184 184 143 143 143 142 142 142 142 142 142 144 144 144 144 144 144 141 141 141 143 143 143 132 132 132 133 133 133 131 131 131 131 131 131 130 130 130 71 71 71 89 89 89 79 79 80 81 81 82 80 80 81 79 79 80 80 80 80 79 79 79 87 87 87 86 86 86 86 86 86 84 84 84 77 77 77 75 75 75 72 72 72 87 87 87 91 91 91 90 90 90 90 90 90 89 89 89 90 90 90 86 86 86 86 86 86 85 85 85 139 139 139 140 140 140 144 144 144 143 143 143 142 142 142 141 141 141 142 142 142 136 136 136 132 132 132 131 131 131 131 131 131 130 130 130 78 78 78 78 78 78 78 78 78 

