P3
64 64
255
0 0 0 0 0 0 0 0 0 0 0 0 0 0 0 0 0 0 0 0 0 0 0 0 0 0 0 0 0 0 0 0 0 0 0 0 0 0 0 0 0 0 0 0 0 0 0 0 0 0 0 0 0 0 0 0 0 0 0 0 0 0 0 0 0 0 0 0 0 0 0 0 0 0 0 0 0 0 0 0 0 0 0 0 0 0 0 0 0 0 0 0 0 0 0 0 0 0 0 0 0 0 0 0 0 0 0 0 0 0 0 0 0 0 0 0 0 0 0 0 0 0 0 0 0 0 0 0 0 0 0 0 0 0 0 0 0 0 0 0 0 0 0 0 0 0 0 0 0 0 0 0 0 0 0 0 0 0 0 0 0 0 0 0 0 0 0 0 0 0 0 0 0 0 0 0 0 0 0 0 0 0 0 0 0 0 0 0 0 0 0 0 
0 0 0 0 0 0 0 0 0 0 0 0 0 0 0 0 0 0 0 0 0 0 0 0 0 0 0 0 0 0 0 0 0 0 0 0 0 0 0 0 0 0 0 0 0 0 0 0 0 0 0 0 0 0 0 0 0 0 0 0 0 0 0 0 0 0 0 0 0 0 0 0 0 0 0 0 0 0 0 0 0 0 0 0 0 0 0 0 0 0 0 0 0 0 0 0 0 0 0 0 0 0 0 0 0 0 0 0 0 0 0 0 0 0 0 0 0 0 0 0 0 0 0 0 0 0 0 0 0 0 0 0 0 0 0 0 0 0 0 0 0 0 0 0 0 0 0 0 0 0 0 0 0 0 0 0 0 0 0 0 0 0 0 0 0 0 0 0 0 0 0 0 0 0 0 0 0 0 0 0 0 0 0 0 0 0 0 0 0 0 0 0 
0 0 0 0 0 0 0 0 0 0 0 0 0 0 0 0 0 0 0 0 0 0 0 0 0 0 0 0 0 0 0 0 0 0 0 0 0 0 0 0 0 0 0 0 0 0 0 0 0 0 0 0 0 0 0 0 0 0 0 0 0 0 0 0 0 0 0 0 0 0 0 0 0 0 0 0 0 0 0 0 0 0 0 0 0 0 0 0 0 0 0 0 0 0 0 0 0 0 0 0 0 0 0 0 0 0 0 0 0 0 0 0 0 0 0 0 0 0 0 0 0 0 0 0 0 0 0 0 0 0 0 0 0 0 0 0 0 0 0 0 0 0 0 0 0 0 0 0 0 0 0 0 0 0 0 0 0 0 0 0 0 0 0 0 0 0 0 0 0 0 0 0 0 0 0 0 0 0 0 0 0 0 0 0 0 0 0 0 0 0 0 0 
0 0 0 0 0 0 0 0 0 0 0 0 0 0 0 0 0 0 0 0 0 0 0 0 0 0 0 0 0 0 0 0 0 0 0 0 0 0 0 0 0 0 0 0 0 0 0 0 0 0 0 0 0 0 0 0 0 0 0 0 0 0 0 0 0 0 0 0 0 0 0 0 0 0 0 0 0 0 0 0 0 0 0 0 0 0 0 0 0 0 0 0 0 0 0 0 0 0 0 0 0 0 0 0 0 0 0 0 0 0 0 0 0 0 0 0 0 0 0 0 0 0 0 0 0 0 0 0 0 0 0 0 0 0 0 0 0 0 0 0 0 0 0 0 0 0 0 0 0 0 0 0 0 0 0 0 0 0 0 0 0 0 0 0 0 0 0 0 0 0 0 0 0 0 0 0 0 0 0 0 0 0 0 0 0 0 0 0 0 0 0 0 
0 0 0 0 0 0 0 0 0 0 0 0 0 0 0 0 0 0 0 0 0 0 0 0 0 0 0 0 0 0 0 0 0 0 0 0 0 0 0 0 0 0 0 0 0 0 0 0 0 0 0 0 0 0 0 0 0 0 0 0 0 0 0 0 0 0 0 0 0 0 0 0 0 0 0 0 0 0 0 0 0 0 0 0 0 0 0 0 0 0 0 0 0 0 0 0 0 0 0 0 0 0 0 0 0 0 0 0 0 0 0 0 0 0 0 0 0 0 0 0 0 0 0 0 0 0 0 0 0 0 0 0 0 0 0 0 0 0 0 0 0 0 0 0 0 0 0 0 0 0 0 0 0 0 0 0 0 0 0 0 0 0 0 0 0 0 0 0 0 0 0 0 0 0 0 0 0 0 0 0 0 0 0 0 0 0 0 0 0 0 0 0 
0 0 0 0 0 0 0 0 0 0 0 0 0 0 0 0 0 0 0 0 0 0 0 0 0 0 0 0 0 0 0 0 0 0 0 0 0 0 0 0 0 0 0 0 0 0 0 0 0 0 0 0 0 0 0 0 0 0 0 0 0 0 0 0 0 0 0 0 0 0 0 0 0 0 0 58 91 24 59 92 24 58 91 24 58 90 24 57 89 23 56 87 23 55 86 22 54 84 22 52 82 21 51 79 21 49 77 20 47 74 19 45 70 18 43 67 17 39 61 16 0 0 0 0 0 0 0 0 0 0 0 0 0 0 0 0 0 0 0 0 0 0 0 0 0 0 0 0 0 0 0 0 0 0 0 0 0 0 0 0 0 0 0 0 0 0 0 0 0 0 0 0 0 0 0 0 0 0 0 0 0 0 0 0 0 0 0 0 0 0 0 0 
0 0 0 0 0 0 0 0 0 0 0 0 0 0 0 0 0 0 0 0 0 0 0 0 0 0 0 0 0 0 0 0 0 0 0 0 0 0 0 0 0 0 0 0 0 0 0 0 0 0 0 0 0 0 0 0 0 0 0 0 0 0 0 0 0 0 61 96 25 62 97 25 62 97 25 62 97 25 61 96 25 61 95 25 60 93 24 59 92 24 58 90 24 56 88 23 55 86 23 54 84 22 52 82 21 51 80 21 49 77 20 47 74 19 46 71 19 43 68 18 41 64 17 38 60 16 34 54 14 0 0 0 0 0 0 0 0 0 0 0 0 0 0 0 0 0 0 0 0 0 0 0 0 0 0 0 0 0 0 0 0 0 0 0 0 0 0 0 0 0 0 0 0 0 0 0 0 0 0 0 0 0 0 0 0 0 0 0 0 0 0 0 
0 0 0 0 0 0 0 0 0 0 0 0 0 0 0 0 0 0 0 0 0 0 0 0 0 0 0 0 0 0 0 0 0 0 0 0 0 0 0 0 0 0 0 0 0 0 0 0 0 0 0 0 0 0 0 0 0 0 0 0 64 99 26 64 101 26 65 101 26 64 100 26 64 100 26 63 99 26 62 97 26 62 96 25 61 95 25 60 93 24 58 91 24 57 89 23 56 88 23 55 85 22 53 83 22 52 81 21 50 79 21 49 76 20 47 73 19 45 70 18 43 67 18 41 64 17 38 60 16 35 55 14 32 49 13 0 0 0 0 0 0 0 0 0 0 0 0 0 0 0 0 0 0 0 0 0 0 0 0 0 0 0 0 0 0 0 0 0 0 0 0 0 0 0 0 0 0 0 0 0 0 0 0 0 0 0 0 0 0 0 0 0 
0 0 0 0 0 0 0 0 0 0 0 0 0 0 0 0 0 0 0 0 0 0 0 0 0 0 0 0 0 0 0 0 0 0 0 0 0 0 0 0 0 0 0 0 0 0 0 0 0 0 0 0 0 0 65 101 26 66 103 27 66 103 27 66 103 27 66 103 27 65 102 27 65 101 26 64 100 26 63 98 26 62 97 25 61 95 25 60 94 25 59 92 24 58 90 24 56 88 23 55 86 23 54 84 22 52 82 21 51 79 21 49 77 20 48 74 19 46 72 19 44 69 18 42 66 17 40 62 16 37 59 15 35 54 14 32 49 13 27 43 11 0 0 0 0 0 0 0 0 0 0 0 0 0 0 0 0 0 0 0 0 0 0 0 0 0 0 0 0 0 0 0 0 0 0 0 0 0 0 0 0 0 0 0 0 0 0 0 0 0 0 0 
0 0 0 0 0 0 0 0 0 0 0 0 0 0 0 0 0 0 0 0 0 0 0 0 0 0 0 0 0 0 0 0 0 0 0 0 0 0 0 0 0 0 0 0 0 0 0 0 0 0 0 67 104 27 67 105 28 67 105 28 67 105 28 67 104 27 66 103 27 66 102 27 65 101 27 64 100 26 63 99 26 62 97 25 61 96 25 60 94 25 59 92 24 58 90 24 57 88 23 55 86 23 54 84 22 53 82 21 51 80 21 50 78 20 48 75 20 46 72 19 45 70 18 43 67 17 41 64 17 39 60 16 36 57 15 34 53 14 31 48 12 27 42 11 0 0 0 0 0 0 0 0 0 0 0 0 0 0 0 0 0 0 0 0 0 0 0 0 0 0 0 0 0 0 0 0 0 0 0 0 0 0 0 0 0 0 0 0 0 0 0 0 
0 0 0 0 0 0 0 0 0 0 0 0 0 0 0 0 0 0 0 0 0 0 0 0 0 0 0 0 0 0 0 0 0 0 0 0 0 0 0 0 0 0 0 0 0 66 103 27 68 106 28 68 106 28 68 106 28 68 106 28 68 106 28 67 105 27 66 104 27 66 103 27 65 101 27 64 100 26 63 99 26 62 97 25 61 96 25 60 94 25 59 92 24 58 90 24 57 88 23 55 86 23 54 84 22 53 82 22 51 80 21 50 78 20 48 75 20 47 73 19 45 70 18 43 67 18 41 64 17 39 61 16 37 58 15 35 54 14 32 50 13 29 46 12 26 40 10 21 32 8 0 0 0 0 0 0 0 0 0 0 0 0 0 0 0 0 0 0 0 0 0 0 0 0 0 0 0 0 0 0 0 0 0 0 0 0 0 0 0 0 0 0 
0 0 0 0 0 0 0 0 0 0 0 0 0 0 0 0 0 0 0 0 0 0 0 0 0 0 0 0 0 0 0 0 0 0 0 0 0 0 0 0 0 0 67 104 27 68 107 28 69 107 28 69 107 28 69 107 28 68 106 28 68 106 28 67 105 28 66 104 27 66 103 27 65 101 27 64 100 26 63 98 26 62 97 25 61 95 25 60 94 25 59 92 24 58 90 24 56 88 23 55 86 23 54 84 22 53 82 21 51 80 21 50 78 20 48 75 20 47 73 19 45 70 18 43 68 18 41 65 17 39 62 16 37 59 15 35 55 14 33 52 13 30 48 12 27 43 11 24 38 10 19 30 8 0 0 0 0 0 0 0 0 0 0 0 0 0 0 0 0 0 0 0 0 0 0 0 0 0 0 0 0 0 0 0 0 0 0 0 0 0 0 0 
0 0 0 0 0 0 0 0 0 0 0 0 0 0 0 0 0 0 0 0 0 0 0 0 0 0 0 0 0 0 0 0 0 0 0 0 0 0 0 67 105 28 69 107 28 69 108 28 69 108 28 69 108 28 69 107 28 68 106 28 68 106 28 67 105 27 66 103 27 65 102 27 65 101 26 64 100 26 63 98 26 62 97 25 61 95 25 60 93 24 59 91 24 57 90 23 56 88 23 55 86 22 54 84 22 52 82 21 51 80 21 49 77 20 48 75 20 46 73 19 45 70 18 43 67 18 41 65 17 40 62 16 38 59 15 36 56 14 33 52 14 31 49 13 28 44 11 25 40 10 22 34 9 17 27 7 0 0 0 0 0 0 0 0 0 0 0 0 0 0 0 0 0 0 0 0 0 0 0 0 0 0 0 0 0 0 0 0 0 0 0 0 
0 0 0 0 0 0 0 0 0 0 0 0 0 0 0 0 0 0 0 0 0 0 0 0 0 0 0 0 0 0 0 0 0 0 0 0 67 105 28 69 107 28 69 108 28 69 108 28 69 108 28 69 108 28 69 107 28 68 106 28 67 105 28 67 104 27 66 103 27 65 102 27 64 100 26 63 99 26 62 98 26 61 96 25 60 94 25 59 93 24 58 91 24 57 89 23 56 87 23 55 85 22 53 83 22 52 81 21 51 79 21 49 77 20 48 75 19 46 72 19 45 70 18 43 67 18 41 65 17 40 62 16 38 59 15 36 56 14 34 53 14 31 49 13 29 45 12 26 41 11 23 36 9 20 31 8 15 23 6 0 0 0 0 0 0 0 0 0 0 0 0 0 0 0 0 0 0 0 0 0 0 0 0 0 0 0 0 0 0 0 0 0 
0 0 0 0 0 0 0 0 0 0 0 0 0 0 0 0 0 0 0 0 0 0 0 0 0 0 0 0 0 0 0 0 0 67 104 27 69 107 28 69 108 28 69 108 28 69 108 28 69 108 28 69 107 28 68 107 28 68 106 28 67 105 27 66 104 27 66 102 27 65 101 27 64 100 26 63 98 26 62 97 25 61 95 25 60 94 25 59 92 24 58 90 24 57 88 23 55 87 23 54 85 22 53 83 22 52 81 21 50 79 21 49 76 20 47 74 19 46 72 19 44 69 18 43 67 17 41 64 17 39 62 16 38 59 15 36 56 14 34 53 14 31 49 13 29 46 12 27 42 11 24 37 10 21 33 8 17 27 7 12 18 5 0 0 0 0 0 0 0 0 0 0 0 0 0 0 0 0 0 0 0 0 0 0 0 0 0 0 0 0 0 0 
0 0 0 0 0 0 0 0 0 0 0 0 0 0 0 0 0 0 0 0 0 0 0 0 0 0 0 0 0 0 66 103 27 68 107 28 69 108 28 69 108 28 69 108 28 69 108 28 69 108 28 68 107 28 68 106 28 67 105 28 67 104 27 66 103 27 65 102 27 64 100 26 63 99 26 62 98 26 61 96 25 60 94 25 59 93 24 58 91 24 57 89 23 56 88 23 55 86 22 54 84 22 52 82 21 51 80 21 50 78 20 48 76 20 47 73 19 46 71 19 44 69 18 42 66 17 41 64 17 39 61 16 37 58 15 35 55 14 33 52 14 31 49 13 29 46 12 27 42 11 24 38 10 21 33 9 18 28 7 14 22 6 8 13 3 0 0 0 0 0 0 0 0 0 0 0 0 0 0 0 0 0 0 0 0 0 0 0 0 0 0 0 
0 0 0 0 0 0 0 0 0 0 0 0 0 0 0 0 0 0 0 0 0 0 0 0 0 0 0 0 0 0 68 106 28 69 107 28 69 108 28 69 108 28 69 108 28 69 108 28 69 107 28 68 106 28 67 105 28 67 104 27 66 103 27 65 102 27 65 101 26 64 99 26 63 98 26 62 97 25 61 95 25 60 94 25 59 92 24 58 90 24 57 89 23 56 87 23 54 85 22 53 83 22 52 81 21 51 79 21 49 77 20 48 75 20 47 73 19 45 70 18 44 68 18 42 66 17 40 63 16 39 61 16 37 58 15 35 55 14 33 52 13 31 49 13 29 45 12 27 42 11 24 38 10 22 34 9 19 29 7 15 24 6 11 17 4 0 0 0 0 0 0 0 0 0 0 0 0 0 0 0 0 0 0 0 0 0 0 0 0 0 0 0 
0 0 0 0 0 0 0 0 0 0 0 0 0 0 0 0 0 0 0 0 0 0 0 0 0 0 0 67 104 27 68 106 28 69 107 28 69 108 28 69 108 28 69 107 28 68 107 28 68 106 28 67 105 28 67 104 27 66 103 27 66 102 27 65 101 27 64 100 26 63 99 26 62 97 25 61 96 25 60 94 25 59 93 24 58 91 24 57 89 23 56 88 23 55 86 22 54 84 22 53 82 21 51 80 21 50 78 20 49 76 20 47 74 19 46 72 19 45 70 18 43 67 18 41 65 17 40 62 16 38 60 16 37 57 15 35 54 14 33 51 13 31 48 12 29 45 12 27 42 11 24 38 10 22 34 9 19 30 8 16 25 6 12 19 5 7 11 3 0 0 0 0 0 0 0 0 0 0 0 0 0 0 0 0 0 0 0 0 0 0 0 0 
0 0 0 0 0 0 0 0 0 0 0 0 0 0 0 0 0 0 0 0 0 0 0 0 65 101 26 67 105 28 68 106 28 69 107 28 69 107 28 69 107 28 68 107 28 68 106 28 67 105 28 67 104 27 66 103 27 66 102 27 65 101 27 64 100 26 64 99 26 63 98 26 62 97 26 61 95 25 60 93 24 59 92 24 58 90 24 57 88 23 55 87 23 54 85 22 53 83 22 52 81 21 51 79 21 49 77 20 48 75 20 47 73 19 45 71 19 44 69 18 42 66 17 41 64 17 39 62 16 38 59 15 36 56 15 34 54 14 32 51 13 30 48 12 28 45 11 26 41 11 24 38 10 22 34 9 19 30 8 16 25 6 13 20 5 8 13 3 7 10 2 0 0 0 0 0 0 0 0 0 0 0 0 0 0 0 0 0 0 0 0 0 
0 0 0 0 0 0 0 0 0 0 0 0 0 0 0 0 0 0 0 0 0 0 0 0 66 103 27 67 105 28 68 106 28 68 106 28 68 106 28 68 106 28 68 106 28 67 105 28 67 104 27 66 103 27 66 102 27 65 101 27 65 101 27 67 102 29 72 107 35 72 107 36 67 101 31 61 95 26 59 92 24 58 90 24 57 89 23 56 87 23 55 86 22 54 84 22 52 82 21 51 80 21 50 78 20 49 76 20 47 74 19 46 72 19 45 70 18 43 68 18 42 65 17 40 63 16 39 61 16 37 58 15 35 56 14 34 53 14 32 50 13 30 47 12 28 44 11 26 41 10 24 37 10 21 34 9 19 30 7 16 25 6 13 20 5 9 14 3 7 10 2 0 0 0 0 0 0 0 0 0 0 0 0 0 0 0 0 0 0 0 0 0 
0 0 0 0 0 0 0 0 0 0 0 0 0 0 0 0 0 0 0 0 0 64 99 26 66 103 27 67 105 28 68 106 28 68 106 28 68 106 28 67 105 28 67 105 27 67 104 27 66 103 27 66 102 27 65 101 27 65 101 27 70 105 32 92 127 55 122 157 85 118 152 82 86 120 50 65 98 30 59 92 24 57 89 23 56 88 23 55 86 23 54 84 22 53 83 22 52 81 21 51 79 21 49 77 20 48 75 20 47 73 19 45 71 19 44 69 18 43 67 17 41 64 17 40 62 16 38 60 16 37 57 15 35 55 14 33 52 13 31 49 13 29 46 12 28 43 11 25 40 10 23 37 9 21 33 8 19 29 7 16 25 6 13 20 5 9 15 4 7 10 2 7 10 2 0 0 0 0 0 0 0 0 0 0 0 0 0 0 0 0 0 0 
0 0 0 0 0 0 0 0 0 0 0 0 0 0 0 0 0 0 0 0 0 64 101 26 66 103 27 67 104 27 67 105 27 67 105 28 67 105 27 67 104 27 66 104 27 66 103 27 65 102 27 65 101 27 64 100 26 67 102 29 92 127 55 168 203 132 234 255 198 193 227 157 109 143 74 68 101 33 58 91 24 56 88 23 55 86 23 54 85 22 53 83 22 52 81 21 51 80 21 50 78 20 49 76 20 47 74 19 46 72 19 45 70 18 43 68 18 42 66 17 40 63 16 39 61 16 37 59 15 36 56 15 34 54 14 33 51 13 31 48 12 29 45 12 27 42 11 25 39 10 23 36 9 21 32 8 18 29 7 16 24 6 13 20 5 9 15 4 7 10 2 7 10 2 0 0 0 0 0 0 0 0 0 0 0 0 0 0 0 0 0 0 
0 0 0 0 0 0 0 0 0 0 0 0 0 0 0 0 0 0 61 96 25 65 101 26 66 103 27 66 103 27 66 104 27 66 104 27 66 103 27 66 103 27 66 102 27 65 102 27 65 101 26 64 100 26 64 99 26 72 107 35 122 157 85 234 255 198 255 255 253 205 238 170 105 138 70 65 97 31 57 89 24 56 87 23 55 85 22 53 84 22 52 82 21 51 80 21 50 78 20 49 76 20 48 75 19 46 73 19 45 71 18 44 69 18 43 67 17 41 64 17 40 62 16 38 60 16 37 57 15 35 55 14 34 52 14 32 50 13 30 47 12 28 44 11 26 41 11 24 38 10 22 35 9 20 31 8 18 28 7 15 24 6 12 19 5 9 15 4 7 10 2 7 10 2 7 10 2 0 0 0 0 0 0 0 0 0 0 0 0 0 0 0 
0 0 0 0 0 0 0 0 0 0 0 0 0 0 0 0 0 0 62 97 25 64 100 26 65 102 27 66 102 27 66 103 27 66 103 27 65 102 27 65 102 27 65 101 27 64 100 26 64 99 26 63 99 26 63 98 26 72 107 36 118 152 82 193 227 157 205 238 170 137 170 102 79 111 45 60 91 26 56 87 23 55 85 22 54 84 22 53 82 22 52 81 21 50 79 21 49 77 20 48 75 20 47 73 19 46 71 19 44 69 18 43 67 18 42 65 17 40 63 16 39 61 16 37 59 15 36 56 15 34 54 14 33 51 13 31 49 13 29 46 12 28 43 11 26 40 10 24 37 10 22 34 9 19 31 8 17 27 7 15 23 6 12 19 5 9 14 3 7 10 2 7 10 2 7 10 2 0 0 0 0 0 0 0 0 0 0 0 0 0 0 0 
0 0 0 0 0 0 0 0 0 0 0 0 0 0 0 0 0 0 62 97 25 64 100 26 65 101 26 65 101 27 65 101 27 65 101 27 65 101 26 64 100 26 64 100 26 63 99 26 63 98 26 62 97 25 62 97 26 67 101 31 86 120 50 109 143 74 105 138 70 79 111 45 62 94 28 56 88 23 55 86 22 54 84 22 53 82 22 52 81 21 51 79 21 50 77 20 48 76 20 47 74 19 46 72 19 45 70 18 44 68 18 42 66 17 41 64 17 40 62 16 38 60 15 37 57 15 35 55 14 34 53 14 32 50 13 30 47 12 29 45 12 27 42 11 25 39 10 23 36 9 21 33 8 19 30 7 16 26 7 14 22 6 11 18 4 8 13 3 7 10 2 7 10 2 7 10 2 0 0 0 0 0 0 0 0 0 0 0 0 0 0 0 
0 0 0 0 0 0 0 0 0 0 0 0 0 0 0 58 91 24 62 97 25 63 99 26 64 100 26 64 100 26 64 100 26 64 100 26 64 100 26 63 99 26 63 98 26 62 98 26 62 97 25 61 96 25 61 95 25 61 95 26 65 98 30 68 101 33 65 97 31 60 91 26 56 88 23 55 86 22 54 84 22 53 83 22 52 81 21 51 79 21 50 78 20 49 76 20 48 74 19 46 72 19 45 71 18 44 69 18 43 67 17 41 65 17 40 63 16 39 60 16 37 58 15 36 56 15 34 54 14 33 51 13 31 49 13 29 46 12 28 44 11 26 41 10 24 38 10 22 35 9 20 32 8 18 28 7 16 25 6 13 21 5 11 17 4 8 13 3 7 10 2 7 10 2 7 10 2 7 10 2 0 0 0 0 0 0 0 0 0 0 0 0 
0 0 0 0 0 0 0 0 0 0 0 0 0 0 0 59 92 24 61 96 25 62 97 26 63 98 26 63 99 26 63 99 26 63 98 26 63 98 26 62 98 26 62 97 25 61 96 25 61 95 25 60 94 25 60 93 24 59 92 24 59 92 24 58 91 24 57 89 24 56 87 23 55 86 22 54 84 22 53 83 22 52 81 21 51 80 21 50 78 20 49 76 20 48 75 19 47 73 19 45 71 19 44 69 18 43 67 18 42 65 17 40 63 16 39 61 16 38 59 15 36 57 15 35 55 14 33 52 14 32 50 13 30 47 12 29 45 12 27 42 11 25 39 10 23 37 9 21 34 9 19 30 8 17 27 7 15 24 6 13 20 5 10 16 4 7 12 3 7 10 2 7 10 2 7 10 2 7 10 2 0 0 0 0 0 0 0 0 0 0 0 0 
0 0 0 0 0 0 0 0 0 0 0 0 0 0 0 58 91 24 61 95 25 62 96 25 62 97 25 62 97 25 62 97 25 62 97 25 62 97 25 61 96 25 61 95 25 60 94 25 60 94 25 59 93 24 59 92 24 58 90 24 57 89 23 56 88 23 56 87 23 55 85 22 54 84 22 53 83 22 52 81 21 51 80 21 50 78 20 49 76 20 48 75 20 47 73 19 46 71 19 44 69 18 43 68 18 42 66 17 41 64 17 39 62 16 38 60 16 37 58 15 35 55 14 34 53 14 32 51 13 31 48 13 29 46 12 28 43 11 26 41 10 24 38 10 22 35 9 21 32 8 19 29 7 16 26 7 14 22 6 12 19 5 9 15 4 7 10 2 7 10 2 7 10 2 7 10 2 7 10 2 0 0 0 0 0 0 0 0 0 0 0 0 
0 0 0 0 0 0 0 0 0 0 0 0 0 0 0 58 90 24 60 93 24 61 95 25 61 95 25 61 96 25 61 96 25 61 95 25 61 95 25 60 94 25 60 94 25 59 93 24 59 92 24 58 91 24 58 90 24 57 89 23 56 88 23 55 86 23 55 85 22 54 84 22 53 82 22 52 81 21 51 80 21 50 78 20 49 76 20 48 75 20 47 73 19 46 71 19 45 70 18 43 68 18 42 66 17 41 64 17 40 62 16 39 60 16 37 58 15 36 56 15 34 54 14 33 52 13 32 49 13 30 47 12 28 45 11 27 42 11 25 39 10 23 37 9 22 34 9 20 31 8 18 28 7 16 24 6 13 21 5 11 17 4 8 13 3 7 10 2 7 10 2 7 10 2 7 10 2 7 10 2 0 0 0 0 0 0 0 0 0 0 0 0 
0 0 0 0 0 0 0 0 0 0 0 0 0 0 0 57 89 23 59 92 24 60 93 24 60 94 25 60 94 25 60 94 25 60 94 25 60 93 24 59 93 24 59 92 24 58 91 24 58 90 24 57 89 23 57 88 23 56 87 23 55 86 23 54 85 22 53 84 22 53 82 22 52 81 21 51 79 21 50 78 20 49 76 20 48 75 20 47 73 19 46 72 19 45 70 18 44 68 18 42 66 17 41 64 17 40 63 16 39 61 16 37 59 15 36 57 15 35 54 14 33 52 14 32 50 13 31 48 12 29 45 12 27 43 11 26 40 10 24 38 10 22 35 9 21 32 8 19 29 7 17 26 7 15 23 6 12 20 5 10 16 4 8 12 3 7 10 2 7 10 2 7 10 2 7 10 2 7 10 2 0 0 0 0 0 0 0 0 0 0 0 0 
0 0 0 0 0 0 0 0 0 0 0 0 0 0 0 56 87 23 58 90 24 58 91 24 59 92 24 59 92 24 59 92 24 59 92 24 59 91 24 58 91 24 58 90 24 57 89 23 57 89 23 56 88 23 55 87 23 55 86 22 54 84 22 53 83 22 52 82 21 52 81 21 51 79 21 50 78 20 49 76 20 48 75 20 47 73 19 46 72 19 45 70 18 44 68 18 43 66 17 41 65 17 40 63 16 39 61 16 38 59 15 36 57 15 35 55 14 34 53 14 32 51 13 31 48 13 29 46 12 28 44 11 26 41 11 25 39 10 23 36 9 21 34 9 20 31 8 18 28 7 16 25 6 14 21 5 11 18 4 9 14 3 7 10 2 7 10 2 7 10 2 7 10 2 7 10 2 7 10 2 0 0 0 0 0 0 0 0 0 0 0 0 
0 0 0 0 0 0 0 0 0 0 0 0 0 0 0 55 86 22 56 88 23 57 89 23 58 90 24 58 90 24 58 90 24 58 90 24 57 90 23 57 89 23 57 88 23 56 88 23 56 87 23 55 86 22 54 85 22 54 84 22 53 83 22 52 81 21 51 80 21 50 79 21 50 77 20 49 76 20 48 75 19 47 73 19 46 71 19 45 70 18 44 68 18 43 67 17 41 65 17 40 63 16 39 61 16 38 59 15 37 57 15 35 55 14 34 53 14 33 51 13 31 49 13 30 47 12 28 45 11 27 42 11 25 40 10 24 37 10 22 35 9 20 32 8 18 29 7 17 26 7 15 23 6 13 20 5 10 16 4 8 13 3 7 10 2 7 10 2 7 10 2 7 10 2 7 10 2 7 10 2 0 0 0 0 0 0 0 0 0 0 0 0 
0 0 0 0 0 0 0 0 0 0 0 0 0 0 0 54 84 22 55 86 23 56 88 23 56 88 23 57 88 23 57 88 23 56 88 23 56 88 23 56 87 23 55 87 23 55 86 22 54 85 22 54 84 22 53 83 22 52 82 21 52 81 21 51 80 21 50 78 20 49 77 20 48 76 20 48 74 19 47 73 19 46 71 19 45 70 18 44 68 18 43 66 17 41 65 17 40 63 16 39 61 16 38 59 15 37 58 15 36 56 14 34 54 14 33 52 13 32 49 13 30 47 12 29 45 12 27 43 11 26 40 10 24 38 10 23 35 9 21 33 8 19 30 8 17 27 7 15 24 6 14 21 5 11 18 4 9 15 4 7 11 3 7 10 2 7 10 2 7 10 2 7 10 2 7 10 2 7 10 2 0 0 0 0 0 0 0 0 0 0 0 0 
0 0 0 0 0 0 0 0 0 0 0 0 0 0 0 52 82 21 54 84 22 55 85 22 55 86 23 55 86 23 55 86 23 55 86 23 55 86 22 55 85 22 54 85 22 54 84 22 53 83 22 53 82 21 52 81 21 51 80 21 51 79 21 50 78 20 49 76 20 48 75 20 47 74 19 46 72 19 45 71 19 44 69 18 43 68 18 42 66 17 41 65 17 40 63 16 39 61 16 38 60 15 37 58 15 36 56 14 34 54 14 33 52 13 32 50 13 30 48 12 29 46 12 28 43 11 26 41 11 25 39 10 23 36 9 21 34 9 20 31 8 18 28 7 16 26 6 14 23 6 12 20 5 10 16 4 8 13 3 7 10 2 7 10 2 7 10 2 7 10 2 7 10 2 7 10 2 7 10 2 0 0 0 0 0 0 0 0 0 0 0 0 
0 0 0 0 0 0 0 0 0 0 0 0 0 0 0 51 79 21 52 82 21 53 83 22 54 84 22 54 84 22 54 84 22 54 84 22 54 84 22 53 83 22 53 83 22 52 82 21 52 81 21 51 80 21 51 79 21 50 78 20 49 77 20 49 76 20 48 75 19 47 73 19 46 72 19 45 71 18 44 69 18 43 68 18 42 66 17 41 64 17 40 63 16 39 61 16 38 59 15 37 58 15 36 56 14 34 54 14 33 52 13 32 50 13 31 48 12 29 46 12 28 44 11 26 42 11 25 39 10 23 37 9 22 34 9 20 32 8 19 29 7 17 27 7 15 24 6 13 21 5 11 18 4 9 14 3 7 11 3 7 10 2 7 10 2 7 10 2 7 10 2 7 10 2 7 10 2 7 10 2 0 0 0 0 0 0 0 0 0 0 0 0 
0 0 0 0 0 0 0 0 0 0 0 0 0 0 0 49 77 20 51 80 21 52 81 21 52 82 21 53 82 21 53 82 22 53 82 21 52 82 21 52 81 21 52 81 21 51 80 21 51 79 21 50 78 20 49 77 20 49 76 20 48 75 20 47 74 19 46 73 19 46 71 19 45 70 18 44 69 18 43 67 18 42 66 17 41 64 17 40 63 16 39 61 16 38 59 15 37 58 15 36 56 14 34 54 14 33 52 13 32 50 13 31 48 12 29 46 12 28 44 11 27 42 11 25 40 10 24 37 10 22 35 9 21 33 8 19 30 8 17 27 7 16 25 6 14 22 5 12 19 5 10 16 4 8 12 3 7 10 2 7 10 2 7 10 2 7 10 2 7 10 2 7 10 2 7 10 2 7 10 2 0 0 0 0 0 0 0 0 0 0 0 0 
0 0 0 0 0 0 0 0 0 0 0 0 0 0 0 47 74 19 49 77 20 50 79 21 51 79 21 51 80 21 51 80 21 51 80 21 51 80 21 51 79 21 50 79 21 50 78 20 49 77 20 49 76 20 48 75 20 47 74 19 47 73 19 46 72 19 45 71 18 44 69 18 44 68 18 43 67 17 42 65 17 41 64 17 40 62 16 39 61 16 38 59 15 37 57 15 36 56 14 34 54 14 33 52 13 32 50 13 31 48 12 30 46 12 28 44 11 27 42 11 25 40 10 24 38 10 23 35 9 21 33 8 19 31 8 18 28 7 16 25 6 14 23 6 13 20 5 11 17 4 9 14 3 7 10 2 7 10 2 7 10 2 7 10 2 7 10 2 7 10 2 7 10 2 7 10 2 7 10 2 0 0 0 0 0 0 0 0 0 0 0 0 
0 0 0 0 0 0 0 0 0 0 0 0 0 0 0 45 70 18 47 74 19 49 76 20 49 77 20 50 78 20 50 78 20 50 78 20 49 77 20 49 77 20 49 76 20 48 76 20 48 75 20 47 74 19 47 73 19 46 72 19 45 71 19 45 70 18 44 69 18 43 67 18 42 66 17 41 65 17 40 63 16 39 62 16 39 60 16 37 59 15 36 57 15 35 55 14 34 54 14 33 52 13 32 50 13 31 48 12 30 46 12 28 44 11 27 42 11 26 40 10 24 38 10 23 36 9 21 33 9 20 31 8 18 29 7 17 26 7 15 23 6 13 21 5 11 18 4 9 15 4 7 12 3 7 10 2 7 10 2 7 10 2 7 10 2 7 10 2 7 10 2 7 10 2 7 10 2 7 10 2 0 0 0 0 0 0 0 0 0 0 0 0 
0 0 0 0 0 0 0 0 0 0 0 0 0 0 0 43 67 17 46 71 19 47 73 19 48 74 19 48 75 20 48 75 20 48 75 20 48 75 20 48 75 19 47 74 19 47 73 19 47 73 19 46 72 19 45 71 19 45 70 18 44 69 18 43 68 18 43 67 17 42 65 17 41 64 17 40 63 16 39 61 16 38 60 16 37 58 15 36 57 15 35 55 14 34 53 14 33 52 13 32 50 13 31 48 12 29 46 12 28 44 11 27 42 11 26 40 10 24 38 10 23 36 9 21 34 9 20 31 8 18 29 7 17 26 7 15 24 6 13 21 5 12 19 5 10 16 4 8 13 3 7 10 2 7 10 2 7 10 2 7 10 2 7 10 2 7 10 2 7 10 2 7 10 2 7 10 2 7 10 2 0 0 0 0 0 0 0 0 0 0 0 0 
0 0 0 0 0 0 0 0 0 0 0 0 0 0 0 39 61 16 43 68 18 45 70 18 46 72 19 46 72 19 47 73 19 47 73 19 46 73 19 46 72 19 46 72 19 46 71 19 45 70 18 45 70 18 44 69 18 43 68 18 43 67 17 42 66 17 41 64 17 40 63 16 40 62 16 39 60 16 38 59 15 37 58 15 36 56 15 35 54 14 34 53 14 33 51 13 32 49 13 30 48 12 29 46 12 28 44 11 27 42 11 26 40 10 24 38 10 23 36 9 22 34 9 20 32 8 19 29 7 17 27 7 15 24 6 14 22 5 12 19 5 10 16 4 8 13 3 7 10 2 7 10 2 7 10 2 7 10 2 7 10 2 7 10 2 7 10 2 7 10 2 7 10 2 7 10 2 7 10 2 0 0 0 0 0 0 0 0 0 0 0 0 
0 0 0 0 0 0 0 0 0 0 0 0 0 0 0 0 0 0 41 64 17 43 67 18 44 69 18 45 70 18 45 70 18 45 70 18 45 70 18 45 70 18 44 69 18 44 69 18 44 68 18 43 67 18 42 66 17 42 65 17 41 64 17 40 63 16 40 62 16 39 61 16 38 60 15 37 58 15 36 57 15 35 55 14 34 54 14 33 52 14 32 51 13 31 49 13 30 47 12 29 46 12 28 44 11 27 42 11 25 40 10 24 38 10 23 36 9 22 34 9 20 32 8 19 29 7 17 27 7 16 25 6 14 22 6 12 20 5 11 17 4 9 14 3 7 11 3 7 10 2 7 10 2 7 10 2 7 10 2 7 10 2 7 10 2 7 10 2 7 10 2 7 10 2 7 10 2 0 0 0 0 0 0 0 0 0 0 0 0 0 0 0 
0 0 0 0 0 0 0 0 0 0 0 0 0 0 0 0 0 0 38 60 16 41 64 17 42 66 17 43 67 17 43 67 18 43 68 18 43 67 18 43 67 18 43 67 17 42 66 17 42 66 17 41 65 17 41 64 17 40 63 16 40 62 16 39 61 16 38 60 16 37 59 15 37 57 15 36 56 15 35 55 14 34 53 14 33 52 13 32 50 13 31 48 13 30 47 12 29 45 12 28 43 11 26 42 11 25 40 10 24 38 10 23 36 9 21 34 9 20 32 8 19 29 7 17 27 7 16 25 6 14 22 6 13 20 5 11 17 4 9 14 3 7 12 3 7 10 2 7 10 2 7 10 2 7 10 2 7 10 2 7 10 2 7 10 2 7 10 2 7 10 2 7 10 2 7 10 2 0 0 0 0 0 0 0 0 0 0 0 0 0 0 0 
0 0 0 0 0 0 0 0 0 0 0 0 0 0 0 0 0 0 34 54 14 38 60 16 40 62 16 41 64 17 41 64 17 41 65 17 41 65 17 41 65 17 41 64 17 41 64 17 40 63 16 40 62 16 39 62 16 39 61 16 38 60 16 37 59 15 37 57 15 36 56 15 35 55 14 34 54 14 33 52 14 32 51 13 32 49 13 31 48 12 29 46 12 28 45 11 27 43 11 26 41 11 25 39 10 24 37 10 23 35 9 21 33 9 20 31 8 19 29 7 17 27 7 16 25 6 14 22 6 13 20 5 11 17 4 9 15 4 8 12 3 7 10 2 7 10 2 7 10 2 7 10 2 7 10 2 7 10 2 7 10 2 7 10 2 7 10 2 7 10 2 7 10 2 7 10 2 0 0 0 0 0 0 0 0 0 0 0 0 0 0 0 
0 0 0 0 0 0 0 0 0 0 0 0 0 0 0 0 0 0 0 0 0 35 55 14 37 59 15 39 60 16 39 61 16 39 62 16 40 62 16 40 62 16 39 62 16 39 61 16 39 61 16 38 60 16 38 59 15 37 58 15 37 57 15 36 56 15 35 55 14 34 54 14 34 53 14 33 51 13 32 50 13 31 48 13 30 47 12 29 45 12 28 44 11 27 42 11 26 40 10 25 39 10 23 37 9 22 35 9 21 33 8 20 31 8 18 29 7 17 27 7 16 25 6 14 22 6 13 20 5 11 17 4 9 15 4 8 12 3 7 10 2 7 10 2 7 10 2 7 10 2 7 10 2 7 10 2 7 10 2 7 10 2 7 10 2 7 10 2 7 10 2 7 10 2 0 0 0 0 0 0 0 0 0 0 0 0 0 0 0 0 0 0 
0 0 0 0 0 0 0 0 0 0 0 0 0 0 0 0 0 0 0 0 0 32 49 13 35 54 14 36 57 15 37 58 15 37 59 15 38 59 15 38 59 15 38 59 15 37 58 15 37 58 15 37 57 15 36 56 15 35 56 14 35 55 14 34 54 14 34 52 14 33 51 13 32 50 13 31 49 13 30 47 12 29 46 12 28 45 11 27 43 11 26 41 11 25 40 10 24 38 10 23 36 9 22 34 9 21 33 8 19 31 8 18 29 7 17 26 7 15 24 6 14 22 6 13 20 5 11 17 4 9 15 4 8 12 3 7 10 2 7 10 2 7 10 2 7 10 2 7 10 2 7 10 2 7 10 2 7 10 2 7 10 2 7 10 2 7 10 2 7 10 2 7 10 2 0 0 0 0 0 0 0 0 0 0 0 0 0 0 0 0 0 0 
0 0 0 0 0 0 0 0 0 0 0 0 0 0 0 0 0 0 0 0 0 0 0 0 32 49 13 34 53 14 35 54 14 35 55 14 36 56 14 36 56 14 36 56 14 35 55 14 35 55 14 35 54 14 34 54 14 34 53 14 33 52 13 33 51 13 32 50 13 31 49 13 30 47 12 29 46 12 29 45 12 28 43 11 27 42 11 26 40 10 25 39 10 24 37 10 23 35 9 21 34 9 20 32 8 19 30 8 18 28 7 17 26 7 15 24 6 14 22 5 12 20 5 11 17 4 9 15 4 8 12 3 7 10 2 7 10 2 7 10 2 7 10 2 7 10 2 7 10 2 7 10 2 7 10 2 7 10 2 7 10 2 7 10 2 7 10 2 7 10 2 0 0 0 0 0 0 0 0 0 0 0 0 0 0 0 0 0 0 0 0 0 
0 0 0 0 0 0 0 0 0 0 0 0 0 0 0 0 0 0 0 0 0 0 0 0 27 43 11 31 48 12 32 50 13 33 52 13 33 52 14 34 53 14 34 53 14 33 52 14 33 52 13 33 51 13 32 51 13 32 50 13 31 49 13 31 48 12 30 47 12 29 46 12 29 45 12 28 44 11 27 42 11 26 41 10 25 39 10 24 38 10 23 36 9 22 35 9 21 33 8 20 31 8 19 29 7 17 27 7 16 25 6 15 23 6 13 21 5 12 19 5 11 17 4 9 14 3 8 12 3 7 10 2 7 10 2 7 10 2 7 10 2 7 10 2 7 10 2 7 10 2 7 10 2 7 10 2 7 10 2 7 10 2 7 10 2 7 10 2 7 10 2 0 0 0 0 0 0 0 0 0 0 0 0 0 0 0 0 0 0 0 0 0 
0 0 0 0 0 0 0 0 0 0 0 0 0 0 0 0 0 0 0 0 0 0 0 0 0 0 0 27 42 11 29 46 12 30 48 12 31 49 13 31 49 13 31 49 13 31 49 13 31 49 13 31 48 12 30 48 12 30 47 12 29 46 12 29 45 12 28 44 11 28 43 11 27 42 11 26 41 10 25 39 10 24 38 10 23 37 9 22 35 9 21 34 9 20 32 8 19 30 8 18 28 7 17 27 7 16 25 6 14 23 6 13 21 5 12 19 5 10 16 4 9 14 3 7 12 3 7 10 2 7 10 2 7 10 2 7 10 2 7 10 2 7 10 2 7 10 2 7 10 2 7 10 2 7 10 2 7 10 2 7 10 2 7 10 2 7 10 2 0 0 0 0 0 0 0 0 0 0 0 0 0 0 0 0 0 0 0 0 0 0 0 0 
0 0 0 0 0 0 0 0 0 0 0 0 0 0 0 0 0 0 0 0 0 0 0 0 0 0 0 0 0 0 26 40 10 27 43 11 28 44 11 29 45 12 29 46 12 29 46 12 29 45 12 29 45 12 28 45 11 28 44 11 28 43 11 27 42 11 26 41 11 26 40 10 25 39 10 24 38 10 23 37 9 22 35 9 22 34 9 21 32 8 20 31 8 18 29 7 17 27 7 16 26 6 15 24 6 14 22 5 13 20 5 11 18 4 10 16 4 8 13 3 7 11 3 7 10 2 7 10 2 7 10 2 7 10 2 7 10 2 7 10 2 7 10 2 7 10 2 7 10 2 7 10 2 7 10 2 7 10 2 7 10 2 7 10 2 0 0 0 0 0 0 0 0 0 0 0 0 0 0 0 0 0 0 0 0 0 0 0 0 0 0 0 
0 0 0 0 0 0 0 0 0 0 0 0 0 0 0 0 0 0 0 0 0 0 0 0 0 0 0 0 0 0 21 32 8 24 38 10 25 40 10 26 41 11 27 42 11 27 42 11 27 42 11 27 42 11 26 41 11 26 41 10 25 40 10 25 39 10 24 38 10 24 37 10 23 36 9 22 35 9 21 34 9 21 32 8 20 31 8 19 29 7 18 28 7 17 26 7 15 24 6 14 23 6 13 21 5 12 19 5 11 17 4 9 15 4 8 13 3 7 10 2 7 10 2 7 10 2 7 10 2 7 10 2 7 10 2 7 10 2 7 10 2 7 10 2 7 10 2 7 10 2 7 10 2 7 10 2 7 10 2 7 10 2 7 10 2 0 0 0 0 0 0 0 0 0 0 0 0 0 0 0 0 0 0 0 0 0 0 0 0 0 0 0 
0 0 0 0 0 0 0 0 0 0 0 0 0 0 0 0 0 0 0 0 0 0 0 0 0 0 0 0 0 0 0 0 0 19 30 8 22 34 9 23 36 9 24 37 10 24 38 10 24 38 10 24 38 10 24 38 10 24 37 10 23 37 9 23 36 9 22 35 9 22 34 9 21 33 8 20 32 8 19 30 8 19 29 7 18 28 7 17 26 7 16 25 6 15 23 6 14 21 5 12 20 5 11 18 4 10 16 4 9 14 3 7 12 3 7 10 2 7 10 2 7 10 2 7 10 2 7 10 2 7 10 2 7 10 2 7 10 2 7 10 2 7 10 2 7 10 2 7 10 2 7 10 2 7 10 2 7 10 2 7 10 2 0 0 0 0 0 0 0 0 0 0 0 0 0 0 0 0 0 0 0 0 0 0 0 0 0 0 0 0 0 0 
0 0 0 0 0 0 0 0 0 0 0 0 0 0 0 0 0 0 0 0 0 0 0 0 0 0 0 0 0 0 0 0 0 0 0 0 17 27 7 20 31 8 21 33 8 21 33 9 22 34 9 22 34 9 22 34 9 21 34 9 21 33 8 21 32 8 20 31 8 19 31 8 19 30 7 18 28 7 17 27 7 16 26 7 16 24 6 15 23 6 14 21 5 13 20 5 11 18 4 10 16 4 9 14 3 8 12 3 7 10 2 7 10 2 7 10 2 7 10 2 7 10 2 7 10 2 7 10 2 7 10 2 7 10 2 7 10 2 7 10 2 7 10 2 7 10 2 7 10 2 7 10 2 7 10 2 7 10 2 0 0 0 0 0 0 0 0 0 0 0 0 0 0 0 0 0 0 0 0 0 0 0 0 0 0 0 0 0 0 0 0 0 
0 0 0 0 0 0 0 0 0 0 0 0 0 0 0 0 0 0 0 0 0 0 0 0 0 0 0 0 0 0 0 0 0 0 0 0 0 0 0 15 23 6 17 27 7 18 28 7 19 29 7 19 30 8 19 30 8 19 30 7 19 29 7 18 29 7 18 28 7 17 27 7 16 26 7 16 25 6 15 24 6 14 22 6 13 21 5 12 20 5 11 18 4 10 16 4 9 15 4 8 13 3 7 11 3 7 10 2 7 10 2 7 10 2 7 10 2 7 10 2 7 10 2 7 10 2 7 10 2 7 10 2 7 10 2 7 10 2 7 10 2 7 10 2 7 10 2 7 10 2 7 10 2 7 10 2 0 0 0 0 0 0 0 0 0 0 0 0 0 0 0 0 0 0 0 0 0 0 0 0 0 0 0 0 0 0 0 0 0 0 0 0 
0 0 0 0 0 0 0 0 0 0 0 0 0 0 0 0 0 0 0 0 0 0 0 0 0 0 0 0 0 0 0 0 0 0 0 0 0 0 0 0 0 0 12 18 5 14 22 6 15 24 6 16 25 6 16 25 6 16 25 6 16 25 6 16 24 6 15 24 6 15 23 6 14 22 6 13 21 5 13 20 5 12 19 5 11 17 4 10 16 4 9 14 3 8 13 3 7 11 3 7 10 2 7 10 2 7 10 2 7 10 2 7 10 2 7 10 2 7 10 2 7 10 2 7 10 2 7 10 2 7 10 2 7 10 2 7 10 2 7 10 2 7 10 2 7 10 2 7 10 2 7 10 2 0 0 0 0 0 0 0 0 0 0 0 0 0 0 0 0 0 0 0 0 0 0 0 0 0 0 0 0 0 0 0 0 0 0 0 0 0 0 0 
0 0 0 0 0 0 0 0 0 0 0 0 0 0 0 0 0 0 0 0 0 0 0 0 0 0 0 0 0 0 0 0 0 0 0 0 0 0 0 0 0 0 0 0 0 8 13 3 11 17 4 12 19 5 13 20 5 13 20 5 13 20 5 13 20 5 12 19 5 12 19 5 11 18 4 11 17 4 10 16 4 9 15 4 8 13 3 8 12 3 7 10 2 7 10 2 7 10 2 7 10 2 7 10 2 7 10 2 7 10 2 7 10 2 7 10 2 7 10 2 7 10 2 7 10 2 7 10 2 7 10 2 7 10 2 7 10 2 7 10 2 7 10 2 7 10 2 7 10 2 0 0 0 0 0 0 0 0 0 0 0 0 0 0 0 0 0 0 0 0 0 0 0 0 0 0 0 0 0 0 0 0 0 0 0 0 0 0 0 0 0 0 
0 0 0 0 0 0 0 0 0 0 0 0 0 0 0 0 0 0 0 0 0 0 0 0 0 0 0 0 0 0 0 0 0 0 0 0 0 0 0 0 0 0 0 0 0 0 0 0 0 0 0 7 11 3 8 13 3 9 14 3 9 15 4 9 15 4 9 15 4 9 14 3 8 13 3 8 13 3 7 12 3 7 10 2 7 10 2 7 10 2 7 10 2 7 10 2 7 10 2 7 10 2 7 10 2 7 10 2 7 10 2 7 10 2 7 10 2 7 10 2 7 10 2 7 10 2 7 10 2 7 10 2 7 10 2 7 10 2 7 10 2 7 10 2 0 0 0 0 0 0 0 0 0 0 0 0 0 0 0 0 0 0 0 0 0 0 0 0 0 0 0 0 0 0 0 0 0 0 0 0 0 0 0 0 0 0 0 0 0 0 0 0 
0 0 0 0 0 0 0 0 0 0 0 0 0 0 0 0 0 0 0 0 0 0 0 0 0 0 0 0 0 0 0 0 0 0 0 0 0 0 0 0 0 0 0 0 0 0 0 0 0 0 0 0 0 0 7 10 2 7 10 2 7 10 2 7 10 2 7 10 2 7 10 2 7 10 2 7 10 2 7 10 2 7 10 2 7 10 2 7 10 2 7 10 2 7 10 2 7 10 2 7 10 2 7 10 2 7 10 2 7 10 2 7 10 2 7 10 2 7 10 2 7 10 2 7 10 2 7 10 2 7 10 2 7 10 2 7 10 2 7 10 2 0 0 0 0 0 0 0 0 0 0 0 0 0 0 0 0 0 0 0 0 0 0 0 0 0 0 0 0 0 0 0 0 0 0 0 0 0 0 0 0 0 0 0 0 0 0 0 0 0 0 0 
0 0 0 0 0 0 0 0 0 0 0 0 0 0 0 0 0 0 0 0 0 0 0 0 0 0 0 0 0 0 0 0 0 0 0 0 0 0 0 0 0 0 0 0 0 0 0 0 0 0 0 0 0 0 0 0 0 0 0 0 7 10 2 7 10 2 7 10 2 7 10 2 7 10 2 7 10 2 7 10 2 7 10 2 7 10 2 7 10 2 7 10 2 7 10 2 7 10 2 7 10 2 7 10 2 7 10 2 7 10 2 7 10 2 7 10 2 7 10 2 7 10 2 7 10 2 7 10 2 7 10 2 7 10 2 0 0 0 0 0 0 0 0 0 0 0 0 0 0 0 0 0 0 0 0 0 0 0 0 0 0 0 0 0 0 0 0 0 0 0 0 0 0 0 0 0 0 0 0 0 0 0 0 0 0 0 0 0 0 0 0 0 
0 0 0 0 0 0 0 0 0 0 0 0 0 0 0 0 0 0 0 0 0 0 0 0 0 0 0 0 0 0 0 0 0 0 0 0 0 0 0 0 0 0 0 0 0 0 0 0 0 0 0 0 0 0 0 0 0 0 0 0 0 0 0 0 0 0 7 10 2 7 10 2 7 10 2 7 10 2 7 10 2 7 10 2 7 10 2 7 10 2 7 10 2 7 10 2 7 10 2 7 10 2 7 10 2 7 10 2 7 10 2 7 10 2 7 10 2 7 10 2 7 10 2 7 10 2 7 10 2 0 0 0 0 0 0 0 0 0 0 0 0 0 0 0 0 0 0 0 0 0 0 0 0 0 0 0 0 0 0 0 0 0 0 0 0 0 0 0 0 0 0 0 0 0 0 0 0 0 0 0 0 0 0 0 0 0 0 0 0 0 0 0 
0 0 0 0 0 0 0 0 0 0 0 0 0 0 0 0 0 0 0 0 0 0 0 0 0 0 0 0 0 0 0 0 0 0 0 0 0 0 0 0 0 0 0 0 0 0 0 0 0 0 0 0 0 0 0 0 0 0 0 0 0 0 0 0 0 0 0 0 0 0 0 0 0 0 0 7 10 2 7 10 2 7 10 2 7 10 2 7 10 2 7 10 2 7 10 2 7 10 2 7 10 2 7 10 2 7 10 2 7 10 2 7 10 2 7 10 2 7 10 2 0 0 0 0 0 0 0 0 0 0 0 0 0 0 0 0 0 0 0 0 0 0 0 0 0 0 0 0 0 0 0 0 0 0 0 0 0 0 0 0 0 0 0 0 0 0 0 0 0 0 0 0 0 0 0 0 0 0 0 0 0 0 0 0 0 0 0 0 0 0 0 0 
0 0 0 0 0 0 0 0 0 0 0 0 0 0 0 0 0 0 0 0 0 0 0 0 0 0 0 0 0 0 0 0 0 0 0 0 0 0 0 0 0 0 0 0 0 0 0 0 0 0 0 0 0 0 0 0 0 0 0 0 0 0 0 0 0 0 0 0 0 0 0 0 0 0 0 0 0 0 0 0 0 0 0 0 0 0 0 0 0 0 0 0 0 0 0 0 0 0 0 0 0 0 0 0 0 0 0 0 0 0 0 0 0 0 0 0 0 0 0 0 0 0 0 0 0 0 0 0 0 0 0 0 0 0 0 0 0 0 0 0 0 0 0 0 0 0 0 0 0 0 0 0 0 0 0 0 0 0 0 0 0 0 0 0 0 0 0 0 0 0 0 0 0 0 0 0 0 0 0 0 0 0 0 0 0 0 0 0 0 0 0 0 
0 0 0 0 0 0 0 0 0 0 0 0 0 0 0 0 0 0 0 0 0 0 0 0 0 0 0 0 0 0 0 0 0 0 0 0 0 0 0 0 0 0 0 0 0 0 0 0 0 0 0 0 0 0 0 0 0 0 0 0 0 0 0 0 0 0 0 0 0 0 0 0 0 0 0 0 0 0 0 0 0 0 0 0 0 0 0 0 0 0 0 0 0 0 0 0 0 0 0 0 0 0 0 0 0 0 0 0 0 0 0 0 0 0 0 0 0 0 0 0 0 0 0 0 0 0 0 0 0 0 0 0 0 0 0 0 0 0 0 0 0 0 0 0 0 0 0 0 0 0 0 0 0 0 0 0 0 0 0 0 0 0 0 0 0 0 0 0 0 0 0 0 0 0 0 0 0 0 0 0 0 0 0 0 0 0 0 0 0 0 0 0 
0 0 0 0 0 0 0 0 0 0 0 0 0 0 0 0 0 0 0 0 0 0 0 0 0 0 0 0 0 0 0 0 0 0 0 0 0 0 0 0 0 0 0 0 0 0 0 0 0 0 0 0 0 0 0 0 0 0 0 0 0 0 0 0 0 0 0 0 0 0 0 0 0 0 0 0 0 0 0 0 0 0 0 0 0 0 0 0 0 0 0 0 0 0 0 0 0 0 0 0 0 0 0 0 0 0 0 0 0 0 0 0 0 0 0 0 0 0 0 0 0 0 0 0 0 0 0 0 0 0 0 0 0 0 0 0 0 0 0 0 0 0 0 0 0 0 0 0 0 0 0 0 0 0 0 0 0 0 0 0 0 0 0 0 0 0 0 0 0 0 0 0 0 0 0 0 0 0 0 0 0 0 0 0 0 0 0 0 0 0 0 0 
0 0 0 0 0 0 0 0 0 0 0 0 0 0 0 0 0 0 0 0 0 0 0 0 0 0 0 0 0 0 0 0 0 0 0 0 0 0 0 0 0 0 0 0 0 0 0 0 0 0 0 0 0 0 0 0 0 0 0 0 0 0 0 0 0 0 0 0 0 0 0 0 0 0 0 0 0 0 0 0 0 0 0 0 0 0 0 0 0 0 0 0 0 0 0 0 0 0 0 0 0 0 0 0 0 0 0 0 0 0 0 0 0 0 0 0 0 0 0 0 0 0 0 0 0 0 0 0 0 0 0 0 0 0 0 0 0 0 0 0 0 0 0 0 0 0 0 0 0 0 0 0 0 0 0 0 0 0 0 0 0 0 0 0 0 0 0 0 0 0 0 0 0 0 0 0 0 0 0 0 0 0 0 0 0 0 0 0 0 0 0 0 

