P3
50 25
255
12 12 12 10 10 10 10 10 10 3 3 3 3 3 3 3 3 3 3 3 3 3 3 3 3 3 3 3 3 3 3 3 3 3 3 3 1 1 1 1 1 1 1 1 1 1 1 1 1 1 1 1 1 1 1 1 1 1 1 1 1 1 1 1 1 1 1 1 1 1 1 1 1 1 1 1 1 1 1 1 1 1 1 1 1 1 1 1 1 1 39 39 39 40 40 40 40 40 40 41 41 41 41 41 41 51 51 51 52 52 52 52 52 52 53 53 53 53 53 53 44 44 44 44 44 44 44 44 44 44 44 44 44 44 44 44 44 44 44 44 44 44 44 44 45 45 45 55 55 55 
10 10 10 10 10 10 3 3 3 5 5 5 3 3 3 3 3 3 3 3 3 3 3 3 3 3 3 3 3 3 3 3 3 1 1 1 1 1 1 1 1 1 1 1 1 1 1 1 1 1 1 1 1 1 1 1 1 1 1 1 1 1 1 1 1 1 1 1 1 1 1 1 1 1 1 1 1 1 1 1 1 1 1 1 1 1 1 1 1 1 47 47 47 48 48 48 49 49 49 50 50 50 41 41 41 42 42 42 42 42 42 42 42 42 43 43 43 43 43 43 43 43 43 53 53 53 54 54 54 54 54 54 54 54 54 54 54 54 54 54 54 54 54 54 54 54 54 54 54 54 
10 10 10 12 12 12 5 5 5 3 3 3 3 3 3 5 5 5 5 5 5 5 5 5 3 3 3 1 1 1 1 1 1 1 1 1 1 1 1 1 1 1 1 1 1 1 1 1 1 1 1 1 1 1 1 1 1 1 1 1 1 1 1 1 1 1 1 1 1 1 1 1 1 1 1 1 1 1 1 1 1 1 1 1 1 1 1 1 1 1 39 39 39 39 39 39 40 40 40 41 41 41 50 50 50 51 51 51 51 51 51 52 52 52 52 52 52 53 53 53 53 53 53 53 53 53 53 53 53 44 44 44 44 44 44 44 44 44 44 44 44 44 44 44 45 45 45 45 45 45 
10 10 10 10 10 10 5 5 5 3 3 3 3 3 3 3 3 3 3 3 3 1 1 1 1 1 1 1 1 1 1 1 1 1 1 1 1 1 1 1 1 1 1 1 1 1 1 1 1 1 1 209 62 41 197 59 39 177 53 35 146 43 29 1 1 1 1 1 1 1 1 1 1 1 1 1 1 1 1 1 1 1 1 1 1 1 1 1 1 1 47 47 47 48 48 48 49 49 49 49 49 49 41 41 41 41 41 41 42 42 42 42 42 42 42 42 42 43 43 43 43 43 43 43 43 43 43 43 43 44 44 44 44 44 44 44 44 44 54 54 54 54 54 54 54 54 54 54 54 54 
10 10 10 3 3 3 3 3 3 3 3 3 3 3 3 1 1 1 1 1 1 1 1 1 1 1 1 1 1 1 1 1 1 1 1 1 1 1 1 1 1 1 233 70 46 245 73 49 239 72 48 228 69 46 212 64 43 193 58 38 171 51 34 145 43 29 111 33 22 1 1 1 1 1 1 1 1 1 1 1 1 1 1 1 1 1 1 1 1 1 38 38 38 39 39 39 40 40 40 40 40 40 50 50 50 50 50 50 51 51 51 51 51 51 52 52 52 52 52 52 52 52 52 53 53 53 53 53 53 53 53 53 53 53 53 53 53 53 53 53 53 53 53 53 54 54 54 54 54 54 
12 12 12 5 5 5 5 5 5 1 1 1 1 1 1 1 1 1 1 1 1 1 1 1 1 1 1 1 1 1 1 1 1 1 1 1 1 1 1 248 74 49 255 77 52 255 85 60 255 91 67 246 87 65 223 75 54 197 62 43 173 52 35 150 45 30 123 37 24 90 27 18 1 1 1 1 1 1 1 1 1 1 1 1 1 1 1 1 1 1 47 47 47 47 47 47 48 48 48 40 40 40 40 40 40 41 41 41 41 41 41 42 42 42 42 42 42 42 42 42 43 43 43 43 43 43 43 43 43 43 43 43 43 43 43 43 43 43 43 43 43 43 43 43 44 44 44 44 44 44 
12 12 12 5 5 5 1 1 1 1 1 1 1 1 1 1 1 1 1 1 1 1 1 1 1 1 1 1 1 1 1 1 1 1 1 1 242 72 48 255 78 53 255 95 70 255 120 96 255 130 107 255 118 96 236 93 73 200 69 50 170 53 36 146 44 29 122 36 24 94 28 18 58 17 11 1 1 1 1 1 1 1 1 1 1 1 1 1 1 1 46 46 46 47 47 47 48 48 48 49 49 49 49 49 49 50 50 50 50 50 50 51 51 51 51 51 51 51 51 51 52 52 52 52 52 52 52 52 52 52 52 52 53 53 53 53 53 53 53 53 53 53 53 53 53 53 53 53 53 53 
0 0 0 0 0 0 0 0 0 0 0 0 0 0 0 0 0 0 0 0 0 0 0 0 0 0 0 0 0 0 0 0 0 0 0 0 247 74 49 255 88 64 255 124 99 255 156 132 255 161 138 255 138 117 239 102 83 196 71 53 164 52 36 139 42 28 116 35 23 90 27 18 60 18 12 25 7 5 0 0 0 0 0 0 0 0 0 0 0 0 37 37 37 38 38 38 39 39 39 39 39 39 40 40 40 40 40 40 41 41 41 41 41 41 41 41 41 42 42 42 42 42 42 42 42 42 42 42 42 42 42 42 43 43 43 43 43 43 43 43 43 43 43 43 43 43 43 43 43 43 
18 18 18 0 0 0 1 1 1 1 1 1 1 1 1 1 1 1 1 1 1 0 0 0 0 0 0 0 0 0 0 0 0 225 67 45 241 74 50 255 98 74 255 137 113 255 163 141 255 160 139 255 132 112 223 95 77 182 66 49 152 48 33 129 39 26 107 32 21 83 24 16 54 16 10 25 7 5 1 1 1 1 1 1 1 1 1 0 0 0 46 46 46 46 46 46 47 47 47 48 48 48 48 48 48 49 49 49 50 50 50 50 50 50 50 50 50 51 51 51 51 51 51 51 51 51 42 42 42 42 42 42 42 42 42 42 42 42 43 43 43 43 43 43 43 43 43 43 43 43 
18 18 18 18 18 18 0 0 0 0 0 0 1 1 1 1 1 1 1 1 1 1 1 1 1 1 1 1 1 1 1 1 1 218 65 43 230 72 49 251 94 72 255 124 102 255 140 119 255 132 112 235 107 88 196 77 60 163 55 40 138 42 29 117 35 23 96 28 19 72 21 14 45 13 9 25 7 5 25 7 5 1 1 1 1 1 1 1 1 1 37 37 37 38 38 38 38 38 38 39 39 39 39 39 39 40 40 40 40 40 40 40 40 40 41 41 41 50 50 50 51 51 51 51 51 51 51 51 51 51 51 51 51 51 51 52 52 52 52 52 52 52 52 52 52 52 52 52 52 52 
18 18 18 18 18 18 18 18 18 1 1 1 1 1 1 1 1 1 1 1 1 0 0 0 0 0 0 1 1 1 0 0 0 204 61 40 213 66 45 225 80 59 238 97 76 238 103 84 222 95 77 195 77 60 167 58 43 142 45 31 122 37 24 103 31 20 83 24 16 60 18 12 33 10 6 25 7 5 25 7 5 1 1 1 1 1 1 1 1 1 45 45 45 46 46 46 46 46 46 47 47 47 48 48 48 48 48 48 49 49 49 49 49 49 41 41 41 41 41 41 41 41 41 41 41 41 41 41 41 42 42 42 42 42 42 42 42 42 42 42 42 45 49 47 45 49 47 45 49 47 
18 18 18 18 18 18 18 18 18 18 18 18 0 0 0 1 1 1 0 0 0 0 0 0 0 0 0 0 0 0 0 0 0 186 55 37 193 58 39 197 64 45 199 70 52 194 71 54 180 65 48 161 55 39 142 45 31 124 37 25 106 32 21 88 26 17 68 20 13 45 13 9 25 7 5 25 7 5 25 7 5 1 1 1 1 1 1 1 1 1 36 36 36 37 37 37 38 38 38 38 38 38 39 39 39 39 39 39 39 39 39 40 40 40 49 49 49 78 78 78 66 66 66 67 67 67 82 82 82 82 82 82 84 84 84 69 69 69 86 86 86 54 58 56 54 58 56 54 58 56 
18 18 18 18 18 18 18 18 18 18 18 18 18 18 18 0 0 0 1 1 1 0 0 0 0 0 0 0 0 0 0 0 0 163 49 32 171 51 34 171 52 35 168 53 36 161 51 36 150 47 33 136 42 28 121 36 24 106 31 21 89 26 17 71 21 14 51 15 10 29 8 5 25 7 5 25 7 5 25 7 5 2 2 2 79 79 79 78 78 78 59 59 59 59 59 59 59 59 59 60 60 60 72 72 72 61 61 61 62 62 62 62 62 62 54 54 54 55 55 55 56 56 56 56 56 56 56 56 56 46 46 46 44 44 44 45 45 45 44 44 44 55 56 55 57 59 58 57 59 58 
18 18 18 18 18 18 18 18 18 18 18 18 18 18 18 18 18 18 0 0 0 0 0 0 1 1 1 1 1 1 1 1 1 135 40 27 148 44 29 148 44 29 144 43 29 137 41 27 127 38 25 115 34 23 102 30 20 87 26 17 71 21 14 53 16 10 33 10 6 25 7 5 25 7 5 25 7 5 25 7 5 90 90 90 89 89 89 47 47 47 61 61 61 60 60 60 103 103 103 162 101 60 110 69 41 63 63 63 63 63 63 99 99 99 62 62 62 62 62 62 63 63 63 75 75 75 76 76 76 77 77 77 65 65 65 56 56 56 69 69 69 71 72 71 47 49 48 48 49 48 
18 18 18 18 18 18 18 18 18 18 18 18 18 18 18 60 60 60 60 60 60 106 106 106 106 106 106 58 58 58 57 57 57 88 26 17 120 36 24 124 37 24 121 36 24 114 34 22 105 31 21 94 28 18 81 24 16 67 20 13 51 15 10 33 9 6 25 7 5 25 7 5 25 7 5 25 7 5 53 53 53 52 52 52 18 18 18 18 18 18 111 111 111 20 12 7 20 12 7 190 119 71 150 94 56 76 48 28 104 104 104 103 103 103 106 106 106 105 105 105 104 104 104 65 65 65 64 64 64 64 64 64 75 75 75 76 76 76 76 76 76 77 77 77 65 65 65 65 65 65 
117 117 117 118 118 118 118 118 118 118 118 118 118 118 118 66 66 66 66 66 66 63 63 63 115 115 115 115 115 115 114 114 114 62 62 62 85 25 17 95 28 19 95 28 19 89 26 17 81 24 16 71 21 14 59 17 11 44 13 8 28 8 5 25 7 5 25 7 5 25 7 5 25 7 5 25 7 5 10 10 10 10 10 10 17 17 17 11 11 11 24 24 24 23 10 12 23 10 12 171 76 95 138 86 52 75 46 28 114 114 114 113 113 113 108 108 108 65 65 65 65 65 65 64 64 64 64 64 64 67 67 67 67 67 67 106 106 106 105 105 105 105 105 105 104 104 104 104 104 104 
69 69 69 69 69 69 69 69 69 69 69 69 125 125 125 126 126 126 125 125 125 125 125 125 122 122 122 122 122 122 121 121 121 65 65 65 120 120 120 58 17 11 64 19 12 61 18 12 55 16 11 45 13 9 33 10 6 25 7 5 25 7 5 25 7 5 25 7 5 25 7 5 25 7 5 17 17 17 17 17 17 17 17 17 18 18 18 11 11 11 24 24 24 23 10 12 23 10 12 167 74 92 76 34 42 37 23 14 25 25 25 25 25 25 72 72 72 72 72 72 72 72 72 71 71 71 110 110 110 109 109 109 109 109 109 108 108 108 107 107 107 106 106 106 69 69 69 68 68 68 
133 133 133 133 133 133 133 133 133 74 74 74 74 74 74 73 73 73 73 73 73 73 73 73 72 72 72 70 70 70 128 128 128 127 127 127 127 127 127 146 174 157 25 7 5 26 7 5 25 7 5 25 7 5 25 7 5 25 7 5 25 7 5 25 7 5 25 7 5 25 7 5 11 11 11 10 10 10 10 10 10 10 10 10 10 10 10 10 10 10 27 27 27 23 10 12 23 10 12 117 52 65 28 12 15 24 21 19 124 124 124 123 123 123 71 71 71 71 71 71 70 70 70 70 70 70 73 73 73 73 73 73 72 72 72 116 116 116 115 115 115 68 68 68 67 67 67 67 67 67 
139 139 139 139 139 139 77 77 77 76 76 76 76 76 76 75 75 75 137 137 137 136 136 136 136 136 136 135 135 135 71 71 71 71 71 71 72 72 72 101 140 116 99 137 114 35 69 49 25 7 5 25 7 5 25 7 5 25 7 5 25 7 5 25 7 5 18 18 18 18 18 18 17 17 17 10 10 10 10 10 10 10 10 10 10 10 10 10 10 10 24 24 24 18 13 14 69 64 65 158 132 137 126 117 119 81 72 67 74 74 74 74 74 74 77 77 77 77 77 77 124 124 124 120 120 120 119 119 119 118 118 118 117 117 117 116 116 116 119 119 119 119 119 119 73 73 73 73 73 73 
79 79 79 144 144 144 142 142 142 142 142 142 142 142 142 141 141 141 141 141 141 140 140 140 140 140 140 77 77 77 77 77 77 74 74 74 74 74 74 109 156 128 109 157 128 109 152 126 19 12 11 26 19 18 26 19 18 26 19 18 26 19 18 26 19 18 19 12 11 11 11 11 11 11 11 11 11 11 18 18 18 18 18 18 120 120 120 119 119 119 136 136 136 135 135 135 124 119 120 180 143 151 117 96 82 80 80 80 80 80 80 80 80 80 75 75 75 75 75 75 74 74 74 78 78 78 126 126 126 125 125 125 124 124 124 120 120 120 119 119 119 118 118 118 118 118 118 117 117 117 
147 147 147 147 147 147 147 147 147 146 146 146 145 145 145 145 145 145 145 145 145 144 144 144 144 144 144 79 79 79 142 142 142 142 142 142 138 138 138 137 137 137 145 137 136 144 137 136 143 136 135 142 135 134 81 73 72 80 73 72 80 72 71 79 72 71 79 71 70 78 71 70 77 70 69 69 69 69 68 68 68 125 125 125 123 123 123 122 122 122 139 139 139 134 134 134 134 134 134 137 137 137 136 136 136 131 131 131 78 78 78 77 77 77 81 81 81 80 80 80 80 80 80 76 76 76 75 75 75 75 75 75 127 127 127 78 78 78 78 78 78 77 77 77 77 77 77 73 73 73 
83 83 83 82 82 82 82 82 82 81 81 81 81 81 81 81 81 81 80 80 80 81 81 81 146 146 146 145 145 145 145 145 145 144 144 144 143 143 143 148 140 139 147 140 139 146 139 138 145 138 137 144 137 136 82 75 73 81 74 73 81 74 73 80 73 72 80 73 72 79 72 71 79 72 70 69 69 69 69 69 69 68 68 68 125 125 125 124 124 124 138 138 138 140 140 140 140 140 140 135 135 135 135 135 135 83 83 83 83 83 83 136 136 136 131 131 131 130 130 130 130 130 130 133 133 133 132 132 132 131 131 131 126 126 126 125 125 125 132 132 132 75 75 75 78 78 78 78 78 78 
83 83 83 83 83 83 83 83 83 82 82 82 82 82 82 82 82 82 81 81 81 81 81 81 147 147 147 147 147 147 146 146 146 145 145 145 144 144 144 149 142 141 149 141 140 148 141 140 147 140 139 146 139 138 83 75 74 82 75 74 82 74 73 81 74 73 81 73 72 80 73 72 80 72 71 139 131 130 129 129 129 128 128 128 69 69 69 68 68 68 86 86 86 86 86 86 82 82 82 81 81 81 85 85 85 85 85 85 81 81 81 80 80 80 84 84 84 137 137 137 132 132 132 131 131 131 130 130 130 140 140 140 140 140 140 139 139 139 138 138 138 133 133 133 132 132 132 82 82 82 
84 84 84 84 84 84 84 84 84 83 83 83 83 83 83 83 83 83 82 82 82 150 150 150 149 149 149 149 149 149 148 148 148 146 146 146 160 147 145 157 145 144 152 143 142 149 142 141 84 77 76 84 77 76 146 139 138 146 138 137 145 138 137 144 137 136 143 136 135 142 135 134 141 134 133 140 133 132 131 131 131 130 130 130 128 128 128 69 69 69 87 87 87 83 83 83 86 86 86 86 86 86 82 82 82 82 82 82 85 85 85 85 85 85 81 81 81 80 80 80 138 138 138 144 144 144 143 143 143 139 139 139 138 138 138 137 137 137 140 140 140 139 139 139 138 138 138 138 138 138 
85 85 85 85 85 85 84 84 84 84 84 84 84 84 84 84 84 84 152 152 152 83 83 83 83 83 83 83 83 83 82 82 82 82 82 82 106 85 82 102 84 81 98 82 80 93 80 79 88 79 77 84 77 76 84 77 76 147 140 139 146 139 138 145 138 137 144 137 136 143 136 135 142 135 134 141 134 133 141 133 132 132 132 132 131 131 131 130 130 130 84 84 84 87 87 87 84 84 84 83 83 83 87 87 87 87 87 87 83 83 83 82 82 82 93 93 93 92 92 92 88 88 88 88 88 88 141 141 141 144 144 144 144 144 144 143 143 143 138 138 138 137 137 137 136 136 136 139 139 139 

