P3
100 50
255
150 150 150 150 150 150 150 150 150 80 120 160 80 120 160 80 120 160 80 120 161 80 121 161 80 121 161 152 152 152 152 152 152 152 152 152 152 152 152 152 152 152 81 121 162 81 122 162 81 122 162 81 122 162 81 122 162 153 153 153 153 153 153 153 153 153 153 153 153 153 153 153 81 122 163 81 122 163 81 122 163 81 122 163 81 122 163 153 153 153 153 153 153 153 153 153 153 153 153 153 153 153 81 121 162 81 121 162 81 121 162 81 121 162 80 121 161 80 121 161 151 151 151 151 151 151 151 151 151 151 151 151 151 151 151 80 120 160 79 119 159 79 119 159 79 119 159 79 119 159 149 149 149 149 149 149 148 148 148 148 148 148 148 148 148 78 117 157 78 117 156 78 117 156 77 116 155 77 116 155 145 145 145 145 145 145 145 145 145 144 144 144 144 144 144 143 143 143 76 114 152 76 114 152 75 113 151 75 113 151 75 113 150 141 141 141 140 140 140 140 140 140 140 140 140 139 139 139 73 110 147 73 110 147 73 110 146 73 109 146 72 109 145 136 136 136 136 136 136 135 135 135 135 135 135 134 134 134 71 107 142 71 106 142 70 106 141 70 105 141 70 105 140 131 131 131 131 131 131 130 130 130 130 130 130 129 129 129 129 129 129 68 102 136 68 102 136 67 101 135 
79 119 159 79 119 159 80 120 160 150 150 150 151 151 151 151 151 151 151 151 151 151 151 151 152 152 152 80 121 161 80 121 161 81 121 162 81 121 162 81 121 162 153 153 153 153 153 153 153 153 153 153 153 153 153 153 153 81 122 163 81 122 163 81 122 163 81 122 163 81 122 163 153 153 153 153 153 153 153 153 153 153 153 153 153 153 153 81 122 163 81 122 162 81 122 162 81 122 162 81 121 162 152 152 152 152 152 152 152 152 152 152 152 152 152 152 152 152 152 152 80 121 161 80 120 161 80 120 160 80 120 160 80 120 160 150 150 150 150 150 150 150 150 150 150 150 150 149 149 149 79 119 158 79 118 158 79 118 158 78 118 157 78 118 157 147 147 147 147 147 147 147 147 147 146 146 146 146 146 146 77 116 155 77 116 154 77 115 154 76 115 153 76 115 153 76 114 152 143 143 143 143 143 143 142 142 142 142 142 142 141 141 141 75 112 150 74 112 149 74 111 149 74 111 148 74 111 148 139 139 139 138 138 138 138 138 138 137 137 137 137 137 137 72 108 145 72 108 144 72 108 144 71 107 143 71 107 143 134 134 134 133 133 133 133 133 133 132 132 132 132 132 132 70 105 140 69 104 139 69 104 138 69 103 138 68 103 137 68 103 137 128 128 128 128 128 128 127 127 127 
79 119 159 79 119 159 80 120 160 80 120 160 151 151 151 151 151 151 151 151 151 151 151 151 152 152 152 80 121 161 80 121 161 81 121 162 81 121 162 81 121 162 152 152 152 153 153 153 153 153 153 153 153 153 153 153 153 81 122 163 81 122 163 81 122 163 81 122 163 81 122 163 153 153 153 153 153 153 153 153 153 153 153 153 153 153 153 81 122 162 81 122 162 81 122 162 81 122 162 81 121 162 81 121 162 152 152 152 152 152 152 152 152 152 152 152 152 152 152 152 80 121 161 80 120 161 80 120 160 80 120 160 80 120 160 150 150 150 150 150 150 150 150 150 150 150 150 149 149 149 79 119 158 79 118 158 79 118 158 78 118 157 78 118 157 147 147 147 147 147 147 147 147 147 146 146 146 146 146 146 77 116 155 77 116 154 77 115 154 76 115 153 76 115 153 143 143 143 143 143 143 143 143 143 142 142 142 142 142 142 141 141 141 75 112 150 74 112 149 74 111 149 74 111 148 74 111 148 139 139 139 138 138 138 138 138 138 137 137 137 137 137 137 72 108 145 72 108 144 72 108 144 71 107 143 71 107 143 134 134 134 133 133 133 133 133 133 132 132 132 132 132 132 69 104 139 69 104 139 69 104 138 69 103 138 68 103 137 129 129 129 128 128 128 128 128 128 127 127 127 
79 119 159 79 119 159 80 120 160 80 120 160 151 151 151 151 151 151 151 151 151 151 151 151 152 152 152 80 121 161 80 121 161 81 121 162 81 121 162 81 121 162 152 152 152 153 153 153 153 153 153 153 153 153 153 153 153 81 122 163 81 122 163 81 122 163 81 122 163 81 122 163 153 153 153 153 153 153 153 153 153 153 153 153 153 153 153 81 122 162 81 122 162 81 122 162 81 122 162 81 121 162 81 121 162 152 152 152 152 152 152 152 152 152 152 152 152 152 152 152 80 121 161 80 120 161 80 120 160 80 120 160 80 120 160 150 150 150 150 150 150 150 150 150 149 149 149 149 149 149 79 119 158 79 118 158 79 118 158 78 118 157 78 118 157 147 147 147 147 147 147 147 147 147 146 146 146 146 146 146 77 116 155 77 115 154 77 115 154 76 115 153 76 115 153 143 143 143 143 143 143 143 143 143 142 142 142 142 142 142 141 141 141 75 112 150 74 112 149 74 111 149 74 111 148 74 111 148 139 139 139 138 138 138 138 138 138 137 137 137 137 137 137 72 108 145 72 108 144 72 108 144 71 107 143 71 107 143 134 134 134 133 133 133 133 133 133 132 132 132 132 132 132 69 104 139 69 104 139 69 104 138 69 103 138 68 103 137 129 129 129 128 128 128 128 128 128 127 127 127 
79 119 159 79 119 159 80 120 160 80 120 160 151 151 151 151 151 151 151 151 151 151 151 151 151 151 151 80 121 161 80 121 161 81 121 162 81 121 162 81 121 162 152 152 152 153 153 153 153 153 153 153 153 153 153 153 153 81 122 162 81 122 163 81 122 163 81 122 163 81 122 163 153 153 153 153 153 153 153 153 153 153 153 153 153 153 153 81 122 162 81 122 162 81 122 162 81 121 162 81 121 162 81 121 162 152 152 152 152 152 152 152 152 152 152 152 152 152 152 152 80 121 161 80 120 161 80 120 160 80 120 160 80 120 160 150 150 150 150 150 150 150 150 150 149 149 149 149 149 149 79 119 158 79 118 158 79 118 158 78 118 157 78 117 157 147 147 147 147 147 147 147 147 147 146 146 146 146 146 146 77 116 155 77 115 154 77 115 154 76 115 153 76 114 153 143 143 143 143 143 143 143 143 143 142 142 142 142 142 142 141 141 141 75 112 150 74 112 149 74 111 149 74 111 148 74 111 148 138 138 138 138 138 138 138 138 138 137 137 137 137 137 137 72 108 145 72 108 144 72 108 144 71 107 143 71 107 143 134 134 134 133 133 133 133 133 133 132 132 132 132 132 132 69 104 139 69 104 139 69 104 138 69 103 138 68 103 137 129 129 129 128 128 128 128 128 128 127 127 127 
79 119 159 79 119 159 79 119 159 80 120 160 151 151 151 151 151 151 151 151 151 151 151 151 151 151 151 80 121 161 80 121 161 80 121 161 81 121 162 81 121 162 152 152 152 152 152 152 153 153 153 153 153 153 153 153 153 81 122 162 81 122 162 81 122 162 81 122 163 81 122 163 153 153 153 153 153 153 153 153 153 153 153 153 153 153 153 81 122 162 81 122 162 81 122 162 81 121 162 81 121 162 81 121 162 152 152 152 152 152 152 152 152 152 152 152 152 152 152 152 80 120 161 80 120 161 80 120 160 80 120 160 80 120 160 150 150 150 150 150 150 150 150 150 149 149 149 149 149 149 79 118 158 79 118 158 78 118 157 78 118 157 78 117 157 147 147 147 147 147 147 146 146 146 146 146 146 146 146 146 77 116 154 77 115 154 77 115 154 76 115 153 76 114 153 143 143 143 143 143 143 142 142 142 142 142 142 142 142 142 141 141 141 75 112 150 74 112 149 74 111 149 74 111 148 74 111 148 138 138 138 138 138 138 138 138 138 137 137 137 137 137 137 72 108 145 72 108 144 72 108 144 71 107 143 71 107 143 134 134 134 133 133 133 133 133 133 132 132 132 132 132 132 69 104 139 69 104 139 69 104 138 69 103 138 68 103 137 129 129 129 128 128 128 128 128 128 127 127 127 
149 149 149 150 150 150 150 150 150 150 150 150 80 120 160 80 120 160 80 120 160 80 120 161 80 121 161 152 152 152 152 152 152 152 152 152 152 152 152 152 152 152 81 121 162 81 121 162 81 121 162 81 122 162 81 122 162 153 153 153 153 153 153 153 153 153 153 153 153 153 153 153 81 122 162 81 122 162 81 122 162 81 122 162 81 122 162 153 153 153 153 153 153 153 153 153 152 152 152 152 152 152 152 152 152 81 121 162 80 121 161 80 121 161 80 121 161 80 121 161 151 151 151 151 151 151 151 151 151 151 151 151 150 150 150 80 120 160 79 119 159 79 119 159 79 119 159 79 119 158 149 149 149 148 148 148 148 148 148 148 148 148 147 147 147 78 117 156 78 117 156 78 117 156 77 116 155 77 116 155 145 145 145 145 145 145 145 145 145 144 144 144 144 144 144 76 114 152 76 114 152 75 113 151 75 113 151 75 113 150 75 112 150 141 141 141 140 140 140 140 140 140 139 139 139 139 139 139 73 110 147 73 110 147 73 109 146 73 109 146 72 109 145 136 136 136 136 136 136 135 135 135 135 135 135 134 134 134 71 106 142 70 106 141 70 106 141 70 105 140 70 105 140 131 131 131 131 131 131 130 130 130 130 130 130 129 129 129 68 102 137 68 102 136 68 102 136 67 101 135 
149 149 149 150 150 150 150 150 150 150 150 150 80 120 160 80 120 160 80 120 160 80 120 161 80 120 161 151 151 151 152 152 152 152 152 152 152 152 152 152 152 152 81 121 162 81 121 162 81 121 162 81 121 162 81 122 162 153 153 153 153 153 153 153 153 153 153 153 153 153 153 153 81 122 162 81 122 162 81 122 162 81 122 162 81 122 162 153 153 153 153 153 153 152 152 152 152 152 152 152 152 152 152 152 152 81 121 162 80 121 161 80 121 161 80 121 161 80 121 161 151 151 151 151 151 151 151 151 151 151 151 151 150 150 150 79 119 159 79 119 159 79 119 159 79 119 159 79 119 158 149 149 149 148 148 148 148 148 148 148 148 148 147 147 147 78 117 156 78 117 156 78 117 156 77 116 155 77 116 155 145 145 145 145 145 145 144 144 144 144 144 144 144 144 144 76 114 152 76 114 152 75 113 151 75 113 151 75 113 150 75 112 150 141 141 141 140 140 140 140 140 140 139 139 139 139 139 139 73 110 147 73 110 147 73 109 146 72 109 145 72 109 145 136 136 136 135 135 135 135 135 135 134 134 134 134 134 134 71 106 142 70 106 141 70 105 141 70 105 140 70 105 140 131 131 131 131 131 131 130 130 130 130 130 130 129 129 129 68 102 137 68 102 136 68 102 136 67 101 135 
149 149 149 150 150 150 150 150 150 150 150 150 80 120 160 80 120 160 80 120 160 80 120 160 80 120 161 151 151 151 152 152 152 152 152 152 152 152 152 152 152 152 81 121 162 81 121 162 81 121 162 81 121 162 81 121 162 153 153 153 153 153 153 153 153 153 153 153 153 153 153 153 81 122 162 81 122 162 81 122 162 81 122 162 81 122 162 153 153 153 152 152 152 152 152 152 152 152 152 152 152 152 152 152 152 80 121 161 80 121 161 80 121 161 80 121 161 80 120 161 151 151 151 151 151 151 151 151 151 150 150 150 150 150 150 79 119 159 79 119 159 79 119 159 79 119 159 79 119 158 149 149 149 148 148 148 148 148 148 148 148 148 147 147 147 78 117 156 78 117 156 77 116 155 77 116 155 77 116 155 145 145 145 145 145 145 144 144 144 144 144 144 144 144 144 76 114 152 76 114 152 75 113 151 75 113 151 75 113 150 75 112 150 141 141 141 140 140 140 140 140 140 139 139 139 139 139 139 73 110 147 73 110 146 73 109 146 72 109 145 72 109 145 136 136 136 135 135 135 135 135 135 134 134 134 134 134 134 71 106 142 70 106 141 70 105 141 70 105 140 70 105 140 131 131 131 130 130 130 130 130 130 129 129 129 129 129 129 68 102 137 68 102 136 67 101 135 67 101 135 
149 149 149 149 149 149 150 150 150 150 150 150 80 120 160 80 120 160 80 120 160 80 120 160 80 120 161 151 151 151 151 151 151 152 152 152 152 152 152 152 152 152 81 121 162 81 121 162 81 121 162 81 121 162 81 121 162 152 152 152 153 153 153 153 153 153 153 153 153 153 153 153 81 122 162 81 122 162 81 121 162 81 121 162 81 121 162 152 152 152 152 152 152 152 152 152 152 152 152 152 152 152 152 152 152 80 121 161 80 121 161 80 121 161 80 121 161 80 120 161 151 151 151 151 151 151 151 151 151 150 150 150 150 150 150 79 119 159 79 119 159 79 119 159 79 119 158 79 118 158 148 148 148 148 148 148 148 148 148 148 148 148 147 147 147 78 117 156 78 117 156 77 116 155 77 116 155 77 116 155 145 145 145 145 145 145 144 144 144 144 144 144 143 143 143 76 114 152 76 114 152 75 113 151 75 113 151 75 113 150 75 112 150 140 140 140 140 140 140 140 140 140 139 139 139 139 139 139 73 110 147 73 110 146 73 109 146 72 109 145 72 108 145 136 136 136 135 135 135 135 135 135 134 134 134 134 134 134 71 106 142 70 106 141 70 105 141 70 105 140 70 105 140 131 131 131 130 130 130 130 130 130 129 129 129 129 129 129 68 102 136 68 102 136 67 101 135 67 101 135 
149 149 149 149 149 149 150 150 150 150 150 150 80 120 160 80 120 160 80 120 160 80 120 160 80 120 160 151 151 151 151 151 151 151 151 151 152 152 152 152 152 152 80 121 161 81 121 162 81 121 162 81 121 162 81 121 162 152 152 152 152 152 152 152 152 152 152 152 152 153 153 153 81 121 162 81 121 162 81 121 162 81 121 162 81 121 162 152 152 152 152 152 152 152 152 152 152 152 152 152 152 152 152 152 152 80 121 161 80 121 161 80 121 161 80 120 161 80 120 161 151 151 151 151 151 151 150 150 150 150 150 150 150 150 150 79 119 159 79 119 159 79 119 159 79 119 158 79 118 158 148 148 148 148 148 148 148 148 148 147 147 147 147 147 147 78 117 156 78 117 156 77 116 155 77 116 155 77 116 154 145 145 145 145 145 145 144 144 144 144 144 144 143 143 143 76 114 152 75 113 151 75 113 151 75 113 151 75 112 150 75 112 150 140 140 140 140 140 140 139 139 139 139 139 139 139 139 139 73 110 147 73 110 146 73 109 146 72 109 145 72 108 145 136 136 136 135 135 135 135 135 135 134 134 134 134 134 134 71 106 142 70 106 141 70 105 141 70 105 140 70 105 140 131 131 131 130 130 130 130 130 130 129 129 129 129 129 129 68 102 136 68 102 136 67 101 135 67 101 135 
79 119 158 79 119 159 79 119 159 79 119 159 150 150 150 150 150 150 150 150 150 151 151 151 151 151 151 80 120 160 80 120 161 80 121 161 80 121 161 80 121 161 152 152 152 152 152 152 152 152 152 152 152 152 152 152 152 81 121 162 81 121 162 81 121 162 81 121 162 81 121 162 152 152 152 152 152 152 152 152 152 152 152 152 152 152 152 152 152 152 81 121 162 81 121 162 80 121 161 80 121 161 80 121 161 152 152 152 151 151 151 151 151 151 151 151 151 151 151 151 80 120 160 80 120 160 80 120 160 80 120 160 79 119 159 150 150 150 149 149 149 149 149 149 149 149 149 149 149 149 79 118 158 78 118 157 78 118 157 78 117 157 78 117 156 147 147 147 146 146 146 146 146 146 146 146 146 145 145 145 77 115 154 77 115 154 76 115 153 76 114 153 76 114 152 143 143 143 142 142 142 142 142 142 142 142 142 141 141 141 75 112 150 74 112 149 74 111 149 74 111 148 74 111 148 73 110 147 138 138 138 138 138 138 137 137 137 137 137 137 136 136 136 72 108 144 72 108 144 71 107 143 71 107 143 71 106 142 133 133 133 133 133 133 132 132 132 132 132 132 131 131 131 69 104 139 69 104 138 69 103 138 68 103 137 68 102 137 128 128 128 128 128 128 127 127 127 127 127 127 
79 118 158 79 119 158 79 119 159 79 119 159 150 150 150 150 150 150 150 150 150 150 150 150 151 151 151 80 120 160 80 120 161 80 120 161 80 121 161 80 121 161 152 152 152 152 152 152 152 152 152 152 152 152 152 152 152 81 121 162 81 121 162 81 121 162 81 121 162 81 121 162 152 152 152 152 152 152 152 152 152 152 152 152 152 152 152 152 152 152 81 121 162 80 121 161 80 121 161 80 121 161 80 121 161 151 151 151 151 151 151 151 151 151 151 151 151 151 151 151 80 120 160 80 120 160 80 120 160 79 119 159 79 119 159 150 150 150 149 149 149 149 149 149 149 149 149 148 148 148 78 118 157 78 118 157 78 117 157 78 117 156 78 117 156 147 147 147 146 146 146 146 146 146 145 145 145 145 145 145 77 115 154 76 115 153 76 115 153 76 114 153 76 114 152 143 143 143 142 142 142 142 142 142 141 141 141 141 141 141 74 112 149 74 112 149 74 111 148 74 111 148 73 110 147 73 110 147 138 138 138 137 137 137 137 137 137 136 136 136 136 136 136 72 108 144 71 107 143 71 107 143 71 107 142 71 106 142 133 133 133 133 133 133 132 132 132 132 132 132 131 131 131 69 104 139 69 104 138 69 103 138 68 103 137 68 102 137 128 128 128 128 128 128 127 127 127 127 127 127 
79 118 158 79 119 158 79 119 159 79 119 159 150 150 150 150 150 150 150 150 150 150 150 150 151 151 151 80 120 160 80 120 160 80 120 161 80 120 161 80 121 161 151 151 151 152 152 152 152 152 152 152 152 152 152 152 152 80 121 161 81 121 162 81 121 162 81 121 162 81 121 162 152 152 152 152 152 152 152 152 152 152 152 152 152 152 152 152 152 152 80 121 161 80 121 161 80 121 161 80 121 161 80 121 161 151 151 151 151 151 151 151 151 151 151 151 151 151 151 151 80 120 160 80 120 160 79 119 159 41 20 4 40 20 4 36 18 3 149 149 149 149 149 149 149 149 149 148 148 148 78 118 157 78 118 157 78 117 157 78 117 156 78 117 156 146 146 146 146 146 146 146 146 146 145 145 145 145 145 145 77 115 154 76 115 153 76 115 153 76 114 152 76 114 152 143 143 143 142 142 142 142 142 142 141 141 141 141 141 141 74 112 149 74 111 149 74 111 148 74 111 148 73 110 147 73 110 147 138 138 138 137 137 137 137 137 137 136 136 136 136 136 136 72 108 144 71 107 143 71 107 143 71 107 142 71 106 142 133 133 133 132 132 132 132 132 132 131 131 131 131 131 131 69 104 139 69 103 138 69 103 138 68 103 137 68 102 137 128 128 128 128 128 128 127 127 127 127 127 127 
79 118 158 79 118 158 79 119 158 79 119 159 150 150 150 150 150 150 150 150 150 150 150 150 150 150 150 80 120 160 80 120 160 80 120 160 80 120 161 80 120 161 151 151 151 151 151 151 152 152 152 152 152 152 152 152 152 80 121 161 80 121 161 80 121 161 80 121 161 80 121 161 152 152 152 152 152 152 152 152 152 152 152 152 152 152 152 152 152 152 80 121 161 80 121 161 80 121 161 80 121 161 80 120 161 151 151 151 151 151 151 151 151 151 151 151 151 151 151 151 55 27 6 58 29 6 58 29 6 57 28 6 55 27 6 52 26 5 47 23 5 41 20 4 33 16 3 148 148 148 78 118 157 78 117 157 78 117 156 78 117 156 78 117 156 146 146 146 146 146 146 146 146 146 145 145 145 145 145 145 77 115 154 76 115 153 76 114 153 76 114 152 76 114 152 142 142 142 142 142 142 142 142 142 141 141 141 141 141 141 74 112 149 74 111 149 74 111 148 74 111 148 73 110 147 73 110 147 138 138 138 137 137 137 137 137 137 136 136 136 136 136 136 72 108 144 71 107 143 71 107 143 71 107 142 71 106 142 133 133 133 132 132 132 132 132 132 131 131 131 131 131 131 69 104 139 69 103 138 69 103 138 68 103 137 68 102 136 128 128 128 127 127 127 127 127 127 126 126 126 
79 118 158 79 118 158 79 119 158 79 119 158 149 149 149 150 150 150 150 150 150 150 150 150 150 150 150 80 120 160 80 120 160 80 120 160 80 120 160 80 120 160 151 151 151 151 151 151 151 151 151 151 151 151 152 152 152 80 121 161 80 121 161 80 121 161 80 121 161 80 121 161 152 152 152 152 152 152 152 152 152 152 152 152 152 152 152 152 152 152 80 121 161 80 121 161 80 121 161 80 120 161 80 120 161 151 151 151 151 151 151 151 151 151 57 28 6 63 31 7 66 33 7 66 33 7 66 33 7 64 32 7 62 31 6 59 29 6 55 27 6 50 25 5 44 22 4 36 18 4 25 12 2 78 117 157 78 117 156 78 117 156 78 117 156 146 146 146 146 146 146 145 145 145 145 145 145 145 145 145 76 115 153 76 115 153 76 114 153 76 114 152 76 114 152 142 142 142 142 142 142 141 141 141 141 141 141 141 141 141 74 112 149 74 111 149 74 111 148 74 111 148 73 110 147 73 110 147 137 137 137 137 137 137 137 137 137 136 136 136 136 136 136 72 108 144 71 107 143 71 107 143 71 106 142 71 106 142 133 133 133 132 132 132 132 132 132 131 131 131 131 131 131 69 104 138 69 103 138 68 103 137 68 103 137 68 102 136 128 128 128 127 127 127 127 127 127 126 126 126 
148 148 148 148 148 148 149 149 149 149 149 149 79 119 158 79 119 159 79 119 159 79 119 159 79 119 159 150 150 150 150 150 150 151 151 151 151 151 151 151 151 151 80 120 160 80 120 161 80 120 161 80 120 161 80 121 161 151 151 151 151 151 151 152 152 152 152 152 152 152 152 152 80 121 161 80 121 161 80 121 161 80 121 161 80 121 161 80 121 161 151 151 151 151 151 151 151 151 151 151 151 151 151 151 151 80 120 160 80 120 160 6 61 30 7 68 34 7 70 35 7 71 35 7 71 35 7 70 35 7 69 34 7 66 33 7 63 31 6 59 29 6 55 27 5 50 25 4 43 21 3 35 17 2 24 12 147 147 147 147 147 147 146 146 146 77 116 155 77 116 155 77 116 154 77 115 154 77 115 154 144 144 144 144 144 144 143 143 143 143 143 143 143 143 143 75 113 151 75 113 151 75 113 150 75 112 150 74 112 149 140 140 140 140 140 140 139 139 139 139 139 139 138 138 138 138 138 138 73 109 146 72 109 145 72 109 145 72 108 144 72 108 144 135 135 135 135 135 135 134 134 134 134 134 134 133 133 133 70 106 141 70 105 140 70 105 140 69 104 139 69 104 139 130 130 130 130 130 130 129 129 129 129 129 129 128 128 128 68 102 136 67 101 135 67 101 135 67 100 134 
148 148 148 148 148 148 148 148 148 149 149 149 79 119 158 79 119 159 79 119 159 79 119 159 79 119 159 150 150 150 150 150 150 150 150 150 150 150 150 151 151 151 80 120 160 80 120 160 80 120 160 80 120 161 80 120 161 151 151 151 151 151 151 151 151 151 151 151 151 151 151 151 151 151 151 80 121 161 80 121 161 80 120 161 80 120 161 80 120 161 151 151 151 151 151 151 151 151 151 151 151 151 151 151 151 80 120 160 6 62 31 7 69 34 8 73 36 8 75 37 8 75 37 8 75 37 8 73 36 7 72 36 7 69 34 7 66 33 6 62 31 6 58 29 5 53 26 5 47 23 4 40 20 3 31 15 2 19 9 146 146 146 146 146 146 77 116 155 77 116 155 77 116 154 77 115 154 76 115 153 144 144 144 144 144 144 143 143 143 143 143 143 142 142 142 75 113 151 75 113 150 75 112 150 75 112 150 74 112 149 140 140 140 139 139 139 139 139 139 139 139 139 138 138 138 73 110 146 73 109 146 72 109 145 72 108 145 72 108 144 72 108 144 135 135 135 134 134 134 134 134 134 133 133 133 133 133 133 70 105 141 70 105 140 70 105 140 69 104 139 69 104 139 130 130 130 130 130 130 129 129 129 129 129 129 128 128 128 68 102 136 67 101 135 67 101 134 67 100 134 
148 148 148 148 148 148 148 148 148 149 149 149 79 118 158 79 119 158 79 119 159 79 119 159 79 119 159 150 150 150 150 150 150 150 150 150 150 150 150 150 150 150 80 120 160 80 120 160 80 120 160 80 120 160 80 120 160 151 151 151 151 151 151 151 151 151 151 151 151 151 151 151 151 151 151 80 120 161 80 120 161 80 120 161 80 120 161 80 120 160 151 151 151 151 151 151 151 151 151 151 151 151 151 151 151 6 58 29 7 69 34 8 74 37 8 76 38 8 77 38 8 77 38 8 77 38 8 75 37 8 73 36 7 71 35 7 68 34 7 64 32 6 60 30 6 56 28 5 50 25 4 44 22 3 36 18 2 26 13 1 10 5 146 146 146 77 116 155 77 116 154 77 115 154 77 115 154 76 115 153 144 144 144 143 143 143 143 143 143 143 143 143 142 142 142 75 113 151 75 113 150 75 112 150 74 112 149 74 112 149 140 140 140 139 139 139 139 139 139 138 138 138 138 138 138 73 109 146 73 109 146 72 109 145 72 108 145 72 108 144 72 108 144 135 135 135 134 134 134 134 134 134 133 133 133 133 133 133 70 105 141 70 105 140 70 105 140 69 104 139 69 104 139 130 130 130 129 129 129 129 129 129 128 128 128 128 128 128 67 101 135 67 101 135 67 101 134 67 100 134 
148 148 148 148 148 148 148 148 148 148 148 148 79 118 158 79 118 158 79 119 158 79 119 159 79 119 159 150 150 150 150 150 150 150 150 150 150 150 150 150 150 150 80 120 160 80 120 160 133 107 13 142 114 14 141 113 14 135 108 13 126 101 12 113 90 11 96 96 96 69 69 69 151 151 151 80 120 160 80 120 160 80 120 160 80 120 160 80 120 160 151 151 151 151 151 151 151 151 151 150 150 150 150 150 150 66 33 7 73 36 8 76 38 8 78 39 8 79 39 8 79 39 8 78 39 8 76 38 8 74 37 8 72 36 7 69 34 7 66 33 7 62 31 6 57 28 6 52 26 5 46 23 5 38 19 4 29 14 3 18 9 1 146 146 146 77 116 155 77 115 154 77 115 154 76 115 153 76 115 153 144 144 144 143 143 143 143 143 143 142 142 142 142 142 142 75 113 151 75 112 150 21 39 17 26 40 17 28 40 16 30 38 15 30 35 13 29 31 11 26 25 9 17 16 5 73 109 146 72 109 145 72 109 145 72 108 144 72 108 144 71 107 143 135 135 135 134 134 134 134 134 134 133 133 133 133 133 133 70 105 140 70 105 140 69 104 139 69 104 139 69 104 138 130 130 130 129 129 129 129 129 129 128 128 128 128 128 128 67 101 135 67 101 135 67 101 134 67 100 134 
147 147 147 148 148 148 148 148 148 148 148 148 79 118 158 79 118 158 79 118 158 79 119 158 79 119 158 149 149 149 150 150 150 150 150 150 150 150 150 150 150 150 153 122 15 166 133 16 169 135 16 167 167 167 163 163 163 156 156 156 147 117 14 135 108 13 121 97 12 104 83 10 83 83 83 50 50 50 80 120 160 80 120 160 80 120 160 80 120 160 150 150 150 150 150 150 150 150 150 150 150 150 57 28 6 69 34 7 74 37 8 77 38 8 79 39 8 79 39 8 79 39 8 78 39 8 77 38 8 75 37 8 72 36 8 69 34 7 66 33 7 62 31 6 58 29 6 52 26 5 47 23 5 40 20 4 32 16 3 21 10 2 10 5 1 77 116 154 77 115 154 77 115 154 76 115 153 76 114 153 143 143 143 143 143 143 143 143 143 142 142 142 142 142 142 20 46 20 26 49 21 30 50 21 33 48 20 35 47 18 37 44 17 38 41 15 37 37 13 36 33 11 33 28 9 28 22 7 16 13 4 72 108 145 72 108 144 72 108 144 71 107 143 134 134 134 134 134 134 133 133 133 133 133 133 132 132 132 70 105 140 70 105 140 69 104 139 69 104 139 69 104 138 130 130 130 129 129 129 129 129 129 128 128 128 128 128 128 67 101 135 67 101 135 67 100 134 67 100 134 
78 117 156 78 117 157 78 117 157 78 118 157 148 148 148 148 148 148 148 148 148 149 149 149 149 149 149 79 119 158 79 119 159 79 119 159 79 119 159 171 137 17 181 181 181 184 184 184 183 183 183 180 180 180 174 174 174 167 167 167 158 158 158 147 147 147 134 107 13 119 95 11 101 81 10 80 80 80 50 50 50 150 150 150 150 150 150 150 150 150 80 120 160 80 120 160 79 119 159 79 119 159 62 31 6 71 35 7 75 37 8 78 39 8 79 39 8 79 39 8 79 39 8 79 39 9 78 39 9 75 37 8 72 36 8 69 34 7 66 33 7 62 31 6 58 29 6 53 26 5 47 23 5 40 20 4 32 16 3 23 11 2 10 5 1 145 145 145 145 145 145 144 144 144 144 144 144 144 144 144 76 114 152 76 114 152 75 113 151 75 113 151 20 52 24 26 55 24 31 55 24 35 54 23 38 53 21 40 50 20 41 47 18 42 44 16 42 41 14 41 37 13 39 33 11 36 28 9 31 22 7 21 14 4 136 136 136 135 135 135 71 107 143 71 107 143 71 106 142 71 106 142 70 106 141 70 105 141 132 132 132 131 131 131 131 131 131 130 130 130 130 130 130 69 103 138 68 103 137 68 102 136 68 102 136 67 101 135 127 127 127 126 126 126 126 126 126 125 125 125 
78 117 156 78 117 156 78 117 157 78 117 157 148 148 148 148 148 148 148 148 148 148 148 148 149 149 149 79 118 158 79 119 158 79 119 159 177 142 17 189 189 189 193 193 193 194 194 194 191 153 19 187 150 18 181 145 18 174 174 174 165 165 165 154 154 154 142 113 14 128 102 12 111 89 11 92 92 92 69 69 69 37 37 37 150 150 150 150 150 150 79 119 159 79 119 159 79 119 159 79 119 159 7 63 31 7 71 35 8 75 37 8 77 38 8 79 39 8 79 39 8 78 39 35 104 65 45 113 75 8 74 37 7 72 36 7 69 34 7 65 32 6 61 30 6 57 28 5 52 26 5 46 23 4 40 20 3 32 16 2 23 11 1 10 5 145 145 145 144 144 144 144 144 144 144 144 144 143 143 143 76 114 152 76 114 152 75 113 151 19 55 25 25 58 26 30 59 26 34 59 25 38 57 24 41 55 22 43 52 20 44 50 19 45 46 17 46 43 15 45 39 13 43 35 11 41 31 9 37 26 8 30 20 6 20 12 3 135 135 135 71 107 143 71 107 142 71 106 142 70 106 141 70 106 141 70 105 140 132 132 132 131 131 131 131 131 131 130 130 130 130 130 130 68 103 137 68 102 137 68 102 136 68 102 136 67 101 135 127 127 127 126 126 126 126 126 126 125 125 125 
78 117 156 78 117 156 78 117 156 78 117 157 148 148 148 148 148 148 148 148 148 148 148 148 148 148 148 79 118 158 79 118 158 175 140 17 192 153 19 198 198 198 200 200 200 199 159 19 196 157 19 191 153 19 185 148 18 177 142 17 168 168 168 158 158 158 146 146 146 133 106 13 117 94 11 100 80 10 79 79 79 53 53 53 25 25 25 150 150 150 79 119 159 79 119 159 79 119 159 79 119 159 7 63 31 7 70 35 8 74 37 8 76 38 8 77 38 8 78 39 8 77 38 11 79 40 10 77 40 8 73 36 7 70 35 7 68 34 7 64 32 6 60 30 6 56 28 5 51 25 5 46 23 4 39 19 3 32 16 2 22 11 1 10 5 144 144 144 144 144 144 144 144 144 143 143 143 143 143 143 76 114 152 75 113 151 16 55 26 22 60 27 28 62 27 33 62 27 37 60 25 40 59 24 43 56 22 45 54 21 47 51 19 48 48 17 48 44 15 47 41 14 46 37 12 44 32 10 40 28 8 35 23 6 28 17 4 14 8 2 71 107 143 71 107 142 71 106 142 70 106 141 70 105 141 70 105 140 131 131 131 131 131 131 130 130 130 130 130 130 130 130 130 68 103 137 68 102 137 68 102 136 68 102 136 67 101 135 127 127 127 126 126 126 126 126 126 125 125 125 
77 116 155 78 117 156 78 117 156 78 117 156 147 147 147 147 147 147 148 148 148 148 148 148 148 148 148 79 118 158 158 158 158 189 151 18 198 198 198 202 202 202 203 162 20 202 161 20 198 158 19 193 154 19 187 149 18 179 143 17 170 170 170 160 160 160 148 148 148 135 108 13 120 96 12 103 82 10 84 84 84 60 60 60 30 30 30 150 150 150 79 119 159 79 119 159 79 119 159 79 119 159 6 62 31 7 69 34 8 72 36 8 75 37 8 76 38 8 76 38 8 76 38 8 75 37 8 73 36 7 71 35 7 69 34 7 66 33 6 63 31 6 59 29 6 54 27 5 50 25 4 44 22 4 38 19 3 30 15 2 21 10 1 10 5 144 144 144 144 144 144 144 144 144 143 143 143 143 143 143 75 113 151 10 50 24 19 60 28 25 63 28 30 63 28 34 63 27 38 62 26 41 60 24 44 57 23 46 55 21 48 52 19 49 48 17 49 45 16 49 41 14 48 37 12 46 33 10 43 29 8 38 24 7 32 19 5 22 12 3 71 107 142 71 106 142 70 106 141 70 106 141 70 105 141 132 132 132 131 131 131 131 131 131 130 130 130 130 130 130 129 129 129 68 103 137 68 102 136 68 102 136 67 101 135 67 101 135 126 126 126 126 126 126 125 125 125 125 125 125 
77 116 155 77 116 155 78 117 156 78 117 156 147 147 147 147 147 147 147 147 147 148 148 148 148 148 148 78 118 157 177 142 17 194 155 19 201 201 201 204 204 204 204 163 20 202 161 20 198 158 19 193 154 19 186 149 18 179 179 179 170 170 170 160 160 160 148 148 148 135 108 13 121 96 12 104 83 10 86 86 86 64 64 64 37 37 37 25 25 25 79 119 159 79 119 158 79 119 158 79 119 158 59 29 6 66 33 7 70 35 7 72 36 8 74 37 8 74 37 8 74 37 8 73 36 8 71 35 7 69 34 7 67 33 7 64 32 7 61 30 6 57 28 6 52 26 5 47 23 5 42 21 4 35 17 3 28 14 3 19 9 2 10 5 1 144 144 144 144 144 144 143 143 143 143 143 143 143 143 143 75 113 151 14 56 27 21 62 29 26 64 29 31 64 28 35 63 27 39 62 26 42 60 24 45 57 23 47 55 21 49 52 19 50 49 17 50 45 16 50 42 14 49 38 12 47 34 10 44 30 8 40 25 7 34 20 5 26 14 3 11 6 1 71 106 142 70 106 141 70 105 141 70 105 140 132 132 132 131 131 131 131 131 131 130 130 130 130 130 130 129 129 129 68 102 137 68 102 136 68 102 136 67 101 135 67 101 135 126 126 126 126 126 126 125 125 125 125 125 125 
0 0 0 0 0 0 0 0 0 0 0 0 84 84 84 84 84 84 84 84 84 84 84 84 85 85 85 0 0 0 183 146 18 195 156 19 201 201 201 203 203 203 203 203 203 201 160 20 204 164 26 202 164 29 185 185 185 177 177 177 168 168 168 158 158 158 146 117 14 134 107 13 120 96 12 104 83 10 85 85 85 64 64 64 39 39 39 25 25 25 0 0 0 0 0 0 0 0 0 0 0 0 10 5 1 63 31 6 67 33 7 70 35 7 71 35 7 71 35 7 71 35 7 70 35 7 69 34 7 67 33 7 64 32 7 61 30 6 58 29 6 54 27 6 50 25 5 45 22 4 39 19 4 33 16 3 25 12 2 16 8 1 10 5 1 83 83 83 83 83 83 82 82 82 82 82 82 82 82 82 0 0 0 15 59 28 22 63 29 27 64 29 32 64 28 36 63 27 40 62 26 43 60 24 46 58 23 48 55 21 49 52 19 50 48 17 51 45 15 50 42 14 50 38 12 48 34 10 45 30 8 41 25 7 36 21 5 28 15 3 16 8 2 0 0 0 0 0 0 0 0 0 0 0 0 0 0 0 77 77 77 77 77 77 76 76 76 76 76 76 76 76 76 0 0 0 0 0 0 0 0 0 0 0 0 0 0 0 75 75 75 74 74 74 74 74 74 74 74 74 
90 90 90 90 90 90 90 90 90 90 90 90 0 0 0 0 0 0 0 0 0 0 0 0 0 0 0 150 150 150 183 146 18 194 155 19 199 199 199 201 201 201 200 200 200 198 198 198 214 214 214 201 201 201 182 182 182 174 174 174 165 165 165 155 155 155 143 115 14 131 105 13 117 93 11 101 81 10 83 83 83 63 63 63 38 38 38 25 25 25 0 0 0 0 0 0 0 0 0 91 91 91 1 10 5 58 29 6 63 31 6 66 33 7 67 33 7 68 34 7 68 34 7 67 33 7 65 32 7 64 32 7 61 30 6 58 29 6 55 27 6 51 25 5 47 23 5 42 21 4 36 18 4 29 14 3 21 10 2 1 11 5 1 10 5 0 0 0 88 88 88 88 88 88 25 25 25 25 25 25 8 48 23 16 59 28 22 63 29 28 64 29 32 64 28 36 63 27 40 61 25 44 60 25 112 123 89 52 58 25 49 51 19 50 48 17 51 45 15 50 41 13 49 37 12 48 34 10 45 30 8 41 25 7 36 21 5 29 16 3 18 9 2 83 83 83 83 83 83 82 82 82 82 82 82 0 0 0 0 0 0 0 0 0 0 0 0 0 0 0 81 81 81 80 80 80 80 80 80 80 80 80 80 80 80 80 80 80 0 0 0 0 0 0 0 0 0 0 0 0 
96 96 96 96 96 96 96 96 96 97 97 97 97 97 97 0 0 0 0 0 0 0 0 0 0 0 0 153 153 153 180 144 18 190 152 19 195 156 19 197 197 197 196 196 196 193 193 193 189 189 189 184 184 184 177 177 177 169 169 169 160 160 160 150 120 15 139 111 13 127 101 12 113 90 11 97 97 97 79 79 79 59 59 59 34 34 34 25 25 25 97 97 97 0 0 0 0 0 0 0 0 0 0 0 0 1 10 5 6 58 29 6 61 30 7 63 31 7 64 32 7 64 32 6 63 31 6 62 31 6 60 30 6 58 29 6 55 27 5 51 25 5 47 23 4 43 21 4 38 19 3 32 16 2 25 12 1 17 8 1 10 5 1 10 5 25 25 25 0 0 0 0 0 0 0 0 0 0 0 0 9 49 24 16 59 28 22 62 28 27 63 28 32 63 27 36 62 26 40 60 25 43 58 24 52 63 29 48 53 20 49 50 18 50 47 17 50 44 15 50 40 13 49 37 11 47 33 10 44 29 8 41 25 7 35 20 5 28 15 3 18 9 2 1 9 4 0 0 0 0 0 0 0 0 0 0 0 0 0 0 0 0 0 0 0 0 0 85 85 85 85 85 85 85 85 85 85 85 85 84 84 84 84 84 84 0 0 0 0 0 0 0 0 0 0 0 0 0 0 0 
102 102 102 102 102 102 102 102 102 102 102 102 102 102 102 102 102 102 102 102 102 0 0 0 0 0 0 147 147 147 174 139 17 185 148 18 189 151 18 191 153 19 190 190 190 188 188 188 184 184 184 178 178 178 171 171 171 164 131 16 155 124 15 145 116 14 133 107 13 121 97 12 107 107 107 91 91 91 73 73 73 53 53 53 28 28 28 25 20 2 102 102 102 102 102 102 102 102 102 102 102 102 101 101 101 1 10 5 5 52 26 6 56 28 6 58 29 6 59 29 6 59 29 6 59 29 6 58 29 6 56 28 5 53 26 5 50 25 5 47 23 4 43 21 4 39 19 3 33 16 3 27 13 2 20 10 1 10 5 1 10 5 0 0 0 0 0 0 0 0 0 25 25 25 25 25 25 25 25 25 9 47 23 16 57 27 22 60 28 27 61 27 31 61 27 35 60 26 39 59 24 42 57 23 44 54 21 46 52 20 48 49 18 49 46 16 49 43 14 49 39 13 48 36 11 46 32 9 43 28 8 39 24 6 34 20 5 27 15 3 17 8 2 1 9 4 0 0 0 0 0 0 0 0 0 91 91 91 90 90 90 90 90 90 90 90 90 90 90 90 89 89 89 89 89 89 89 89 89 0 0 0 0 0 0 0 0 0 0 0 0 0 0 0 0 0 0 0 0 0 
0 0 0 0 0 0 0 0 0 108 108 108 108 108 108 108 108 108 108 108 108 108 108 108 108 108 108 132 132 132 166 166 166 177 141 17 182 145 18 184 147 18 183 146 18 181 144 18 176 141 17 171 137 17 165 132 16 157 125 15 148 118 14 138 110 13 126 101 12 114 91 11 100 100 100 84 84 84 66 66 66 45 45 45 25 25 25 25 20 2 0 0 0 0 0 0 0 0 0 0 0 0 106 106 106 106 106 106 10 5 1 49 24 5 5 52 26 5 54 27 6 54 27 5 54 27 5 53 26 5 51 25 5 48 24 5 46 23 4 42 21 4 38 19 3 33 16 3 28 14 2 21 10 13 6 1 10 5 1 25 25 25 25 25 25 25 25 25 25 25 25 25 25 25 0 0 0 0 0 0 8 43 21 15 54 25 21 58 27 26 59 26 30 59 26 34 58 25 38 57 24 41 55 22 43 53 21 45 50 19 46 47 17 47 44 16 47 41 14 47 38 12 46 34 11 44 31 9 41 27 7 37 23 6 32 18 4 25 13 3 15 7 1 1 9 4 95 95 95 95 95 95 95 95 95 95 95 95 94 94 94 94 94 94 94 94 94 0 0 0 0 0 0 0 0 0 0 0 0 0 0 0 0 0 0 0 0 0 0 0 0 91 91 91 91 91 91 91 91 91 
0 0 0 0 0 0 0 0 0 0 0 0 0 0 0 0 0 0 0 0 0 0 0 0 113 113 113 113 113 113 154 154 154 167 167 167 172 138 17 175 140 17 174 139 17 172 137 17 168 134 16 163 130 16 156 125 15 149 119 14 140 112 14 129 103 12 118 118 118 105 105 105 91 91 91 75 75 75 57 57 57 35 35 35 25 25 25 25 20 2 111 111 111 111 111 111 111 111 111 0 0 0 0 0 0 0 0 0 10 5 1 40 20 4 44 22 4 47 23 5 48 24 5 48 24 5 47 23 5 45 22 4 43 21 4 40 20 4 36 18 4 32 16 3 27 13 3 21 10 2 14 7 1 10 5 1 10 5 1 0 0 0 0 0 0 0 0 0 0 0 0 0 0 0 25 25 25 25 25 25 25 25 25 14 51 24 20 55 25 25 57 25 29 57 25 33 56 24 36 55 23 39 53 21 41 51 20 43 48 18 45 46 17 45 43 15 46 40 13 45 36 12 44 33 10 42 29 9 39 25 7 35 21 5 29 17 4 22 12 2 11 5 1 25 25 25 25 25 25 25 25 25 0 0 0 0 0 0 0 0 0 0 0 0 0 0 0 0 0 0 0 0 0 0 0 0 96 96 96 96 96 96 96 96 96 95 95 95 95 95 95 95 95 95 95 95 95 94 94 94 
117 117 117 117 117 117 117 117 117 117 117 117 117 117 117 0 0 0 0 0 0 0 0 0 0 0 0 0 0 0 136 136 136 153 153 153 161 161 161 164 131 16 164 131 16 162 129 16 158 126 15 153 122 15 147 117 14 139 111 13 130 104 13 120 120 120 108 108 108 95 95 95 81 81 81 64 64 64 45 45 45 25 25 25 25 20 2 25 25 25 0 0 0 0 0 0 25 25 25 25 25 25 25 25 25 25 25 25 25 25 25 10 5 1 34 17 3 38 19 4 40 20 4 40 20 4 39 19 4 38 19 4 36 18 3 33 16 3 29 14 3 25 12 2 19 9 2 12 6 1 10 5 1 10 5 1 25 25 25 25 25 25 25 25 25 25 25 25 25 25 25 25 25 25 25 25 25 0 0 0 0 0 0 12 45 21 18 51 23 23 53 24 27 54 23 31 53 23 34 52 22 37 50 20 39 48 19 41 46 17 42 43 16 43 41 14 43 38 13 43 34 11 41 31 10 39 27 8 36 23 6 32 19 5 26 15 3 18 9 2 9 5 1 0 0 0 0 0 0 0 0 0 0 0 0 0 0 0 25 25 25 25 25 25 25 25 25 25 25 25 25 25 25 100 100 100 100 100 100 99 99 99 99 99 99 0 0 0 0 0 0 0 0 0 0 0 0 0 0 0 
0 0 0 122 122 122 122 122 122 122 122 122 122 122 122 121 121 121 121 121 121 121 121 121 121 121 121 121 121 121 100 100 100 136 136 136 146 146 146 151 151 151 151 151 151 150 150 150 147 147 147 142 142 142 135 135 135 128 128 128 119 119 119 108 108 108 97 97 97 83 83 83 68 68 68 51 51 51 31 31 31 25 20 2 25 20 2 25 25 25 0 0 0 0 0 0 0 0 0 0 0 0 0 0 0 0 0 0 0 0 0 0 0 0 0 0 0 2 24 12 3 28 14 3 30 15 3 30 15 3 29 14 3 27 13 2 24 12 2 20 10 1 15 7 1 10 5 1 10 5 0 0 0 0 0 0 0 0 0 0 0 0 0 0 0 0 0 0 0 0 0 0 0 0 0 0 0 0 0 0 112 112 112 9 36 17 16 46 21 21 49 22 25 50 22 29 50 21 32 49 20 35 47 19 37 46 18 39 43 16 40 41 15 40 38 13 40 35 12 39 32 10 38 29 9 36 25 7 32 21 6 28 17 4 21 12 3 12 6 1 9 5 1 25 25 25 25 25 25 25 25 25 25 25 25 25 25 25 25 25 25 25 25 25 25 25 25 0 0 0 0 0 0 0 0 0 0 0 0 0 0 0 0 0 0 0 0 0 0 0 0 0 0 0 0 0 0 101 101 101 
126 126 126 126 126 126 126 126 126 126 126 126 126 126 126 125 125 125 125 125 125 125 125 125 0 0 0 0 0 0 0 0 0 110 110 110 128 128 128 134 134 134 136 136 136 136 136 136 133 133 133 128 128 128 122 122 122 115 115 115 106 106 106 95 95 95 83 83 83 69 69 69 54 54 54 36 36 36 25 20 2 25 20 2 25 25 25 0 0 0 0 0 0 0 0 0 0 0 0 0 0 0 0 0 0 0 0 0 0 0 0 0 0 0 0 0 0 0 0 0 25 25 25 1 12 6 1 15 7 1 16 8 1 14 7 1 11 5 1 10 5 1 10 5 25 25 25 25 25 25 0 0 0 0 0 0 0 0 0 0 0 0 0 0 0 0 0 0 0 0 0 0 0 0 0 0 0 0 0 0 115 115 115 115 115 115 12 38 18 18 43 19 22 45 20 26 46 19 29 45 19 32 44 18 34 42 16 35 40 15 36 38 14 37 35 12 37 32 11 36 29 9 34 26 8 31 22 6 28 18 5 23 14 3 15 9 2 9 5 1 0 0 0 25 25 25 25 25 25 25 25 25 25 25 25 25 25 25 25 25 25 25 25 25 25 25 25 25 25 25 25 25 25 106 106 106 0 0 0 0 0 0 0 0 0 0 0 0 0 0 0 0 0 0 0 0 0 0 0 0 
0 0 0 0 0 0 0 0 0 0 0 0 0 0 0 0 0 0 129 129 129 129 129 129 129 129 129 129 129 129 129 129 129 129 129 129 100 100 100 113 113 113 118 118 118 119 119 119 117 117 117 112 112 112 107 107 107 99 99 99 90 90 90 79 79 79 67 67 67 52 52 52 36 36 36 25 20 2 25 20 2 25 25 25 25 25 25 25 25 25 25 25 25 25 25 25 25 25 25 25 25 25 25 25 25 25 25 25 25 25 25 25 25 25 25 25 25 0 0 0 0 0 0 0 0 0 0 0 0 0 0 0 0 0 0 0 0 0 0 0 0 0 0 0 0 0 0 0 0 0 121 121 121 121 121 121 121 121 121 120 120 120 120 120 120 120 120 120 119 119 119 119 119 119 119 119 119 119 119 119 118 118 118 0 0 0 6 22 10 14 36 16 19 39 17 22 41 17 26 41 17 28 40 16 30 38 15 32 36 14 33 34 13 33 32 11 33 29 10 31 26 8 29 22 7 26 19 5 22 15 4 16 10 2 9 5 1 25 25 25 25 25 25 25 25 25 25 25 25 0 0 0 0 0 0 0 0 0 0 0 0 0 0 0 0 0 0 0 0 0 0 0 0 0 0 0 0 0 0 0 0 0 108 108 108 108 108 108 107 107 107 107 107 107 107 107 107 107 107 107 
0 0 0 0 0 0 0 0 0 133 133 133 133 133 133 133 133 133 132 132 132 132 132 132 132 132 132 132 132 132 132 132 132 132 132 132 132 132 132 80 80 80 93 93 93 97 97 97 96 96 96 93 93 93 88 88 88 80 80 80 71 71 71 60 60 60 47 47 47 31 25 3 25 20 2 25 20 2 25 25 25 25 25 25 25 25 25 25 25 25 25 25 25 25 25 25 25 25 25 25 25 25 25 25 25 25 25 25 127 127 127 127 127 127 0 0 0 0 0 0 0 0 0 0 0 0 0 0 0 0 0 0 0 0 0 0 0 0 0 0 0 0 0 0 0 0 0 0 0 0 124 124 124 124 124 124 123 123 123 123 123 123 123 123 123 123 123 123 122 122 122 122 122 122 122 122 122 121 121 121 121 121 121 121 121 121 0 0 0 7 21 10 14 31 14 18 34 15 21 35 14 24 35 14 26 33 13 27 32 12 28 30 11 28 27 10 28 25 8 26 22 7 24 18 6 20 14 4 15 10 3 8 5 1 9 5 1 25 25 25 25 25 25 25 25 25 25 25 25 25 25 25 25 25 25 0 0 0 0 0 0 0 0 0 0 0 0 0 0 0 0 0 0 0 0 0 0 0 0 0 0 0 0 0 0 0 0 0 0 0 0 110 110 110 109 109 109 109 109 109 
0 0 0 0 0 0 0 0 0 0 0 0 0 0 0 0 0 0 0 0 0 0 0 0 0 0 0 0 0 0 0 0 0 0 0 0 0 0 0 135 135 135 135 135 135 64 51 6 68 68 68 67 67 67 63 63 63 56 56 56 47 37 4 35 28 3 25 20 2 25 20 2 25 25 25 0 0 0 0 0 0 0 0 0 0 0 0 0 0 0 0 0 0 0 0 0 0 0 0 0 0 0 0 0 0 0 0 0 0 0 0 0 0 0 130 130 130 129 129 129 129 129 129 129 129 129 129 129 129 128 128 128 128 128 128 128 128 128 128 128 128 127 127 127 127 127 127 127 127 127 0 0 0 0 0 0 0 0 0 0 0 0 0 0 0 0 0 0 0 0 0 0 0 0 0 0 0 0 0 0 0 0 0 0 0 0 123 123 123 123 123 123 122 122 122 12 24 10 16 27 11 19 28 11 21 27 11 22 26 10 22 24 9 22 22 8 21 20 7 19 16 5 16 13 4 12 9 2 8 5 1 0 0 0 0 0 0 0 0 0 0 0 0 0 0 0 0 0 0 0 0 0 0 0 0 0 0 0 0 0 0 115 115 115 115 115 115 115 115 115 114 114 114 114 114 114 114 114 114 113 113 113 113 113 113 113 113 113 113 113 113 112 112 112 112 112 112 112 112 112 
0 0 0 0 0 0 0 0 0 0 0 0 0 0 0 0 0 0 0 0 0 0 0 0 0 0 0 0 0 0 0 0 0 138 138 138 138 138 138 138 138 138 137 137 137 137 137 137 137 137 137 25 20 2 25 20 2 25 20 2 25 20 2 25 25 25 25 25 25 25 25 25 0 0 0 0 0 0 0 0 0 0 0 0 0 0 0 0 0 0 0 0 0 0 0 0 0 0 0 0 0 0 0 0 0 0 0 0 0 0 0 133 133 133 132 132 132 132 132 132 132 132 132 131 131 131 131 131 131 131 131 131 131 131 131 130 130 130 130 130 130 130 130 130 130 130 130 129 129 129 0 0 0 0 0 0 0 0 0 0 0 0 0 0 0 0 0 0 0 0 0 0 0 0 0 0 0 0 0 0 0 0 0 0 0 0 0 0 0 125 125 125 125 125 125 125 125 125 6 12 5 11 17 7 13 19 7 15 18 7 15 17 6 15 15 5 13 12 4 10 9 3 7 6 2 7 6 1 0 0 0 0 0 0 0 0 0 0 0 0 0 0 0 0 0 0 0 0 0 0 0 0 0 0 0 0 0 0 0 0 0 0 0 0 0 0 0 117 117 117 117 117 117 116 116 116 116 116 116 116 116 116 115 115 115 115 115 115 115 115 115 115 115 115 114 114 114 114 114 114 
0 0 0 0 0 0 0 0 0 0 0 0 0 0 0 0 0 0 0 0 0 0 0 0 0 0 0 141 141 141 141 141 141 140 140 140 140 140 140 140 140 140 140 140 140 140 140 140 140 140 140 139 139 139 139 139 139 139 139 139 139 139 139 139 139 139 138 138 138 0 0 0 0 0 0 0 0 0 0 0 0 0 0 0 0 0 0 0 0 0 0 0 0 0 0 0 0 0 0 0 0 0 0 0 0 0 0 0 135 135 135 135 135 135 135 135 135 134 134 134 134 134 134 134 134 134 134 134 134 133 133 133 133 133 133 133 133 133 132 132 132 132 132 132 132 132 132 132 132 132 0 0 0 0 0 0 0 0 0 0 0 0 0 0 0 0 0 0 0 0 0 0 0 0 0 0 0 0 0 0 0 0 0 0 0 0 0 0 0 0 0 0 127 127 127 127 127 127 127 127 127 126 126 126 25 25 25 5 7 3 6 7 2 6 7 2 6 6 2 25 25 25 25 25 25 25 25 25 25 25 25 0 0 0 0 0 0 0 0 0 0 0 0 0 0 0 0 0 0 0 0 0 0 0 0 0 0 0 0 0 0 0 0 0 0 0 0 0 0 0 0 0 0 119 119 119 118 118 118 118 118 118 118 118 118 117 117 117 117 117 117 117 117 117 116 116 116 116 116 116 
145 145 145 144 144 144 144 144 144 144 144 144 144 144 144 144 144 144 144 144 144 0 0 0 0 0 0 0 0 0 0 0 0 0 0 0 0 0 0 0 0 0 0 0 0 0 0 0 0 0 0 0 0 0 0 0 0 0 0 0 0 0 0 141 141 141 141 141 141 141 141 141 140 140 140 140 140 140 140 140 140 140 140 140 139 139 139 139 139 139 139 139 139 139 139 139 138 138 138 138 138 138 138 138 138 138 138 138 0 0 0 0 0 0 0 0 0 0 0 0 0 0 0 0 0 0 0 0 0 0 0 0 0 0 0 0 0 0 0 0 0 0 0 0 0 0 0 0 0 0 133 133 133 133 133 133 133 133 133 133 133 133 132 132 132 132 132 132 132 132 132 131 131 131 131 131 131 131 131 131 130 130 130 130 130 130 130 130 130 130 130 130 0 0 0 0 0 0 0 0 0 0 0 0 0 0 0 0 0 0 0 0 0 0 0 0 0 0 0 0 0 0 0 0 0 0 0 0 0 0 0 0 0 0 0 0 0 125 125 125 124 124 124 124 124 124 124 124 124 123 123 123 123 123 123 123 123 123 122 122 122 122 122 122 122 122 122 121 121 121 121 121 121 121 121 121 120 120 120 0 0 0 0 0 0 0 0 0 0 0 0 0 0 0 0 0 0 0 0 0 
147 147 147 147 147 147 147 147 147 147 147 147 146 146 146 0 0 0 0 0 0 0 0 0 0 0 0 0 0 0 0 0 0 0 0 0 0 0 0 0 0 0 0 0 0 0 0 0 0 0 0 0 0 0 0 0 0 0 0 0 143 143 143 143 143 143 143 143 143 143 143 143 142 142 142 142 142 142 142 142 142 142 142 142 141 141 141 141 141 141 141 141 141 141 141 141 140 140 140 140 140 140 140 140 140 0 0 0 0 0 0 0 0 0 0 0 0 0 0 0 0 0 0 0 0 0 0 0 0 0 0 0 0 0 0 0 0 0 0 0 0 0 0 0 0 0 0 0 0 0 135 135 135 135 135 135 135 135 135 135 135 135 134 134 134 134 134 134 134 134 134 133 133 133 133 133 133 133 133 133 132 132 132 132 132 132 132 132 132 132 132 132 131 131 131 0 0 0 0 0 0 0 0 0 0 0 0 0 0 0 0 0 0 0 0 0 0 0 0 0 0 0 0 0 0 0 0 0 0 0 0 0 0 0 0 0 0 0 0 0 126 126 126 126 126 126 126 126 126 125 125 125 125 125 125 125 125 125 124 124 124 124 124 124 124 124 124 123 123 123 123 123 123 123 123 123 122 122 122 122 122 122 122 122 122 0 0 0 0 0 0 0 0 0 0 0 0 0 0 0 
149 149 149 149 149 149 149 149 149 0 0 0 0 0 0 0 0 0 0 0 0 0 0 0 0 0 0 0 0 0 0 0 0 0 0 0 0 0 0 0 0 0 0 0 0 0 0 0 0 0 0 0 0 0 0 0 0 146 146 146 145 145 145 145 145 145 145 145 145 145 145 145 144 144 144 144 144 144 144 144 144 144 144 144 143 143 143 143 143 143 143 143 143 143 143 143 142 142 142 142 142 142 0 0 0 0 0 0 0 0 0 0 0 0 0 0 0 0 0 0 0 0 0 0 0 0 0 0 0 0 0 0 0 0 0 0 0 0 0 0 0 0 0 0 0 0 0 0 0 0 137 137 137 137 137 137 137 137 137 136 136 136 136 136 136 136 136 136 136 136 136 135 135 135 135 135 135 135 135 135 134 134 134 134 134 134 134 134 134 133 133 133 133 133 133 133 133 133 0 0 0 0 0 0 0 0 0 0 0 0 0 0 0 0 0 0 0 0 0 0 0 0 0 0 0 0 0 0 0 0 0 0 0 0 0 0 0 0 0 0 0 0 0 128 128 128 127 127 127 127 127 127 127 127 127 126 126 126 126 126 126 126 126 126 126 126 126 125 125 125 125 125 125 125 125 125 124 124 124 124 124 124 124 124 124 123 123 123 123 123 123 0 0 0 0 0 0 0 0 0 
151 151 151 0 0 0 0 0 0 0 0 0 0 0 0 0 0 0 0 0 0 0 0 0 0 0 0 0 0 0 0 0 0 0 0 0 0 0 0 0 0 0 0 0 0 0 0 0 0 0 0 148 148 148 148 148 148 147 147 147 147 147 147 147 147 147 147 147 147 147 147 147 146 146 146 146 146 146 146 146 146 146 146 146 145 145 145 145 145 145 145 145 145 145 145 145 144 144 144 144 144 144 0 0 0 0 0 0 0 0 0 0 0 0 0 0 0 0 0 0 0 0 0 0 0 0 0 0 0 0 0 0 0 0 0 0 0 0 0 0 0 0 0 0 0 0 0 0 0 0 139 139 139 139 139 139 139 139 139 138 138 138 138 138 138 138 138 138 137 137 137 137 137 137 137 137 137 136 136 136 136 136 136 136 136 136 135 135 135 135 135 135 135 135 135 135 135 135 0 0 0 0 0 0 0 0 0 0 0 0 0 0 0 0 0 0 0 0 0 0 0 0 0 0 0 0 0 0 0 0 0 0 0 0 0 0 0 0 0 0 0 0 0 0 0 0 0 0 0 129 129 129 129 129 129 128 128 128 128 128 128 128 128 128 127 127 127 127 127 127 127 127 127 126 126 126 126 126 126 126 126 126 125 125 125 125 125 125 125 125 125 124 124 124 124 124 124 0 0 0 
153 153 153 153 153 153 153 153 153 153 153 153 152 152 152 152 152 152 152 152 152 152 152 152 152 152 152 151 151 151 151 151 151 151 151 151 151 151 151 151 151 151 150 150 150 150 150 150 0 0 0 0 0 0 0 0 0 0 0 0 0 0 0 0 0 0 0 0 0 0 0 0 0 0 0 0 0 0 0 0 0 0 0 0 0 0 0 0 0 0 0 0 0 0 0 0 0 0 0 146 146 146 145 145 145 145 145 145 145 145 145 145 145 145 144 144 144 144 144 144 144 144 144 143 143 143 143 143 143 143 143 143 143 143 143 142 142 142 142 142 142 142 142 142 141 141 141 141 141 141 0 0 0 0 0 0 0 0 0 0 0 0 0 0 0 0 0 0 0 0 0 0 0 0 0 0 0 0 0 0 0 0 0 0 0 0 0 0 0 0 0 0 0 0 0 0 0 0 0 0 0 136 136 136 135 135 135 135 135 135 135 135 135 134 134 134 134 134 134 134 134 134 133 133 133 133 133 133 133 133 133 132 132 132 132 132 132 132 132 132 131 131 131 131 131 131 131 131 131 131 131 131 0 0 0 0 0 0 0 0 0 0 0 0 0 0 0 0 0 0 0 0 0 0 0 0 0 0 0 0 0 0 0 0 0 0 0 0 0 0 0 0 0 0 0 0 0 0 0 0 
155 155 155 155 155 155 155 155 155 154 154 154 154 154 154 154 154 154 154 154 154 154 154 154 153 153 153 153 153 153 153 153 153 153 153 153 153 153 153 152 152 152 152 152 152 0 0 0 0 0 0 0 0 0 0 0 0 0 0 0 0 0 0 0 0 0 0 0 0 0 0 0 0 0 0 0 0 0 0 0 0 0 0 0 0 0 0 0 0 0 0 0 0 0 0 0 148 148 148 147 147 147 147 147 147 147 147 147 146 146 146 146 146 146 146 146 146 146 146 146 145 145 145 145 145 145 145 145 145 144 144 144 144 144 144 144 144 144 144 144 144 143 143 143 143 143 143 143 143 143 0 0 0 0 0 0 0 0 0 0 0 0 0 0 0 0 0 0 0 0 0 0 0 0 0 0 0 0 0 0 0 0 0 0 0 0 0 0 0 0 0 0 0 0 0 0 0 0 0 0 0 0 0 0 137 137 137 136 136 136 136 136 136 136 136 136 136 136 136 135 135 135 135 135 135 135 135 135 134 134 134 134 134 134 134 134 134 133 133 133 133 133 133 133 133 133 132 132 132 132 132 132 132 132 132 0 0 0 0 0 0 0 0 0 0 0 0 0 0 0 0 0 0 0 0 0 0 0 0 0 0 0 0 0 0 0 0 0 0 0 0 0 0 0 0 0 0 0 0 0 
157 157 157 156 156 156 156 156 156 156 156 156 156 156 156 156 156 156 155 155 155 155 155 155 155 155 155 155 155 155 155 155 155 154 154 154 154 154 154 0 0 0 0 0 0 0 0 0 0 0 0 0 0 0 0 0 0 0 0 0 0 0 0 0 0 0 0 0 0 0 0 0 0 0 0 0 0 0 0 0 0 0 0 0 0 0 0 0 0 0 0 0 0 0 0 0 149 149 149 149 149 149 148 148 148 148 148 148 148 148 148 148 148 148 147 147 147 147 147 147 147 147 147 146 146 146 146 146 146 146 146 146 146 146 146 145 145 145 145 145 145 145 145 145 144 144 144 144 144 144 0 0 0 0 0 0 0 0 0 0 0 0 0 0 0 0 0 0 0 0 0 0 0 0 0 0 0 0 0 0 0 0 0 0 0 0 0 0 0 0 0 0 0 0 0 0 0 0 0 0 0 0 0 0 138 138 138 138 138 138 138 138 138 137 137 137 137 137 137 137 137 137 136 136 136 136 136 136 136 136 136 135 135 135 135 135 135 135 135 135 135 135 135 134 134 134 134 134 134 134 134 134 133 133 133 133 133 133 133 133 133 0 0 0 0 0 0 0 0 0 0 0 0 0 0 0 0 0 0 0 0 0 0 0 0 0 0 0 0 0 0 0 0 0 0 0 0 0 0 0 
158 158 158 158 158 158 158 158 158 158 158 158 157 157 157 157 157 157 157 157 157 157 157 157 156 156 156 156 156 156 156 156 156 156 156 156 0 0 0 0 0 0 0 0 0 0 0 0 0 0 0 0 0 0 0 0 0 0 0 0 0 0 0 0 0 0 0 0 0 0 0 0 0 0 0 0 0 0 0 0 0 0 0 0 0 0 0 0 0 0 0 0 0 151 151 151 150 150 150 150 150 150 150 150 150 150 150 150 149 149 149 149 149 149 149 149 149 148 148 148 148 148 148 148 148 148 148 148 148 147 147 147 147 147 147 147 147 147 146 146 146 146 146 146 146 146 146 145 145 145 0 0 0 0 0 0 0 0 0 0 0 0 0 0 0 0 0 0 0 0 0 0 0 0 0 0 0 0 0 0 0 0 0 0 0 0 0 0 0 0 0 0 0 0 0 0 0 0 0 0 0 0 0 0 0 0 0 139 139 139 139 139 139 139 139 139 138 138 138 138 138 138 138 138 138 138 138 138 137 137 137 137 137 137 137 137 137 136 136 136 136 136 136 136 136 136 135 135 135 135 135 135 135 135 135 134 134 134 134 134 134 134 134 134 0 0 0 0 0 0 0 0 0 0 0 0 0 0 0 0 0 0 0 0 0 0 0 0 0 0 0 0 0 0 0 0 0 0 0 0 
160 160 160 159 159 159 159 159 159 159 159 159 159 159 159 159 159 159 158 158 158 158 158 158 158 158 158 158 158 158 157 157 157 0 0 0 0 0 0 0 0 0 0 0 0 0 0 0 0 0 0 0 0 0 0 0 0 0 0 0 0 0 0 0 0 0 0 0 0 0 0 0 0 0 0 0 0 0 0 0 0 0 0 0 0 0 0 0 0 0 152 152 152 152 152 152 152 152 152 151 151 151 151 151 151 151 151 151 151 151 151 150 150 150 150 150 150 150 150 150 149 149 149 149 149 149 149 149 149 149 149 149 148 148 148 148 148 148 148 148 148 147 147 147 147 147 147 147 147 147 0 0 0 0 0 0 0 0 0 0 0 0 0 0 0 0 0 0 0 0 0 0 0 0 0 0 0 0 0 0 0 0 0 0 0 0 0 0 0 0 0 0 0 0 0 0 0 0 0 0 0 0 0 0 0 0 0 0 0 0 140 140 140 140 140 140 140 140 140 139 139 139 139 139 139 139 139 139 139 139 139 138 138 138 138 138 138 138 138 138 137 137 137 137 137 137 137 137 137 136 136 136 136 136 136 136 136 136 135 135 135 135 135 135 135 135 135 0 0 0 0 0 0 0 0 0 0 0 0 0 0 0 0 0 0 0 0 0 0 0 0 0 0 0 0 0 0 0 0 0 
161 161 161 161 161 161 160 160 160 160 160 160 160 160 160 160 160 160 160 160 160 159 159 159 159 159 159 0 0 0 0 0 0 0 0 0 0 0 0 0 0 0 0 0 0 0 0 0 0 0 0 0 0 0 0 0 0 0 0 0 0 0 0 0 0 0 0 0 0 0 0 0 0 0 0 0 0 0 0 0 0 0 0 0 0 0 0 0 0 0 154 154 154 153 153 153 153 153 153 153 153 153 152 152 152 152 152 152 152 152 152 152 152 152 151 151 151 151 151 151 151 151 151 150 150 150 150 150 150 150 150 150 150 150 150 149 149 149 149 149 149 149 149 149 148 148 148 148 148 148 0 0 0 0 0 0 0 0 0 0 0 0 0 0 0 0 0 0 0 0 0 0 0 0 0 0 0 0 0 0 0 0 0 0 0 0 0 0 0 0 0 0 0 0 0 0 0 0 0 0 0 0 0 0 0 0 0 0 0 0 142 142 142 141 141 141 141 141 141 141 141 141 140 140 140 140 140 140 140 140 140 140 140 140 139 139 139 139 139 139 139 139 139 138 138 138 138 138 138 138 138 138 137 137 137 137 137 137 137 137 137 136 136 136 136 136 136 136 136 136 136 136 136 0 0 0 0 0 0 0 0 0 0 0 0 0 0 0 0 0 0 0 0 0 0 0 0 0 0 0 

