P3
100 50
255
20 20 20 20 20 20 21 21 21 17 17 17 17 17 17 17 17 17 12 13 12 12 13 12 12 14 13 13 15 14 13 14 16 16 19 22 17 20 24 23 23 24 23 23 23 23 23 23 23 23 23 19 19 19 19 19 19 19 19 19 19 19 19 19 19 19 23 23 23 23 23 23 23 23 23 18 18 18 45 45 45 74 74 74 58 58 58 58 58 58 74 74 74 73 73 73 73 73 73 57 57 57 57 57 57 56 56 56 56 56 56 55 55 55 70 70 70 70 70 70 69 69 69 52 61 73 44 48 55 40 46 43 37 41 39 37 41 38 36 40 38 37 38 37 36 36 36 49 49 49 49 49 49 48 48 48 61 61 61 60 60 60 59 59 59 58 58 58 58 58 58 45 45 45 45 45 45 58 58 58 58 58 58 57 57 57 45 45 45 46 46 46 45 45 45 44 44 44 55 55 55 55 55 55 53 53 53 53 53 53 52 52 52 41 41 41 41 41 41 40 40 40 13 13 13 52 52 52 53 53 53 63 63 63 54 54 54 52 52 52 52 52 52 53 53 53 62 62 62 62 62 62 57 57 57 67 67 67 54 54 54 63 63 63 63 63 63 58 58 58 58 58 58 68 68 68 58 58 58 64 64 64 55 55 55 64 64 64 64 64 64 51 51 51 60 61 61 59 60 60 
21 21 21 22 22 22 18 18 18 18 18 18 18 18 18 3 3 3 3 3 3 1 3 2 1 2 2 14 15 14 23 23 23 14 14 15 14 15 15 24 24 24 25 26 27 25 25 25 25 25 25 20 20 20 21 21 21 20 20 20 21 21 21 21 21 21 25 25 25 25 25 25 25 25 25 25 25 25 2 2 2 64 64 64 80 80 80 80 80 80 79 79 79 79 79 79 79 79 79 63 63 63 63 63 63 62 62 62 62 62 62 61 61 61 76 76 76 75 75 75 75 75 75 45 46 49 44 46 48 47 48 49 3 6 4 3 6 4 3 6 4 6 7 6 42 42 42 42 42 42 54 54 54 53 53 53 66 66 66 65 65 65 64 64 64 64 64 64 50 50 50 62 62 62 62 62 62 63 63 63 62 62 62 61 61 61 49 49 49 50 50 50 50 50 50 49 49 49 48 48 48 60 60 60 58 58 58 57 57 57 56 56 56 55 55 55 56 56 56 20 20 20 53 53 53 54 54 54 55 55 55 64 64 64 56 56 56 54 54 54 54 54 54 54 54 54 64 64 64 68 68 68 59 59 59 69 69 69 59 59 59 69 69 69 65 65 65 60 60 60 60 60 60 70 70 70 60 60 60 66 66 66 57 57 57 66 66 66 62 62 62 53 53 53 62 63 63 51 51 51 
21 21 21 34 34 34 22 22 22 22 22 22 22 22 22 5 5 5 6 14 9 12 25 17 12 26 17 6 13 9 4 5 8 13 19 29 9 14 20 18 18 18 24 24 24 39 39 39 24 24 24 24 24 24 25 25 25 24 24 24 25 25 25 40 40 40 40 40 40 40 40 40 40 40 40 40 40 40 24 24 24 66 66 66 78 78 78 129 129 129 129 129 129 129 129 129 128 128 128 128 128 128 76 76 76 76 76 76 76 76 76 75 75 75 124 124 124 74 74 74 73 73 73 43 65 97 18 27 41 24 54 36 37 84 56 21 48 32 10 23 15 17 17 17 10 10 10 10 10 10 67 67 67 66 66 66 66 66 66 108 108 108 64 64 64 64 64 64 63 63 63 103 103 103 103 103 103 103 103 103 102 102 102 101 101 101 62 62 62 62 62 62 62 62 62 60 60 60 60 60 60 97 97 97 95 95 95 59 59 59 57 57 57 56 56 56 91 91 91 71 71 71 54 54 54 55 55 55 55 55 55 76 76 76 57 57 57 58 58 58 58 58 58 59 59 59 68 68 68 80 80 80 71 71 71 81 81 81 72 72 72 82 82 82 70 70 70 60 60 60 61 61 61 83 83 83 74 74 74 70 70 70 61 61 61 53 53 53 53 53 53 46 46 46 54 55 55 52 56 53 
33 33 33 34 34 34 34 34 34 21 21 21 21 21 21 4 9 6 17 37 25 22 49 33 23 51 34 20 44 30 16 24 35 28 41 61 26 39 58 34 35 36 38 38 38 39 39 39 39 39 39 24 24 24 24 24 24 24 24 24 24 24 24 24 24 24 39 39 39 40 40 40 40 40 40 40 40 40 24 24 24 119 119 119 118 118 118 129 129 129 129 129 129 128 128 128 128 128 128 76 76 76 75 75 75 75 75 75 74 74 74 74 74 74 124 124 124 123 123 123 122 122 122 92 138 207 66 99 148 72 163 108 71 160 106 53 120 80 24 54 36 10 23 15 22 22 22 66 66 66 65 65 65 65 65 65 108 108 108 107 107 107 105 105 105 104 104 104 103 103 103 103 103 103 102 102 102 102 102 102 101 101 101 100 100 100 60 60 60 60 60 60 60 60 60 59 59 59 58 58 58 95 95 95 93 93 93 93 93 93 91 91 91 43 43 43 96 96 96 61 61 61 64 64 64 65 65 65 66 66 66 76 76 76 68 68 68 57 57 57 58 58 58 58 58 58 68 68 68 80 80 80 71 71 71 81 81 81 72 72 72 82 82 82 82 82 82 73 73 73 73 73 73 83 83 83 74 74 74 70 70 70 61 61 61 70 70 70 57 57 57 44 46 45 55 57 56 52 56 54 
34 34 34 34 34 34 35 35 35 21 21 21 21 21 21 22 22 22 22 49 33 28 62 42 47 84 62 27 60 40 17 36 24 27 40 60 26 39 58 37 38 41 42 47 53 39 39 39 39 39 39 24 24 24 25 25 25 25 25 25 25 25 25 25 25 25 40 40 40 41 41 41 25 25 25 25 25 25 24 24 24 121 121 121 68 68 68 68 68 68 79 79 79 132 132 132 131 131 131 78 78 78 77 77 77 77 77 77 76 76 76 76 76 76 127 127 127 126 126 126 125 125 125 90 136 204 73 110 166 93 210 140 176 255 222 74 167 111 44 100 66 10 23 15 68 68 68 68 68 68 67 67 67 66 66 66 110 110 110 108 108 108 107 107 107 106 106 106 105 105 105 62 62 62 62 62 62 62 62 62 102 102 102 61 61 61 60 60 60 61 61 61 61 61 61 59 59 59 96 96 96 96 96 96 94 94 94 94 94 94 77 77 77 59 59 59 62 62 62 61 61 61 65 65 65 66 66 66 67 67 67 77 77 77 69 69 69 58 58 58 58 58 58 59 59 59 69 69 69 69 69 69 72 72 72 70 70 70 60 60 60 70 70 70 70 70 70 74 74 74 74 74 74 84 84 84 74 74 74 71 71 71 61 61 61 71 71 71 67 69 68 44 46 45 56 57 56 52 56 54 
34 34 34 34 34 34 35 35 35 21 21 21 22 22 22 22 22 22 20 44 29 29 64 43 31 69 46 28 63 42 19 21 20 21 26 23 25 33 28 40 40 40 40 40 40 40 40 40 40 40 40 25 25 25 25 25 25 25 25 25 25 25 25 42 42 42 25 25 25 25 25 25 25 25 25 25 25 25 25 25 25 124 124 124 69 69 69 69 69 69 69 69 69 81 81 81 80 80 80 134 134 134 80 80 80 79 79 79 79 79 79 131 131 131 129 129 129 128 128 128 127 127 127 126 126 126 74 74 74 76 98 85 100 226 150 83 187 125 50 113 75 107 112 109 117 117 117 69 69 69 68 68 68 67 67 67 111 111 111 110 110 110 108 108 108 107 107 107 63 63 63 63 63 63 62 62 62 62 62 62 62 62 62 101 101 101 101 101 101 61 61 61 61 61 61 59 59 59 97 97 97 97 97 97 94 94 94 94 94 94 96 96 96 59 59 59 62 62 62 62 62 62 54 54 54 66 66 66 67 67 67 78 78 78 69 69 69 58 58 58 59 59 59 59 59 59 81 81 81 82 82 82 60 60 60 70 70 70 61 61 61 71 71 71 71 71 71 74 74 74 75 75 75 84 84 84 75 75 75 85 85 85 62 62 62 71 71 71 68 69 68 73 74 73 68 69 68 53 57 54 
34 34 34 34 34 34 35 35 35 21 21 21 36 36 36 36 36 36 37 37 37 38 38 38 23 23 23 20 22 21 23 28 25 33 42 36 30 43 35 40 40 40 40 40 40 41 41 41 41 41 41 41 41 41 42 42 42 42 42 42 42 42 42 42 42 42 42 42 42 26 26 26 26 26 26 26 26 26 26 26 26 71 71 71 71 71 71 71 71 71 71 71 71 70 70 70 137 137 137 137 137 137 136 136 136 135 135 135 134 134 134 133 133 133 132 132 132 131 131 131 130 130 130 129 129 129 76 76 76 75 75 75 80 103 89 65 74 69 110 115 112 120 120 120 119 119 119 117 117 117 116 116 116 68 68 68 112 112 112 111 111 111 110 110 110 108 108 108 64 64 64 63 63 63 63 63 63 63 63 63 63 63 63 102 102 102 101 101 101 101 101 101 100 100 100 98 98 98 97 97 97 97 97 97 95 95 95 98 98 98 61 61 61 60 60 60 63 63 63 62 62 62 55 55 55 67 67 67 68 68 68 78 78 78 70 70 70 59 59 59 71 71 71 72 72 72 82 82 82 82 82 82 61 61 61 71 71 71 62 62 62 71 71 71 71 71 71 75 75 75 76 76 76 85 85 85 76 76 76 86 86 86 77 77 77 86 86 86 82 84 83 73 75 74 83 84 83 69 73 71 
21 21 21 22 22 22 22 22 22 22 22 22 37 37 37 37 37 37 38 38 38 39 39 39 39 39 39 25 25 25 25 25 25 25 25 25 25 25 25 42 42 42 42 42 42 26 26 26 26 26 26 26 26 26 43 43 43 43 43 43 44 44 44 44 44 44 44 44 44 27 27 27 27 27 27 27 27 27 27 27 27 73 73 73 73 73 73 73 73 73 73 73 73 73 73 73 128 128 128 144 144 144 143 143 143 142 142 142 141 141 141 85 85 85 85 85 85 84 84 84 136 136 136 82 82 82 81 81 81 80 80 80 79 79 79 78 78 78 127 127 127 125 125 125 123 123 123 122 122 122 120 120 120 72 72 72 70 70 70 69 69 69 69 69 69 112 112 112 67 67 67 66 66 66 66 66 66 66 66 66 107 107 107 105 105 105 104 104 104 104 104 104 103 103 103 62 62 62 61 61 61 47 47 47 63 63 63 99 99 99 62 62 62 61 61 61 64 64 64 64 64 64 56 56 56 68 68 68 58 58 58 68 68 68 60 60 60 60 60 60 73 73 73 73 73 73 84 84 84 84 84 84 75 75 75 72 72 72 63 63 63 73 73 73 73 73 73 64 64 64 64 64 64 73 73 73 64 64 64 74 74 74 79 79 79 88 88 88 88 88 88 79 79 79 89 89 89 74 74 74 
22 22 22 21 21 21 21 21 21 21 21 21 36 36 36 37 37 37 37 37 37 38 38 38 38 38 38 24 24 24 24 24 24 24 24 24 40 40 40 41 41 41 25 25 25 25 25 25 25 25 25 26 26 26 43 43 43 43 43 43 43 43 43 43 43 43 43 43 43 26 26 26 26 26 26 26 26 26 44 44 44 131 131 131 131 131 131 73 73 73 73 73 73 73 73 73 130 130 130 129 129 129 140 140 140 140 140 140 83 83 83 82 82 82 81 81 81 81 81 81 80 80 80 132 132 132 131 131 131 77 77 77 76 76 76 75 75 75 125 125 125 123 123 123 121 121 121 120 120 120 118 118 118 69 69 69 68 68 68 67 67 67 66 66 66 110 110 110 109 109 109 108 108 108 63 63 63 64 64 64 105 105 105 103 103 103 102 102 102 102 102 102 101 101 101 60 60 60 59 59 59 67 67 67 63 63 63 62 62 62 98 98 98 97 97 97 63 63 63 74 74 74 67 67 67 68 68 68 58 58 58 68 68 68 59 59 59 60 60 60 72 72 72 73 73 73 83 83 83 84 84 84 75 75 75 72 72 72 63 63 63 85 85 85 86 86 86 77 77 77 63 63 63 73 73 73 63 63 63 73 73 73 64 64 64 88 88 88 88 88 88 79 79 79 88 88 88 69 69 69 
22 22 22 22 22 22 23 23 23 23 23 23 36 36 36 37 37 37 38 38 38 38 38 38 23 23 23 39 39 39 40 40 40 40 40 40 40 40 40 41 41 41 25 25 25 25 25 25 25 25 25 26 26 26 26 26 26 43 43 43 44 44 44 44 44 44 43 43 43 26 26 26 44 44 44 44 44 44 44 44 44 133 133 133 133 133 133 133 133 133 133 133 133 74 74 74 132 132 132 131 131 131 130 130 130 141 141 141 83 83 83 82 82 82 81 81 81 81 81 81 80 80 80 133 133 133 132 132 132 130 130 130 128 128 128 127 127 127 125 125 125 124 124 124 122 122 122 120 120 120 70 70 70 69 69 69 68 68 68 67 67 67 66 66 66 111 111 111 110 110 110 108 108 108 107 107 107 106 106 106 63 63 63 104 104 104 103 103 103 102 102 102 101 101 101 60 60 60 64 64 64 67 67 67 63 63 63 100 100 100 99 99 99 98 98 98 100 100 100 75 75 75 67 67 67 68 68 68 58 58 58 68 68 68 60 60 60 60 60 60 61 61 61 74 74 74 84 84 84 84 84 84 62 62 62 85 85 85 76 76 76 86 86 86 86 86 86 77 77 77 63 63 63 73 73 73 64 64 64 73 73 73 64 64 64 88 88 88 85 85 85 76 76 76 85 85 85 70 70 70 
23 23 23 23 23 23 23 23 23 23 23 23 23 23 23 24 24 24 25 25 25 24 24 24 23 23 23 24 24 24 41 41 41 41 41 41 41 41 41 42 42 42 26 26 26 26 26 26 26 26 26 26 26 26 27 27 27 44 44 44 27 27 27 27 27 27 27 27 27 27 27 27 45 45 45 45 45 45 45 45 45 136 136 136 136 136 136 136 136 136 135 135 135 75 75 75 75 75 75 75 75 75 74 74 74 132 132 132 85 85 85 84 84 84 84 84 84 83 83 83 138 138 138 136 136 136 135 135 135 133 133 133 131 131 131 77 77 77 76 76 76 75 75 75 74 74 74 123 123 123 72 72 72 71 71 71 70 70 70 69 69 69 68 68 68 113 113 113 112 112 112 110 110 110 109 109 109 65 65 65 65 65 65 64 64 64 63 63 63 63 63 63 63 63 63 65 65 65 65 65 65 68 68 68 64 64 64 101 101 101 100 100 100 99 99 99 101 101 101 76 76 76 68 68 68 70 70 70 59 59 59 70 70 70 61 61 61 61 61 61 62 62 62 62 62 62 72 72 72 73 73 73 63 63 63 73 73 73 77 77 77 87 87 87 87 87 87 78 78 78 78 78 78 74 74 74 64 64 64 70 70 70 61 61 61 85 85 85 70 70 70 61 61 61 70 70 70 70 70 70 
23 23 23 23 23 23 38 38 38 38 38 38 39 39 39 24 24 24 25 25 25 25 25 25 24 24 24 26 26 26 41 41 41 41 41 41 41 41 41 42 42 42 42 42 42 26 26 26 26 26 26 44 44 44 44 44 44 26 26 26 27 27 27 27 27 27 26 26 26 27 27 27 45 45 45 45 45 45 45 45 45 137 137 137 138 138 138 137 137 137 137 137 137 76 76 76 75 75 75 75 75 75 75 75 75 133 133 133 132 132 132 141 141 141 82 82 82 82 82 82 137 137 137 136 136 136 134 134 134 133 133 133 131 131 131 76 76 76 75 75 75 74 74 74 73 73 73 72 72 72 121 121 121 119 119 119 69 69 69 68 68 68 114 114 114 113 113 113 112 112 112 110 110 110 109 109 109 65 65 65 64 64 64 63 63 63 62 62 62 67 67 67 109 109 109 105 105 105 105 105 105 69 69 69 64 64 64 102 102 102 101 101 101 99 99 99 101 101 101 76 76 76 68 68 68 70 70 70 71 71 71 70 70 70 73 73 73 73 73 73 74 74 74 62 62 62 72 72 72 73 73 73 63 63 63 73 73 73 77 77 77 87 87 87 87 87 87 77 77 77 75 75 75 70 70 70 61 61 61 85 85 85 76 76 76 85 85 85 70 70 70 61 61 61 70 70 70 70 70 70 
23 23 23 37 37 37 38 38 38 38 38 38 39 39 39 24 24 24 25 25 25 25 25 25 24 24 24 26 26 26 42 42 42 42 42 42 42 42 42 42 42 42 25 25 25 43 43 43 43 43 43 43 43 43 44 44 44 44 44 44 26 26 26 26 26 26 26 26 26 26 26 26 26 26 26 45 45 45 44 44 44 139 139 139 139 139 139 138 138 138 76 76 76 76 76 76 75 75 75 75 75 75 74 74 74 134 134 134 133 133 133 132 132 132 138 138 138 136 136 136 77 77 77 133 133 133 132 132 132 130 130 130 128 128 128 73 73 73 72 72 72 71 71 71 70 70 70 120 120 120 118 118 118 116 116 116 115 115 115 113 113 113 65 65 65 110 110 110 109 109 109 108 108 108 106 106 106 62 62 62 62 62 62 60 60 60 60 60 60 67 67 67 109 109 109 105 105 105 105 105 105 107 107 107 64 64 64 63 63 63 100 100 100 99 99 99 101 101 101 75 75 75 68 68 68 58 58 58 58 58 58 81 81 81 72 72 72 72 72 72 73 73 73 74 74 74 71 71 71 72 72 72 62 62 62 72 72 72 76 76 76 83 83 83 84 84 84 74 74 74 60 60 60 84 84 84 75 75 75 85 85 85 76 76 76 85 85 85 70 70 70 61 61 61 70 70 70 70 70 70 
23 23 23 38 38 38 38 38 38 39 39 39 39 39 39 40 40 40 25 25 25 26 26 26 25 25 25 26 26 26 26 26 26 25 25 25 25 25 25 27 27 27 26 26 26 44 44 44 43 43 43 44 44 44 44 44 44 44 44 44 26 26 26 26 26 26 26 26 26 26 26 26 26 26 26 26 26 26 26 26 26 77 77 77 77 77 77 141 141 141 77 77 77 77 77 77 76 76 76 76 76 76 75 75 75 136 136 136 135 135 135 133 133 133 132 132 132 77 77 77 76 76 76 75 75 75 75 75 75 74 74 74 73 73 73 72 72 72 71 71 71 70 70 70 69 69 69 120 120 120 118 118 118 116 116 116 114 114 114 113 113 113 64 64 64 17 17 17 18 18 18 17 17 17 106 106 106 61 61 61 61 61 61 60 60 60 64 64 64 109 109 109 109 109 109 106 106 106 105 105 105 108 108 108 64 64 64 63 63 63 63 63 63 62 62 62 64 64 64 64 64 64 56 56 56 58 58 58 58 58 58 81 81 81 72 72 72 72 72 72 73 73 73 74 74 74 71 71 71 71 71 71 60 60 60 70 70 70 60 60 60 57 57 57 57 57 57 47 47 47 61 61 61 70 70 70 75 75 75 85 85 85 76 76 76 86 86 86 70 70 70 61 61 61 70 70 70 70 70 70 
9 9 9 11 11 11 11 11 11 39 39 39 40 40 40 40 40 40 26 26 26 26 26 26 41 41 41 43 43 43 43 43 43 26 26 26 26 26 26 27 27 27 27 27 27 27 27 27 45 45 45 46 46 46 46 46 46 45 45 45 27 27 27 27 27 27 45 45 45 46 46 46 46 46 46 26 26 26 26 26 26 78 78 78 79 79 79 78 78 78 143 143 143 142 142 142 77 77 77 77 77 77 140 140 140 138 138 138 137 137 137 136 136 136 134 134 134 72 72 72 77 77 77 76 76 76 76 76 76 75 75 75 130 130 130 128 128 128 126 126 126 71 71 71 70 70 70 121 121 121 119 119 119 25 25 25 25 25 25 17 17 17 17 17 17 17 17 17 18 18 18 18 18 18 26 26 26 27 27 27 27 27 27 107 107 107 64 64 64 110 110 110 110 110 110 106 106 106 106 106 106 109 109 109 65 65 65 64 64 64 63 63 63 62 62 62 102 102 102 65 65 65 57 57 57 58 58 58 59 59 59 69 69 69 72 72 72 73 73 73 73 73 73 72 72 72 70 70 70 70 70 70 50 50 50 60 60 60 50 50 50 57 57 57 57 57 57 47 47 47 47 47 47 56 56 56 49 49 49 58 58 58 76 76 76 86 86 86 86 86 86 61 61 61 87 87 87 87 87 87 
8 8 8 8 8 8 11 11 11 11 11 11 11 11 11 25 25 25 42 42 42 43 43 43 42 42 42 43 43 43 44 44 44 26 26 26 26 26 26 27 27 27 27 27 27 27 27 27 45 45 45 46 46 46 47 47 47 27 27 27 28 28 28 47 47 47 46 46 46 46 46 46 46 46 46 26 26 26 26 26 26 79 79 79 80 80 80 145 145 145 145 145 145 144 144 144 144 144 144 143 143 143 77 77 77 140 140 140 139 139 139 137 137 137 136 136 136 73 73 73 72 72 72 76 76 76 75 75 75 74 74 74 130 130 130 128 128 128 126 126 126 124 124 124 69 69 69 16 16 16 23 23 23 23 23 23 23 23 23 16 16 16 16 16 16 16 16 16 17 17 17 17 17 17 25 25 25 18 18 18 30 30 30 29 29 29 107 107 107 68 68 68 69 69 69 107 107 107 106 106 106 69 69 69 65 65 65 64 64 64 63 63 63 62 62 62 102 102 102 65 65 65 57 57 57 58 58 58 59 59 59 69 69 69 71 71 71 71 71 71 72 72 72 60 60 60 70 70 70 60 60 60 50 50 50 60 60 60 50 50 50 57 57 57 57 57 57 47 47 47 47 47 47 56 56 56 48 48 48 58 58 58 48 48 48 55 55 55 71 71 71 78 78 78 88 88 88 88 88 88 
8 8 8 8 8 8 9 9 9 8 8 8 8 8 8 8 8 8 9 9 9 43 43 43 42 42 42 44 44 44 44 44 44 44 44 44 26 26 26 28 28 28 27 27 27 27 27 27 27 27 27 28 28 28 28 28 28 28 28 28 28 28 28 48 48 48 47 47 47 47 47 47 47 47 47 46 46 46 26 26 26 80 80 80 80 80 80 147 147 147 147 147 147 146 146 146 145 145 145 144 144 144 78 78 78 77 77 77 76 76 76 75 75 75 74 74 74 73 73 73 72 72 72 71 71 71 74 74 74 131 131 131 129 129 129 127 127 127 125 125 125 123 123 123 13 13 13 13 13 13 13 13 13 13 13 13 13 13 13 14 14 14 14 14 14 14 14 14 15 15 15 15 15 15 23 23 23 28 28 28 30 30 30 29 29 29 23 23 23 68 68 68 69 69 69 66 66 66 65 65 65 109 109 109 64 64 64 64 64 64 63 63 63 62 62 62 102 102 102 64 64 64 56 56 56 56 56 56 57 57 57 80 80 80 58 58 58 59 59 59 59 59 59 60 60 60 70 70 70 60 60 60 50 50 50 60 60 60 50 50 50 59 59 59 57 57 57 47 47 47 47 47 47 56 56 56 46 46 46 56 56 56 46 46 46 55 55 55 55 55 55 78 78 78 88 88 88 88 88 88 
11 11 11 11 11 11 9 9 9 8 3 2 8 3 2 8 3 2 9 9 9 12 12 12 42 42 42 44 44 44 45 45 45 44 44 44 26 26 26 46 46 46 46 46 46 46 46 46 46 46 46 28 28 28 29 29 29 28 28 28 28 28 28 48 48 48 47 47 47 48 48 48 48 48 48 48 48 48 27 27 27 82 82 82 81 81 81 149 149 149 149 149 149 148 148 148 147 147 147 80 80 80 79 79 79 78 78 78 77 77 77 76 76 76 139 139 139 137 137 137 135 135 135 133 133 133 71 71 71 132 132 132 130 130 130 128 128 128 25 7 5 25 7 5 25 7 5 12 12 12 12 12 12 12 12 12 20 20 20 20 20 20 21 21 21 21 21 21 14 14 14 21 21 21 24 24 24 28 28 28 29 29 29 29 29 29 23 23 23 68 68 68 69 69 69 66 66 66 66 66 66 109 109 109 104 104 104 103 103 103 101 101 101 100 100 100 101 101 101 75 75 75 67 67 67 68 68 68 69 69 69 80 80 80 71 71 71 59 59 59 60 60 60 60 60 60 58 58 58 60 60 60 50 50 50 60 60 60 50 50 50 59 59 59 57 57 57 49 49 49 49 49 49 59 59 59 49 49 49 56 56 56 46 46 46 55 55 55 55 55 55 45 45 45 88 88 88 89 89 89 
11 11 11 8 3 2 15 5 4 24 7 5 30 9 6 32 10 7 31 10 7 24 8 6 9 7 6 42 40 40 25 23 23 25 23 23 45 45 45 47 47 47 47 47 47 47 47 47 47 47 47 28 28 28 29 29 29 28 28 28 29 29 29 29 29 29 48 48 48 49 49 49 48 48 48 28 28 28 48 48 48 153 153 153 83 83 83 83 83 83 152 152 152 151 151 151 150 150 150 81 81 81 80 80 80 79 79 79 78 78 78 77 77 77 141 141 141 139 139 139 137 137 137 135 135 135 133 133 133 69 69 69 105 31 21 95 28 19 69 20 13 34 10 6 25 7 5 25 7 5 12 12 12 12 12 12 20 20 20 20 20 20 21 21 21 21 21 21 21 21 21 15 15 15 17 17 17 28 28 28 29 29 29 29 29 29 23 23 23 69 69 69 69 69 69 66 66 66 107 107 107 110 110 110 105 105 105 102 102 102 101 101 101 61 61 61 9 9 9 64 64 64 67 67 67 68 68 68 69 69 69 80 80 80 71 71 71 59 59 59 60 60 60 60 60 60 58 58 58 58 58 58 50 50 50 60 60 60 48 48 48 57 57 57 59 59 59 49 49 49 49 49 49 59 59 59 49 49 49 56 56 56 48 46 46 57 55 55 57 55 55 49 44 43 58 53 52 58 53 52 
8 3 2 20 6 4 32 10 7 40 12 8 46 14 10 49 15 11 49 15 10 46 15 10 36 11 8 25 23 22 25 23 23 25 23 23 46 43 42 47 47 47 47 47 47 48 48 48 48 48 48 29 29 29 29 29 29 29 29 29 29 29 29 29 29 29 28 28 28 29 29 29 28 28 28 28 28 28 28 28 28 155 155 155 85 85 85 84 84 84 84 84 84 83 83 83 83 83 83 82 82 82 81 81 81 80 80 80 79 79 79 78 78 78 142 142 142 140 140 140 138 138 138 136 136 136 72 72 72 159 47 31 159 47 31 138 41 27 108 32 21 71 21 14 29 8 5 25 7 5 25 7 5 11 11 11 19 19 19 19 19 19 19 19 19 17 17 17 23 23 23 15 15 15 16 16 16 20 20 20 21 21 21 29 29 29 23 23 23 69 69 69 69 69 69 66 66 66 107 107 107 109 109 109 104 104 104 107 99 93 156 97 58 97 60 36 20 12 7 6 3 2 48 46 44 62 55 50 89 72 60 80 80 80 71 71 71 60 60 60 60 60 60 60 60 60 71 71 71 60 60 60 48 48 48 58 58 58 48 48 48 57 57 57 57 57 57 49 49 49 49 49 49 59 59 59 51 49 49 58 56 56 48 46 46 58 55 55 59 54 53 49 44 43 59 53 52 58 53 52 
17 5 4 32 10 7 43 13 9 51 16 11 58 18 12 63 20 14 63 20 14 60 19 13 53 16 11 37 12 8 26 23 23 26 24 23 28 25 24 56 48 47 48 48 48 48 48 48 48 48 48 50 50 50 30 30 30 50 50 50 51 51 51 50 50 50 28 28 28 29 29 29 28 28 28 28 28 28 28 28 28 157 157 157 86 86 86 85 85 85 85 85 85 85 85 85 154 154 154 153 153 153 151 151 151 150 150 150 80 80 80 146 146 146 144 144 144 142 142 142 140 140 140 137 137 137 73 73 73 205 61 41 200 64 45 175 56 39 137 41 28 98 29 19 56 16 11 25 7 5 25 7 5 25 7 5 19 19 19 19 19 19 19 19 19 20 20 20 15 15 15 15 15 15 16 16 16 20 20 20 21 21 21 29 29 29 109 109 109 112 112 112 112 112 112 66 66 66 107 107 107 110 110 110 105 105 105 187 117 70 255 255 255 125 78 47 30 19 11 6 3 2 48 46 44 69 59 53 103 83 70 81 81 81 72 72 72 60 60 60 73 73 73 73 73 73 84 84 84 60 60 60 48 48 48 58 58 58 48 48 48 57 57 57 57 57 57 50 50 50 49 49 49 61 59 59 51 49 49 61 58 58 51 48 48 60 58 57 59 54 53 50 44 43 59 53 52 58 53 52 
25 8 5 39 12 8 51 16 11 60 19 14 73 27 21 83 35 28 81 32 25 72 24 17 63 20 13 50 16 11 26 24 23 26 24 23 29 26 25 61 52 50 49 49 49 49 49 49 29 29 29 30 30 30 51 51 51 51 51 51 51 51 51 51 51 51 50 50 50 29 29 29 29 29 29 29 29 29 28 28 28 86 86 86 87 87 87 86 86 86 86 86 86 86 86 86 156 156 156 155 155 155 153 153 153 152 152 152 149 149 149 80 80 80 78 78 78 143 143 143 141 141 141 138 138 138 213 64 42 241 78 54 255 110 88 229 95 76 166 56 40 118 35 23 75 22 15 27 8 5 25 7 5 25 7 5 10 10 10 10 10 10 20 20 20 20 20 20 15 15 15 15 15 15 16 16 16 19 19 19 21 21 21 109 109 109 109 109 109 112 112 112 112 112 112 66 66 66 66 66 66 69 69 69 65 65 65 123 109 99 174 109 65 115 72 43 20 12 7 57 54 53 48 46 45 73 62 54 98 78 64 69 69 69 59 59 59 60 60 60 73 73 73 74 74 74 84 84 84 85 85 85 50 50 50 58 58 58 48 48 48 58 58 58 57 57 57 50 50 50 49 49 49 59 57 56 49 47 46 58 56 56 51 49 48 60 54 53 59 54 53 50 44 43 59 53 53 58 53 52 
28 9 6 43 13 9 55 17 12 67 23 17 87 38 31 104 52 45 100 47 39 82 30 23 69 21 15 56 18 12 26 24 23 26 24 24 51 46 46 48 38 36 52 33 31 30 30 30 29 29 29 31 31 31 52 52 52 52 52 52 52 52 52 52 52 52 51 51 51 30 30 30 29 29 29 29 29 29 29 29 29 161 161 161 88 88 88 87 87 87 87 87 87 87 87 87 158 158 158 157 157 157 155 155 155 153 153 153 151 151 151 80 80 80 79 79 79 78 78 78 77 77 77 140 140 140 231 69 46 255 93 68 255 159 136 255 141 120 194 74 57 133 40 27 88 26 17 39 11 7 25 7 5 25 7 5 9 9 9 11 11 11 12 12 12 12 12 12 22 22 22 14 14 14 16 16 16 19 19 19 29 29 29 109 109 109 109 109 109 113 113 113 113 113 113 66 66 66 66 66 66 70 70 70 65 65 65 64 64 64 180 80 100 145 64 80 23 10 12 58 54 55 56 49 50 96 67 72 58 58 58 69 69 69 60 60 60 60 60 60 73 73 73 74 74 74 85 85 85 85 85 85 75 75 75 58 58 58 48 48 48 58 58 58 60 60 60 50 50 50 49 47 47 59 57 57 49 47 47 58 56 56 51 49 48 60 54 54 59 54 53 50 44 43 59 53 53 58 53 52 
28 9 6 43 13 9 56 17 12 67 22 16 85 35 28 99 46 39 95 41 34 80 28 20 69 21 15 54 17 12 45 43 42 45 43 43 56 49 48 74 62 60 30 30 30 30 30 30 30 30 30 31 31 31 32 32 32 52 52 52 53 53 53 53 53 53 51 51 51 30 30 30 51 51 51 52 52 52 51 51 51 163 163 163 163 163 163 162 162 162 162 162 162 161 161 161 160 160 160 159 159 159 157 157 157 155 155 155 82 82 82 81 81 81 80 80 80 79 79 79 77 77 77 141 141 141 209 62 41 255 84 59 255 142 118 255 138 116 203 77 59 140 43 29 94 28 18 44 13 8 25 7 5 25 7 5 10 10 10 11 11 11 12 12 12 20 20 20 22 22 22 22 22 22 23 23 23 112 112 112 112 112 112 110 110 110 110 110 110 113 113 113 113 113 113 67 67 67 66 66 66 70 70 70 65 65 65 64 64 64 226 100 125 175 77 97 41 18 23 58 54 55 63 51 54 103 70 77 58 58 58 69 69 69 60 60 60 60 60 60 74 74 74 74 74 74 85 85 85 85 85 85 75 75 75 86 86 86 50 50 50 60 60 60 60 60 60 50 50 50 47 47 47 59 57 57 49 47 47 58 56 56 49 46 46 60 58 58 59 54 53 50 44 44 59 53 53 58 53 52 
20 6 4 39 12 8 52 16 11 62 19 13 71 24 17 78 27 20 77 26 18 72 23 15 63 19 13 36 12 8 45 43 43 48 45 44 61 52 51 73 59 57 30 30 30 30 30 30 30 30 30 32 32 32 33 33 33 53 53 53 54 54 54 31 31 31 30 30 30 30 30 30 52 52 52 52 52 52 52 52 52 164 164 164 165 165 165 164 164 164 164 164 164 89 89 89 88 88 88 87 87 87 158 158 158 156 156 156 83 83 83 82 82 82 81 81 81 79 79 79 78 78 78 142 142 142 139 139 139 243 73 48 252 86 62 238 89 67 187 62 44 138 41 28 92 27 18 40 12 8 25 7 5 9 9 9 10 10 10 11 11 11 12 12 12 20 20 20 22 22 22 22 22 22 23 23 23 27 27 27 21 21 21 21 21 21 65 65 65 113 113 113 70 70 70 67 67 67 67 67 67 70 70 70 65 65 65 104 104 104 102 102 102 89 39 49 103 103 103 79 77 78 62 51 53 70 70 70 59 59 59 69 69 69 60 60 60 60 60 60 61 61 61 74 74 74 72 72 72 59 59 59 48 48 48 58 58 58 50 50 50 60 60 60 60 60 60 50 50 50 47 47 47 59 57 57 49 47 47 58 56 56 49 46 46 60 58 58 59 54 53 50 44 44 59 53 53 59 53 52 
4 1 1 26 8 6 43 13 9 53 16 11 61 19 13 65 20 14 65 20 14 60 19 13 42 13 9 26 24 23 45 43 43 53 46 46 63 52 50 50 50 50 30 30 30 31 31 31 31 31 31 32 32 32 55 55 55 33 33 33 32 32 32 32 32 32 30 30 30 31 31 31 52 52 52 52 52 52 52 52 52 166 166 166 166 166 166 165 165 165 165 165 165 90 90 90 89 89 89 88 88 88 86 86 86 85 85 85 155 155 155 82 82 82 81 81 81 80 80 80 145 145 145 143 143 143 140 140 140 138 138 138 215 64 43 199 60 40 167 50 33 126 38 25 79 23 15 25 7 5 25 7 5 10 3 2 18 16 24 17 17 20 13 13 13 20 20 20 22 22 22 22 22 22 23 23 23 19 19 19 21 21 21 21 21 21 22 22 22 70 70 70 114 114 114 110 110 110 67 67 67 70 70 70 65 65 65 104 104 104 103 103 103 101 101 101 103 103 103 76 76 76 69 69 69 70 70 70 59 59 59 69 69 69 60 60 60 73 73 73 74 74 74 61 61 61 59 59 59 59 59 59 48 48 48 58 58 58 51 51 51 60 60 60 60 60 60 51 51 51 51 51 51 57 57 57 46 46 46 61 61 61 48 48 48 55 53 54 55 53 55 50 44 44 59 54 53 59 53 52 
4 1 6 4 1 6 13 4 3 34 10 7 42 13 9 46 14 10 41 13 9 10 10 10 25 23 23 26 24 23 50 45 44 47 47 47 48 48 48 50 50 50 51 51 51 52 52 52 53 53 53 55 55 55 57 57 57 55 55 55 33 33 33 32 32 32 30 30 30 31 31 31 53 53 53 53 53 53 52 52 52 167 167 167 167 167 167 166 166 166 90 90 90 90 90 90 91 91 91 88 88 88 87 87 87 158 158 158 156 156 156 153 153 153 151 151 151 148 148 148 146 146 146 143 143 143 141 141 141 138 138 138 135 135 135 148 44 29 131 39 26 93 28 18 39 11 7 9 9 9 10 3 19 10 3 17 18 18 29 19 19 25 21 21 21 48 48 48 22 22 22 22 22 22 23 23 23 19 19 19 21 21 21 21 21 21 22 22 22 27 27 27 114 114 114 110 110 110 109 109 109 112 112 112 106 106 106 105 105 105 103 103 103 101 101 101 103 103 103 77 77 77 69 69 69 70 70 70 59 59 59 82 82 82 73 73 73 73 73 73 74 74 74 49 49 49 59 59 59 59 59 59 48 48 48 59 59 59 51 51 51 60 60 60 62 62 62 53 53 53 50 50 50 58 58 58 52 52 52 60 60 60 49 49 49 57 57 59 55 53 56 45 43 48 74 74 74 59 53 52 
2 2 8 3 3 9 4 2 7 3 2 6 4 3 6 14 8 4 33 20 13 13 18 13 40 43 40 39 39 39 45 45 45 48 48 48 29 29 29 31 31 31 31 31 31 52 52 52 53 53 53 56 56 56 58 58 58 56 56 56 33 33 33 32 32 32 30 30 30 31 31 31 30 30 30 53 53 53 30 30 30 91 91 91 168 168 168 167 167 167 91 91 91 91 91 91 94 94 94 89 89 89 87 87 87 159 159 159 156 156 156 154 154 154 151 151 151 149 149 149 79 79 79 77 77 77 76 76 76 138 138 138 73 73 73 19 35 19 74 40 22 23 11 4 36 36 36 17 17 17 18 5 24 5 5 22 5 5 18 16 16 23 19 19 21 31 30 30 14 14 14 14 14 14 23 23 23 19 19 19 21 21 21 21 21 21 22 22 22 35 35 35 114 114 114 110 110 110 109 109 109 112 112 112 66 66 66 65 65 65 63 63 63 62 62 62 103 103 103 65 65 65 57 57 57 58 58 58 59 59 59 82 82 82 73 73 73 73 73 73 74 74 74 51 51 51 59 59 59 59 59 59 49 49 49 59 59 59 48 48 48 60 60 60 60 60 60 48 48 48 48 48 48 57 57 57 51 50 50 59 59 59 48 48 49 54 54 56 53 53 56 44 44 49 59 59 59 58 53 52 
2 2 8 2 2 8 6 6 12 5 5 5 1 3 6 12 17 12 3 8 3 5 11 5 43 48 43 57 57 57 43 43 44 24 26 24 29 29 29 31 31 31 31 31 31 53 53 53 54 54 54 58 58 58 61 61 61 57 57 57 34 34 34 32 32 32 31 31 31 54 54 54 53 53 53 30 30 30 30 30 30 91 91 91 92 92 92 91 91 91 167 167 167 91 91 91 100 100 100 89 89 89 87 87 87 159 159 159 157 157 157 154 154 154 152 152 152 81 81 81 79 79 79 78 78 78 76 76 76 75 75 75 74 92 74 13 33 13 13 27 13 41 48 41 10 10 25 17 17 17 5 5 25 5 5 23 10 10 23 11 11 19 27 27 28 42 42 42 15 15 15 15 15 15 24 24 24 27 27 27 29 29 29 21 21 21 22 22 22 114 114 114 114 114 114 110 110 110 109 109 109 112 112 112 66 66 66 65 65 65 63 63 63 62 62 62 65 65 65 65 65 65 57 57 57 58 58 58 59 59 59 82 82 82 73 73 73 73 73 73 74 74 74 75 75 75 59 59 59 59 59 59 51 51 51 61 61 61 51 51 51 58 58 58 60 60 60 50 50 50 48 48 48 59 59 59 51 51 51 60 60 60 48 48 49 55 55 57 53 53 57 44 44 49 56 56 60 67 67 67 
5 5 11 10 10 16 11 11 16 9 9 9 17 19 17 10 14 10 14 20 14 6 12 6 24 29 24 58 58 58 44 45 44 28 28 28 29 29 29 31 31 31 31 31 31 32 32 32 55 55 55 60 60 60 66 66 66 59 59 59 34 34 34 55 55 55 53 53 53 54 54 54 53 53 53 30 30 30 30 30 30 91 91 91 92 92 92 168 168 168 168 168 168 167 167 167 169 169 169 164 164 164 87 87 87 159 159 159 157 157 157 154 154 154 152 152 152 80 80 80 79 79 79 78 78 78 76 76 76 75 75 75 136 136 136 19 38 19 35 49 35 34 41 34 70 70 70 17 17 17 32 32 50 19 19 36 20 20 32 15 15 22 2 2 2 49 49 49 15 15 15 15 15 15 24 24 24 27 27 27 29 29 29 28 28 28 111 111 111 70 70 70 114 114 114 110 110 110 109 109 109 112 112 112 66 66 66 64 64 64 63 63 63 62 62 62 103 103 103 65 65 65 57 57 57 58 58 58 59 59 59 70 70 70 73 73 73 74 74 74 74 74 74 61 61 61 85 85 85 61 61 61 51 51 51 61 61 61 51 51 51 58 58 58 59 59 59 49 49 49 50 50 50 56 56 56 51 51 51 58 58 58 47 47 48 58 58 60 59 59 62 61 61 66 70 70 70 62 63 62 
16 16 19 10 10 14 25 25 25 5 5 5 5 5 6 15 18 15 8 11 8 26 30 26 45 45 45 46 46 46 48 48 48 28 28 28 29 29 29 31 31 31 31 31 31 33 33 33 55 55 55 42 42 42 54 54 54 38 38 38 34 34 34 55 55 55 53 53 53 54 54 54 53 53 53 53 53 53 30 30 30 91 91 91 92 92 92 168 168 168 168 168 168 167 167 167 167 167 167 164 164 164 87 87 87 86 86 86 85 85 85 83 83 83 152 152 152 81 81 81 79 79 79 78 78 78 76 76 76 139 139 139 136 136 136 82 96 82 65 76 65 114 117 114 11 11 11 11 11 11 11 11 11 55 55 68 18 16 25 44 44 48 49 49 49 9 9 9 15 15 15 15 15 15 24 24 24 27 27 27 29 29 29 111 111 111 66 66 66 70 70 70 71 71 71 68 68 68 67 67 67 70 70 70 66 66 66 65 65 65 63 63 63 62 62 62 103 103 103 65 65 65 57 57 57 58 58 58 59 59 59 70 70 70 60 60 60 61 61 61 61 61 61 62 62 62 72 72 72 86 86 86 76 76 76 61 61 61 51 51 51 60 60 60 58 58 58 48 48 48 49 49 49 74 74 74 59 59 59 62 62 62 52 52 52 59 59 61 62 62 65 53 53 53 74 74 74 70 70 70 
40 40 40 41 41 41 25 25 25 25 25 25 26 26 26 26 26 26 27 27 27 46 46 46 45 45 45 47 47 47 48 48 48 48 48 48 29 29 29 31 31 31 51 51 51 53 53 53 34 34 34 44 44 44 62 62 62 38 38 38 34 34 34 55 55 55 53 53 53 54 54 54 53 53 53 53 53 53 30 30 30 91 91 91 91 91 91 167 167 167 167 167 167 166 166 166 165 165 165 163 163 163 87 87 87 86 86 86 84 84 84 83 83 83 152 152 152 149 149 149 147 147 147 78 78 78 76 76 76 139 139 139 138 138 138 135 135 135 132 132 132 130 130 130 69 69 69 68 68 68 67 67 67 66 66 66 65 65 65 116 116 116 115 115 115 62 62 62 61 61 61 112 112 112 111 111 111 113 113 113 113 113 113 111 111 111 66 66 66 70 70 70 71 71 71 67 67 67 67 67 67 112 112 112 107 107 107 105 105 105 63 63 63 62 62 62 103 103 103 77 77 77 57 57 57 70 70 70 71 71 71 82 82 82 60 60 60 61 61 61 61 61 61 61 61 61 72 72 72 86 86 86 76 76 76 87 87 87 77 77 77 87 87 87 73 73 73 63 63 63 78 78 78 89 89 89 79 79 79 73 73 73 64 64 64 73 73 73 73 73 73 82 82 82 92 92 92 92 92 92 
40 40 40 40 40 40 25 25 25 25 25 25 26 26 26 26 26 26 27 27 27 46 46 46 45 45 45 47 47 47 48 48 48 28 28 28 48 48 48 51 51 51 52 52 52 53 53 53 55 55 55 42 42 42 50 50 50 37 37 37 34 34 34 55 55 55 53 53 53 54 54 54 53 53 53 53 53 53 53 53 53 167 167 167 166 166 166 166 166 166 166 166 166 165 165 165 164 164 164 88 88 88 87 87 87 86 86 86 84 84 84 83 83 83 151 151 151 149 149 149 146 146 146 144 144 144 141 141 141 77 77 77 138 138 138 136 136 136 133 133 133 131 131 131 70 70 70 69 69 69 68 68 68 67 67 67 119 119 119 117 117 117 115 115 115 113 113 113 112 112 112 61 61 61 112 112 112 113 113 113 113 113 113 111 111 111 66 66 66 70 70 70 71 71 71 68 68 68 67 67 67 112 112 112 107 107 107 105 105 105 103 103 103 63 63 63 65 65 65 65 65 65 69 69 69 70 70 70 71 71 71 82 82 82 73 73 73 61 61 61 61 61 61 61 61 61 72 72 72 86 86 86 76 76 76 86 86 86 77 77 77 73 73 73 87 87 87 78 78 78 78 78 78 89 89 89 79 79 79 73 73 73 63 63 63 73 73 73 73 73 73 64 64 64 92 92 92 92 92 92 
40 40 40 40 40 40 41 41 41 25 25 25 25 25 25 26 26 26 27 27 27 28 28 28 27 27 27 29 29 29 29 29 29 28 28 28 48 48 48 51 51 51 51 51 51 53 53 53 54 54 54 39 39 39 42 42 42 36 36 36 34 34 34 32 32 32 53 53 53 31 31 31 30 30 30 29 29 29 29 29 29 165 165 165 90 90 90 90 90 90 90 90 90 89 89 89 163 163 163 88 88 88 87 87 87 85 85 85 84 84 84 83 83 83 151 151 151 148 148 148 146 146 146 143 143 143 79 79 79 77 77 77 76 76 76 75 75 75 73 73 73 72 72 72 71 71 71 70 70 70 68 68 68 67 67 67 120 120 120 118 118 118 116 116 116 114 114 114 112 112 112 62 62 62 55 55 55 66 66 66 67 67 67 65 65 65 66 66 66 70 70 70 71 71 71 68 68 68 109 109 109 112 112 112 107 107 107 105 105 105 104 104 104 63 63 63 66 66 66 66 66 66 69 69 69 70 70 70 71 71 71 82 82 82 73 73 73 61 61 61 61 61 61 61 61 61 72 72 72 72 72 72 62 62 62 72 72 72 62 62 62 72 72 72 87 87 87 78 78 78 78 78 78 88 88 88 79 79 79 73 73 73 63 63 63 73 73 73 73 73 73 64 64 64 74 74 74 74 74 74 
40 40 40 40 40 40 41 41 41 25 25 25 26 26 26 43 43 43 45 45 45 46 46 46 27 27 27 29 29 29 29 29 29 28 28 28 29 29 29 50 50 50 51 51 51 52 52 52 54 54 54 36 36 36 38 38 38 56 56 56 55 55 55 54 54 54 29 29 29 29 29 29 29 29 29 29 29 29 29 29 29 164 164 164 89 89 89 89 89 89 89 89 89 89 89 89 88 88 88 160 160 160 158 158 158 85 85 85 84 84 84 152 152 152 150 150 150 148 148 148 145 145 145 145 145 145 79 79 79 77 77 77 76 76 76 74 74 74 73 73 73 131 131 131 128 128 128 126 126 126 68 68 68 67 67 67 119 119 119 117 117 117 116 116 116 114 114 114 63 63 63 62 62 62 61 61 61 55 55 55 67 67 67 111 111 111 111 111 111 114 114 114 114 114 114 68 68 68 109 109 109 112 112 112 107 107 107 105 105 105 103 103 103 63 63 63 65 65 65 66 66 66 58 58 58 71 71 71 72 72 72 83 83 83 73 73 73 61 61 61 61 61 61 74 74 74 85 85 85 86 86 86 62 62 62 72 72 72 62 62 62 72 72 72 72 72 72 78 78 78 78 78 78 88 88 88 79 79 79 89 89 89 63 63 63 90 90 90 90 90 90 81 81 81 74 74 74 73 73 73 
40 40 40 40 40 40 25 25 25 42 42 42 42 42 42 43 43 43 45 45 45 45 45 45 27 27 27 29 29 29 29 29 29 28 28 28 29 29 29 50 50 50 51 51 51 52 52 52 32 32 32 34 34 34 57 57 57 54 54 54 53 53 53 52 52 52 29 29 29 29 29 29 29 29 29 29 29 29 29 29 29 163 163 163 89 89 89 89 89 89 88 88 88 88 88 88 160 160 160 159 159 159 157 157 157 155 155 155 153 153 153 82 82 82 149 149 149 147 147 147 148 148 148 145 145 145 79 79 79 78 78 78 76 76 76 75 75 75 74 74 74 131 131 131 129 129 129 126 126 126 124 124 124 68 68 68 66 66 66 117 117 117 116 116 116 114 114 114 63 63 63 62 62 62 61 61 61 61 61 61 61 61 61 110 110 110 110 110 110 114 114 114 114 114 114 110 110 110 67 67 67 71 71 71 107 107 107 105 105 105 64 64 64 63 63 63 66 66 66 66 66 66 58 58 58 71 71 71 72 72 72 83 83 83 61 61 61 62 62 62 75 75 75 74 74 74 85 85 85 86 86 86 62 62 62 72 72 72 62 62 62 72 72 72 72 72 72 78 78 78 78 78 78 88 88 88 63 63 63 73 73 73 79 79 79 89 89 89 90 90 90 81 81 81 91 91 91 73 73 73 
24 24 24 25 25 25 25 25 25 25 25 25 42 42 42 43 43 43 44 44 44 45 45 45 27 27 27 29 29 29 29 29 29 28 28 28 28 28 28 30 30 30 30 30 30 31 31 31 30 30 30 32 32 32 54 54 54 53 53 53 52 52 52 52 52 52 51 51 51 30 30 30 29 29 29 29 29 29 29 29 29 88 88 88 89 89 89 88 88 88 88 88 88 88 88 88 159 159 159 158 158 158 156 156 156 155 155 155 153 153 153 82 82 82 81 81 81 85 85 85 83 83 83 147 147 147 81 81 81 80 80 80 78 78 78 77 77 77 135 135 135 133 133 133 130 130 130 128 128 128 126 126 126 69 69 69 68 68 68 67 67 67 67 67 67 65 65 65 65 65 65 64 64 64 63 63 63 63 63 63 63 63 63 107 107 107 111 111 111 114 114 114 114 114 114 68 68 68 68 68 68 71 71 71 66 66 66 66 66 66 104 104 104 64 64 64 66 66 66 66 66 66 58 58 58 59 59 59 60 60 60 71 71 71 62 62 62 62 62 62 75 75 75 76 76 76 87 87 87 87 87 87 76 76 76 72 72 72 62 62 62 73 73 73 73 73 73 63 63 63 63 63 63 73 73 73 63 63 63 73 73 73 79 79 79 89 89 89 90 90 90 81 81 81 91 91 91 73 73 73 
24 24 24 25 25 25 25 25 25 25 25 25 42 42 42 43 43 43 44 44 44 45 45 45 44 44 44 28 28 28 47 47 47 46 46 46 47 47 47 48 48 48 29 29 29 30 30 30 30 30 30 31 31 31 53 53 53 52 52 52 52 52 52 52 52 52 51 51 51 30 30 30 29 29 29 51 51 51 51 51 51 160 160 160 161 161 161 160 160 160 88 88 88 87 87 87 158 158 158 157 157 157 155 155 155 154 154 154 83 83 83 82 82 82 87 87 87 86 86 86 85 85 85 147 147 147 145 145 145 143 143 143 140 140 140 78 78 78 136 136 136 133 133 133 131 131 131 129 129 129 126 126 126 71 71 71 69 69 69 68 68 68 67 67 67 116 116 116 115 115 115 113 113 113 111 111 111 64 64 64 109 109 109 107 107 107 97 97 97 114 114 114 114 114 114 68 68 68 68 68 68 71 71 71 67 67 67 66 66 66 104 104 104 102 102 102 104 104 104 78 78 78 70 70 70 60 60 60 61 61 61 71 71 71 62 62 62 63 63 63 76 76 76 76 76 76 87 87 87 87 87 87 78 78 78 74 74 74 78 78 78 87 87 87 87 87 87 78 78 78 63 63 63 73 73 73 63 63 63 73 73 73 63 63 63 89 89 89 90 90 90 81 81 81 91 91 91 73 73 73 
24 24 24 24 24 24 25 25 25 25 25 25 42 42 42 42 42 42 44 44 44 27 27 27 26 26 26 46 46 46 44 44 44 44 44 44 45 45 45 47 47 47 28 28 28 29 29 29 29 29 29 30 30 30 31 31 31 51 51 51 51 51 51 51 51 51 29 29 29 51 51 51 51 51 51 51 51 51 50 50 50 158 158 158 159 159 159 158 158 158 158 158 158 86 86 86 86 86 86 155 155 155 153 153 153 152 152 152 82 82 82 88 88 88 86 86 86 85 85 85 84 84 84 146 146 146 144 144 144 141 141 141 139 139 139 137 137 137 76 76 76 75 75 75 130 130 130 128 128 128 71 71 71 70 70 70 69 69 69 68 68 68 66 66 66 115 115 115 114 114 114 112 112 112 110 110 110 109 109 109 63 63 63 62 62 62 105 105 105 113 113 113 113 113 113 67 67 67 67 67 67 71 71 71 66 66 66 105 105 105 103 103 103 102 102 102 104 104 104 78 78 78 70 70 70 71 71 71 60 60 60 71 71 71 62 62 62 62 62 62 63 63 63 76 76 76 87 87 87 74 74 74 64 64 64 88 88 88 78 78 78 89 89 89 89 89 89 79 79 79 63 63 63 73 73 73 63 63 63 73 73 73 63 63 63 89 89 89 89 89 89 80 80 80 73 73 73 73 73 73 
24 24 24 24 24 24 25 25 25 25 25 25 41 41 41 26 26 26 27 27 27 25 25 25 25 25 25 43 43 43 44 44 44 44 44 44 45 45 45 47 47 47 28 28 28 29 29 29 29 29 29 30 30 30 31 31 31 30 30 30 30 30 30 30 30 30 29 29 29 30 30 30 50 50 50 51 51 51 50 50 50 157 157 157 157 157 157 157 157 157 157 157 157 86 86 86 85 85 85 85 85 85 84 84 84 83 83 83 90 90 90 89 89 89 88 88 88 87 87 87 86 86 86 147 147 147 144 144 144 142 142 142 140 140 140 79 79 79 78 78 78 76 76 76 75 75 75 74 74 74 126 126 126 71 71 71 70 70 70 68 68 68 67 67 67 116 116 116 114 114 114 112 112 112 111 111 111 110 110 110 63 63 63 62 62 62 61 61 61 62 62 62 104 104 104 67 67 67 67 67 67 70 70 70 66 66 66 105 105 105 103 103 103 102 102 102 104 104 104 78 78 78 70 70 70 71 71 71 60 60 60 71 71 71 62 62 62 62 62 62 76 76 76 63 63 63 74 74 74 74 74 74 64 64 64 75 75 75 79 79 79 89 89 89 89 89 89 80 80 80 65 65 65 75 75 75 65 65 65 73 73 73 63 63 63 73 73 73 73 73 73 63 63 63 73 73 73 73 73 73 
24 24 24 39 39 39 40 40 40 40 40 40 39 39 39 24 24 24 25 25 25 25 25 25 25 25 25 26 26 26 45 45 45 45 45 45 46 46 46 47 47 47 48 48 48 30 30 30 49 49 49 50 50 50 51 51 51 31 31 31 31 31 31 31 31 31 30 30 30 31 31 31 51 51 51 51 51 51 51 51 51 156 156 156 156 156 156 156 156 156 156 156 156 86 86 86 86 86 86 85 85 85 84 84 84 163 163 163 161 161 161 159 159 159 157 157 157 91 91 91 153 153 153 150 150 150 148 148 148 145 145 145 143 143 143 83 83 83 81 81 81 80 80 80 78 78 78 77 77 77 128 128 128 126 126 126 124 124 124 122 122 122 119 119 119 118 118 118 116 116 116 114 114 114 113 113 113 66 66 66 65 65 65 64 64 64 63 63 63 64 64 64 105 105 105 103 103 103 108 108 108 111 111 111 66 66 66 105 105 105 103 103 103 102 102 102 104 104 104 78 78 78 70 70 70 72 72 72 61 61 61 84 84 84 75 75 75 76 76 76 76 76 76 64 64 64 75 75 75 75 75 75 65 65 65 76 76 76 80 80 80 90 90 90 91 91 91 81 81 81 81 81 81 77 77 77 82 82 82 92 92 92 83 83 83 93 93 93 73 73 73 64 64 64 73 73 73 73 73 73 
24 24 24 37 37 37 38 38 38 39 39 39 39 39 39 24 24 24 25 25 25 25 25 25 25 25 25 26 26 26 44 44 44 45 45 45 45 45 45 29 29 29 29 29 29 49 49 49 49 49 49 50 50 50 51 51 51 51 51 51 31 31 31 31 31 31 30 30 30 31 31 31 51 51 51 51 51 51 51 51 51 86 86 86 155 155 155 155 155 155 86 86 86 86 86 86 85 85 85 85 85 85 99 99 99 164 164 164 162 162 162 160 160 160 158 158 158 156 156 156 91 91 91 90 90 90 148 148 148 146 146 146 144 144 144 83 83 83 82 82 82 80 80 80 79 79 79 131 131 131 128 128 128 126 126 126 124 124 124 122 122 122 70 70 70 69 69 69 68 68 68 114 114 114 113 113 113 66 66 66 66 66 66 64 64 64 64 64 64 64 64 64 106 106 106 103 103 103 108 108 108 110 110 110 66 66 66 65 65 65 64 64 64 101 101 101 104 104 104 78 78 78 58 58 58 60 60 60 61 61 61 83 83 83 74 74 74 75 75 75 76 76 76 77 77 77 75 75 75 75 75 75 65 65 65 76 76 76 80 80 80 90 90 90 76 76 76 66 66 66 67 67 67 92 92 92 82 82 82 93 93 93 83 83 83 93 93 93 77 77 77 68 68 68 78 78 78 73 73 73 
21 21 21 37 37 37 38 38 38 38 38 38 39 39 39 40 40 40 24 24 24 25 25 25 25 25 25 26 26 26 26 26 26 26 26 26 27 27 27 28 28 28 28 28 28 47 47 47 48 48 48 48 48 48 49 49 49 49 49 49 30 30 30 30 30 30 30 30 30 30 30 30 50 50 50 30 30 30 30 30 30 84 84 84 84 84 84 84 84 84 151 151 151 84 84 84 83 83 83 95 95 95 95 95 95 158 158 158 157 157 157 155 155 155 153 153 153 151 151 151 87 87 87 86 86 86 84 84 84 83 83 83 139 139 139 80 80 80 79 79 79 77 77 77 76 76 76 128 128 128 125 125 125 123 123 123 121 121 121 119 119 119 68 68 68 67 67 67 66 66 66 65 65 65 64 64 64 109 109 109 64 64 64 63 63 63 62 62 62 105 105 105 104 104 104 101 101 101 100 100 100 109 109 109 65 65 65 64 64 64 63 63 63 63 63 63 65 65 65 65 65 65 58 58 58 59 59 59 60 60 60 82 82 82 73 73 73 74 74 74 75 75 75 76 76 76 73 73 73 74 74 74 64 64 64 88 88 88 78 78 78 75 75 75 75 75 75 65 65 65 65 65 65 90 90 90 81 81 81 91 91 91 82 82 82 92 92 92 76 76 76 67 67 67 76 76 76 77 77 77 
22 22 22 37 37 37 38 38 38 39 39 39 39 39 39 40 40 40 41 41 41 42 42 42 42 42 42 43 43 43 44 44 44 27 27 27 27 27 27 28 28 28 29 29 29 29 29 29 48 48 48 49 49 49 49 49 49 50 50 50 31 31 31 50 50 50 50 50 50 50 50 50 50 50 50 31 31 31 30 30 30 84 84 84 84 84 84 84 84 84 150 150 150 149 149 149 163 163 163 162 162 162 161 161 161 159 159 159 158 158 158 156 156 156 154 154 154 91 91 91 89 89 89 88 88 88 86 86 86 85 85 85 141 141 141 138 138 138 136 136 136 134 134 134 78 78 78 129 129 129 127 127 127 124 124 124 122 122 122 120 120 120 70 70 70 68 68 68 68 68 68 67 67 67 112 112 112 111 111 111 110 110 110 108 108 108 106 106 106 106 106 106 105 105 105 103 103 103 101 101 101 101 101 101 59 59 59 64 64 64 64 64 64 63 63 63 65 65 65 65 65 65 58 58 58 59 59 59 60 60 60 82 82 82 74 74 74 74 74 74 75 75 75 76 76 76 86 86 86 87 87 87 77 77 77 88 88 88 78 78 78 75 75 75 75 75 75 65 65 65 66 66 66 76 76 76 81 81 81 91 91 91 82 82 82 92 92 92 76 76 76 83 83 83 93 93 93 94 94 94 
22 22 22 22 22 22 38 38 38 23 23 23 24 24 24 24 24 24 41 41 41 42 42 42 42 42 42 43 43 43 44 44 44 27 27 27 27 27 27 28 28 28 28 28 28 29 29 29 47 47 47 48 48 48 30 30 30 30 30 30 30 30 30 49 49 49 49 49 49 49 49 49 49 49 49 30 30 30 30 30 30 82 82 82 82 82 82 147 147 147 146 146 146 159 159 159 159 159 159 158 158 158 93 93 93 92 92 92 91 91 91 152 152 152 150 150 150 88 88 88 87 87 87 85 85 85 84 84 84 83 83 83 138 138 138 136 136 136 134 134 134 132 132 132 77 77 77 75 75 75 74 74 74 123 123 123 121 121 121 70 70 70 69 69 69 68 68 68 67 67 67 66 66 66 111 111 111 110 110 110 109 109 109 107 107 107 106 106 106 64 64 64 63 63 63 62 62 62 101 101 101 61 61 61 59 59 59 58 58 58 63 63 63 62 62 62 102 102 102 65 65 65 57 57 57 58 58 58 59 59 59 70 70 70 73 73 73 62 62 62 62 62 62 63 63 63 73 73 73 86 86 86 77 77 77 87 87 87 78 78 78 74 74 74 74 74 74 65 65 65 65 65 65 75 75 75 80 80 80 90 90 90 66 66 66 75 75 75 75 75 75 82 82 82 92 92 92 92 92 92 
36 36 36 37 37 37 23 23 23 23 23 23 23 23 23 24 24 24 25 25 25 41 41 41 41 41 41 42 42 42 43 43 43 26 26 26 27 27 27 28 28 28 28 28 28 46 46 46 28 28 28 29 29 29 29 29 29 29 29 29 29 29 29 48 48 48 48 48 48 48 48 48 48 48 48 48 48 48 29 29 29 80 80 80 80 80 80 144 144 144 155 155 155 155 155 155 154 154 154 153 153 153 90 90 90 89 89 89 88 88 88 87 87 87 86 86 86 144 144 144 84 84 84 83 83 83 82 82 82 137 137 137 135 135 135 133 133 133 131 131 131 129 129 129 75 75 75 74 74 74 72 72 72 71 71 71 70 70 70 117 117 117 68 68 68 67 67 67 66 66 66 65 65 65 110 110 110 109 109 109 108 108 108 106 106 106 63 63 63 63 63 63 63 63 63 61 61 61 60 60 60 100 100 100 98 98 98 58 58 58 63 63 63 62 62 62 101 101 101 65 65 65 57 57 57 58 58 58 71 71 71 81 81 81 61 61 61 61 61 61 62 62 62 62 62 62 73 73 73 86 86 86 76 76 76 87 87 87 77 77 77 87 87 87 74 74 74 64 64 64 64 64 64 89 89 89 65 65 65 74 74 74 65 65 65 75 75 75 75 75 75 81 81 81 91 91 91 91 91 91 
36 36 36 37 37 37 23 23 23 23 23 23 23 23 23 24 24 24 24 24 24 41 41 41 41 41 41 42 42 42 42 42 42 42 42 42 43 43 43 44 44 44 44 44 44 45 45 45 45 45 45 28 28 28 28 28 28 28 28 28 28 28 28 47 47 47 46 46 46 47 47 47 47 47 47 47 47 47 28 28 28 141 141 141 78 78 78 151 151 151 151 151 151 151 151 151 150 150 150 88 88 88 87 87 87 86 86 86 85 85 85 84 84 84 142 142 142 141 141 141 139 139 139 137 137 137 136 136 136 135 135 135 133 133 133 131 131 131 129 129 129 127 127 127 74 74 74 73 73 73 71 71 71 70 70 70 69 69 69 116 116 116 115 115 115 113 113 113 111 111 111 65 65 65 109 109 109 108 108 108 107 107 107 105 105 105 62 62 62 63 63 63 63 63 63 61 61 61 60 60 60 100 100 100 97 97 97 96 96 96 95 95 95 99 99 99 101 101 101 64 64 64 68 68 68 69 69 69 70 70 70 81 81 81 60 60 60 61 61 61 61 61 61 62 62 62 72 72 72 85 85 85 76 76 76 86 86 86 76 76 76 87 87 87 87 87 87 78 78 78 78 78 78 88 88 88 78 78 78 74 74 74 64 64 64 74 74 74 74 74 74 80 80 80 90 90 90 90 90 90 
35 35 35 36 36 36 36 36 36 22 22 22 22 22 22 23 23 23 23 23 23 39 39 39 39 39 39 25 25 25 25 25 25 25 25 25 42 42 42 43 43 43 43 43 43 43 43 43 43 43 43 26 26 26 27 27 27 27 27 27 27 27 27 27 27 27 44 44 44 27 27 27 26 26 26 26 26 26 44 44 44 137 137 137 83 83 83 83 83 83 83 83 83 144 144 144 143 143 143 82 82 82 82 82 82 81 81 81 80 80 80 79 79 79 137 137 137 135 135 135 134 134 134 132 132 132 131 131 131 75 75 75 74 74 74 73 73 73 124 124 124 71 71 71 70 70 70 69 69 69 68 68 68 67 67 67 114 114 114 113 113 113 111 111 111 109 109 109 108 108 108 62 62 62 62 62 62 62 62 62 61 61 61 103 103 103 60 60 60 61 61 61 60 60 60 59 59 59 98 98 98 98 98 98 95 95 95 94 94 94 93 93 93 54 54 54 54 54 54 63 63 63 67 67 67 68 68 68 69 69 69 80 80 80 71 71 71 60 60 60 60 60 60 61 61 61 71 71 71 71 71 71 75 75 75 72 72 72 62 62 62 72 72 72 86 86 86 76 76 76 77 77 77 87 87 87 77 77 77 72 72 72 63 63 63 73 73 73 73 73 73 63 63 63 88 88 88 73 73 73 
18 18 18 18 18 18 15 15 15 15 15 15 15 15 15 15 15 15 16 16 16 21 21 21 21 21 21 21 21 21 22 22 22 16 16 16 22 22 22 23 23 23 22 22 22 23 23 23 23 23 23 18 18 18 18 18 18 18 18 18 18 18 18 23 23 23 23 23 23 23 23 23 23 23 23 23 23 23 2 2 2 72 72 72 72 72 72 72 72 72 72 72 72 71 71 71 71 71 71 52 52 52 52 52 52 51 51 51 51 51 51 50 50 50 67 67 67 66 66 66 66 66 66 65 65 65 65 65 65 47 47 47 63 63 63 62 62 62 61 61 61 60 60 60 44 44 44 43 43 43 43 43 43 42 42 42 56 56 56 55 55 55 54 54 54 53 53 53 53 53 53 38 38 38 52 52 52 52 52 52 52 52 52 51 51 51 38 38 38 39 39 39 39 39 39 38 38 38 37 37 37 50 50 50 48 48 48 47 47 47 46 46 46 45 45 45 35 35 35 18 18 18 53 53 53 54 54 54 55 55 55 65 65 65 53 53 53 53 53 53 54 54 54 54 54 54 64 64 64 68 68 68 58 58 58 69 69 69 59 59 59 65 65 65 69 69 69 59 59 59 59 59 59 69 69 69 59 59 59 65 65 65 55 55 55 64 64 64 64 64 64 55 55 55 69 69 69 69 69 69 
21 21 21 21 21 21 17 17 17 17 17 17 17 17 17 18 18 18 18 18 18 24 24 24 23 23 23 24 24 24 25 25 25 19 19 19 20 20 20 20 20 20 26 26 26 26 26 26 20 20 20 21 21 21 21 21 21 21 21 21 21 21 21 27 27 27 26 26 26 26 26 26 26 26 26 26 26 26 49 49 49 64 64 64 64 64 64 83 83 83 83 83 83 82 82 82 82 82 82 81 81 81 62 62 62 61 61 61 60 60 60 59 59 59 77 77 77 76 76 76 75 75 75 56 56 56 56 56 56 72 72 72 71 71 71 70 70 70 69 69 69 68 68 68 51 51 51 50 50 50 50 50 50 49 49 49 48 48 48 62 62 62 61 61 61 46 46 46 45 45 45 44 44 44 58 58 58 58 58 58 57 57 57 56 56 56 43 43 43 44 44 44 44 44 44 43 43 43 42 42 42 55 55 55 53 53 53 52 52 52 40 40 40 39 39 39 50 50 50 39 39 39 50 50 50 55 55 55 56 56 56 66 66 66 54 54 54 54 54 54 55 55 55 55 55 55 65 65 65 69 69 69 60 60 60 70 70 70 60 60 60 70 70 70 66 66 66 56 56 56 61 61 61 70 70 70 56 56 56 66 66 66 57 57 57 66 66 66 66 66 66 61 61 61 71 71 71 71 71 71 

