P3
50 25
255
60 60 60 58 58 58 57 57 57 56 56 56 55 55 55 53 53 53 53 53 53 50 50 50 49 49 49 48 48 48 47 47 47 46 46 46 54 54 54 53 53 53 55 55 55 53 53 53 52 52 52 55 55 55 57 57 57 57 57 57 53 53 53 53 53 53 55 55 55 48 48 48 43 43 43 43 43 43 42 42 42 43 43 43 43 43 43 42 42 42 50 50 50 53 53 53 49 49 49 50 50 50 51 51 51 61 61 61 62 62 62 61 61 61 62 62 62 63 63 63 54 54 54 55 55 55 58 58 58 59 59 59 60 60 60 60 60 60 58 58 58 58 58 58 45 45 45 55 55 55 
69 69 69 68 68 68 66 66 66 65 65 65 63 63 63 59 59 59 58 58 58 57 57 57 56 56 56 56 56 56 47 47 47 46 46 46 46 46 46 46 46 46 47 47 47 45 45 45 45 45 45 48 48 48 48 48 48 50 50 50 49 49 49 46 46 46 45 45 45 54 54 54 52 52 52 51 51 51 48 48 48 47 47 47 45 45 45 45 45 45 60 60 60 61 61 61 57 57 57 58 58 58 49 49 49 50 50 50 51 51 51 51 51 51 54 54 54 55 55 55 56 56 56 67 67 67 67 67 67 68 68 68 66 66 66 67 67 67 67 67 67 68 68 68 54 54 54 54 54 54 
58 58 58 58 58 58 55 55 55 54 54 54 52 52 52 51 51 51 50 50 50 57 57 57 56 56 56 55 55 55 54 54 54 53 53 53 54 54 54 55 55 55 53 53 53 53 53 53 52 52 52 54 54 54 54 54 54 56 56 56 56 56 56 52 52 52 52 52 52 45 45 45 45 45 45 45 45 45 44 44 44 44 44 44 43 43 43 40 40 40 50 50 50 51 51 51 47 47 47 50 50 50 60 60 60 61 61 61 62 62 62 63 63 63 64 64 64 64 64 64 65 65 65 64 64 64 65 65 65 56 56 56 56 56 56 57 57 57 60 60 60 60 60 60 44 44 44 44 44 44 
64 64 64 63 63 63 53 53 53 52 52 52 51 51 51 51 51 51 50 50 50 49 49 49 48 48 48 48 48 48 48 48 48 47 47 47 47 47 47 47 47 47 45 45 45 45 45 45 44 44 44 209 62 41 197 59 39 177 53 35 146 43 29 48 48 48 48 48 48 50 50 50 48 48 48 47 47 47 46 46 46 49 49 49 48 48 48 48 48 48 60 60 60 62 62 62 58 58 58 59 59 59 51 51 51 51 51 51 50 50 50 51 51 51 52 52 52 52 52 52 53 53 53 54 54 54 55 55 55 55 55 55 59 59 59 59 59 59 70 70 70 70 70 70 54 54 54 54 54 54 
63 63 63 62 62 62 61 61 61 60 60 60 59 59 59 58 58 58 57 57 57 58 58 58 57 57 57 56 56 56 55 55 55 54 54 54 55 55 55 53 53 53 233 70 46 245 73 49 239 72 48 228 69 46 212 64 43 193 58 38 171 51 34 145 43 29 111 33 22 53 53 53 45 45 45 41 41 41 40 40 40 40 40 40 39 39 39 39 39 39 50 50 50 51 51 51 47 47 47 48 48 48 58 58 58 58 58 58 59 59 59 60 60 60 61 61 61 64 64 64 65 65 65 65 65 65 66 66 66 67 67 67 68 68 68 68 68 68 69 69 69 69 69 69 54 54 54 54 54 54 
54 54 54 56 56 56 55 55 55 54 54 54 53 53 53 52 52 52 51 51 51 50 50 50 48 48 48 47 47 47 47 47 47 46 46 46 46 46 46 248 74 49 255 77 52 255 85 60 255 91 67 246 87 65 223 75 54 197 62 43 173 52 35 150 45 30 123 37 24 90 27 18 44 44 44 49 49 49 48 48 48 48 48 48 47 47 47 46 46 46 59 59 59 60 60 60 57 57 57 49 49 49 50 50 50 51 51 51 52 52 52 52 52 52 53 53 53 54 54 54 55 55 55 55 55 55 56 56 56 57 57 57 58 58 58 55 55 55 56 56 56 56 56 56 43 43 43 44 44 44 
64 64 64 63 63 63 62 62 62 61 61 61 69 59 58 115 71 64 101 72 68 71 53 51 53 46 45 50 44 44 54 54 54 53 53 53 242 72 48 255 78 53 255 95 70 255 120 96 255 130 107 255 118 96 236 93 73 200 69 50 170 53 36 146 44 29 122 36 24 94 28 18 58 17 11 47 47 47 46 46 46 45 45 45 44 44 44 43 43 43 58 58 58 58 58 58 62 60 59 68 64 64 57 57 57 58 58 58 59 59 59 59 59 59 60 60 60 61 61 61 62 62 62 62 62 62 63 63 63 64 64 64 64 64 64 65 65 65 65 65 65 65 65 65 53 53 53 53 53 53 
54 54 54 54 53 53 55 53 53 74 62 60 106 57 51 105 76 72 65 49 46 44 38 37 42 37 36 42 36 36 41 36 35 44 44 44 247 74 49 255 88 64 255 124 99 255 156 132 255 161 138 255 138 117 239 102 83 196 71 53 164 52 36 139 42 28 116 35 23 90 27 18 60 18 12 25 7 5 40 40 40 39 39 39 38 38 38 38 38 38 48 48 48 48 46 46 48 47 47 49 48 47 50 48 48 48 48 48 49 49 49 50 50 50 50 50 50 51 51 51 52 52 52 52 52 52 53 53 53 53 53 53 54 54 54 54 54 54 55 55 55 55 55 55 43 43 43 43 43 43 
51 51 51 50 50 50 59 49 48 55 48 47 90 57 52 68 50 47 45 38 37 42 37 36 49 44 43 49 44 43 48 43 42 225 67 45 241 74 50 255 98 74 255 137 113 255 163 141 255 160 139 255 132 112 223 95 77 182 66 49 152 48 33 129 39 26 107 32 21 83 24 16 54 16 10 25 7 5 48 48 48 47 47 47 44 44 44 43 43 43 55 54 54 17 17 33 23 23 38 20 20 32 24 24 32 59 59 59 60 60 60 60 60 60 61 61 61 62 62 62 63 63 63 63 63 63 55 55 55 55 55 55 56 56 56 56 56 56 54 54 54 43 43 43 43 43 43 43 43 43 
61 61 61 59 59 59 56 56 56 54 52 52 77 54 51 56 47 46 50 45 44 49 44 43 49 44 43 48 43 42 48 43 42 218 65 43 230 72 49 251 94 72 255 124 102 255 140 119 255 132 112 235 107 88 196 77 60 163 55 40 138 42 29 117 35 23 96 28 19 72 21 14 45 13 9 25 7 5 25 7 5 42 42 42 39 39 39 19 19 38 14 14 33 11 11 29 7 7 24 17 17 31 17 17 29 22 22 31 48 48 48 51 51 51 51 51 51 61 61 61 63 64 64 52 53 52 54 58 56 63 77 69 81 117 95 65 65 65 65 65 65 52 52 52 52 52 52 52 52 52 
60 60 60 53 53 53 58 61 59 56 55 55 53 53 53 42 37 36 42 36 36 43 53 47 97 219 146 94 213 142 74 167 111 204 61 40 213 66 45 225 80 59 238 97 76 238 103 84 222 95 77 195 77 60 167 58 43 142 45 31 122 37 24 103 31 20 83 24 16 60 18 12 33 10 6 25 7 5 25 7 5 42 42 42 10 3 21 19 19 40 1 1 21 2 2 20 2 2 19 6 6 21 12 12 24 19 19 29 18 18 24 64 64 64 61 61 61 62 62 62 51 52 52 42 43 43 44 48 46 45 49 46 60 82 69 55 55 55 55 55 55 42 42 42 42 42 42 42 42 42 
73 73 73 93 93 93 94 92 92 92 90 89 70 70 70 86 86 86 55 72 62 86 195 130 100 225 150 129 247 176 76 172 115 186 55 37 193 58 39 197 64 45 199 70 52 194 71 54 180 65 48 161 55 39 142 45 31 124 37 25 106 32 21 88 26 17 68 20 13 45 13 9 25 7 5 25 7 5 25 7 5 10 3 20 10 3 22 1 1 21 1 1 20 1 1 19 13 13 29 16 16 30 13 13 25 14 14 23 20 20 26 18 18 19 64 64 64 160 100 60 198 124 74 168 105 63 75 47 28 57 54 53 68 62 57 73 73 73 90 90 90 87 87 87 88 88 88 90 90 90 
64 64 64 83 83 83 81 81 81 89 83 82 69 104 156 101 152 228 77 116 175 72 163 109 84 190 127 79 177 118 61 138 92 163 49 32 171 51 34 171 52 35 168 53 36 161 51 36 150 47 33 136 42 28 121 36 24 106 31 21 89 26 17 71 21 14 51 15 10 29 8 5 25 7 5 25 7 5 25 7 5 10 3 20 10 3 21 1 1 20 64 64 82 1 1 18 21 21 36 17 17 30 15 15 26 18 18 26 15 15 21 26 26 27 57 57 57 177 110 66 214 141 93 163 102 61 89 55 33 222 99 123 176 78 97 48 44 45 50 45 46 54 54 54 57 57 57 57 57 57 
78 78 78 60 60 60 59 59 59 83 83 83 68 103 154 82 123 185 59 88 133 19 44 29 53 120 80 49 111 74 31 70 47 135 40 27 148 44 29 148 44 29 144 43 29 137 41 27 127 38 25 115 34 23 102 30 20 87 26 17 71 21 14 109 60 30 37 56 37 27 44 27 27 42 27 42 54 42 49 57 49 10 3 19 10 3 20 1 1 19 1 1 17 1 1 16 19 19 33 15 15 27 18 18 28 16 16 24 17 17 21 19 19 19 23 21 21 107 67 40 139 86 52 109 68 41 163 72 90 209 93 116 165 73 91 23 10 13 48 44 45 70 70 70 71 71 71 71 71 71 
82 82 82 81 81 81 80 80 80 78 78 78 63 63 63 17 26 40 10 15 23 17 19 18 17 19 18 10 23 15 13 18 15 88 26 17 120 36 24 124 37 24 121 36 24 114 34 22 105 31 21 94 28 18 81 24 16 67 20 13 155 93 62 39 59 39 2 21 2 4 21 4 6 21 6 31 43 31 50 59 50 16 21 31 9 2 17 15 15 31 15 15 30 0 0 13 15 15 27 13 13 24 26 17 24 15 15 20 14 14 17 21 21 21 26 25 25 110 110 110 93 89 87 17 14 12 11 10 9 95 42 52 52 23 28 6 3 3 82 82 82 77 77 77 65 65 65 65 65 65 
137 137 137 136 136 136 135 135 135 135 135 135 131 132 133 76 84 95 71 77 85 65 67 70 122 133 126 122 133 127 118 124 120 64 70 66 85 25 17 95 28 19 95 28 19 89 26 17 81 24 16 71 21 14 59 17 11 55 34 11 4 24 4 2 21 2 51 69 51 4 20 4 28 42 28 30 41 30 33 40 33 49 53 49 17 17 30 3 3 17 12 13 25 57 57 68 59 59 69 31 31 39 60 53 59 49 49 53 47 47 47 46 46 46 105 86 90 96 78 66 93 76 65 75 65 58 85 64 68 89 66 70 61 53 54 89 87 87 108 106 107 105 105 105 104 104 104 103 103 103 
86 86 86 86 86 86 86 86 86 85 85 85 141 141 141 157 174 200 151 166 189 138 159 146 145 175 157 144 174 156 139 163 149 75 88 80 139 139 139 58 17 11 64 19 12 61 18 12 55 16 11 45 13 9 33 10 6 100 47 20 2 20 2 4 21 4 2 18 2 2 16 2 35 46 35 44 53 44 39 45 39 29 32 29 20 20 24 7 6 6 7 7 17 52 52 61 35 35 42 32 32 38 32 32 36 52 52 54 50 50 50 50 50 50 32 32 32 82 54 36 83 57 39 104 84 71 174 129 138 183 138 147 146 116 122 94 92 92 109 108 108 106 106 106 68 68 68 68 68 68 
154 154 154 153 153 153 153 153 153 93 93 93 91 91 91 91 91 91 113 99 97 95 128 108 103 147 121 118 161 136 156 193 170 146 172 156 142 142 142 141 141 141 25 7 5 26 7 5 25 7 5 25 7 5 25 7 5 124 140 124 0 16 0 4 19 4 4 18 4 43 55 43 37 47 37 42 49 42 38 43 38 31 32 31 72 72 72 7 4 4 9 9 9 10 10 16 9 9 14 31 31 35 31 31 32 51 51 51 54 54 54 12 12 12 29 29 29 79 53 35 88 58 38 70 47 31 35 35 35 93 46 55 62 32 38 121 121 121 121 121 121 67 67 67 67 67 67 67 67 67 
159 159 159 156 156 156 93 93 93 93 93 93 93 93 93 91 91 91 152 152 152 151 151 151 171 221 191 172 222 192 105 149 123 89 114 99 90 90 90 90 90 90 89 89 89 29 29 29 25 7 5 25 7 5 25 7 5 140 153 140 143 156 143 0 12 0 0 11 0 33 42 33 31 38 31 72 81 81 53 55 53 109 109 109 118 118 118 10 7 7 10 7 7 7 7 7 7 7 9 7 7 7 31 31 31 32 32 32 12 12 12 30 30 30 34 34 34 33 33 33 41 41 41 37 37 37 39 39 39 39 39 39 38 38 38 121 121 121 125 125 125 118 118 118 73 73 73 72 72 72 
96 96 96 160 160 160 161 161 161 163 163 163 162 162 162 161 161 161 160 160 160 159 159 159 158 158 158 95 95 95 91 91 91 90 90 90 89 89 89 88 88 88 88 88 88 88 88 88 19 12 11 26 19 18 26 19 18 140 149 140 70 80 70 71 81 71 131 140 131 143 150 143 79 84 79 80 82 80 125 125 125 70 70 70 78 78 78 134 134 134 8 7 7 7 7 7 8 8 8 14 14 14 8 8 8 32 32 32 32 32 32 33 33 33 30 30 30 30 30 30 30 30 30 34 34 34 43 43 43 43 43 43 129 129 129 125 125 125 125 125 125 118 118 118 117 117 117 116 116 116 
168 168 168 167 167 167 166 166 166 166 166 166 162 162 162 162 162 162 160 160 160 159 159 159 158 158 158 94 94 94 160 160 160 158 158 158 157 157 157 156 156 156 145 137 136 144 137 136 143 136 135 142 135 134 81 73 72 80 73 72 125 132 125 68 74 68 125 130 125 124 128 124 134 136 134 131 131 131 131 131 131 83 83 83 34 34 34 22 22 22 22 22 22 19 19 19 19 19 19 19 19 19 20 20 20 25 25 25 30 30 30 29 29 29 33 33 33 34 34 34 85 85 85 80 80 80 80 80 80 81 81 81 134 134 134 83 83 83 78 78 78 77 77 77 77 77 77 72 72 72 
100 100 100 99 99 99 99 99 99 100 100 100 99 99 99 101 101 101 99 99 99 99 99 99 163 163 163 163 163 163 162 162 162 158 158 158 156 156 156 148 140 139 147 140 139 146 139 138 145 138 137 144 137 136 82 75 73 81 74 73 81 74 73 138 140 138 123 125 123 122 122 122 127 127 127 127 127 127 134 134 134 16 16 16 20 20 20 20 19 19 19 19 19 19 19 19 20 20 20 22 22 22 122 122 122 68 68 68 90 79 72 141 141 141 135 135 135 135 135 135 135 135 135 138 138 138 137 137 137 137 137 137 133 133 133 131 131 131 125 125 125 75 75 75 78 78 78 78 78 78 
106 106 106 104 104 104 104 104 104 103 103 103 103 103 103 99 99 99 98 98 98 97 97 97 162 162 162 162 162 162 161 161 161 163 163 163 161 161 161 149 142 141 149 141 140 148 141 140 147 140 139 146 139 138 83 75 74 82 75 74 82 74 73 19 12 11 163 163 163 163 163 163 63 63 63 25 25 25 33 33 33 20 17 18 12 10 10 13 12 11 13 12 11 11 11 11 12 12 12 69 69 69 85 85 85 69 69 69 68 68 68 85 85 85 88 88 88 141 141 141 137 137 137 137 137 137 135 135 135 139 139 139 139 139 139 137 137 137 131 131 131 126 126 126 125 125 125 75 75 75 
104 104 104 102 102 102 101 101 101 100 100 100 101 101 101 100 100 100 102 102 102 168 168 168 167 167 167 166 166 166 166 166 166 161 161 161 160 147 145 157 145 144 152 143 142 149 142 141 84 77 76 84 77 76 146 139 138 146 138 137 145 138 137 163 160 160 151 151 151 24 24 24 24 24 24 27 27 27 23 23 23 20 19 19 19 18 18 10 10 10 12 12 12 72 72 72 70 70 70 78 78 78 78 78 78 85 85 85 77 77 77 72 71 71 86 86 86 85 85 85 142 142 142 143 143 143 141 141 141 136 136 136 137 137 137 135 135 135 133 133 133 132 132 132 131 131 131 131 131 131 
104 104 104 107 107 107 105 105 105 105 105 105 105 105 105 104 104 104 168 168 168 98 98 98 97 97 97 97 97 97 96 96 96 99 99 99 106 85 82 102 84 81 98 82 80 93 80 79 88 79 77 84 77 76 84 77 76 147 140 139 170 170 170 190 190 190 183 183 183 191 191 191 157 157 157 143 143 143 143 143 143 141 141 141 132 130 129 131 130 130 71 71 71 69 69 69 80 80 81 80 80 80 79 79 79 86 86 86 84 84 84 72 72 72 90 90 90 90 90 90 85 85 85 86 86 86 140 140 140 142 142 142 143 143 143 141 141 141 131 131 131 130 130 130 130 130 130 133 133 133 

